<svg width="15" height="15" viewBox="0 0 15 15" fill="none" xmlns="http://www.w3.org/2000/svg">
<rect x="11" y="3" width="1" height="9" rx="0.5" fill="white"/>
<rect x="3" y="3" width="1" height="9" rx="0.5" fill="white"/>
<rect x="4" y="2" width="7" height="1" rx="0.5" fill="white"/>
<rect x="4" y="12" width="7" height="1" rx="0.5" fill="white"/>
<rect x="6" y="4" width="3" height="1" rx="0.5" fill="white"/>
<rect x="7" y="6" width="1" height="1" rx="0.5" fill="white"/>
<rect x="6" y="7" width="1" height="1" rx="0.5" fill="white"/>
<rect x="8" y="7" width="1" height="1" rx="0.5" fill="white"/>
<rect x="7" y="8" width="1" height="1" rx="0.5" fill="white"/>
<rect x="6" y="9" width="1" height="1" rx="0.5" fill="white"/>
<rect x="8" y="9" width="1" height="1" rx="0.5" fill="white"/>
<rect x="9" y="10" width="1" height="2" rx="0.5" fill="white"/>
<rect x="5" y="10" width="1" height="2" rx="0.5" fill="white"/>
</svg>
