<svg width="18" height="18" viewBox="0 0 18 18" fill="none" xmlns="http://www.w3.org/2000/svg">
<path d="M5.25488 2.19727C3.59806 2.19727 2.25481 3.54044 2.25488 5.19726V12.6973C2.25488 14.3541 3.59806 15.6973 5.25488 15.6973H12.7549C13.9189 15.6973 15.0049 14.6115 15.0049 13.4473L15.0019 12.575C15.9079 12.2418 16.5049 11.3981 16.5049 10.4473V7.44726C16.5049 6.49641 15.8884 5.62679 15.0094 5.33594L15.0049 4.44726C15.0049 3.28304 13.9189 2.19727 12.7549 2.19727H5.25488ZM5.25488 3.69727H12.7549C13.0909 3.69727 13.5049 4.11149 13.5049 4.44726V5.19726H11.2549C10.0121 5.19726 9.00488 6.20459 9.00488 7.44726V10.4473C9.00488 11.6899 10.0121 12.6973 11.2549 12.6973H13.5049V13.4473C13.5049 13.783 13.0909 14.1973 12.7549 14.1973H5.25488C4.42643 14.1973 3.75481 13.5257 3.75488 12.6973V5.19726C3.75488 4.36881 4.42643 3.69727 5.25488 3.69727ZM11.2549 6.69726H14.2549C14.6689 6.69726 15.0049 7.03304 15.0049 7.44726V10.4473C15.0049 10.8615 14.6689 11.1973 14.2549 11.1973H11.2549C10.8409 11.1973 10.5049 10.8615 10.5049 10.4473V7.44726C10.5049 7.03304 10.8409 6.69726 11.2549 6.69726ZM12.7549 8.19726C12.3409 8.19726 12.0049 8.53304 12.0049 8.94726C12.0049 9.36149 12.3409 9.69726 12.7549 9.69726C13.1689 9.69726 13.5049 9.36149 13.5049 8.94726C13.5049 8.53304 13.1689 8.19726 12.7549 8.19726Z" fill="white" fill-opacity="0.54"/>
</svg>
