<svg width="18" height="18" viewBox="0 0 18 18" fill="none" xmlns="http://www.w3.org/2000/svg">
<path d="M2.24902 4.57764C1.83502 4.57764 1.49902 4.91364 1.49902 5.32764C1.49902 5.74164 1.83502 6.07764 2.24902 6.07764C2.66302 6.07764 2.99902 5.74164 2.99902 5.32764C2.99902 4.91364 2.66302 4.57764 2.24902 4.57764ZM5.24902 4.57764C4.83502 4.57764 4.49902 4.91364 4.49902 5.32764C4.49902 5.74164 4.83502 6.07764 5.24902 6.07764H15.749C16.163 6.07764 16.499 5.74164 16.499 5.32764C16.499 4.91364 16.163 4.57764 15.749 4.57764H5.24902ZM2.24902 8.32764C1.83502 8.32764 1.49902 8.66364 1.49902 9.07764C1.49902 9.49164 1.83502 9.82764 2.24902 9.82764C2.66302 9.82764 2.99902 9.49164 2.99902 9.07764C2.99902 8.66364 2.66302 8.32764 2.24902 8.32764ZM5.24902 8.32764C4.83502 8.32764 4.49902 8.66364 4.49902 9.07764C4.49902 9.49164 4.83502 9.82764 5.24902 9.82764H15.749C16.163 9.82764 16.499 9.49164 16.499 9.07764C16.499 8.66364 16.163 8.32764 15.749 8.32764H5.24902ZM2.24902 12.0776C1.83502 12.0776 1.49902 12.4136 1.49902 12.8276C1.49902 13.2416 1.83502 13.5776 2.24902 13.5776C2.66302 13.5776 2.99902 13.2416 2.99902 12.8276C2.99902 12.4136 2.66302 12.0776 2.24902 12.0776ZM5.24902 12.0776C4.83502 12.0776 4.49902 12.4136 4.49902 12.8276C4.49902 13.2416 4.83502 13.5776 5.24902 13.5776H15.749C16.163 13.5776 16.499 13.2416 16.499 12.8276C16.499 12.4136 16.163 12.0776 15.749 12.0776H5.24902Z" fill="white" fill-opacity="0.8"/>
</svg>
