<svg width="24" height="24" viewBox="0 0 24 24" fill="none" xmlns="http://www.w3.org/2000/svg">
<path d="M20.9878 8.05658C20.7318 8.05658 20.4648 8.14259 20.2698 8.33758L16.9878 11.6186L15.7068 10.3376C15.3168 9.94758 14.6598 9.94758 14.2698 10.3376C13.8788 10.7286 13.8788 11.3846 14.2698 11.7756L16.2698 13.7756C16.6598 14.1656 17.3168 14.1656 17.7068 13.7756L21.7068 9.77557C22.0978 9.38457 22.0978 8.72858 21.7068 8.33758C21.5118 8.14259 21.2438 8.05658 20.9878 8.05658Z" fill="white" fill-opacity="0.98"/>
<path d="M8.5 2.92969C6.015 2.92969 4 4.94469 4 7.42969C4 9.91469 6.015 11.9297 8.5 11.9297C10.985 11.9297 13 9.91469 13 7.42969C13 4.94469 10.985 2.92969 8.5 2.92969ZM8.5 4.92969C9.881 4.92969 11 6.04869 11 7.42969C11 8.81069 9.881 9.92969 8.5 9.92969C7.119 9.92969 6 8.81069 6 7.42969C6 6.04869 7.119 4.92969 8.5 4.92969ZM5.06201 13.2737C3.22801 14.0307 2 15.8857 2 17.9297V19.9297C2 20.4817 2.448 20.9297 3 20.9297H14C14.552 20.9297 15 20.4817 15 19.9297V17.9297C15 15.9337 13.765 14.1237 11.938 13.3357C11.68 13.2247 11.381 13.2217 11.125 13.3357C10.24 13.7327 9.378 13.9297 8.5 13.9297C7.625 13.9297 6.75999 13.7217 5.84399 13.3047C5.59199 13.1897 5.31801 13.1677 5.06201 13.2737ZM5.44699 15.3197C6.39199 15.6777 7.531 15.9297 8.5 15.9297C9.461 15.9297 10.553 15.6947 11.479 15.3527C12.382 15.8667 13 16.8287 13 17.9297V18.9297H4V17.9297C4 16.7647 4.65599 15.7827 5.44699 15.3197Z" fill="white" fill-opacity="0.98"/>
</svg>
