<svg width="18" height="18" viewBox="0 0 18 18" fill="none" xmlns="http://www.w3.org/2000/svg">
<path d="M2.99805 2.26061C2.99805 1.84638 3.33405 1.51061 3.74805 1.51061C4.16205 1.51061 4.49805 1.84638 4.49805 2.26061V15.7606C4.49805 16.1748 4.16205 16.5106 3.74805 16.5106C3.33405 16.5106 2.99805 16.1748 2.99805 15.7606V2.26061ZM5.99805 9.01061C5.99805 8.59638 6.33405 8.26061 6.74805 8.26061H13.1696L10.9435 6.01061L11.9981 4.95588L15.5373 8.47151C15.8298 8.76446 15.8298 9.25676 15.5373 9.54963L11.9981 13.0653L10.9435 12.0106L13.1696 9.76061H6.74805C6.33405 9.76061 5.99805 9.42483 5.99805 9.01061Z" fill="white" fill-opacity="0.8"/>
</svg>
