<svg width="18" height="18" viewBox="0 0 18 18" fill="none" xmlns="http://www.w3.org/2000/svg">
<path d="M5.40039 1.2002C5.73152 1.20041 5.99989 1.46865 6 1.7998V5.40039C5.99979 5.73145 5.73145 5.99979 5.40039 6C5.06915 6 4.80002 5.73158 4.7998 5.40039V2.40039H1.7998C1.46852 2.40029 1.2002 2.13111 1.2002 1.7998C1.2003 1.46859 1.46859 1.2003 1.7998 1.2002C1.84709 0.916038 5.10282 1.2002 5.40039 1.2002Z" fill="#7D7F82"/>
<rect x="1.2002" y="6" width="1.2" height="6" rx="0.6" fill="#7D7F82"/>
<rect x="3.6001" y="2.40039" width="1.2" height="1.2" rx="0.6" fill="#7D7F82"/>
<rect x="2.3999" y="3.59961" width="1.2" height="2.4" rx="0.6" fill="#7D7F82"/>
<rect x="9.6001" y="1.2002" width="2.4" height="1.2" rx="0.6" fill="#7D7F82"/>
<rect x="12" y="2.40039" width="2.4" height="1.2" rx="0.6" fill="#7D7F82"/>
<rect x="14.3999" y="3.59961" width="1.2" height="2.4" rx="0.6" fill="#7D7F82"/>
<rect x="15.6001" y="6" width="1.2" height="6" rx="0.6" fill="#7D7F82"/>
<rect x="14.3999" y="12" width="1.2" height="2.4" rx="0.6" fill="#7D7F82"/>
<rect x="12" y="14.4004" width="2.4" height="1.2" rx="0.6" fill="#7D7F82"/>
<rect x="6" y="15.5996" width="6" height="1.2" rx="0.6" fill="#7D7F82"/>
<rect x="3.6001" y="14.4004" width="2.4" height="1.2" rx="0.6" fill="#7D7F82"/>
<rect x="2.3999" y="12" width="1.2" height="2.4" rx="0.6" fill="#7D7F82"/>
</svg>
