<svg width="18" height="18" viewBox="0 0 18 18" fill="none" xmlns="http://www.w3.org/2000/svg">
<path d="M7.13574 2.19727C5.68599 2.19727 4.51074 3.37252 4.51074 4.82227V13.0723C4.51074 14.522 5.68599 15.6973 7.13574 15.6973H10.8857C12.3355 15.6973 13.5107 14.522 13.5107 13.0723V4.82227C13.5107 3.37252 12.3355 2.19727 10.8857 2.19727H7.13574ZM7.13574 3.69727H10.8857C11.5067 3.69727 12.0107 4.20097 12.0107 4.82227V13.0723C12.0107 13.6936 11.5067 14.1973 10.8857 14.1973H7.13574C6.51474 14.1973 6.01074 13.6936 6.01074 13.0723V4.82227C6.01074 4.20097 6.51474 3.69727 7.13574 3.69727ZM2.89374 5.99414C2.50299 5.85682 2.07024 6.07214 1.93224 6.46289C1.65399 7.25527 1.51074 8.09092 1.51074 8.94727C1.51074 9.81044 1.65024 10.6572 1.93224 11.4551C2.07099 11.8455 2.50299 12.0387 2.89374 11.9004C3.28374 11.7621 3.50049 11.3533 3.36249 10.9629C3.13674 10.3253 3.01074 9.63922 3.01074 8.94727C3.01074 8.26079 3.11649 7.58827 3.33924 6.95512C3.47649 6.56429 3.28449 6.13147 2.89374 5.99414ZM15.1517 6.04102C14.7602 6.17647 14.5473 6.58709 14.6823 6.97852C14.899 7.60387 15.0107 8.27047 15.0107 8.94727C15.0107 9.64274 14.887 10.3225 14.659 10.9629C14.5202 11.3531 14.7377 11.7848 15.1277 11.9239C15.5185 12.0628 15.9497 11.8453 16.0892 11.4551C16.3742 10.6536 16.5107 9.81487 16.5107 8.94727C16.5107 8.10299 16.3592 7.26892 16.0892 6.48637C15.9535 6.09487 15.5425 5.90557 15.1517 6.04102ZM9.01074 11.9473C8.59674 11.9473 8.26074 12.283 8.26074 12.6973C8.26074 13.1115 8.59674 13.4473 9.01074 13.4473C9.42474 13.4473 9.76074 13.1115 9.76074 12.6973C9.76074 12.283 9.42474 11.9473 9.01074 11.9473Z" fill="white" fill-opacity="0.8"/>
</svg>
