<svg width="18" height="18" viewBox="0 0 18 18" fill="none" xmlns="http://www.w3.org/2000/svg">
<path d="M2.99902 2.24316C2.5848 2.24316 2.24902 2.57916 2.24902 2.99316V12.7432C2.24902 14.3999 3.5922 15.7432 5.24902 15.7432H14.999C15.413 15.7432 15.749 15.4072 15.749 14.9932C15.749 14.5792 15.413 14.2432 14.999 14.2432H5.24902C4.42057 14.2432 3.74902 13.5719 3.74902 12.7432V2.99316C3.74902 2.57916 3.41325 2.24316 2.99902 2.24316ZM10.499 3.74316V5.24316H13.1705L11.0848 7.32892C11.0173 7.39717 10.8065 7.49316 10.7098 7.49316H9.53827C9.04402 7.49316 8.43427 7.72942 8.08477 8.07892L5.45992 10.7039C5.16704 10.9972 5.16704 11.4892 5.45992 11.7824C5.60639 11.9287 5.8071 11.9932 5.99902 11.9932C6.19095 11.9932 6.39165 11.9287 6.53812 11.7824L9.16327 9.15741C9.23077 9.08916 9.44152 8.99316 9.53827 8.99316H10.7098C11.204 8.99316 11.8138 8.75691 12.1633 8.40741L14.249 6.32166V8.99316H15.749V4.49316C15.749 4.07916 15.413 3.74316 14.999 3.74316H10.499Z" fill="white" fill-opacity="0.8"/>
</svg>
