<svg width="24" height="24" viewBox="0 0 24 24" fill="none" xmlns="http://www.w3.org/2000/svg">
<path d="M6.99902 3.90625C4.23802 3.90625 1.99902 6.14525 1.99902 8.90625V9.90625C1.99902 11.0062 2.32903 12.2002 3.28003 13.2192C3.65703 13.6222 4.28303 13.6582 4.68703 13.2812C5.09003 12.9043 5.12602 12.2472 4.74902 11.8442C4.20902 11.2652 3.99902 10.5472 3.99902 9.90625V8.90625C3.99902 7.24925 5.34202 5.90625 6.99902 5.90625H12.999C14.656 5.90625 15.999 7.24925 15.999 8.90625V9.90625C15.999 11.5633 14.656 12.9062 12.999 12.9062H10.999C10.447 12.9062 9.99902 13.3542 9.99902 13.9062C9.99902 14.4583 10.447 14.9062 10.999 14.9062H12.999C15.76 14.9062 17.999 12.6672 17.999 9.90625V8.90625C17.999 6.14525 15.76 3.90625 12.999 3.90625H6.99902ZM10.999 8.90625C8.23802 8.90625 5.99902 11.1453 5.99902 13.9062V14.9062C5.99902 17.6672 8.23802 19.9062 10.999 19.9062H16.999C19.76 19.9062 21.999 17.6672 21.999 14.9062V13.9062C21.999 12.8062 21.669 11.6122 20.718 10.5942C20.341 10.1902 19.715 10.1543 19.311 10.5312C18.908 10.9082 18.872 11.5652 19.249 11.9692C19.789 12.5472 19.999 13.2653 19.999 13.9062V14.9062C19.999 16.5632 18.656 17.9062 16.999 17.9062H10.999C9.34202 17.9062 7.99902 16.5632 7.99902 14.9062V13.9062C7.99902 12.2493 9.34202 10.9062 10.999 10.9062H12.999C13.551 10.9062 13.999 10.4583 13.999 9.90625C13.999 9.35425 13.551 8.90625 12.999 8.90625H10.999Z" fill="white" fill-opacity="0.98"/>
</svg>
