<svg width="28" height="28" viewBox="0 0 28 28" fill="none" xmlns="http://www.w3.org/2000/svg">
<rect x="11.2002" y="5.6001" width="1.86667" height="1.86667" fill="white" fill-opacity="0.54"/>
<rect x="11.2002" y="7.4668" width="1.86667" height="1.86667" fill="white" fill-opacity="0.54"/>
<rect x="9.3335" y="7.4668" width="1.86667" height="1.86667" fill="white" fill-opacity="0.54"/>
<rect x="7.4668" y="7.4668" width="1.86667" height="1.86667" fill="white" fill-opacity="0.54"/>
<rect x="5.6001" y="7.4668" width="1.86667" height="1.86667" fill="white" fill-opacity="0.54"/>
<rect x="3.7334" y="11.2002" width="1.86667" height="1.86667" fill="white" fill-opacity="0.54"/>
<rect x="3.7334" y="11.2002" width="1.86667" height="1.86667" fill="white" fill-opacity="0.54"/>
<rect x="5.6001" y="9.3335" width="1.86667" height="1.86667" fill="white" fill-opacity="0.54"/>
<rect x="3.7334" y="13.0669" width="1.86667" height="1.86667" fill="white" fill-opacity="0.54"/>
<rect x="5.6001" y="13.0669" width="1.86667" height="1.86667" fill="white" fill-opacity="0.54"/>
<rect x="7.4668" y="13.0669" width="1.86667" height="1.86667" fill="white" fill-opacity="0.54"/>
<rect x="9.3335" y="14.9331" width="1.86667" height="1.86667" fill="white" fill-opacity="0.54"/>
<rect x="11.2002" y="16.7998" width="1.86667" height="1.86667" fill="white" fill-opacity="0.54"/>
<rect x="13.0669" y="18.6665" width="1.86667" height="1.86667" fill="white" fill-opacity="0.54"/>
<rect x="13.0669" y="20.5332" width="1.86667" height="1.86667" fill="white" fill-opacity="0.54"/>
<rect x="13.0669" y="22.3999" width="1.86667" height="1.86667" fill="white" fill-opacity="0.54"/>
<rect x="14.9331" y="22.3999" width="1.86667" height="1.86667" fill="white" fill-opacity="0.54"/>
<rect x="16.7998" y="20.5332" width="1.86667" height="1.86667" fill="white" fill-opacity="0.54"/>
<rect x="13.0669" y="3.7334" width="1.86667" height="1.86667" fill="white" fill-opacity="0.54"/>
<rect x="14.9331" y="3.7334" width="1.86667" height="1.86667" fill="white" fill-opacity="0.54"/>
<rect x="16.7998" y="3.7334" width="1.86667" height="1.86667" fill="white" fill-opacity="0.54"/>
<rect x="18.6665" y="1.8667" width="1.86667" height="1.86667" fill="white" fill-opacity="0.54"/>
<rect x="20.5332" y="1.8667" width="1.86667" height="1.86667" fill="white" fill-opacity="0.54"/>
<rect x="22.3999" y="1.8667" width="1.86667" height="1.86667" fill="white" fill-opacity="0.54"/>
<rect x="24.2666" y="3.7334" width="1.86667" height="1.86667" fill="white" fill-opacity="0.54"/>
<rect x="24.2666" y="5.6001" width="1.86667" height="1.86667" fill="white" fill-opacity="0.54"/>
<rect x="24.2666" y="7.4668" width="1.86667" height="1.86667" fill="white" fill-opacity="0.54"/>
<rect x="24.2666" y="1.8667" width="1.86667" height="1.86667" fill="white" fill-opacity="0.54"/>
<rect x="22.3999" y="9.3335" width="1.86667" height="1.86667" fill="white" fill-opacity="0.54"/>
<rect x="16.7998" y="7.4668" width="1.86667" height="1.86667" fill="white" fill-opacity="0.54"/>
<rect x="18.6665" y="9.3335" width="1.86667" height="1.86667" fill="white" fill-opacity="0.54"/>
<rect x="14.9331" y="9.3335" width="1.86667" height="1.86667" fill="white" fill-opacity="0.54"/>
<rect x="16.7998" y="11.2002" width="1.86667" height="1.86667" fill="white" fill-opacity="0.54"/>
<rect x="7.4668" y="18.6665" width="1.86667" height="1.86667" fill="white" fill-opacity="0.54"/>
<rect x="5.6001" y="18.6665" width="1.86667" height="1.86667" fill="white" fill-opacity="0.54"/>
<rect x="7.4668" y="20.5332" width="1.86667" height="1.86667" fill="white" fill-opacity="0.54"/>
<rect x="5.6001" y="22.3999" width="1.86667" height="1.86667" fill="white" fill-opacity="0.54"/>
<rect x="3.7334" y="22.3999" width="1.86667" height="1.86667" fill="white" fill-opacity="0.54"/>
<rect x="1.8667" y="24.2666" width="1.86667" height="1.86667" fill="white" fill-opacity="0.54"/>
<rect x="3.7334" y="20.5332" width="1.86667" height="1.86667" fill="white" fill-opacity="0.54"/>
<rect x="22.3999" y="11.2002" width="1.86667" height="1.86667" fill="white" fill-opacity="0.54"/>
<rect x="22.3999" y="13.0669" width="1.86667" height="1.86667" fill="white" fill-opacity="0.54"/>
<rect x="20.5332" y="14.9331" width="1.86667" height="1.86667" fill="white" fill-opacity="0.54"/>
<rect x="18.6665" y="14.9331" width="1.86667" height="1.86667" fill="white" fill-opacity="0.54"/>
<rect x="18.6665" y="18.6665" width="1.86667" height="1.86667" fill="white" fill-opacity="0.54"/>
<rect x="18.6665" y="20.5332" width="1.86667" height="1.86667" fill="white" fill-opacity="0.54"/>
<rect x="18.6665" y="16.7998" width="1.86667" height="1.86667" fill="white" fill-opacity="0.54"/>
</svg>
