<svg width="28" height="28" viewBox="0 0 28 28" fill="none" xmlns="http://www.w3.org/2000/svg">
<rect x="3.7334" y="11.2002" width="1.86667" height="1.86667" rx="0.933333" fill="#0B0C0E"/>
<path d="M12.1338 5.59961C12.649 5.59986 13.0663 6.01795 13.0664 6.5332V8.40039C13.0662 8.88353 12.6991 9.28044 12.2285 9.32812L12.1338 9.33301H7.4668V10.2666C7.4668 10.7821 7.04867 11.2002 6.5332 11.2002C6.0178 11.2001 5.59961 10.782 5.59961 10.2666V8.40039C5.59961 7.88497 6.0178 7.46687 6.5332 7.4668H11.2002V6.5332C11.2003 6.0178 11.6184 5.59961 12.1338 5.59961Z" fill="#0B0C0E"/>
<path d="M4.66699 11.2002C5.18231 11.2004 5.59961 11.6184 5.59961 12.1338V13.0664H8.40039C8.91568 13.0666 9.33301 13.4847 9.33301 14C9.33301 14.5153 8.91568 14.9334 8.40039 14.9336H4.66699C4.6348 14.9336 4.60264 14.9319 4.57129 14.9287C4.10062 14.8809 3.7334 14.4833 3.7334 14V12.1338C3.7334 11.6183 4.15153 11.2002 4.66699 11.2002Z" fill="#0B0C0E"/>
<rect x="9.3335" y="14.9331" width="1.86667" height="1.86667" rx="0.933333" fill="#0B0C0E"/>
<rect x="11.2002" y="16.7998" width="1.86667" height="1.86667" rx="0.933333" fill="#0B0C0E"/>
<path d="M14 18.667C14.5153 18.667 14.9334 19.0843 14.9336 19.5996V22.4004H15.8662C16.3816 22.4004 16.7996 22.8177 16.7998 23.333C16.7998 23.8485 16.3817 24.2666 15.8662 24.2666H14C13.9677 24.2666 13.9358 24.2649 13.9043 24.2617C13.4338 24.2138 13.0664 23.8162 13.0664 23.333V19.5996C13.0666 19.0843 13.4847 18.667 14 18.667Z" fill="#0B0C0E"/>
<rect x="13.0669" y="3.7334" width="5.6" height="1.86667" rx="0.933333" fill="#0B0C0E"/>
<path d="M25.2002 1.86621C25.2325 1.86622 25.2644 1.86789 25.2959 1.87109C25.7663 1.91908 26.1337 2.31679 26.1338 2.7998V8.40039C26.1336 8.91561 25.7154 9.3329 25.2002 9.33301C24.6849 9.33301 24.2668 8.91568 24.2666 8.40039V3.7334H19.5996C19.0843 3.73319 18.667 3.31514 18.667 2.7998C18.6671 2.28456 19.0844 1.86642 19.5996 1.86621H25.2002Z" fill="#0B0C0E"/>
<rect x="16.7998" y="7.4668" width="1.86667" height="1.86667" rx="0.933333" fill="#0B0C0E"/>
<rect x="18.6665" y="9.3335" width="1.86667" height="1.86667" rx="0.933333" fill="#0B0C0E"/>
<rect x="14.9331" y="9.3335" width="1.86667" height="1.86667" rx="0.933333" fill="#0B0C0E"/>
<rect x="16.7998" y="11.2002" width="1.86667" height="1.86667" rx="0.933333" fill="#0B0C0E"/>
<path d="M8.40039 18.667C8.91555 18.6672 9.3328 19.0845 9.33301 19.5996V21.4668C9.33294 21.9821 8.91563 22.4002 8.40039 22.4004C7.88497 22.4004 7.46687 21.9822 7.4668 21.4668V20.5332H6.5332C6.0178 20.5331 5.59961 20.115 5.59961 19.5996C5.59982 19.0844 6.01793 18.6671 6.5332 18.667H8.40039Z" fill="#0B0C0E"/>
<rect x="1.8667" y="24.2666" width="1.86667" height="1.86667" rx="0.933333" fill="#0B0C0E"/>
<path d="M4.66699 20.5332C5.18231 20.5334 5.59961 20.9514 5.59961 21.4668V22.4004H6.5332C7.04856 22.4004 7.46662 22.8177 7.4668 23.333C7.4668 23.8485 7.04867 24.2666 6.5332 24.2666H4.66699C4.15153 24.2666 3.7334 23.8485 3.7334 23.333V21.4668C3.7334 20.9513 4.15153 20.5332 4.66699 20.5332Z" fill="#0B0C0E"/>
<rect x="22.3999" y="9.3335" width="1.86667" height="5.6" rx="0.933333" fill="#0B0C0E"/>
<path d="M21.4668 14.9336C21.9821 14.9337 22.4001 15.351 22.4004 15.8662C22.4004 16.3816 21.9822 16.7997 21.4668 16.7998H20.5332V21.4668C20.5331 21.95 20.166 22.3478 19.6953 22.3955L19.5996 22.4004H17.7334C17.218 22.4004 16.7999 21.9822 16.7998 21.4668C16.7998 20.9513 17.2179 20.5332 17.7334 20.5332H18.667V15.8662C18.6672 15.3511 19.0845 14.9338 19.5996 14.9336H21.4668Z" fill="#0B0C0E"/>
</svg>
