<svg width="24" height="24" viewBox="0 0 24 24" fill="none" xmlns="http://www.w3.org/2000/svg">
<path d="M5.65005 10.025L7.60005 10.85C7.83338 10.3833 8.07505 9.93332 8.32505 9.49998C8.57505 9.06665 8.85005 8.63332 9.15005 8.19998L7.75005 7.92498L5.65005 10.025ZM9.20005 12.1L12.05 14.925C12.75 14.6583 13.5 14.25 14.3 13.7C15.1 13.15 15.85 12.525 16.55 11.825C17.7167 10.6583 18.6292 9.36248 19.2875 7.93748C19.9459 6.51248 20.2334 5.19998 20.15 3.99998C18.95 3.91665 17.6334 4.20415 16.2 4.86248C14.7667 5.52082 13.4667 6.43332 12.3 7.59998C11.6 8.29998 10.975 9.04998 10.425 9.84998C9.87505 10.65 9.46672 11.4 9.20005 12.1ZM13.65 10.475C13.2667 10.0917 13.075 9.62082 13.075 9.06248C13.075 8.50415 13.2667 8.03332 13.65 7.64998C14.0334 7.26665 14.5084 7.07498 15.075 7.07498C15.6417 7.07498 16.1167 7.26665 16.5 7.64998C16.8834 8.03332 17.075 8.50415 17.075 9.06248C17.075 9.62082 16.8834 10.0917 16.5 10.475C16.1167 10.8583 15.6417 11.05 15.075 11.05C14.5084 11.05 14.0334 10.8583 13.65 10.475ZM14.125 18.5L16.225 16.4L15.95 15C15.5167 15.3 15.0834 15.5708 14.65 15.8125C14.2167 16.0542 13.7667 16.2917 13.3 16.525L14.125 18.5ZM21.95 2.17498C22.2667 4.19165 22.0709 6.15415 21.3625 8.06248C20.6542 9.97082 19.4334 11.7916 17.7 13.525L18.2 16C18.2667 16.3333 18.25 16.6583 18.15 16.975C18.05 17.2917 17.8834 17.5667 17.65 17.8L13.45 22L11.35 17.075L7.07505 12.8L2.15005 10.7L6.32505 6.49998C6.55838 6.26665 6.83755 6.09998 7.16255 5.99998C7.48755 5.89998 7.81672 5.88332 8.15005 5.94998L10.625 6.44998C12.3584 4.71665 14.175 3.49165 16.075 2.77498C17.975 2.05832 19.9334 1.85832 21.95 2.17498ZM3.92505 15.975C4.50838 15.3917 5.22088 15.0958 6.06255 15.0875C6.90422 15.0792 7.61672 15.3667 8.20005 15.95C8.78338 16.5333 9.07088 17.2458 9.06255 18.0875C9.05422 18.9292 8.75838 19.6417 8.17505 20.225C7.75838 20.6417 7.06255 21 6.08755 21.3C5.11255 21.6 3.76672 21.8667 2.05005 22.1C2.28338 20.3833 2.55005 19.0375 2.85005 18.0625C3.15005 17.0875 3.50838 16.3917 3.92505 15.975ZM5.35005 17.375C5.18338 17.5417 5.01672 17.8458 4.85005 18.2875C4.68338 18.7292 4.56672 19.175 4.50005 19.625C4.95005 19.5583 5.39588 19.4458 5.83755 19.2875C6.27922 19.1292 6.58338 18.9667 6.75005 18.8C6.95005 18.6 7.05838 18.3583 7.07505 18.075C7.09172 17.7917 7.00005 17.55 6.80005 17.35C6.60005 17.15 6.35838 17.0542 6.07505 17.0625C5.79172 17.0708 5.55005 17.175 5.35005 17.375Z" fill="white"/>
</svg>
