<svg width="18" height="18" viewBox="0 0 18 18" fill="none" xmlns="http://www.w3.org/2000/svg">
<path d="M6 1.5C6.41421 1.5 6.75 1.83579 6.75 2.25V3.75H7.5C7.91421 3.75 8.25 4.08579 8.25 4.5V13.5C8.25 13.9142 7.91421 14.25 7.5 14.25H6.75V15.75C6.75 16.1642 6.41421 16.5 6 16.5C5.58579 16.5 5.25 16.1642 5.25 15.75V14.25H4.5C4.08579 14.25 3.75 13.9142 3.75 13.5V4.5C3.75 4.08579 4.08579 3.75 4.5 3.75H5.25V2.25C5.25 1.83579 5.58579 1.5 6 1.5ZM13.5 6C13.9142 6 14.25 6.33579 14.25 6.75V13.5C14.25 13.9142 13.9142 14.25 13.5 14.25H12.75V15.75C12.75 16.1642 12.4142 16.5 12 16.5C11.5858 16.5 11.25 16.1642 11.25 15.75V14.25H10.5C10.0858 14.25 9.75 13.9142 9.75 13.5V6.75C9.75 6.33579 10.0858 6 10.5 6H11.25V4.5C11.25 4.08579 11.5858 3.75 12 3.75C12.4142 3.75 12.75 4.08579 12.75 4.5V6H13.5ZM5.25 12.75H6.75V5.25H5.25V12.75ZM11.25 12.75H12.75V7.5H11.25V12.75Z" fill="white" fill-opacity="0.8"/>
</svg>
