<svg width="18" height="18" viewBox="0 0 18 18" fill="none" xmlns="http://www.w3.org/2000/svg">
<rect x="7.19995" y="2.40039" width="3.6" height="1.2" rx="0.5" fill="#7D7F82"/>
<rect x="4.80005" y="3.59961" width="2.4" height="1.2" rx="0.5" fill="#7D7F82"/>
<rect x="10.8" y="3.59961" width="2.4" height="1.2" rx="0.5" fill="#7D7F82"/>
<rect x="4.80005" y="13.2002" width="2.4" height="1.2" rx="0.5" fill="#7D7F82"/>
<rect x="10.8" y="13.2002" width="2.4" height="1.2" rx="0.5" fill="#7D7F82"/>
<path d="M4.2998 4.7998C4.57588 4.7998 4.7997 5.02375 4.7998 5.2998V6H6.7002C6.97625 6.00011 7.2002 6.22392 7.2002 6.5V6.7002C7.20009 6.97618 6.97618 7.20009 6.7002 7.2002H4.7998V9.59961H6.7002C6.97612 9.59971 7.19998 9.82371 7.2002 10.0996V10.2998C7.2002 10.5759 6.97625 10.7997 6.7002 10.7998H4.7998V12.7002C4.7997 12.9762 4.57588 13.2002 4.2998 13.2002H4.09961C3.82371 13.2 3.59971 12.9761 3.59961 12.7002V5.2998C3.59971 5.02388 3.82371 4.80002 4.09961 4.7998H4.2998Z" fill="#7D7F82"/>
<rect x="7.19995" y="7.2002" width="3.6" height="1.2" rx="0.5" fill="#7D7F82"/>
<rect x="7.19995" y="10.7998" width="3.6" height="1.2" rx="0.5" fill="#7D7F82"/>
<rect x="7.19995" y="14.4004" width="3.6" height="1.2" rx="0.5" fill="#7D7F82"/>
<path d="M13.9004 4.7998C14.1763 4.80002 14.4003 5.02388 14.4004 5.2998V12.7002C14.4003 12.9761 14.1763 13.2 13.9004 13.2002H13.7002C13.4241 13.2002 13.2003 12.9762 13.2002 12.7002V10.7998H11.2998C11.0238 10.7997 10.7998 10.5759 10.7998 10.2998V10.0996C10.8 9.82371 11.0239 9.59971 11.2998 9.59961H13.2002V7.2002H11.2998C11.0238 7.20009 10.7999 6.97618 10.7998 6.7002V6.5C10.7998 6.22392 11.0238 6.00011 11.2998 6H13.2002V5.2998C13.2003 5.02375 13.4241 4.7998 13.7002 4.7998H13.9004Z" fill="#7D7F82"/>
</svg>
