<svg width="24" height="24" viewBox="0 0 24 24" fill="none" xmlns="http://www.w3.org/2000/svg">
<path d="M2 20V4H22V20H2ZM4 18H20V6H4V18ZM8 17H10V16H11C11.2833 16 11.5208 15.9042 11.7125 15.7125C11.9042 15.5208 12 15.2833 12 15V12C12 11.7167 11.9042 11.4792 11.7125 11.2875C11.5208 11.0958 11.2833 11 11 11H8V10H12V8H10V7H8V8H7C6.71667 8 6.47917 8.09583 6.2875 8.2875C6.09583 8.47917 6 8.71667 6 9V12C6 12.2833 6.09583 12.5208 6.2875 12.7125C6.47917 12.9042 6.71667 13 7 13H10V14H6V16H8V17ZM16 16.25L18 14.25H14L16 16.25ZM14 10H18L16 8L14 10Z" fill="white"/>
</svg>
