<svg width="24" height="24" viewBox="0 0 24 24" fill="none" xmlns="http://www.w3.org/2000/svg">
<path d="M4.99804 3.99805C4.44605 3.99805 3.99805 4.44605 3.99805 4.99805C3.99805 5.24805 3.99805 6.74805 3.99805 6.99805C3.99805 7.55005 4.44605 7.99805 4.99804 7.99805H6.99804C7.55004 7.99805 7.99804 7.55005 7.99804 6.99805V4.99805C7.99804 4.44605 7.55004 3.99805 6.99804 3.99805H4.99804ZM10.998 3.99805C10.446 3.99805 9.99804 4.44605 9.99804 4.99805C9.99804 5.24805 9.99804 6.74805 9.99804 6.99805C9.99804 7.55005 10.446 7.99805 10.998 7.99805H12.998C13.55 7.99805 13.998 7.55005 13.998 6.99805V4.99805C13.998 4.44605 13.55 3.99805 12.998 3.99805H10.998ZM16.998 3.99805C16.446 3.99805 15.998 4.44605 15.998 4.99805C15.998 5.24805 15.998 6.74805 15.998 6.99805C15.998 7.55005 16.446 7.99805 16.998 7.99805H18.998C19.55 7.99805 19.998 7.55005 19.998 6.99805V4.99805C19.998 4.44605 19.55 3.99805 18.998 3.99805H16.998ZM4.99804 9.99805C4.44605 9.99805 3.99805 10.446 3.99805 10.998C3.99805 11.248 3.99805 12.748 3.99805 12.998C3.99805 13.55 4.44605 13.998 4.99804 13.998H6.99804C7.55004 13.998 7.99804 13.55 7.99804 12.998V10.998C7.99804 10.446 7.55004 9.99805 6.99804 9.99805H4.99804ZM10.998 9.99805C10.446 9.99805 9.99804 10.446 9.99804 10.998C9.99804 11.248 9.99804 12.748 9.99804 12.998C9.99804 13.55 10.446 13.998 10.998 13.998H12.998C13.55 13.998 13.998 13.55 13.998 12.998V10.998C13.998 10.446 13.55 9.99805 12.998 9.99805H10.998ZM16.998 9.99805C16.446 9.99805 15.998 10.446 15.998 10.998C15.998 11.248 15.998 12.748 15.998 12.998C15.998 13.55 16.446 13.998 16.998 13.998H18.998C19.55 13.998 19.998 13.55 19.998 12.998V10.998C19.998 10.446 19.55 9.99805 18.998 9.99805H16.998ZM4.99804 15.998C4.44605 15.998 3.99805 16.446 3.99805 16.998C3.99805 17.248 3.99805 18.748 3.99805 18.998C3.99805 19.55 4.44605 19.998 4.99804 19.998H6.99804C7.55004 19.998 7.99804 19.55 7.99804 18.998V16.998C7.99804 16.446 7.55004 15.998 6.99804 15.998H4.99804ZM10.998 15.998C10.446 15.998 9.99804 16.446 9.99804 16.998C9.99804 17.248 9.99804 18.748 9.99804 18.998C9.99804 19.55 10.446 19.998 10.998 19.998H12.998C13.55 19.998 13.998 19.55 13.998 18.998V16.998C13.998 16.446 13.55 15.998 12.998 15.998H10.998ZM16.998 15.998C16.446 15.998 15.998 16.446 15.998 16.998C15.998 17.248 15.998 18.748 15.998 18.998C15.998 19.55 16.446 19.998 16.998 19.998H18.998C19.55 19.998 19.998 19.55 19.998 18.998V16.998C19.998 16.446 19.55 15.998 18.998 15.998H16.998Z" fill="white" fill-opacity="0.54"/>
</svg>
