<svg width="18" height="18" viewBox="0 0 18 18" fill="none" xmlns="http://www.w3.org/2000/svg">
<rect x="8.3999" y="2.3999" width="1.2" height="1.2" fill="white" fill-opacity="0.8"/>
<rect x="4.7998" y="4.80005" width="1.2" height="1.2" fill="white" fill-opacity="0.8"/>
<rect x="2.3999" y="8.3999" width="1.2" height="1.2" fill="white" fill-opacity="0.8"/>
<rect x="8.3999" y="6" width="1.2" height="1.2" fill="white" fill-opacity="0.8"/>
<rect x="8.3999" y="7.19995" width="1.2" height="1.2" fill="white" fill-opacity="0.8"/>
<rect x="8.3999" y="8.3999" width="1.2" height="1.2" fill="white" fill-opacity="0.8"/>
<rect x="7.2002" y="8.3999" width="1.2" height="1.2" fill="white" fill-opacity="0.8"/>
<rect x="7.2002" y="9.6001" width="1.2" height="1.2" fill="white" fill-opacity="0.8"/>
<rect x="7.2002" y="7.19995" width="1.2" height="1.2" fill="white" fill-opacity="0.8"/>
<rect x="6" y="8.3999" width="1.2" height="1.2" fill="white" fill-opacity="0.8"/>
<rect x="9.6001" y="8.3999" width="1.2" height="1.2" fill="white" fill-opacity="0.8"/>
<rect x="9.6001" y="9.6001" width="1.2" height="1.2" fill="white" fill-opacity="0.8"/>
<rect x="9.6001" y="7.19995" width="1.2" height="1.2" fill="white" fill-opacity="0.8"/>
<rect x="10.7998" y="8.3999" width="1.2" height="1.2" fill="white" fill-opacity="0.8"/>
<rect x="8.3999" y="9.6001" width="1.2" height="1.2" fill="white" fill-opacity="0.8"/>
<rect x="8.3999" y="10.8" width="1.2" height="1.2" fill="white" fill-opacity="0.8"/>
<rect x="8.3999" y="14.3999" width="1.2" height="1.2" fill="white" fill-opacity="0.8"/>
<rect x="12" y="12" width="1.2" height="1.2" fill="white" fill-opacity="0.8"/>
<rect x="14.3999" y="8.3999" width="1.2" height="1.2" fill="white" fill-opacity="0.8"/>
<rect x="12" y="4.80005" width="1.2" height="1.2" fill="white" fill-opacity="0.8"/>
<rect x="4.7998" y="12" width="1.2" height="1.2" fill="white" fill-opacity="0.8"/>
<rect x="8.3999" y="4.80005" width="1.2" height="1.2" fill="white" fill-opacity="0.8"/>
<rect x="4.7998" y="8.3999" width="1.2" height="1.2" fill="white" fill-opacity="0.8"/>
<rect x="12" y="8.3999" width="1.2" height="1.2" fill="white" fill-opacity="0.8"/>
<rect x="8.3999" y="12" width="1.2" height="1.2" fill="white" fill-opacity="0.8"/>
</svg>
