<svg width="18" height="18" viewBox="0 0 18 18" fill="none" xmlns="http://www.w3.org/2000/svg">
<rect x="8.3999" y="2.40039" width="1.2" height="1.2" rx="0.6" fill="#A5A7AA"/>
<rect x="4.80005" y="4.7998" width="1.2" height="1.2" rx="0.6" fill="#A5A7AA"/>
<rect x="2.3999" y="8.40039" width="1.2" height="1.2" rx="0.6" fill="#A5A7AA"/>
<path d="M10.2002 7.2002C10.5314 7.2003 10.7997 7.46859 10.7998 7.7998V10.2002C10.7997 10.49 10.5945 10.732 10.3213 10.7881L10.2002 10.7998H7.7998C7.51005 10.7997 7.26796 10.5945 7.21191 10.3213L7.2002 10.2002V7.7998C7.2003 7.46859 7.46859 7.2003 7.7998 7.2002H10.2002ZM8.40039 9.59961H9.59961V8.40039H8.40039V9.59961Z" fill="#A5A7AA"/>
<rect x="8.3999" y="14.4004" width="1.2" height="1.2" rx="0.6" fill="#A5A7AA"/>
<rect x="12" y="12" width="1.2" height="1.2" rx="0.6" fill="#A5A7AA"/>
<rect x="14.3999" y="8.40039" width="1.2" height="1.2" rx="0.6" fill="#A5A7AA"/>
<rect x="12" y="4.7998" width="1.2" height="1.2" rx="0.6" fill="#A5A7AA"/>
<rect x="4.80005" y="12" width="1.2" height="1.2" rx="0.6" fill="#A5A7AA"/>
<rect x="8.3999" y="4.7998" width="1.2" height="2.4" rx="0.6" fill="#A5A7AA"/>
<rect x="4.80005" y="8.40039" width="2.4" height="1.2" rx="0.6" fill="#A5A7AA"/>
<rect x="10.8" y="8.40039" width="2.4" height="1.2" rx="0.6" fill="#A5A7AA"/>
<rect x="8.3999" y="10.7998" width="1.2" height="2.4" rx="0.6" fill="#A5A7AA"/>
</svg>
