<svg width="18" height="18" viewBox="0 0 18 18" fill="none" xmlns="http://www.w3.org/2000/svg">
<path d="M9.00586 2.24316C7.46536 2.24316 5.99386 2.75992 4.81036 3.69666C4.48561 3.95316 4.43611 4.42641 4.69336 4.75116C4.95061 5.07591 5.42311 5.12541 5.74786 4.86816C6.66811 4.13991 7.80661 3.74316 9.00586 3.74316C11.9054 3.74316 14.2559 6.09366 14.2559 8.99316H12.7559L15.0059 11.9932L17.2559 8.99316H15.7559C15.7559 5.26491 12.7341 2.24316 9.00586 2.24316ZM3.00586 5.99316L0.755859 8.99316H2.25586C2.25586 12.7214 5.27761 15.7431 9.00586 15.7431C10.5471 15.7431 12.0179 15.2271 13.2014 14.2896C13.5261 14.0331 13.5756 13.5599 13.3184 13.2352C13.0611 12.9104 12.5886 12.8609 12.2639 13.1182C11.3429 13.8471 10.2059 14.2431 9.00586 14.2431C6.10636 14.2431 3.75586 11.8927 3.75586 8.99316H5.25586L3.00586 5.99316Z" fill="white" fill-opacity="0.98"/>
</svg>
