<svg width="18" height="18" viewBox="0 0 18 18" fill="none" xmlns="http://www.w3.org/2000/svg">
<path d="M4.49805 2.2431C3.2553 2.2431 2.24805 3.25035 2.24805 4.49311V5.99311C2.24805 7.23586 3.2553 8.24311 4.49805 8.24311H13.498C14.7408 8.24311 15.748 7.23586 15.748 5.99311V4.49311C15.748 3.25035 14.7408 2.2431 13.498 2.2431H4.49805ZM4.49805 3.7431H13.498C13.912 3.7431 14.248 4.07911 14.248 4.49311V5.99311C14.248 6.40711 13.912 6.74311 13.498 6.74311H4.49805C4.08405 6.74311 3.74805 6.40711 3.74805 5.99311V4.49311C3.74805 4.07911 4.08405 3.7431 4.49805 3.7431ZM5.24805 4.49311C4.83405 4.49311 4.49805 4.82911 4.49805 5.24311C4.49805 5.65711 4.83405 5.99311 5.24805 5.99311C5.66205 5.99311 5.99804 5.65711 5.99804 5.24311C5.99804 4.82911 5.66205 4.49311 5.24805 4.49311ZM7.49804 4.49311C7.08404 4.49311 6.74804 4.82911 6.74804 5.24311C6.74804 5.65711 7.08404 5.99311 7.49804 5.99311C7.91204 5.99311 8.24804 5.65711 8.24804 5.24311C8.24804 4.82911 7.91204 4.49311 7.49804 4.49311ZM4.49805 9.74311C3.2553 9.74311 2.24805 10.7504 2.24805 11.9931V13.4931C2.24805 14.7359 3.2553 15.7431 4.49805 15.7431H13.498C14.7408 15.7431 15.748 14.7359 15.748 13.4931V11.9931C15.748 10.7504 14.7408 9.74311 13.498 9.74311H4.49805ZM4.49805 11.2431H13.498C13.912 11.2431 14.248 11.5791 14.248 11.9931V13.4931C14.248 13.9071 13.912 14.2431 13.498 14.2431H4.49805C4.08405 14.2431 3.74805 13.9071 3.74805 13.4931V11.9931C3.74805 11.5791 4.08405 11.2431 4.49805 11.2431ZM5.24805 11.9931C4.83405 11.9931 4.49805 12.3291 4.49805 12.7431C4.49805 13.1571 4.83405 13.4931 5.24805 13.4931C5.66205 13.4931 5.99804 13.1571 5.99804 12.7431C5.99804 12.3291 5.66205 11.9931 5.24805 11.9931ZM7.49804 11.9931C7.08404 11.9931 6.74804 12.3291 6.74804 12.7431C6.74804 13.1571 7.08404 13.4931 7.49804 13.4931C7.91204 13.4931 8.24804 13.1571 8.24804 12.7431C8.24804 12.3291 7.91204 11.9931 7.49804 11.9931Z" fill="#2FF582"/>
</svg>
