<svg width="24" height="24" viewBox="0 0 24 24" fill="none" xmlns="http://www.w3.org/2000/svg">
<path d="M7.58984 1.99902C5.63794 1.99902 4.02734 3.47902 4.02734 5.34302V18.655C4.02734 20.519 5.63794 21.999 7.58984 21.999H16.4648C18.4167 21.999 20.0273 20.519 20.0273 18.655C20.0273 18.004 20.0273 10.857 20.0273 8.99902C20.0273 8.98902 20.0276 8.97802 20.0273 8.96802C20.0273 5.40502 16.5879 1.99902 13.0273 1.99902C8.81304 1.99902 8.80364 1.99902 7.58984 1.99902ZM7.58984 3.99902C8.58034 3.99902 9.70094 3.99902 12.0273 3.99902V6.65503C12.0273 8.51903 13.6379 9.99902 15.5898 9.99902H18.0273C18.0273 12.536 18.0273 18.071 18.0273 18.655C18.0273 19.369 17.3532 19.999 16.4648 19.999H7.58984C6.70144 19.999 6.02734 19.369 6.02734 18.655V5.34302C6.02734 4.62902 6.70144 3.99902 7.58984 3.99902ZM14.0273 4.24902C15.799 4.71902 17.3494 6.23202 17.8085 7.99902H15.5898C14.7002 7.99902 14.0273 7.36903 14.0273 6.65503V4.24902Z" fill="white" fill-opacity="0.98"/>
</svg>
