<svg width="14" height="14" viewBox="0 0 14 14" fill="none" xmlns="http://www.w3.org/2000/svg">
<path d="M7.01469 1.42407C6.68166 1.42396 6.34158 1.63116 6.14016 2.04357L4.90121 4.59431L2.07718 4.99512C1.16899 5.12147 0.874755 6.01246 1.5306 6.65296L3.57116 8.63921L3.09749 11.427C2.9415 12.3294 3.68998 12.8748 4.50041 12.4472C4.81354 12.2815 6.4236 11.4474 7.01469 11.1353L9.52897 12.4472C10.3403 12.8748 11.0911 12.33 10.9319 11.427L10.44 8.63921L12.4806 6.65296C13.1395 6.01479 12.8604 5.12404 11.9522 4.99512L9.10997 4.59431L7.88922 2.04357C7.68809 1.63098 7.34771 1.42425 7.01469 1.42407ZM7.01469 2.93631L8.21717 5.39599C8.30199 5.57 8.46281 5.67856 8.65444 5.70574L11.3874 6.10637L9.40146 8.01971C9.26245 8.15446 9.20388 8.33937 9.23748 8.52954L9.71121 11.2263L7.28798 9.95113C7.11776 9.86129 6.91156 9.86129 6.7414 9.95113C6.43906 10.1104 4.96136 10.8868 4.31817 11.2263L4.7737 8.54821C4.80631 8.35863 4.74698 8.15387 4.60972 8.01971L2.64196 6.10637L5.35668 5.72394C5.54883 5.69722 5.72704 5.57029 5.81221 5.39599L7.01469 2.93631Z" fill="white" fill-opacity="0.36"/>
</svg>
