<svg width="18" height="18" viewBox="0 0 18 18" fill="none" xmlns="http://www.w3.org/2000/svg">
<path d="M6.14138 16.4885C8.10713 16.376 8.75813 14.8985 8.99588 14.2288C9.35288 13.223 8.99138 11.2333 8.99138 11.2333L13.2109 11.2318C13.9601 11.2318 14.9839 10.5568 14.9981 9.57579C15.0094 8.78979 14.6321 8.28804 14.2676 7.88529C14.8939 7.32804 14.9981 6.74829 14.9981 6.14529C14.9981 5.53254 14.6681 4.90029 14.2211 4.48029C14.2436 3.11829 13.5446 2.22428 12.3206 1.81628C11.5106 1.54553 10.7711 1.48779 8.99513 1.48779C5.58338 1.48779 3.04914 4.03179 2.99889 7.48779C2.97639 9.06354 3.40463 10.4795 4.25663 12.0425C5.40863 14.1545 5.25113 15.233 5.25788 15.752C5.26238 16.1368 5.62388 16.5178 6.14138 16.4885Z" fill="#E93E71"/>
</svg>
