<svg width="24" height="24" viewBox="0 0 24 24" fill="none" xmlns="http://www.w3.org/2000/svg">
<path d="M11.9902 2.92981C11.4382 2.92981 10.9902 3.37781 10.9902 3.92981V10.9298H3.99023C3.43823 10.9298 2.99023 11.3778 2.99023 11.9298C2.99023 12.4818 3.43823 12.9298 3.99023 12.9298H10.9902V19.9298C10.9902 20.4818 11.4382 20.9298 11.9902 20.9298C12.5422 20.9298 12.9902 20.4818 12.9902 19.9298V12.9298H19.9902C20.5422 12.9298 20.9902 12.4818 20.9902 11.9298C20.9902 11.3778 20.5422 10.9298 19.9902 10.9298H12.9902V3.92981C12.9902 3.37781 12.5422 2.92981 11.9902 2.92981Z" fill="white" fill-opacity="0.8"/>
</svg>
