<svg width="24" height="25" viewBox="0 0 24 25" fill="none" xmlns="http://www.w3.org/2000/svg">
<path d="M0 13.4893C0 12.937 0.447715 12.4893 1 12.4893H2V14.4893H1C0.447715 14.4893 0 14.0415 0 13.4893Z" fill="#2FF582"/>
<path fill-rule="evenodd" clip-rule="evenodd" d="M9 3.48926C8.44772 3.48926 8 3.93697 8 4.48926C8 5.04154 8.44772 5.48926 9 5.48926H11V6.48926H6C3.79086 6.48926 2 8.28012 2 10.4893V17.4893C2 19.6984 3.79086 21.4893 6 21.4893H18C20.2091 21.4893 22 19.6984 22 17.4893V14.4893H23C23.5523 14.4893 24 14.0415 24 13.4893C24 12.937 23.5523 12.4893 23 12.4893H22V10.4893C22 8.28012 20.2091 6.48926 18 6.48926H13V4.48926C13 3.93697 12.5523 3.48926 12 3.48926H9ZM20 10.4893C20 9.38469 19.1046 8.48926 18 8.48926H6C4.89543 8.48926 4 9.38469 4 10.4893V17.4893C4 18.5938 4.89543 19.4893 6 19.4893H18C19.1046 19.4893 20 18.5938 20 17.4893V10.4893ZM9.5 11.4893C8.672 11.4883 8 12.1613 8 12.9893C8 13.8173 8.672 14.4893 9.5 14.4893C9.636 14.4893 9.83801 14.4723 10.031 14.3953C9.90701 14.9023 9.687 15.2813 9.375 15.6453C9.195 15.8553 9.22799 16.1843 9.43799 16.3643C9.64699 16.5443 9.953 16.5183 10.125 16.3013C10.914 15.3083 11.227 14.3302 11 12.9272C10.848 11.9872 10.232 11.4903 9.5 11.4893ZM14.5 11.4893C13.672 11.4883 13 12.1613 13 12.9893C13 13.8173 13.672 14.4893 14.5 14.4893C14.636 14.4893 14.838 14.4723 15.031 14.3953C14.907 14.9023 14.687 15.2813 14.375 15.6453C14.195 15.8553 14.228 16.1843 14.438 16.3643C14.647 16.5443 14.953 16.5183 15.125 16.3013C15.914 15.3083 16.227 14.3302 16 12.9272C15.848 11.9872 15.232 11.4903 14.5 11.4893Z" fill="#2FF582"/>
</svg>
