<svg width="18" height="18" viewBox="0 0 18 18" fill="none" xmlns="http://www.w3.org/2000/svg">
<path fill-rule="evenodd" clip-rule="evenodd" d="M2.24805 5.24316C2.24805 3.58641 3.59122 2.24316 5.24805 2.24316H9.74804C11.4049 2.24316 12.748 3.58641 12.748 5.24316C14.4049 5.24316 15.748 6.58641 15.748 8.24316V12.7432C15.748 14.3999 14.4049 15.7432 12.748 15.7432H8.24804C6.59122 15.7432 5.24805 14.3999 5.24805 12.7432C3.59122 12.7432 2.24805 11.3999 2.24805 9.74316V5.24316ZM14.248 8.24316C14.248 7.41441 13.5765 6.74316 12.748 6.74316V9.74316C12.748 11.3999 11.4049 12.7432 9.74804 12.7432H6.74805C6.74805 13.5719 7.4196 14.2432 8.24804 14.2432H12.748C13.5765 14.2432 14.248 13.5719 14.248 12.7432V8.24316ZM5.24951 3.75012C4.42108 3.75012 3.74951 4.42169 3.74951 5.25012V9.75012C3.74951 10.5785 4.42108 11.2501 5.24951 11.2501H9.74951C10.5779 11.2501 11.2495 10.5785 11.2495 9.75012V5.25012C11.2495 4.42169 10.5779 3.75012 9.74951 3.75012H5.24951Z" fill="white" fill-opacity="0.8"/>
</svg>
