<svg width="24" height="24" viewBox="0 0 24 24" fill="none" xmlns="http://www.w3.org/2000/svg">
<path fill-rule="evenodd" clip-rule="evenodd" d="M13 2.99976V3.99976C14.2241 3.99976 15.3455 4.43968 16.2147 5.17005L14.7916 6.59322C14.2916 6.22043 13.6716 5.99976 13 5.99976H11C9.34315 5.99976 8 7.3429 8 8.99976V13.3848L4 17.3848V16.9998C4 16.4475 4.47452 16.0205 4.95897 15.7553C5.57933 15.4157 6 14.7569 6 13.9998V8.99976C6 6.23833 8.23858 3.99976 11 3.99976V2.99976C11 2.44747 11.4477 1.99976 12 1.99976C12.5523 1.99976 13 2.44747 13 2.99976ZM13 19H11.3284L11.0417 19.2867C11.165 19.6993 11.5474 20 12 20C12.5523 20 13 19.5523 13 19ZM15 18.9998H19C19.5523 18.9998 20 18.552 20 17.9998V16.9998C20 16.4475 19.5255 16.0205 19.041 15.7553C18.4207 15.4157 18 14.7569 18 13.9998V9.04163L16 11.0416V13.9998C16 15.1964 16.5259 16.2684 17.3546 16.9998H10.0419L8.04187 18.9998H9V19C9 20.6569 10.3431 22 12 22C13.6569 22 15 20.6569 15 19V18.9998Z" fill="white" fill-opacity="0.2"/>
<rect x="2.80762" y="20" width="24" height="2" rx="1" transform="rotate(-45 2.80762 20)" fill="white" fill-opacity="0.2"/>
</svg>
