<svg width="24" height="24" viewBox="0 0 24 24" fill="none" xmlns="http://www.w3.org/2000/svg">
<path d="M4.02968 8.60296C5.35968 8.14096 19.4827 3.31897 20.2027 3.06997C20.4827 2.97297 20.7637 2.91797 21.0217 2.93197C21.2577 2.94497 21.4747 3.01597 21.6557 3.16497C21.9207 3.38297 22.0047 3.65196 22.0117 3.93996C22.0187 4.20396 21.9617 4.48496 21.9197 4.75896C21.7537 5.85096 20.1697 18.144 20.0397 18.961C19.8867 19.927 19.2377 20.947 18.0417 20.928C17.4337 20.918 16.9687 20.778 16.2297 20.046C15.1087 18.935 12.6957 16.374 11.6027 15.152C11.0597 14.544 11.1047 13.701 11.5267 13.217C11.8007 12.903 13.9397 10.812 14.9297 9.76198C15.1467 9.53198 15.0177 9.18297 14.8987 9.06197C14.7837 8.94497 14.4597 8.86696 14.2657 9.02196C12.8877 10.123 10.1057 12.201 9.73669 12.448C9.29069 12.747 8.60068 12.868 8.02468 12.755C7.44868 12.642 3.17568 11.906 3.17568 11.906C2.74068 11.826 2.01969 11.35 2.01369 10.401C2.00869 9.40796 2.91868 8.98896 4.02968 8.60296Z" fill="black" fill-opacity="0.88"/>
</svg>
