<svg width="22" height="24" viewBox="0 0 22 24" fill="none" xmlns="http://www.w3.org/2000/svg">
<path d="M10.9974 1.95325C9.98448 1.95325 9.16406 2.84824 9.16406 3.95324H4.58073C4.07473 3.95324 3.66406 4.40124 3.66406 4.95324C3.66406 5.50524 4.07473 5.95323 4.58073 5.95323V17.9532C4.58073 20.1432 6.23531 21.9532 8.24739 21.9532H13.7474C15.7595 21.9532 17.4141 20.1482 17.4141 17.9532V5.95323C17.9201 5.95323 18.3307 5.50524 18.3307 4.95324C18.3307 4.40124 17.9201 3.95324 17.4141 3.95324H12.8307C12.8307 2.84824 12.0103 1.95325 10.9974 1.95325ZM6.41406 5.95323H15.5807V17.9532C15.5807 19.0502 14.7649 19.9532 13.7758 19.9532L8.24739 19.9222C7.23723 19.9222 6.41406 19.0322 6.41406 17.9532V5.95323ZM9.16406 7.95323C8.65806 7.95323 8.24739 8.40123 8.24739 8.95323V16.9532C8.24739 17.5052 8.65806 17.9532 9.16406 17.9532C9.67006 17.9532 10.0807 17.5052 10.0807 16.9532V8.95323C10.0807 8.40123 9.67006 7.95323 9.16406 7.95323ZM12.8307 7.95323C12.3247 7.95323 11.9141 8.40123 11.9141 8.95323V16.9532C11.9141 17.5052 12.3247 17.9532 12.8307 17.9532C13.3367 17.9532 13.7474 17.5052 13.7474 16.9532V8.95323C13.7474 8.40123 13.3367 7.95323 12.8307 7.95323Z" fill="white" fill-opacity="0.8"/>
</svg>
