<svg width="14" height="14" viewBox="0 0 14 14" fill="none" xmlns="http://www.w3.org/2000/svg">
<path d="M2.91241 2.27881C2.76313 2.27881 2.60703 2.32898 2.49311 2.44273C2.26532 2.67081 2.26532 3.05347 2.49311 3.28156L6.1572 6.94547L2.49311 10.6094C2.26532 10.8375 2.26532 11.2201 2.49311 11.4482C2.72096 11.6757 3.10386 11.6757 3.33171 11.4482L6.99574 7.78431L10.6598 11.4482C10.8876 11.6757 11.2705 11.6757 11.4984 11.4482C11.7262 11.2201 11.7262 10.8375 11.4984 10.6094L7.83428 6.94547L11.4984 3.28156C11.7262 3.05347 11.7262 2.67081 11.4984 2.44273C11.3845 2.32898 11.2283 2.27881 11.0791 2.27881C10.9298 2.27881 10.7738 2.32898 10.6598 2.44273L6.99574 6.10664L3.33171 2.44273C3.21778 2.32898 3.06168 2.27881 2.91241 2.27881Z" fill="white" fill-opacity="0.54"/>
</svg>
