<svg width="18" height="18" viewBox="0 0 18 18" fill="none" xmlns="http://www.w3.org/2000/svg">
<path d="M12.748 1.46484C11.5053 1.46484 10.498 2.47209 10.498 3.71484C10.498 3.90759 10.5288 4.1476 10.5745 4.3261L6.55979 7.12809C6.20054 6.88509 5.71379 6.71484 5.24804 6.71484C4.0053 6.71484 2.99805 7.72209 2.99805 8.96484C2.99805 10.2076 4.0053 11.2148 5.24804 11.2148C5.72204 11.2148 6.19005 11.0386 6.55305 10.7888L10.576 13.6133C10.5265 13.7986 10.498 14.0138 10.498 14.2148C10.498 15.4576 11.5053 16.4648 12.748 16.4648C13.9908 16.4648 14.998 15.4576 14.998 14.2148C14.998 12.9721 13.9908 11.9648 12.748 11.9648C12.274 11.9648 11.812 12.1359 11.4498 12.3864L7.41629 9.5641C7.46504 9.37885 7.49804 9.16584 7.49804 8.96484C7.49804 8.76384 7.46954 8.5471 7.42004 8.36185L11.4438 5.54784C11.803 5.79009 12.2823 5.96484 12.748 5.96484C13.9908 5.96484 14.998 4.95759 14.998 3.71484C14.998 2.47209 13.9908 1.46484 12.748 1.46484Z" fill="white" fill-opacity="0.8"/>
</svg>
