<svg width="24" height="24" viewBox="0 0 24 24" fill="none" xmlns="http://www.w3.org/2000/svg">
<path opacity="0.986784" d="M16.998 1.95312C16.733 1.95312 16.4671 2.04713 16.2791 2.23413C14.7791 3.73413 14.7791 3.73413 14.2791 4.23413L7.27905 11.2341C7.09205 11.4221 6.99805 11.6881 6.99805 11.9531V15.9531C6.99805 16.5051 7.44605 16.9531 7.99805 16.9531C8.49805 16.9531 11.498 16.9531 11.998 16.9531C12.263 16.9531 12.529 16.8591 12.717 16.6721L19.717 9.67212C20.217 9.17212 20.217 9.17212 21.717 7.67212C21.904 7.48412 21.998 7.21812 21.998 6.95312C21.998 5.31712 21.581 4.14814 20.717 3.26514C19.844 2.37514 18.679 1.95312 16.998 1.95312ZM6.99805 2.95312C4.78905 2.95312 2.99805 4.74412 2.99805 6.95312V16.9531C2.99805 19.1621 4.78905 20.9531 6.99805 20.9531H16.998C19.207 20.9531 20.998 19.1621 20.998 16.9531V12.9531C20.998 12.4011 20.55 11.9531 19.998 11.9531C19.446 11.9531 18.998 12.4011 18.998 12.9531V16.9531C18.998 18.0581 18.103 18.9531 16.998 18.9531H6.99805C5.89305 18.9531 4.99805 18.0581 4.99805 16.9531V6.95312C4.99805 5.84812 5.89305 4.95312 6.99805 4.95312H10.998C11.55 4.95312 11.998 4.50513 11.998 3.95312C11.998 3.40112 11.55 2.95312 10.998 2.95312H6.99805ZM17.405 3.97211C18.307 4.02511 18.8781 4.23111 19.2791 4.64111C19.6891 5.05911 19.925 5.69013 19.98 6.57513C19.491 7.06413 19.188 7.35414 19.002 7.54114C18.209 6.74914 17.203 5.75211 16.411 4.95911C16.598 4.77211 16.916 4.46111 17.405 3.97211ZM15 6.37915L17.5851 8.95715L11.56 14.9531C10.928 14.9531 9.91905 14.9531 8.99805 14.9531V12.3911L15 6.37915Z" fill="white" fill-opacity="0.8"/>
</svg>
