<svg width="18" height="18" viewBox="0 0 18 18" fill="none" xmlns="http://www.w3.org/2000/svg">
<path d="M5.99805 1.51074C8.0301 1.51074 9.28777 2.04849 9.72465 3.54999C9.82305 3.88823 9.86655 4.26473 9.88867 4.67498C9.91215 5.11073 9.89287 5.54874 9.8502 5.99799L12.748 6.01074C13.9907 6.01074 14.998 7.01799 14.998 8.26073C14.998 8.80973 14.7583 9.33997 14.3936 9.74347C14.7792 10.1477 14.998 10.6585 14.998 11.2607C14.998 11.8742 14.6807 12.4705 14.2333 12.8905C14.2333 13.0742 14.248 13.3937 14.248 13.5107C14.248 14.89 13.5507 15.7742 12.3262 16.1822C11.5155 16.453 10.7755 16.5107 8.99805 16.5107C5.58382 16.5107 2.99805 13.9247 2.99805 10.5107C2.99805 8.80598 3.30202 7.83999 4.1934 6.05725C4.98952 4.465 5.24805 3.68124 5.24805 2.26074C5.24805 1.84674 5.58382 1.51074 5.99805 1.51074ZM6.72142 3.04148C6.61672 4.23923 6.27345 5.27273 5.5527 6.71423C4.75657 8.30647 4.49805 9.09023 4.49805 10.5107C4.49805 13.0967 6.41227 15.0107 8.99805 15.0107C11.9608 15.0107 12.748 14.7482 12.748 13.5107C12.6328 13.5107 12.0923 13.5107 11.998 13.5107C11.5838 13.5107 11.248 13.1747 11.248 12.7607C11.248 12.3467 11.5838 12.0107 11.998 12.0107C12.0923 12.0107 12.6328 12.0107 12.748 12.0107C13.0901 12.0107 13.498 11.6057 13.498 11.2607C13.498 10.8467 13.1623 10.5107 12.748 10.5107C12.6373 10.5107 12.0921 10.5107 11.998 10.5107C11.5838 10.5107 11.248 10.1747 11.248 9.76073C11.248 9.34673 11.5838 9.01073 11.998 9.01073C12.0921 9.01073 12.6373 9.01073 12.748 9.01073C13.096 9.01073 13.498 8.61398 13.498 8.26073C13.498 7.84673 13.1623 7.51073 12.748 7.51073H8.99805C8.96377 7.51073 8.65972 7.50848 8.41215 7.20623C8.1645 6.90323 8.2683 6.63624 8.27145 6.61974C8.28757 6.53724 8.3154 6.38723 8.3418 6.17498C8.4012 5.69723 8.41252 5.21123 8.38867 4.76873C8.37232 4.46498 8.33467 4.18899 8.27145 3.97149C8.11312 3.42699 7.65262 3.09173 6.72142 3.04148Z" fill="white" fill-opacity="0.98"/>
</svg>
