<svg width="18" height="18" viewBox="0 0 18 18" fill="none" xmlns="http://www.w3.org/2000/svg">
<path d="M5.99805 16.5107C8.0298 16.5107 9.28755 15.973 9.7248 14.4715C9.82305 14.1332 9.86655 13.7567 9.88905 13.3465C9.9123 12.9107 9.8928 12.4727 9.85005 12.0235L12.748 12.0107C13.9908 12.0107 14.998 11.0035 14.998 9.76073C14.998 9.21173 14.758 8.68149 14.3935 8.27799C14.779 7.87374 14.998 7.36298 14.998 6.76074C14.998 6.14724 14.6808 5.55098 14.233 5.13098C14.233 4.94723 14.248 4.62774 14.248 4.51074C14.248 3.13149 13.5505 2.24723 12.3265 1.83923C11.5158 1.56848 10.7755 1.51074 8.99804 1.51074C5.58382 1.51074 2.99805 4.09674 2.99805 7.51073C2.99805 9.21548 3.30202 10.1815 4.1934 11.9642C4.98952 13.5565 5.24805 14.3402 5.24805 15.7607C5.24805 16.1747 5.58382 16.5107 5.99805 16.5107ZM6.72142 14.98C6.61672 13.7822 6.27344 12.7487 5.55269 11.3072C4.75657 9.71499 4.49805 8.93123 4.49805 7.51073C4.49805 4.92474 6.41227 3.01074 8.99804 3.01074C11.9605 3.01074 12.748 3.27324 12.748 4.51074C12.6325 4.51074 12.0925 4.51074 11.998 4.51074C11.584 4.51074 11.248 4.84674 11.248 5.26074C11.248 5.67474 11.584 6.01074 11.998 6.01074C12.0925 6.01074 12.6325 6.01074 12.748 6.01074C13.09 6.01074 13.498 6.41574 13.498 6.76074C13.498 7.17474 13.162 7.51073 12.748 7.51073C12.637 7.51073 12.0918 7.51073 11.998 7.51073C11.584 7.51073 11.248 7.84673 11.248 8.26073C11.248 8.67473 11.584 9.01073 11.998 9.01073C12.0918 9.01073 12.637 9.01073 12.748 9.01073C13.096 9.01073 13.498 9.40748 13.498 9.76073C13.498 10.1747 13.162 10.5107 12.748 10.5107H8.99804C8.96354 10.5107 8.6598 10.513 8.4123 10.8152C8.1648 11.1182 8.26829 11.3852 8.27129 11.4017C8.28779 11.4842 8.31555 11.6342 8.34179 11.8465C8.40105 12.3242 8.4123 12.8102 8.38905 13.2527C8.37255 13.5565 8.33429 13.8325 8.27129 14.05C8.11304 14.5945 7.65255 14.9297 6.72142 14.98Z" fill="white" fill-opacity="0.98"/>
</svg>
