<svg width="24" height="24" viewBox="0 0 24 24" fill="none" xmlns="http://www.w3.org/2000/svg">
<path fill-rule="evenodd" clip-rule="evenodd" d="M11 3.99976V2.99976C11 2.44747 11.4477 1.99976 12 1.99976C12.5523 1.99976 13 2.44747 13 2.99976V3.99976L11 3.99976ZM11 3.99977C8.23858 3.99977 6 6.23835 6 8.99977V13.9998C6 14.7569 5.57933 15.4157 4.95897 15.7553C4.47452 16.0205 4 16.4475 4 16.9998V17.9998C4 18.5521 4.44772 18.9998 5 18.9998H9V19C9 20.6569 10.3431 22 12 22C13.6569 22 15 20.6569 15 19V18.9998H19C19.5523 18.9998 20 18.5521 20 17.9998V16.9998C20 16.4475 19.5255 16.0205 19.041 15.7553C18.4207 15.4157 18 14.7569 18 13.9998V8.99977C18 6.23835 15.7614 3.99977 13 3.99977H11ZM12 20C11.4477 20 11 19.5523 11 19L13 19C13 19.5523 12.5523 20 12 20Z" fill="#2FF582"/>
</svg>
