<svg width="25" height="24" viewBox="0 0 25 24" fill="none" xmlns="http://www.w3.org/2000/svg">
<path d="M12.75 2C7.227 2 2.75 6.477 2.75 12C2.75 17.523 7.227 22 12.75 22C18.273 22 22.75 17.523 22.75 12C22.75 6.477 18.273 2 12.75 2ZM12.75 4C17.168 4 20.75 7.582 20.75 12C20.75 16.418 17.168 20 12.75 20C8.332 20 4.75 16.418 4.75 12C4.75 7.582 8.332 4 12.75 4ZM9.75 8C9.494 8 9.22701 8.08601 9.03101 8.28101C8.64101 8.67201 8.64101 9.32799 9.03101 9.71899L11.312 12L9.03101 14.281C8.64101 14.672 8.64101 15.328 9.03101 15.719C9.42201 16.109 10.078 16.109 10.469 15.719L12.75 13.438L15.031 15.719C15.422 16.109 16.078 16.109 16.469 15.719C16.859 15.328 16.859 14.672 16.469 14.281L14.188 12L16.469 9.71899C16.859 9.32799 16.859 8.67201 16.469 8.28101C16.273 8.08601 16.006 8 15.75 8C15.494 8 15.227 8.08601 15.031 8.28101L12.75 10.562L10.469 8.28101C10.273 8.08601 10.006 8 9.75 8Z" fill="white" fill-opacity="0.8"/>
</svg>
