<svg width="18" height="18" viewBox="0 0 18 18" fill="none" xmlns="http://www.w3.org/2000/svg">
<path d="M6.14114 1.51233C8.10666 1.62483 8.75804 3.10232 8.99571 3.77207C9.35249 4.77782 8.99136 6.76756 8.99136 6.76756L13.2108 6.76905C13.9603 6.76905 14.9839 7.44405 14.9978 8.42505C15.0089 9.21105 14.6322 9.7128 14.2677 10.1155C14.8935 10.6728 14.9978 11.2525 14.9978 11.8555C14.9978 12.4683 14.668 13.1005 14.221 13.5205C14.2435 14.8825 13.5445 15.7765 12.3208 16.1845C11.5107 16.4553 10.7713 16.513 8.99489 16.513C5.58299 16.513 3.04881 13.969 2.99886 10.513C2.97614 8.9373 3.40431 7.5213 4.25669 5.9583C5.40884 3.84631 5.25134 2.76782 5.25779 2.24882C5.26251 1.86407 5.62349 1.48308 6.14114 1.51233Z" fill="#2FF582"/>
</svg>
