<svg width="14" height="14" viewBox="0 0 14 14" fill="none" xmlns="http://www.w3.org/2000/svg">
<path fill-rule="evenodd" clip-rule="evenodd" d="M1.17578 6.99934C1.17578 3.7776 3.78748 1.16602 7.00912 1.16602C10.2309 1.16602 12.8424 3.7776 12.8424 6.99934C12.8424 10.2211 10.2309 12.8327 7.00912 12.8327C3.78748 12.8327 1.17578 10.2211 1.17578 6.99934ZM9.90897 4.26539C10.0415 4.13896 10.223 4.08332 10.3969 4.08332C10.5709 4.08332 10.7524 4.13896 10.8849 4.26539C11.1506 4.51818 11.1506 4.94306 10.8849 5.19585L6.13036 9.72706C5.86531 9.97986 5.41949 9.97986 5.15444 9.72706L3.11631 7.78511C2.85126 7.53232 2.85126 7.10737 3.11631 6.85464C3.38203 6.60185 3.82785 6.60185 4.0929 6.85464L5.6424 8.3313L9.90897 4.26539Z" fill="#2FF582"/>
</svg>
