<svg width="25" height="24" viewBox="0 0 25 24" fill="none" xmlns="http://www.w3.org/2000/svg">
<path d="M17.25 21C19.459 21 21.25 19.209 21.25 17L21.25 7C21.25 4.791 19.459 3 17.25 3L7.25 3C5.041 3 3.25 4.791 3.25 7L3.25 17C3.25 19.209 5.041 21 7.25 21L17.25 21ZM17.25 19L7.25 19C6.145 19 5.25 18.105 5.25 17L5.25 7C5.25 5.895 6.145 5 7.25 5L17.25 5C18.355 5 19.25 5.895 19.25 7L19.25 17C19.25 18.105 18.355 19 17.25 19ZM12.25 17C12.802 17 13.25 16.552 13.25 16L13.25 11C13.25 10.448 12.802 10 12.25 10C11.698 10 11.25 10.448 11.25 11L11.25 16C11.25 16.552 11.698 17 12.25 17ZM12.25 9C12.802 9 13.25 8.552 13.25 8C13.25 7.448 12.802 7 12.25 7C11.698 7 11.25 7.448 11.25 8C11.25 8.552 11.698 9 12.25 9Z" fill="white" fill-opacity="0.8"/>
</svg>
