<svg width="18" height="18" viewBox="0 0 18 18" fill="none" xmlns="http://www.w3.org/2000/svg">
<path d="M5.24805 2.24316C3.59122 2.24316 2.24805 3.58641 2.24805 5.24316V9.74316C2.24805 11.3999 3.59122 12.7432 5.24805 12.7432C5.24805 14.3999 6.59122 15.7432 8.24804 15.7432H12.748C14.4049 15.7432 15.748 14.3999 15.748 12.7432V8.24316C15.748 6.58641 14.4049 5.24316 12.748 5.24316C12.748 3.58641 11.4049 2.24316 9.74804 2.24316H5.24805ZM12.748 6.74316C13.5765 6.74316 14.248 7.41441 14.248 8.24316V12.7432C14.248 13.5719 13.5765 14.2432 12.748 14.2432H8.24804C7.4196 14.2432 6.74805 13.5719 6.74805 12.7432H9.74804C11.4049 12.7432 12.748 11.3999 12.748 9.74316V6.74316Z" fill="white" fill-opacity="0.98"/>
</svg>
