<svg width="24" height="24" viewBox="0 0 24 24" fill="none" xmlns="http://www.w3.org/2000/svg">
<path d="M0 13C0 12.4477 0.447715 12 1 12H2V14H1C0.447715 14 0 13.5523 0 13Z" fill="#2FF582"/>
<path fill-rule="evenodd" clip-rule="evenodd" d="M9 3C8.44772 3 8 3.44772 8 4C8 4.55228 8.44772 5 9 5H11V6H6C3.79086 6 2 7.79086 2 10V17C2 19.2091 3.79086 21 6 21H18C20.2091 21 22 19.2091 22 17V14H23C23.5523 14 24 13.5523 24 13C24 12.4477 23.5523 12 23 12H22V10C22 7.79086 20.2091 6 18 6H13V4C13 3.44772 12.5523 3 12 3H9ZM20 10C20 8.89543 19.1046 8 18 8H6C4.89543 8 4 8.89543 4 10V17C4 18.1046 4.89543 19 6 19H18C19.1046 19 20 18.1046 20 17V10ZM9.5 11C8.672 10.999 8 11.672 8 12.5C8 13.328 8.672 14 9.5 14C9.636 14 9.83801 13.983 10.031 13.906C9.90701 14.413 9.687 14.792 9.375 15.156C9.195 15.366 9.22799 15.695 9.43799 15.875C9.64699 16.055 9.953 16.029 10.125 15.812C10.914 14.819 11.227 13.841 11 12.438C10.848 11.498 10.232 11.001 9.5 11ZM14.5 11C13.672 10.999 13 11.672 13 12.5C13 13.328 13.672 14 14.5 14C14.636 14 14.838 13.983 15.031 13.906C14.907 14.413 14.687 14.792 14.375 15.156C14.195 15.366 14.228 15.695 14.438 15.875C14.647 16.055 14.953 16.029 15.125 15.812C15.914 14.819 16.227 13.841 16 12.438C15.848 11.498 15.232 11.001 14.5 11Z" fill="#2FF582"/>
</svg>
