<svg width="28" height="28" viewBox="0 0 28 28" fill="none" xmlns="http://www.w3.org/2000/svg">
<path d="M13.9987 2.27881C7.55543 2.27881 2.33203 7.50198 2.33203 13.9455C2.33203 20.389 7.55543 25.6121 13.9987 25.6121C20.4422 25.6121 25.6654 20.389 25.6654 13.9455C25.6654 7.50198 20.4422 2.27881 13.9987 2.27881ZM10.4987 9.27881C10.7971 9.27881 11.1094 9.37915 11.3373 9.60665L13.9987 12.2678L16.6599 9.60665C16.8885 9.37915 17.2 9.27881 17.4987 9.27881C17.7974 9.27881 18.1089 9.37915 18.3375 9.60665C18.7925 10.0628 18.7925 10.8281 18.3375 11.2843L15.6764 13.9455L18.3375 16.6066C18.7925 17.0628 18.7925 17.8281 18.3375 18.2843C17.8814 18.7393 17.116 18.7393 16.6599 18.2843L13.9987 15.6231L11.3373 18.2843C10.8817 18.7393 10.1158 18.7393 9.66009 18.2843C9.20451 17.8281 9.20451 17.0628 9.66009 16.6066L12.321 13.9455L9.66009 11.2843C9.20451 10.8281 9.20451 10.0628 9.66009 9.60665C9.88806 9.37915 10.2001 9.27881 10.4987 9.27881Z" fill="white" fill-opacity="0.36"/>
</svg>
