<svg width="20" height="20" viewBox="0 0 20 20" fill="none" xmlns="http://www.w3.org/2000/svg">
<path d="M15.6535 10.4344L11.2043 8.79673L9.56641 4.34493C9.46941 4.08147 9.29392 3.85409 9.06362 3.69348C8.83331 3.53287 8.55927 3.44675 8.27848 3.44675C7.99769 3.44675 7.72365 3.53287 7.49335 3.69348C7.26304 3.85409 7.08755 4.08147 6.99055 4.34493L5.3509 8.79156L0.89833 10.4292C0.634821 10.5262 0.407406 10.7016 0.246768 10.9319C0.0861296 11.1622 0 11.4362 0 11.7169C0 11.9977 0.0861296 12.2716 0.246768 12.5019C0.407406 12.7322 0.634821 12.9076 0.89833 13.0046L5.34487 14.6526L6.9828 19.1018C7.07979 19.3653 7.25528 19.5927 7.48559 19.7533C7.71589 19.9139 7.98993 20 8.27072 20C8.55152 20 8.82555 19.9139 9.05586 19.7533C9.28616 19.5927 9.46165 19.3653 9.55865 19.1018L11.1966 14.6535L15.6491 13.0158C15.9127 12.9188 16.1401 12.7434 16.3007 12.5131C16.4614 12.2829 16.5475 12.0089 16.5475 11.7281C16.5475 11.4474 16.4614 11.1734 16.3007 10.9431C16.1401 10.7129 15.9127 10.5374 15.6491 10.4404L15.6535 10.4344ZM10.7233 13.3597C10.5369 13.4281 10.3677 13.5362 10.2273 13.6766C10.0869 13.817 9.97878 13.9862 9.91037 14.1725L8.27245 18.6079L6.63797 14.1691C6.56951 13.9837 6.46171 13.8154 6.32197 13.6757C6.18223 13.536 6.01387 13.4282 5.82849 13.3597L1.39229 11.7221L5.82849 10.0844C6.01387 10.016 6.18223 9.90821 6.32197 9.76849C6.46171 9.62878 6.56951 9.46045 6.63797 9.2751L8.2759 4.83967L9.91382 9.2751C9.98223 9.46144 10.0904 9.63066 10.2308 9.77101C10.3711 9.91137 10.5404 10.0195 10.7267 10.0879L15.1629 11.7255L10.7233 13.3597ZM11.0345 2.75814C11.0345 2.57526 11.1072 2.39988 11.2365 2.27056C11.3658 2.14125 11.5413 2.0686 11.7242 2.0686H13.1035V0.689534C13.1035 0.506658 13.1761 0.331273 13.3055 0.20196C13.4348 0.0726471 13.6102 0 13.7931 0C13.976 0 14.1514 0.0726471 14.2808 0.20196C14.4101 0.331273 14.4828 0.506658 14.4828 0.689534V2.0686H15.8621C16.045 2.0686 16.2204 2.14125 16.3497 2.27056C16.4791 2.39988 16.5517 2.57526 16.5517 2.75814C16.5517 2.94101 16.4791 3.1164 16.3497 3.24571C16.2204 3.37502 16.045 3.44767 15.8621 3.44767H14.4828V4.82674C14.4828 5.00962 14.4101 5.185 14.2808 5.31431C14.1514 5.44363 13.976 5.51627 13.7931 5.51627C13.6102 5.51627 13.4348 5.44363 13.3055 5.31431C13.1761 5.185 13.1035 5.00962 13.1035 4.82674V3.44767H11.7242C11.5413 3.44767 11.3658 3.37502 11.2365 3.24571C11.1072 3.1164 11.0345 2.94101 11.0345 2.75814ZM20 6.89534C20 7.07822 19.9273 7.25361 19.798 7.38292C19.6687 7.51223 19.4933 7.58488 19.3103 7.58488H18.6207V8.27441C18.6207 8.45729 18.548 8.63267 18.4187 8.76199C18.2894 8.8913 18.1139 8.96395 17.931 8.96395C17.7481 8.96395 17.5727 8.8913 17.4434 8.76199C17.314 8.63267 17.2414 8.45729 17.2414 8.27441V7.58488H16.5517C16.3688 7.58488 16.1934 7.51223 16.0641 7.38292C15.9347 7.25361 15.8621 7.07822 15.8621 6.89534C15.8621 6.71247 15.9347 6.53708 16.0641 6.40777C16.1934 6.27846 16.3688 6.20581 16.5517 6.20581H17.2414V5.51627C17.2414 5.3334 17.314 5.15801 17.4434 5.0287C17.5727 4.89939 17.7481 4.82674 17.931 4.82674C18.1139 4.82674 18.2894 4.89939 18.4187 5.0287C18.548 5.15801 18.6207 5.3334 18.6207 5.51627V6.20581H19.3103C19.4933 6.20581 19.6687 6.27846 19.798 6.40777C19.9273 6.53708 20 6.71247 20 6.89534Z" fill="#C6B9FF"/>
</svg>
