<svg width="25" height="24" viewBox="0 0 25 24" fill="none" xmlns="http://www.w3.org/2000/svg">
<path d="M12.75 2C7.227 2 2.75 6.477 2.75 12C2.75 17.523 7.227 22 12.75 22C18.273 22 22.75 17.523 22.75 12C22.75 6.477 18.273 2 12.75 2ZM12.75 4C17.168 4 20.75 7.582 20.75 12C20.75 16.418 17.168 20 12.75 20C8.332 20 4.75 16.418 4.75 12C4.75 7.582 8.332 4 12.75 4ZM8.75 11C8.198 11 7.75 11.448 7.75 12C7.75 12.552 8.198 13 8.75 13H16.75C17.302 13 17.75 12.552 17.75 12C17.75 11.448 17.302 11 16.75 11H8.75Z" fill="white" fill-opacity="0.8"/>
</svg>
