<svg width="18" height="18" viewBox="0 0 18 18" fill="none" xmlns="http://www.w3.org/2000/svg">
<path d="M9 1.46486C4.85926 1.45661 1.50601 4.80686 1.50001 8.96486C1.49401 13.1229 4.88551 16.4566 9 16.4649C13.1145 16.4731 16.5008 13.1131 16.5 8.96486C16.4993 4.81661 13.1408 1.47311 9 1.46486ZM9 2.96486C11.4128 2.96486 13.518 4.42211 14.436 6.40811C14.2575 6.36986 14.0648 6.33986 13.875 6.33986C13.2 6.33986 12.6008 6.59036 12.1725 6.97136C11.5125 5.89811 10.3515 5.21486 9 5.21486C8.379 5.21486 7.875 4.71086 7.875 4.08986C7.875 3.46886 8.379 2.96486 9 2.96486ZM6.42524 3.54086C6.38699 3.71936 6.37501 3.90011 6.37501 4.08986C6.37501 4.76486 6.5955 5.32435 7.014 5.78935C5.973 6.4291 5.25001 7.61336 5.25001 8.96486C5.25001 9.58585 4.74601 10.0899 4.12501 10.0899C3.50401 10.0899 3.00001 9.58585 3.00001 8.96486C3.00001 6.55211 4.44375 4.48961 6.42524 3.54086ZM9 6.71486C10.2428 6.71486 11.25 7.72211 11.25 8.96486C11.25 10.2076 10.2428 11.2149 9 11.2149C7.75725 11.2149 6.75 10.2076 6.75 8.96486C6.75 7.72211 7.75725 6.71486 9 6.71486ZM13.875 7.83986C14.496 7.83986 15 8.34386 15 8.96486C15 11.3776 13.5195 13.4776 11.5545 14.4016C11.5928 14.2231 11.625 14.0296 11.625 13.8399C11.625 13.1649 11.4128 12.6031 10.9943 12.1374C12.0667 11.4781 12.75 10.3164 12.75 8.96486C12.75 8.34386 13.254 7.83986 13.875 7.83986ZM5.8215 10.9494C6.4815 12.0219 7.6485 12.7149 9 12.7149C9.621 12.7149 10.125 13.2189 10.125 13.8399C10.125 14.4609 9.621 14.9649 9 14.9649C6.58726 14.9649 4.52476 13.5331 3.57901 11.5329C3.75751 11.5711 3.93526 11.5899 4.12501 11.5899C4.80001 11.5899 5.3565 11.3679 5.8215 10.9494Z" fill="#2FF582"/>
</svg>
