<svg width="25" height="24" viewBox="0 0 25 24" fill="none" xmlns="http://www.w3.org/2000/svg">
<path d="M13.4864 2.02854C13.1664 1.95054 12.7974 2.04055 12.5324 2.30555L6.55641 8.27453C6.07441 8.75653 6.18839 9.59753 6.79939 9.90353L9.5804 11.2785L4.17439 16.6845C2.96139 17.8975 2.93339 19.8495 4.14239 21.0595L4.17439 21.0905C5.38439 22.3015 7.3694 22.3015 8.5804 21.0905L13.4414 16.2545C16.1674 17.6785 19.3674 16.1625 20.0964 13.2875C20.3594 12.2495 20.2504 11.2926 19.4774 10.2126C19.9104 9.78055 20.3264 9.34654 20.3614 9.30954C21.5534 8.11854 21.5414 6.14554 20.3304 4.93454L20.2994 4.90353C19.6934 4.29754 18.9054 3.99655 18.1114 3.99655C17.3184 3.99655 16.5104 4.33754 15.9044 4.94254C15.8904 4.95754 15.5684 5.26355 15.3614 5.46555C15.3074 5.35955 15.2614 5.29854 15.2054 5.18454C14.9414 4.64354 14.6964 4.04154 14.4764 3.45554C14.3444 3.10454 14.2424 2.82353 14.1944 2.67453C14.0804 2.31853 13.8064 2.10554 13.4864 2.02854ZM12.8614 4.80954C13.0324 5.22654 13.2194 5.65954 13.4044 6.05954C13.7664 6.84454 14.8554 8.62454 16.1744 9.80954C16.3054 9.92754 16.4364 10.0565 16.5804 10.1845C16.7714 10.3535 16.7724 10.3675 17.3304 10.8405C18.1624 11.5465 18.3244 12.1135 18.1424 12.8095C17.7744 14.2215 16.4584 15.0915 14.9664 14.7075C15.7244 13.7985 16.0994 11.9705 14.7054 10.5595C13.6134 9.45454 12.1944 9.51755 11.2394 9.87555L8.9384 8.72152L12.8614 4.80954ZM18.1114 5.99655C18.3944 5.99655 18.6784 6.09454 18.8924 6.30954L18.9244 6.34055C19.3534 6.77055 19.3584 7.43554 18.9244 7.92254C18.7594 8.10854 18.4024 8.44553 18.0474 8.79953C17.4374 8.25153 16.8864 7.70054 16.4744 7.17654C16.8054 6.85054 17.3074 6.36355 17.3304 6.34055C17.5484 6.12255 17.8294 5.99755 18.1114 5.99655ZM12.2154 11.6635C12.6114 11.5765 12.9894 11.6905 13.2994 11.9655C13.6084 12.2415 13.6534 12.5735 13.6514 12.8145C13.6394 13.0075 13.5784 13.1925 13.4664 13.3585C13.3674 13.4945 12.6044 14.2615 12.5824 14.2895L7.17439 19.6845C6.74339 20.1145 6.0104 20.1145 5.5804 19.6845L5.54939 19.6535C5.12939 19.2335 5.14039 18.5305 5.5804 18.0905L11.6854 12.0125C11.8154 11.8825 12.0504 11.7205 12.2154 11.6635Z" fill="white" fill-opacity="0.8"/>
</svg>
