<svg width="18" height="18" viewBox="0 0 18 18" fill="none" xmlns="http://www.w3.org/2000/svg">
<path d="M3.0014 3.66211C2.91763 3.66211 2.83093 3.75061 2.76703 3.94336L2.53265 4.64612H1.82953C1.4429 4.64912 1.38313 4.85387 1.6889 5.09162L2.27488 5.53711L2.0639 6.28711C1.95583 6.67111 2.12383 6.78811 2.4389 6.54511L3.0014 6.09961L3.5639 6.54511C3.88078 6.78811 4.06483 6.65086 3.96238 6.26386L3.7514 5.4906L4.3139 5.06836C4.61863 4.83436 4.55675 4.64837 4.17328 4.64612H3.47015L3.23578 3.94336C3.17188 3.75061 3.08518 3.66211 3.0014 3.66211ZM6.7514 4.41211C6.33718 4.41211 6.0014 4.74811 6.0014 5.16211C6.0014 5.57611 6.33718 5.91211 6.7514 5.91211H15.7514C16.1656 5.91211 16.5014 5.57611 16.5014 5.16211C16.5014 4.74811 16.1656 4.41211 15.7514 4.41211H6.7514ZM3.0014 7.41212C2.91763 7.41212 2.83093 7.50062 2.76703 7.69337L2.53265 8.39613H1.82953C1.4429 8.39913 1.38313 8.60387 1.6889 8.84162L2.27488 9.28712L2.0639 10.0371C1.95583 10.4211 2.12383 10.5381 2.4389 10.2951L3.0014 9.84962L3.5639 10.2951C3.88078 10.5381 4.06483 10.4009 3.96238 10.0139L3.7514 9.24061L4.3139 8.81837C4.61863 8.58437 4.55675 8.39838 4.17328 8.39613H3.47015L3.23578 7.69337C3.17188 7.50062 3.08518 7.41212 3.0014 7.41212ZM6.7514 8.16212C6.33718 8.16212 6.0014 8.49812 6.0014 8.91212C6.0014 9.32612 6.33718 9.66212 6.7514 9.66212H15.7514C16.1656 9.66212 16.5014 9.32612 16.5014 8.91212C16.5014 8.49812 16.1656 8.16212 15.7514 8.16212H6.7514ZM3.0014 11.1621C2.91763 11.1621 2.83093 11.2506 2.76703 11.4434L2.53265 12.1461H1.82953C1.4429 12.1491 1.38313 12.3539 1.6889 12.5916L2.27488 13.0371L2.0639 13.7871C1.95583 14.1711 2.12383 14.2881 2.4389 14.0451L3.0014 13.5996L3.5639 14.0451C3.88078 14.2881 4.06483 14.1509 3.96238 13.7639L3.7514 12.9906L4.3139 12.5684C4.61863 12.3344 4.55675 12.1484 4.17328 12.1461H3.47015L3.23578 11.4434C3.17188 11.2506 3.08518 11.1621 3.0014 11.1621ZM6.7514 11.9121C6.33718 11.9121 6.0014 12.2481 6.0014 12.6621C6.0014 13.0761 6.33718 13.4121 6.7514 13.4121H15.7514C16.1656 13.4121 16.5014 13.0761 16.5014 12.6621C16.5014 12.2481 16.1656 11.9121 15.7514 11.9121H6.7514Z" fill="white" fill-opacity="0.98"/>
</svg>
