<svg width="14" height="14" viewBox="0 0 14 14" fill="none" xmlns="http://www.w3.org/2000/svg">
<path d="M7.01469 1.42419C6.68166 1.42408 6.34158 1.63128 6.14015 2.0437L4.90121 4.59444L2.07718 4.99525C1.16899 5.1216 0.874755 6.01258 1.5306 6.65308L3.57115 8.63933L3.09749 11.4271C2.9415 12.3295 3.68998 12.8749 4.50041 12.4473C4.81354 12.2817 6.4236 11.4475 7.01469 11.1354L9.52897 12.4473C10.3403 12.8749 11.0911 12.3301 10.9319 11.4271L10.44 8.63933L12.4806 6.65308C13.1395 6.01491 12.8604 5.12416 11.9522 4.99525L9.10996 4.59444L7.88922 2.0437C7.68809 1.63111 7.34771 1.42437 7.01469 1.42419Z" fill="#2FF582"/>
</svg>
