<svg width="18" height="18" viewBox="0 0 18 18" fill="none" xmlns="http://www.w3.org/2000/svg">
<path d="M9.00586 7.50146C9.83431 7.50146 10.5059 8.17272 10.5059 9.00147C10.5059 9.83022 9.83431 10.5015 9.00586 10.5015C8.17741 10.5015 7.50586 9.83022 7.50586 9.00147C7.50586 8.17272 8.17741 7.50146 9.00586 7.50146Z" fill="white" fill-opacity="0.54"/>
<path d="M3.75 7.50146C4.57845 7.50146 5.25 8.17272 5.25 9.00147C5.25 9.83022 4.57845 10.5015 3.75 10.5015C2.92155 10.5015 2.25 9.83022 2.25 9.00147C2.25 8.17272 2.92155 7.50146 3.75 7.50146Z" fill="white" fill-opacity="0.54"/>
<path d="M14.25 7.50146C15.0784 7.50146 15.75 8.17272 15.75 9.00147C15.75 9.83022 15.0784 10.5015 14.25 10.5015C13.4215 10.5015 12.75 9.83022 12.75 9.00147C12.75 8.17272 13.4215 7.50146 14.25 7.50146Z" fill="white" fill-opacity="0.54"/>
</svg>
