<svg width="18" height="18" viewBox="0 0 18 18" fill="none" xmlns="http://www.w3.org/2000/svg">
<rect x="8.3999" y="1.19995" width="1.2" height="1.2" fill="#00AA56"/>
<rect x="7.19995" y="1.19995" width="1.2" height="1.2" fill="#00AA56"/>
<rect x="4.80005" y="2.3999" width="1.2" height="1.2" fill="#00AA56"/>
<rect x="6" y="1.19995" width="1.2" height="1.2" fill="#00AA56"/>
<rect x="1.19995" y="6" width="1.2" height="1.2" fill="#00AA56"/>
<rect x="1.19995" y="7.19995" width="1.2" height="1.2" fill="#00AA56"/>
<rect x="1.19995" y="8.3999" width="1.2" height="1.2" fill="#00AA56"/>
<rect x="1.19995" y="9.6001" width="1.2" height="1.2" fill="#00AA56"/>
<rect x="1.19995" y="10.8" width="1.2" height="1.2" fill="#00AA56"/>
<rect x="3.6001" y="2.3999" width="1.2" height="1.2" fill="#00AA56"/>
<rect x="2.3999" y="3.6001" width="1.2" height="1.2" fill="#00AA56"/>
<rect x="2.3999" y="4.80005" width="1.2" height="1.2" fill="#00AA56"/>
<rect x="9.6001" y="1.19995" width="1.2" height="1.2" fill="#00AA56"/>
<rect x="10.8" y="1.19995" width="1.2" height="1.2" fill="#00AA56"/>
<rect x="12" y="2.3999" width="1.2" height="1.2" fill="#00AA56"/>
<rect x="13.2" y="2.3999" width="1.2" height="1.2" fill="#00AA56"/>
<rect x="14.3999" y="3.6001" width="1.2" height="1.2" fill="#00AA56"/>
<rect x="14.3999" y="4.80005" width="1.2" height="1.2" fill="#00AA56"/>
<rect x="15.6001" y="6" width="1.2" height="1.2" fill="#00AA56"/>
<rect x="15.6001" y="7.19995" width="1.2" height="1.2" fill="#00AA56"/>
<rect x="15.6001" y="9.6001" width="1.2" height="1.2" fill="#00AA56"/>
<rect x="15.6001" y="8.3999" width="1.2" height="1.2" fill="#00AA56"/>
<rect x="15.6001" y="10.8" width="1.2" height="1.2" fill="#00AA56"/>
<rect x="14.3999" y="12" width="1.2" height="1.2" fill="#00AA56"/>
<rect x="14.3999" y="13.2" width="1.2" height="1.2" fill="#00AA56"/>
<rect x="13.2" y="14.3999" width="1.2" height="1.2" fill="#00AA56"/>
<rect x="12" y="14.3999" width="1.2" height="1.2" fill="#00AA56"/>
<rect x="10.8" y="15.6001" width="1.2" height="1.2" fill="#00AA56"/>
<rect x="9.6001" y="15.6001" width="1.2" height="1.2" fill="#00AA56"/>
<rect x="8.3999" y="15.6001" width="1.2" height="1.2" fill="#00AA56"/>
<rect x="7.19995" y="15.6001" width="1.2" height="1.2" fill="#00AA56"/>
<rect x="6" y="15.6001" width="1.2" height="1.2" fill="#00AA56"/>
<rect x="4.80005" y="14.3999" width="1.2" height="1.2" fill="#00AA56"/>
<rect x="3.6001" y="14.3999" width="1.2" height="1.2" fill="#00AA56"/>
<rect x="2.3999" y="13.2" width="1.2" height="1.2" fill="#00AA56"/>
<rect x="2.3999" y="12" width="1.2" height="1.2" fill="#00AA56"/>
<rect x="4.80005" y="9.6001" width="1.2" height="1.2" fill="#00AA56"/>
<rect x="7.19995" y="12" width="1.2" height="1.2" fill="#00AA56"/>
<rect x="8.3999" y="10.8" width="1.2" height="1.2" fill="#00AA56"/>
<rect x="9.6001" y="9.6001" width="1.2" height="1.2" fill="#00AA56"/>
<rect x="10.8" y="8.3999" width="1.2" height="1.2" fill="#00AA56"/>
<rect x="12" y="7.19995" width="1.2" height="1.2" fill="#00AA56"/>
<rect x="6" y="10.8" width="1.2" height="1.2" fill="#00AA56"/>
</svg>
