<svg width="15" height="15" viewBox="0 0 15 15" fill="none" xmlns="http://www.w3.org/2000/svg">
<rect x="7" y="1" width="1" height="1" fill="white"/>
<rect x="6" y="1" width="1" height="1" fill="white"/>
<rect x="4" y="2" width="1" height="1" fill="white"/>
<rect x="5" y="1" width="1" height="1" fill="white"/>
<rect x="1" y="5" width="1" height="1" fill="white"/>
<rect x="1" y="6" width="1" height="1" fill="white"/>
<rect x="1" y="7" width="1" height="1" fill="white"/>
<rect x="1" y="8" width="1" height="1" fill="white"/>
<rect x="1" y="9" width="1" height="1" fill="white"/>
<rect x="3" y="2" width="1" height="1" fill="white"/>
<rect x="2" y="3" width="1" height="1" fill="white"/>
<rect x="2" y="4" width="1" height="1" fill="white"/>
<rect x="8" y="1" width="1" height="1" fill="white"/>
<rect x="9" y="1" width="1" height="1" fill="white"/>
<rect x="10" y="2" width="1" height="1" fill="white"/>
<rect x="11" y="2" width="1" height="1" fill="white"/>
<rect x="12" y="3" width="1" height="1" fill="white"/>
<rect x="12" y="4" width="1" height="1" fill="white"/>
<rect x="13" y="5" width="1" height="1" fill="white"/>
<rect x="13" y="6" width="1" height="1" fill="white"/>
<rect x="13" y="8" width="1" height="1" fill="white"/>
<rect x="13" y="7" width="1" height="1" fill="white"/>
<rect x="13" y="9" width="1" height="1" fill="white"/>
<rect x="12" y="10" width="1" height="1" fill="white"/>
<rect x="12" y="11" width="1" height="1" fill="white"/>
<rect x="11" y="12" width="1" height="1" fill="white"/>
<rect x="10" y="12" width="1" height="1" fill="white"/>
<rect x="9" y="13" width="1" height="1" fill="white"/>
<rect x="8" y="13" width="1" height="1" fill="white"/>
<rect x="7" y="13" width="1" height="1" fill="white"/>
<rect x="6" y="13" width="1" height="1" fill="white"/>
<rect x="5" y="13" width="1" height="1" fill="white"/>
<rect x="4" y="12" width="1" height="1" fill="white"/>
<rect x="3" y="12" width="1" height="1" fill="white"/>
<rect x="2" y="11" width="1" height="1" fill="white"/>
<rect x="2" y="10" width="1" height="1" fill="white"/>
<rect x="7" y="10" width="1" height="1" fill="white"/>
<rect x="7" y="4" width="1" height="5" fill="white"/>
</svg>
