<svg width="18" height="18" viewBox="0 0 18 18" fill="none" xmlns="http://www.w3.org/2000/svg">
<rect x="6" y="1.2002" width="6" height="1.2" rx="0.6" fill="#00AA56"/>
<rect x="1.2002" y="6" width="1.2" height="6" rx="0.6" fill="#00AA56"/>
<rect x="3.6001" y="2.40039" width="2.4" height="1.2" rx="0.6" fill="#00AA56"/>
<rect x="2.3999" y="3.59961" width="1.2" height="2.4" rx="0.6" fill="#00AA56"/>
<rect x="12" y="2.40039" width="2.4" height="1.2" rx="0.6" fill="#00AA56"/>
<rect x="14.3999" y="3.59961" width="1.2" height="2.4" rx="0.6" fill="#00AA56"/>
<rect x="15.6001" y="6" width="1.2" height="6" rx="0.6" fill="#00AA56"/>
<rect x="14.3999" y="12" width="1.2" height="2.4" rx="0.6" fill="#00AA56"/>
<rect x="12" y="14.4004" width="2.4" height="1.2" rx="0.6" fill="#00AA56"/>
<rect x="6" y="15.5996" width="6" height="1.2" rx="0.6" fill="#00AA56"/>
<rect x="3.6001" y="14.4004" width="2.4" height="1.2" rx="0.6" fill="#00AA56"/>
<rect x="2.3999" y="12" width="1.2" height="2.4" rx="0.6" fill="#00AA56"/>
<rect x="4.7998" y="9.59961" width="1.2" height="1.2" rx="0.6" fill="#00AA56"/>
<rect x="7.2002" y="12" width="1.2" height="1.2" rx="0.6" fill="#00AA56"/>
<rect x="8.3999" y="10.7998" width="1.2" height="1.2" rx="0.6" fill="#00AA56"/>
<rect x="9.6001" y="9.59961" width="1.2" height="1.2" rx="0.6" fill="#00AA56"/>
<rect x="10.7998" y="8.40039" width="1.2" height="1.2" rx="0.6" fill="#00AA56"/>
<rect x="12" y="7.2002" width="1.2" height="1.2" rx="0.6" fill="#00AA56"/>
<rect x="6" y="10.7998" width="1.2" height="1.2" rx="0.6" fill="#00AA56"/>
</svg>
