<svg width="24" height="24" viewBox="0 0 24 24" fill="none" xmlns="http://www.w3.org/2000/svg">
<path d="M12.0059 2.99072C11.2614 2.99072 10.504 3.13471 9.91206 3.42871L3.56836 6.58771C3.18676 6.79571 3.00586 7.13272 3.00586 7.49472V14.9387C3.00586 16.1397 3.83436 17.4677 4.91206 18.0037L10.1621 20.5997C11.212 21.1207 12.7998 21.1207 13.8497 20.5997L19.0997 18.0037C20.1865 17.4637 21.0059 16.1497 21.0059 14.9387V7.49472C21.0059 7.13272 20.823 6.76571 20.4434 6.58771L14.0997 3.42871C13.5078 3.13471 12.7504 2.99072 12.0059 2.99072ZM10.8184 5.20972C11.4418 4.89972 12.5699 4.89972 13.1934 5.20972L13.7871 5.49072L8.00586 8.36572C7.30936 8.02272 6.92036 7.82072 6.25586 7.49072L10.8184 5.20972ZM16.0059 6.61572L17.7559 7.49072L13.1934 9.74072C12.57 10.0507 11.4419 10.0507 10.8184 9.74072C10.7481 9.70572 10.3739 9.51772 10.2559 9.45972L16.0059 6.61572ZM5.00586 9.11572C5.92756 9.57472 6.69876 9.93473 7.69336 10.4277C8.52066 10.8387 9.62236 11.3977 9.90536 11.5287C10.3389 11.7297 10.6327 11.8247 11.0052 11.8987L11.0059 18.7717L5.78706 16.1777C5.38846 15.9807 5.00586 15.3677 5.00586 14.9277V9.11572ZM19.0059 9.11572V14.9277C19.0059 15.3777 18.6012 16.0067 18.1934 16.2097L13.0059 18.7717L13.0088 11.9027C13.3813 11.8297 13.7635 11.7097 14.0721 11.5557L19.0059 9.11572Z" fill="white" fill-opacity="0.98"/>
</svg>
