<svg width="24" height="24" viewBox="0 0 24 24" fill="none" xmlns="http://www.w3.org/2000/svg">
<rect x="9.59961" y="9.6001" width="1.6" height="1.6" fill="white"/>
<rect x="8" y="8" width="1.6" height="1.6" fill="white"/>
<rect x="6.40039" y="6.3999" width="1.6" height="1.6" fill="white"/>
<rect x="4.7998" y="4.80005" width="1.6" height="1.6" fill="white"/>
<rect x="3.2002" y="3.19995" width="1.6" height="1.6" fill="white"/>
<rect x="3.2002" y="19.2" width="1.6" height="1.6" fill="white"/>
<rect x="19.2002" y="19.2" width="1.6" height="1.6" fill="white"/>
<rect x="19.2002" y="3.19995" width="1.6" height="1.6" fill="white"/>
<rect x="8" y="14.3999" width="1.6" height="1.6" fill="white"/>
<rect x="6.40039" y="16" width="1.6" height="1.6" fill="white"/>
<rect x="4.7998" y="17.6001" width="1.6" height="1.6" fill="white"/>
<rect x="14.4004" y="14.3999" width="1.6" height="1.6" fill="white"/>
<rect x="16" y="16" width="1.6" height="1.6" fill="white"/>
<rect x="17.5996" y="17.6001" width="1.6" height="1.6" fill="white"/>
<rect x="14.4004" y="8" width="1.6" height="1.6" fill="white"/>
<rect x="16" y="6.3999" width="1.6" height="1.6" fill="white"/>
<rect x="17.5996" y="4.80005" width="1.6" height="1.6" fill="white"/>
<rect x="9.59961" y="12.8" width="1.6" height="1.6" fill="white"/>
<rect x="12.7998" y="12.8" width="1.6" height="1.6" fill="white"/>
<rect x="12.7998" y="9.6001" width="1.6" height="1.6" fill="white"/>
<rect x="11.2002" y="11.2" width="1.6" height="1.6" fill="white"/>
</svg>
