<svg width="18" height="18" viewBox="0 0 18 18" fill="none" xmlns="http://www.w3.org/2000/svg">
<rect x="7.2002" y="7.2002" width="1.2" height="1.2" rx="0.6" fill="#7D7F82"/>
<rect x="6" y="6" width="1.2" height="1.2" rx="0.6" fill="#7D7F82"/>
<rect x="4.7998" y="4.7998" width="1.2" height="1.2" rx="0.6" fill="#7D7F82"/>
<rect x="3.6001" y="3.59961" width="1.2" height="1.2" rx="0.6" fill="#7D7F82"/>
<rect x="2.3999" y="2.40039" width="1.2" height="1.2" rx="0.6" fill="#7D7F82"/>
<rect x="2.3999" y="14.4004" width="1.2" height="1.2" rx="0.6" fill="#7D7F82"/>
<rect x="14.3999" y="14.4004" width="1.2" height="1.2" rx="0.6" fill="#7D7F82"/>
<rect x="14.3999" y="2.40039" width="1.2" height="1.2" rx="0.6" fill="#7D7F82"/>
<rect x="6" y="10.7998" width="1.2" height="1.2" rx="0.6" fill="#7D7F82"/>
<rect x="4.7998" y="12" width="1.2" height="1.2" rx="0.6" fill="#7D7F82"/>
<rect x="3.6001" y="13.2002" width="1.2" height="1.2" rx="0.6" fill="#7D7F82"/>
<rect x="10.7998" y="10.7998" width="1.2" height="1.2" rx="0.6" fill="#7D7F82"/>
<rect x="12" y="12" width="1.2" height="1.2" rx="0.6" fill="#7D7F82"/>
<rect x="13.2002" y="13.2002" width="1.2" height="1.2" rx="0.6" fill="#7D7F82"/>
<rect x="10.7998" y="6" width="1.2" height="1.2" rx="0.6" fill="#7D7F82"/>
<rect x="12" y="4.7998" width="1.2" height="1.2" rx="0.6" fill="#7D7F82"/>
<rect x="13.2002" y="3.59961" width="1.2" height="1.2" rx="0.6" fill="#7D7F82"/>
<rect x="7.2002" y="9.59961" width="1.2" height="1.2" rx="0.6" fill="#7D7F82"/>
<rect x="9.6001" y="9.59961" width="1.2" height="1.2" rx="0.6" fill="#7D7F82"/>
<rect x="9.6001" y="7.2002" width="1.2" height="1.2" rx="0.6" fill="#7D7F82"/>
<rect x="8.3999" y="8.40039" width="1.2" height="1.2" rx="0.6" fill="#7D7F82"/>
</svg>
