<svg width="18" height="18" viewBox="0 0 18 18" fill="none" xmlns="http://www.w3.org/2000/svg">
<path d="M7.2 11.7L8.25 10.6313L6.61875 9L8.25 7.36875L7.2 6.3L4.5 9L7.2 11.7ZM10.8 11.7L13.5 9L10.8 6.3L9.75 7.36875L11.3813 9L9.75 10.6313L10.8 11.7ZM3.75 15.75C3.3375 15.75 2.98438 15.6031 2.69063 15.3094C2.39687 15.0156 2.25 14.6625 2.25 14.25V3.75C2.25 3.3375 2.39687 2.98438 2.69063 2.69063C2.98438 2.39687 3.3375 2.25 3.75 2.25H14.25C14.6625 2.25 15.0156 2.39687 15.3094 2.69063C15.6031 2.98438 15.75 3.3375 15.75 3.75V14.25C15.75 14.6625 15.6031 15.0156 15.3094 15.3094C15.0156 15.6031 14.6625 15.75 14.25 15.75H3.75ZM3.75 14.25H14.25V3.75H3.75V14.25Z" fill="white"/>
</svg>
