<svg width="20" height="20" viewBox="0 0 20 20" fill="none" xmlns="http://www.w3.org/2000/svg">
<path fill-rule="evenodd" clip-rule="evenodd" d="M11.025 10.0005C11.025 12.4104 9.00466 14.364 6.51258 14.364C4.0205 14.364 2 12.41 2 10.0005C2 7.59094 4.02034 5.63672 6.51258 5.63672C9.00482 5.63672 11.025 7.5905 11.025 10.0005ZM15.9752 10.0004C15.9752 12.2689 14.965 14.1085 13.7189 14.1085C12.4728 14.1085 11.4626 12.2689 11.4626 10.0004C11.4626 7.73197 12.4726 5.8923 13.7187 5.8923C14.9649 5.8923 15.975 7.73138 15.975 10.0004H15.9752ZM17.2063 13.6808C17.6447 13.6808 17.9999 12.0325 17.9999 10.0005C17.9999 7.96798 17.6445 6.32031 17.2063 6.32031C16.7682 6.32031 16.4129 7.96812 16.4129 10.0005C16.4129 12.0329 16.768 13.6808 17.2063 13.6808Z" fill="white" fill-opacity="0.54"/>
</svg>
