<svg width="18" height="18" viewBox="0 0 18 18" fill="none" xmlns="http://www.w3.org/2000/svg">
<path d="M8.99829 1.46484C6.92724 1.46484 5.24829 3.14379 5.24829 5.21484C5.24829 7.28589 6.92724 8.96484 8.99829 8.96484C11.0693 8.96484 12.7483 7.28589 12.7483 5.21484C12.7483 3.14379 11.0693 1.46484 8.99829 1.46484ZM8.99829 2.96484C10.241 2.96484 11.2483 3.97217 11.2483 5.21484C11.2483 6.45752 10.241 7.46484 8.99829 7.46484C7.75562 7.46484 6.74829 6.45752 6.74829 5.21484C6.74829 3.97217 7.75562 2.96484 8.99829 2.96484ZM6.34989 9.94922C4.38917 10.4851 2.99829 12.19 2.99829 14.2148V15.7148C2.99829 16.1291 3.33407 16.4648 3.74829 16.4648H14.2483C14.6625 16.4648 14.9983 16.1291 14.9983 15.7148V14.2148C14.9983 12.19 13.6074 10.4851 11.6467 9.94922C11.4786 9.90324 11.3135 9.92447 11.1545 9.99609C10.4679 10.3055 9.73697 10.4648 8.99829 10.4648C8.25962 10.4648 7.52867 10.3055 6.84204 9.99609C6.68312 9.92447 6.51797 9.90324 6.34989 9.94922ZM6.65454 11.4492C7.41189 11.7356 8.18807 11.9648 8.99829 11.9648C9.80852 11.9648 10.5847 11.7356 11.342 11.4492C12.6196 11.8362 13.4983 12.9146 13.4983 14.2148V14.9648H4.49829V14.2148C4.49829 12.9146 5.37699 11.8362 6.65454 11.4492Z" fill="white" fill-opacity="0.8"/>
</svg>
