<svg width="18" height="18" viewBox="0 0 18 18" fill="none" xmlns="http://www.w3.org/2000/svg">
<rect x="7.20001" y="2.40039" width="3.6" height="1.2" rx="0.6" fill="white"/>
<rect x="4.79999" y="3.59961" width="2.4" height="1.2" rx="0.6" fill="white"/>
<rect x="10.8" y="3.59961" width="2.4" height="1.2" rx="0.6" fill="white"/>
<rect x="3.59998" y="4.7998" width="1.2" height="1.2" rx="0.6" fill="white"/>
<rect x="3.59998" y="8.40039" width="1.2" height="1.2" rx="0.6" fill="white"/>
<rect x="3.59998" y="12" width="1.2" height="1.2" rx="0.6" fill="white"/>
<rect x="4.79999" y="6" width="2.4" height="1.2" rx="0.6" fill="white"/>
<rect x="4.79999" y="9.59961" width="2.4" height="1.2" rx="0.6" fill="white"/>
<rect x="4.79999" y="13.2002" width="2.4" height="1.2" rx="0.6" fill="white"/>
<rect x="10.8" y="6" width="2.4" height="1.2" rx="0.6" fill="white"/>
<rect x="10.8" y="9.59961" width="2.4" height="1.2" rx="0.6" fill="white"/>
<rect x="10.8" y="13.2002" width="2.4" height="1.2" rx="0.6" fill="white"/>
<rect x="7.20001" y="7.2002" width="3.6" height="1.2" rx="0.6" fill="white"/>
<rect x="7.20001" y="10.7998" width="3.6" height="1.2" rx="0.6" fill="white"/>
<rect x="7.20001" y="14.4004" width="3.6" height="1.2" rx="0.6" fill="white"/>
<rect x="13.2" y="4.7998" width="1.2" height="1.2" rx="0.6" fill="white"/>
<rect x="13.2" y="8.40039" width="1.2" height="1.2" rx="0.6" fill="white"/>
<rect x="13.2" y="12" width="1.2" height="1.2" rx="0.6" fill="white"/>
</svg>
