<svg width="19" height="18" viewBox="0 0 19 18" fill="none" xmlns="http://www.w3.org/2000/svg">
<path d="M10.6448 3.03906C14.0087 3.39197 16.6252 6.09402 16.6252 9.375C16.6251 12.8957 13.6121 15.75 9.89575 15.75C8.32278 15.75 6.87648 15.2376 5.73071 14.3809L3.46411 16.5283C3.16714 16.8096 2.70247 16.8096 2.40552 16.5283C2.08494 16.2246 2.08494 15.7139 2.40552 15.4102L4.6106 13.3203C3.86894 12.4299 3.37237 11.3478 3.21802 10.165C3.16147 9.73153 3.52109 9.37508 3.95825 9.375C4.39548 9.375 4.74271 9.73216 4.81665 10.1631C5.21433 12.4806 7.33711 14.2499 9.89575 14.25C12.7377 14.25 15.0412 12.0673 15.0413 9.375C15.0413 6.92326 13.1313 4.8939 10.6438 4.55078C10.2335 4.49419 9.89585 4.16413 9.89575 3.75C9.89575 3.33581 10.2328 2.99588 10.6448 3.03906ZM4.35376 0.512695C4.80363 0.512695 5.2053 0.796401 5.35474 1.2207L5.87036 2.68848L7.48853 3.19922C7.89242 3.32676 8.16724 3.70144 8.16724 4.125C8.16716 4.54848 7.89236 4.92325 7.48853 5.05078L5.87036 5.56152L5.35474 7.02832C5.20538 7.45279 4.80374 7.7373 4.35376 7.7373C3.90397 7.73711 3.50306 7.45264 3.35376 7.02832L2.83813 5.56152L1.21997 5.05078C0.816133 4.92325 0.541337 4.54848 0.54126 4.125C0.54126 3.70144 0.816076 3.32676 1.21997 3.19922L2.83813 2.68848L3.35376 1.2207C3.50315 0.796555 3.90408 0.512894 4.35376 0.512695ZM4.21509 3.51855L3.71411 3.99219L3.29517 4.125L3.71411 4.25684L4.21509 4.73145L4.35376 5.12793L4.49341 4.73145L4.99438 4.25684L5.41333 4.125L4.99438 3.99219L4.49341 3.51855L4.35376 3.12109L4.21509 3.51855Z" fill="white" fill-opacity="0.8"/>
</svg>
