<svg width="24" height="24" viewBox="0 0 24 24" fill="none" xmlns="http://www.w3.org/2000/svg">
<path d="M20.3602 2.94803C19.9552 2.88903 19.5072 2.97902 19.0482 3.13602C18.7982 3.22102 19.2042 3.08603 11.7042 5.44803C11.6932 5.45203 4.93398 7.58702 4.42298 7.76102C2.84748 8.29602 2.07398 9.04002 2.01668 10.386C1.97608 11.34 2.42848 12.047 3.14168 12.511C3.35338 12.648 3.48968 12.737 3.76668 12.854C3.81238 12.873 3.81468 12.868 3.86048 12.886C4.42838 13.105 5.42848 13.3 6.79798 13.511C7.47798 13.615 8.19698 13.733 8.92298 13.823C9.05808 13.84 9.24048 13.861 9.45418 13.886C9.65618 14.149 9.91908 14.462 10.0792 14.667C10.7312 15.501 11.3972 16.324 12.0482 17.1041C12.2252 17.3171 12.4092 17.5311 12.5792 17.7291C13.2992 18.5731 13.9222 19.271 14.4542 19.792C15.2372 20.558 16.0992 20.934 16.9852 20.948C18.5042 20.973 19.6162 19.996 19.9852 18.511C20.0362 18.309 20.3372 16.273 20.9232 12.417C21.2782 10.077 21.9032 5.94403 21.9232 5.82303C21.9792 5.45903 22.0132 5.17204 21.9852 4.85404C21.9422 4.36104 21.7592 3.91202 21.4232 3.54202C21.1082 3.19502 20.7652 3.00703 20.3602 2.94803ZM17.4542 5.72904L9.73548 11.886C9.56068 11.861 9.42708 11.855 9.17298 11.823C8.46518 11.735 7.76858 11.643 7.11048 11.542C5.88948 11.354 4.96398 11.159 4.57918 11.011C4.56118 11.004 4.31958 10.909 4.23548 10.854C4.07378 10.749 4.00888 10.661 4.01668 10.479C4.03278 10.101 4.17298 9.96403 5.04798 9.66703C5.53568 9.50103 12.3182 7.35804 12.3292 7.35404C17.7142 5.65804 17.0602 5.86304 17.4542 5.72904ZM19.8292 6.38602C19.5902 7.95702 18.0712 17.918 18.0482 18.011C17.8912 18.64 17.5472 18.957 17.0172 18.948C16.6532 18.942 16.2852 18.7701 15.8602 18.3541C15.3792 17.8831 14.7632 17.219 14.0792 16.417C13.9152 16.224 13.7512 16.03 13.5792 15.823C12.9432 15.06 12.2812 14.236 11.6422 13.417C11.5792 13.337 11.5182 13.232 11.4232 13.104L19.8292 6.38602Z" fill="white" fill-opacity="0.8"/>
</svg>
