<svg width="24" height="24" viewBox="0 0 24 24" fill="none" xmlns="http://www.w3.org/2000/svg">
<path d="M17.2939 5.29286C17.6844 4.90236 18.3175 4.9024 18.708 5.29286C19.0985 5.68339 19.0985 6.31642 18.708 6.70693L6.70801 18.7069C6.31749 19.0973 5.68444 19.0974 5.29395 18.7069C4.90352 18.3164 4.90355 17.6834 5.29395 17.2929L5.64551 16.9403C3.45995 16.4713 2.00004 14.8109 2 12.08C2 8.81697 4.084 7.07997 7 7.07997H8C8.552 7.07997 9 7.52797 9 8.07997C8.99994 8.63192 8.55196 9.07997 8 9.07997H7C5.116 9.07997 4 10.01 4 12.08C4.00004 14.1499 5.11603 15.08 7 15.08H7.50684L9.09082 13.495C9.03289 13.3686 9.00002 13.2282 9 13.08V12.08C9 10.5312 9.50782 9.16122 10.5615 8.23622C11.4215 7.48222 12.579 7.07997 14 7.07997H15.5068L17.2939 5.29286ZM19.2939 8.29286C19.6845 7.90236 20.3175 7.9024 20.708 8.29286C22.003 9.58789 22.0016 11.2793 22.001 11.9589V12.0409C22.0012 13.0518 22.0013 14.4136 20.708 15.7069C20.1276 16.2873 19.3477 16.5969 18.707 16.7665C18.0505 16.9403 17.4138 16.9999 17.001 16.9999H16.001C15.4487 16.9998 15.001 16.5521 15.001 15.9999C15.001 15.4476 15.4487 15 16.001 14.9999H17.001C17.2548 14.9999 17.7186 14.9591 18.1953 14.8329C18.6879 14.7025 19.0744 14.5124 19.2939 14.2929C19.983 13.6038 20.001 12.985 20.001 11.9999C20.001 11.3088 19.9718 10.3848 19.2939 9.70693C18.9035 9.31642 18.9035 8.68337 19.2939 8.29286ZM13.4775 9.10829C12.785 9.18073 12.2587 9.39934 11.875 9.73622C11.4036 10.1502 11.1189 10.7796 11.0312 11.5546L13.4775 9.10829Z" fill="#E93E71"/>
</svg>
