<svg width="24" height="24" viewBox="0 0 24 24" fill="none" xmlns="http://www.w3.org/2000/svg">
<path d="M17.9472 6.62582C19.8716 9.47534 20.822 12.6895 20.4667 16.3898C20.4652 16.4054 20.4571 16.4198 20.4443 16.4292C18.987 17.5069 17.5751 18.161 16.183 18.5947C16.1721 18.598 16.1605 18.5978 16.1498 18.5942C16.1391 18.5905 16.1297 18.5836 16.1231 18.5743C15.8015 18.1236 15.5093 17.6485 15.2532 17.1496C15.2386 17.1202 15.252 17.0848 15.2822 17.0732C15.7463 16.8971 16.1877 16.686 16.6122 16.4361C16.6456 16.4164 16.6477 16.3681 16.6168 16.3449C16.5267 16.2776 16.4375 16.2068 16.3521 16.136C16.3361 16.1229 16.3146 16.1204 16.2965 16.1292C13.5406 17.4108 10.5216 17.4108 7.73305 16.1292C7.71495 16.121 7.69343 16.1238 7.67789 16.1367C7.59269 16.2074 7.50323 16.2776 7.41399 16.3449C7.3831 16.3681 7.38566 16.4164 7.41931 16.4361C7.84381 16.6813 8.28513 16.8971 8.74861 17.0741C8.77864 17.0856 8.79291 17.1202 8.778 17.1496C8.52752 17.6492 8.23529 18.1243 7.90771 18.575C7.89344 18.5932 7.87001 18.6016 7.84786 18.5947C6.46233 18.161 5.05039 17.5069 3.59308 16.4292C3.58094 16.4198 3.5722 16.4048 3.57093 16.3891C3.27401 13.1885 3.87913 9.94768 6.08809 6.62517C6.09342 6.61638 6.10151 6.60951 6.11089 6.60544C7.1978 6.10306 8.36224 5.73346 9.57929 5.52239C9.60144 5.51896 9.62359 5.52925 9.63509 5.54899C9.78547 5.81712 9.95735 6.16098 10.0736 6.44198C11.3565 6.24464 12.6594 6.24464 13.9691 6.44198C14.0854 6.16698 14.2513 5.81712 14.4011 5.54899C14.4064 5.5392 14.4147 5.53135 14.4247 5.52658C14.4347 5.5218 14.446 5.52033 14.4569 5.52239C15.6746 5.73411 16.839 6.1037 17.925 6.60544C17.9346 6.60951 17.9425 6.61638 17.9472 6.62582ZM10.7258 12.7114C10.7393 11.7652 10.0543 10.9823 9.19441 10.9823C8.34158 10.9823 7.66319 11.7583 7.66319 12.7114C7.66319 13.6642 8.355 14.4403 9.19441 14.4403C10.0474 14.4403 10.7258 13.6642 10.7258 12.7114ZM16.3877 12.7114C16.4011 11.7652 15.7161 10.9823 14.8564 10.9823C14.0034 10.9823 13.325 11.7583 13.325 12.7114C13.325 13.6642 14.0168 14.4403 14.8564 14.4403C15.7161 14.4403 16.3877 13.6642 16.3877 12.7114Z" fill="#7D7F82"/>
</svg>
