<svg width="20" height="20" viewBox="0 0 20 20" fill="none" xmlns="http://www.w3.org/2000/svg">
<path d="M14.9569 5.52184C16.5605 7.89643 17.3525 10.5749 17.0565 13.6585C17.0552 13.6715 17.0485 13.6835 17.0378 13.6913C15.8234 14.5894 14.6468 15.1344 13.4867 15.4959C13.4776 15.4986 13.468 15.4985 13.459 15.4955C13.4501 15.4924 13.4423 15.4866 13.4368 15.4789C13.1688 15.1033 12.9253 14.7074 12.7119 14.2916C12.6997 14.2671 12.7108 14.2376 12.7361 14.228C13.1228 14.0812 13.4906 13.9053 13.8443 13.6971C13.8722 13.6806 13.874 13.6404 13.8482 13.6211C13.7732 13.565 13.6988 13.506 13.6276 13.447C13.6143 13.4361 13.5964 13.4339 13.5813 13.4413C11.2847 14.5093 8.76886 14.5093 6.4451 13.4413C6.43001 13.4345 6.41208 13.4368 6.39913 13.4475C6.32813 13.5065 6.25358 13.565 6.17921 13.6211C6.15347 13.6404 6.1556 13.6806 6.18365 13.6971C6.53739 13.9014 6.90516 14.0812 7.29139 14.2287C7.31642 14.2383 7.32831 14.2671 7.31589 14.2916C7.10715 14.7079 6.86363 15.1039 6.59064 15.4794C6.57875 15.4946 6.55923 15.5016 6.54077 15.4959C5.38616 15.1344 4.20955 14.5894 2.99513 13.6913C2.98501 13.6835 2.97773 13.671 2.97667 13.6579C2.72924 10.9907 3.2335 8.29005 5.0743 5.5213C5.07874 5.51397 5.08548 5.50825 5.09329 5.50486C5.99905 5.08621 6.96942 4.77821 7.98362 4.60232C8.00208 4.59946 8.02054 4.60804 8.03013 4.62448C8.15544 4.84793 8.29868 5.13447 8.39559 5.36864C9.46464 5.20419 10.5504 5.20419 11.6418 5.36864C11.7387 5.13948 11.877 4.84793 12.0018 4.62448C12.0062 4.61632 12.0131 4.60979 12.0214 4.60581C12.0298 4.60183 12.0392 4.6006 12.0483 4.60232C13.063 4.77875 14.0334 5.08674 14.9384 5.50486C14.9464 5.50825 14.953 5.51397 14.9569 5.52184ZM8.93908 10.5931C8.95026 9.80465 8.37944 9.15219 7.66289 9.15219C6.9522 9.15219 6.38688 9.79893 6.38688 10.5931C6.38688 11.3872 6.96338 12.0339 7.66289 12.0339C8.37376 12.0339 8.93908 11.3872 8.93908 10.5931ZM13.6573 10.5931C13.6684 9.80465 13.0976 9.15219 12.3812 9.15219C11.6704 9.15219 11.1051 9.79893 11.1051 10.5931C11.1051 11.3872 11.6816 12.0339 12.3812 12.0339C13.0976 12.0339 13.6573 11.3872 13.6573 10.5931Z" fill="white" fill-opacity="0.54"/>
</svg>
