<svg width="19" height="18" viewBox="0 0 19 18" fill="none" xmlns="http://www.w3.org/2000/svg">
<path d="M12.874 2.24316C15.1522 2.24316 16.999 4.08966 16.999 6.36816C16.999 6.57987 16.9879 6.79045 16.9668 7H9.5C8.94772 7 8.5 7.44772 8.5 8V9C8.5 9.55228 8.94772 10 9.5 10H15.9453C15.3283 11.0626 14.4608 12.0891 13.3896 13.0713C12.622 13.7748 11.7953 14.392 10.9756 14.9463C10.6883 15.1398 10.4196 15.3157 10.1787 15.4619C10.0319 15.5511 9.93498 15.6157 9.87402 15.6494C9.64754 15.7753 9.35048 15.7754 9.12402 15.6494C9.06305 15.6157 8.96614 15.5511 8.81934 15.4619C8.57845 15.3157 8.30976 15.1398 8.02246 14.9463C7.20277 14.3921 6.37604 13.7747 5.6084 13.0713C3.3593 11.0089 1.99907 8.75606 1.99902 6.36816C1.99902 4.0897 3.84588 2.24323 6.12402 2.24316C7.48895 2.24316 8.74786 2.93054 9.52246 3.97754C10.3168 2.94857 11.5802 2.24321 12.874 2.24316Z" fill="#F7B800"/>
<rect x="9.5" y="8" width="9" height="1" rx="0.5" fill="#F7B800"/>
</svg>
