<svg width="24" height="24" viewBox="0 0 24 24" fill="none" xmlns="http://www.w3.org/2000/svg">
<path d="M18.9961 4.95312C18.9961 3.29613 17.6531 1.95312 15.9961 1.95312H7.9961C6.3391 1.95312 4.99609 3.29613 4.99609 4.95312V18.9531C4.99609 20.6101 6.3391 21.9531 7.9961 21.9531H15.9961C17.6531 21.9531 18.9961 20.6101 18.9961 18.9531V4.95312ZM16.9961 4.95312V17.9531C15.1781 17.9531 8.8141 17.9531 6.9961 17.9531V4.95312C6.9961 4.40112 7.4441 3.95312 7.9961 3.95312H15.9961C16.5481 3.95312 16.9961 4.40112 16.9961 4.95312ZM12.9961 19.9531C12.9961 20.5051 12.5481 20.9531 11.9961 20.9531C11.4441 20.9531 10.9961 20.5051 10.9961 19.9531C10.9961 19.4011 11.4441 18.9531 11.9961 18.9531C12.5481 18.9531 12.9961 19.4011 12.9961 19.9531Z" fill="white" fill-opacity="0.98"/>
</svg>
