<svg width="18" height="18" viewBox="0 0 18 18" fill="none" xmlns="http://www.w3.org/2000/svg">
<rect x="13.2" y="1.2002" width="1.2" height="1.2" rx="0.6" transform="rotate(90 13.2 1.2002)" fill="#7D7F82"/>
<rect x="12" y="2.40039" width="1.2" height="1.2" rx="0.6" transform="rotate(90 12 2.40039)" fill="#7D7F82"/>
<rect x="10.8" y="3.59961" width="1.2" height="1.2" rx="0.6" transform="rotate(90 10.8 3.59961)" fill="#7D7F82"/>
<rect x="9.59998" y="4.7998" width="1.2" height="1.2" rx="0.6" transform="rotate(90 9.59998 4.7998)" fill="#7D7F82"/>
<rect x="8.40002" y="6" width="1.2" height="1.2" rx="0.6" transform="rotate(90 8.40002 6)" fill="#7D7F82"/>
<rect x="7.19995" y="7.2002" width="1.2" height="1.2" rx="0.6" transform="rotate(90 7.19995 7.2002)" fill="#7D7F82"/>
<rect x="6" y="8.40039" width="1.2" height="1.2" rx="0.6" transform="rotate(90 6 8.40039)" fill="#7D7F82"/>
<rect x="4.80005" y="9.59961" width="1.2" height="1.2" rx="0.6" transform="rotate(90 4.80005 9.59961)" fill="#7D7F82"/>
<path d="M3 10.7998C3.33137 10.7998 3.59961 11.069 3.59961 11.4004V14.4004H6.59961C6.93098 14.4004 7.2002 14.6686 7.2002 15C7.2002 15.3314 6.93098 15.5996 6.59961 15.5996H3C2.7101 15.5996 2.46811 15.3944 2.41211 15.1211L2.40039 15V11.4004C2.40039 11.069 2.66863 10.7998 3 10.7998Z" fill="#7D7F82"/>
<rect x="8.40002" y="13.2002" width="1.2" height="1.2" rx="0.6" transform="rotate(90 8.40002 13.2002)" fill="#7D7F82"/>
<rect x="9.59998" y="12" width="1.2" height="1.2" rx="0.6" transform="rotate(90 9.59998 12)" fill="#7D7F82"/>
<rect x="10.8" y="10.7998" width="1.2" height="1.2" rx="0.6" transform="rotate(90 10.8 10.7998)" fill="#7D7F82"/>
<rect x="12" y="9.59961" width="1.2" height="1.2" rx="0.6" transform="rotate(90 12 9.59961)" fill="#7D7F82"/>
<rect x="13.2" y="8.40039" width="1.2" height="1.2" rx="0.6" transform="rotate(90 13.2 8.40039)" fill="#7D7F82"/>
<rect x="14.4" y="7.2002" width="1.2" height="1.2" rx="0.6" transform="rotate(90 14.4 7.2002)" fill="#7D7F82"/>
<rect x="15.6" y="6" width="1.2" height="1.2" rx="0.6" transform="rotate(90 15.6 6)" fill="#7D7F82"/>
<rect x="16.8" y="4.7998" width="1.2" height="1.2" rx="0.6" transform="rotate(90 16.8 4.7998)" fill="#7D7F82"/>
<rect x="15.6" y="3.59961" width="1.2" height="1.2" rx="0.6" transform="rotate(90 15.6 3.59961)" fill="#7D7F82"/>
<rect x="14.4" y="2.40039" width="1.2" height="1.2" rx="0.6" transform="rotate(90 14.4 2.40039)" fill="#7D7F82"/>
<rect x="12" y="4.7998" width="1.2" height="1.2" rx="0.6" transform="rotate(90 12 4.7998)" fill="#7D7F82"/>
<rect x="13.2" y="6" width="1.2" height="1.2" rx="0.6" transform="rotate(90 13.2 6)" fill="#7D7F82"/>
</svg>
