<svg width="18" height="18" viewBox="0 0 18 18" fill="none" xmlns="http://www.w3.org/2000/svg">
<rect x="13.2" y="1.19995" width="1.2" height="1.2" transform="rotate(90 13.2 1.19995)" fill="white" fill-opacity="0.54"/>
<rect x="12" y="2.3999" width="1.2" height="1.2" transform="rotate(90 12 2.3999)" fill="white" fill-opacity="0.54"/>
<rect x="10.8" y="3.6001" width="1.2" height="1.2" transform="rotate(90 10.8 3.6001)" fill="white" fill-opacity="0.54"/>
<rect x="9.59998" y="4.80005" width="1.2" height="1.2" transform="rotate(90 9.59998 4.80005)" fill="white" fill-opacity="0.54"/>
<rect x="8.40002" y="6" width="1.2" height="1.2" transform="rotate(90 8.40002 6)" fill="white" fill-opacity="0.54"/>
<rect x="7.19995" y="7.19995" width="1.2" height="1.2" transform="rotate(90 7.19995 7.19995)" fill="white" fill-opacity="0.54"/>
<rect x="6" y="8.3999" width="1.2" height="1.2" transform="rotate(90 6 8.3999)" fill="white" fill-opacity="0.54"/>
<rect x="4.80005" y="9.6001" width="1.2" height="1.2" transform="rotate(90 4.80005 9.6001)" fill="white" fill-opacity="0.54"/>
<rect x="3.59998" y="10.8" width="1.2" height="1.2" transform="rotate(90 3.59998 10.8)" fill="white" fill-opacity="0.54"/>
<rect x="3.59998" y="12" width="1.2" height="1.2" transform="rotate(90 3.59998 12)" fill="white" fill-opacity="0.54"/>
<rect x="3.59998" y="13.2" width="1.2" height="1.2" transform="rotate(90 3.59998 13.2)" fill="white" fill-opacity="0.54"/>
<rect x="3.59998" y="14.3999" width="1.2" height="1.2" transform="rotate(90 3.59998 14.3999)" fill="white" fill-opacity="0.54"/>
<rect x="4.80005" y="14.3999" width="1.2" height="1.2" transform="rotate(90 4.80005 14.3999)" fill="white" fill-opacity="0.54"/>
<rect x="6" y="14.3999" width="1.2" height="1.2" transform="rotate(90 6 14.3999)" fill="white" fill-opacity="0.54"/>
<rect x="7.19995" y="14.3999" width="1.2" height="1.2" transform="rotate(90 7.19995 14.3999)" fill="white" fill-opacity="0.54"/>
<rect x="8.40002" y="13.2" width="1.2" height="1.2" transform="rotate(90 8.40002 13.2)" fill="white" fill-opacity="0.54"/>
<rect x="9.59998" y="12" width="1.2" height="1.2" transform="rotate(90 9.59998 12)" fill="white" fill-opacity="0.54"/>
<rect x="10.8" y="10.8" width="1.2" height="1.2" transform="rotate(90 10.8 10.8)" fill="white" fill-opacity="0.54"/>
<rect x="12" y="9.6001" width="1.2" height="1.2" transform="rotate(90 12 9.6001)" fill="white" fill-opacity="0.54"/>
<rect x="13.2" y="8.3999" width="1.2" height="1.2" transform="rotate(90 13.2 8.3999)" fill="white" fill-opacity="0.54"/>
<rect x="14.4" y="7.19995" width="1.2" height="1.2" transform="rotate(90 14.4 7.19995)" fill="white" fill-opacity="0.54"/>
<rect x="15.6" y="6" width="1.2" height="1.2" transform="rotate(90 15.6 6)" fill="white" fill-opacity="0.54"/>
<rect x="16.8" y="4.80005" width="1.2" height="1.2" transform="rotate(90 16.8 4.80005)" fill="white" fill-opacity="0.54"/>
<rect x="15.6" y="3.6001" width="1.2" height="1.2" transform="rotate(90 15.6 3.6001)" fill="white" fill-opacity="0.54"/>
<rect x="14.4" y="2.3999" width="1.2" height="1.2" transform="rotate(90 14.4 2.3999)" fill="white" fill-opacity="0.54"/>
<rect x="12" y="4.80005" width="1.2" height="1.2" transform="rotate(90 12 4.80005)" fill="white" fill-opacity="0.54"/>
<rect x="13.2" y="6" width="1.2" height="1.2" transform="rotate(90 13.2 6)" fill="white" fill-opacity="0.54"/>
</svg>
