<svg width="14" height="14" viewBox="0 0 14 14" fill="none" xmlns="http://www.w3.org/2000/svg">
<path d="M9.914 1.13965C9.75942 1.13965 9.60426 1.19449 9.49459 1.30357C9.17026 1.6279 8.003 2.79516 7.744 3.05475L2.49109 8.30768L1.90717 8.89101C1.82609 8.97268 1.78409 9.08817 1.76134 9.20134L1.178 12.1198C1.09634 12.5281 1.44401 12.8757 1.85234 12.7947C2.21751 12.7212 4.40617 12.2837 4.77075 12.2108C4.88392 12.188 4.99943 12.146 5.08109 12.0649L5.66443 11.481L10.9173 6.22809C11.1769 5.96909 12.3442 4.80123 12.6685 4.47748C12.7776 4.36781 12.8324 4.21265 12.8324 4.05807C12.8324 3.10315 12.5892 2.42064 12.0846 1.90556C11.5753 1.38581 10.8952 1.13965 9.914 1.13965ZM10.1438 2.31739C10.6706 2.34831 11.0118 2.46908 11.2458 2.70825C11.4849 2.95208 11.636 3.29042 11.6687 3.80667C11.349 4.12575 10.8812 4.58656 10.4979 4.96981C10.0353 4.50723 9.46484 3.93675 9.00226 3.47416C9.38609 3.09091 9.82476 2.63647 10.1438 2.31739ZM8.16342 4.31299L9.65909 5.80867L5.245 10.2227L3.74934 8.72709L8.16342 4.31299ZM2.91051 9.56592L4.40617 11.0616L4.35134 11.1164C3.96634 11.1934 3.18876 11.3562 2.47243 11.4997L2.85568 9.62075L2.91051 9.56592Z" fill="white" fill-opacity="0.36"/>
</svg>
