<svg width="18" height="18" viewBox="0 0 18 18" fill="none" xmlns="http://www.w3.org/2000/svg">
<path d="M5.24902 2.19727C3.59227 2.19727 2.24902 3.54052 2.24902 5.19727V6.69727C2.24902 8.35402 3.59227 9.69727 5.24902 9.69727H12.749C14.4058 9.69727 15.749 8.35402 15.749 6.69727V5.19727C15.749 3.54052 14.4058 2.19727 12.749 2.19727H5.24902ZM5.24902 3.69727H12.749C13.5778 3.69727 14.249 4.36852 14.249 5.19727V6.69727C14.249 7.52602 13.5778 8.19727 12.749 8.19727H5.24902C4.42027 8.19727 3.74902 7.52602 3.74902 6.69727V5.19727C3.74902 4.36852 4.42027 3.69727 5.24902 3.69727ZM5.99902 5.19727C5.58502 5.19727 5.24902 5.53327 5.24902 5.94727C5.24902 6.36127 5.58502 6.69727 5.99902 6.69727H8.99902C9.41302 6.69727 9.74902 6.36127 9.74902 5.94727C9.74902 5.53327 9.41302 5.19727 8.99902 5.19727H5.99902ZM10.874 5.19727C10.5305 5.19727 10.4023 5.39977 10.5928 5.64277L11.2723 6.50977C11.4628 6.75277 11.7853 6.75277 11.9758 6.50977L12.6553 5.64277C12.8458 5.39977 12.7175 5.19727 12.374 5.19727H10.874ZM4.49902 11.1973C3.25627 11.1973 2.24902 12.2045 2.24902 13.4473C2.24902 14.69 3.25627 15.6973 4.49902 15.6973H13.499C14.7418 15.6973 15.749 14.69 15.749 13.4473C15.749 12.2045 14.7418 11.1973 13.499 11.1973H4.49902ZM4.49902 12.6973H13.499C13.913 12.6973 14.249 13.0333 14.249 13.4473C14.249 13.8613 13.913 14.1973 13.499 14.1973H4.49902C4.08502 14.1973 3.74902 13.8613 3.74902 13.4473C3.74902 13.0333 4.08502 12.6973 4.49902 12.6973Z" fill="white" fill-opacity="0.8" stroke="white" stroke-opacity="0.8" stroke-width="0.002" stroke-linecap="round" stroke-linejoin="round"/>
</svg>
