<svg width="24" height="24" viewBox="0 0 24 24" fill="none" xmlns="http://www.w3.org/2000/svg">
<path d="M20.0037 2.99072C19.7477 2.99072 19.4797 3.07673 19.2847 3.27173L15.2847 7.27173L13.0037 4.99072V10.9907H19.0037L16.7227 8.70972L20.7227 4.70972C21.1127 4.31872 21.1127 3.66273 20.7227 3.27173C20.5277 3.07673 20.2597 2.99072 20.0037 2.99072ZM5.00368 12.9907L7.28469 15.2717L3.28469 19.2717C2.89469 19.6627 2.89469 20.3187 3.28469 20.7097C3.47969 20.9047 3.74768 20.9907 4.00368 20.9907C4.25968 20.9907 4.52768 20.9047 4.72268 20.7097L8.72267 16.7097L11.0037 18.9907V12.9907H5.00368Z" fill="white" fill-opacity="0.8"/>
</svg>
