<svg width="14" height="14" viewBox="0 0 14 14" fill="none" xmlns="http://www.w3.org/2000/svg">
<rect x="7.4668" y="9.33301" width="0.933333" height="0.933333" transform="rotate(-180 7.4668 9.33301)" fill="#636567"/>
<rect x="6.5332" y="8.40039" width="0.933333" height="0.933333" transform="rotate(-180 6.5332 8.40039)" fill="#636567"/>
<rect x="8.3999" y="8.40039" width="0.933333" height="0.933333" transform="rotate(-180 8.3999 8.40039)" fill="#636567"/>
<rect x="5.6001" y="7.4668" width="0.933333" height="0.933333" transform="rotate(-180 5.6001 7.4668)" fill="#636567"/>
<rect x="9.3335" y="7.4668" width="0.933333" height="0.933333" transform="rotate(-180 9.3335 7.4668)" fill="#636567"/>
<rect x="4.6665" y="6.53321" width="0.933333" height="0.933333" transform="rotate(-180 4.6665 6.53321)" fill="#636567"/>
<rect x="3.7334" y="5.59961" width="0.933333" height="0.933333" transform="rotate(-180 3.7334 5.59961)" fill="#636567"/>
<rect x="10.2666" y="6.53321" width="0.933333" height="0.933333" transform="rotate(-180 10.2666 6.53321)" fill="#636567"/>
<rect x="11.2002" y="5.59961" width="0.933333" height="0.933333" transform="rotate(-180 11.2002 5.59961)" fill="#636567"/>
</svg>
