<svg width="18" height="18" viewBox="0 0 18 18" fill="none" xmlns="http://www.w3.org/2000/svg">
<path d="M9.00197 2.99835C6.78272 2.99835 4.91297 4.08885 3.37697 5.88134C2.85122 6.49409 2.39148 7.14885 2.01798 7.80285C1.79148 8.19885 1.65347 8.50484 1.57247 8.69384C1.49147 8.88209 1.49147 9.11459 1.57247 9.30284C1.65347 9.49184 1.79148 9.79783 2.01798 10.1938C2.39148 10.8478 2.85122 11.5026 3.37697 12.1153C4.91297 13.9078 6.78272 14.9983 9.00197 14.9983C11.2212 14.9983 13.091 13.9078 14.627 12.1153C15.1527 11.5026 15.6125 10.8478 15.986 10.1938C16.2125 9.79783 16.3505 9.49184 16.4315 9.30284C16.5125 9.11459 16.5125 8.88209 16.4315 8.69384C16.3505 8.50484 16.2125 8.19885 15.986 7.80285C15.6125 7.14885 15.1527 6.49409 14.627 5.88134C13.091 4.08885 11.2212 2.99835 9.00197 2.99835ZM9.00197 5.99835C10.6587 5.99835 12.002 7.34159 12.002 8.99834C12.002 10.6551 10.6587 11.9983 9.00197 11.9983C7.34522 11.9983 6.00197 10.6551 6.00197 8.99834C6.00197 7.34159 7.34522 5.99835 9.00197 5.99835ZM9.00197 7.49834C8.17322 7.49834 7.50197 8.16959 7.50197 8.99834C7.50197 9.82709 8.17322 10.4983 9.00197 10.4983C9.83072 10.4983 10.502 9.82709 10.502 8.99834C10.502 8.16959 9.83072 7.49834 9.00197 7.49834Z" fill="black" fill-opacity="0.54"/>
</svg>
