<svg width="24" height="24" viewBox="0 0 24 24" fill="none" xmlns="http://www.w3.org/2000/svg">
<path d="M7.99072 2.92969C5.22932 2.92969 2.99072 5.16869 2.99072 7.92969C2.99072 10.2917 4.32502 12.7277 7.17822 16.5237C9.91922 20.1697 10.5782 20.7827 11.843 20.9317C11.9278 20.9417 12.0555 20.9447 12.1493 20.9317C13.4032 20.7697 14.0915 20.1377 16.8032 16.5237C19.6518 12.7267 20.9907 10.2827 20.9907 7.92969C20.9907 5.16869 18.7521 2.92969 15.9907 2.92969C14.3007 2.92969 12.8195 3.79869 11.9885 4.92769C11.1661 3.79869 9.68072 2.92969 7.99072 2.92969ZM7.99072 4.92969C9.64752 4.92969 10.9907 6.27269 10.9907 7.92969C10.9907 9.26269 12.9907 9.26269 12.9907 7.92969C12.9907 6.27269 14.3338 4.92969 15.9907 4.92969C17.6475 4.92969 18.9907 6.27269 18.9907 7.92969C18.9907 9.67469 17.7503 11.9077 15.1782 15.3357C13.0278 18.2017 12.4261 18.8777 12.0219 18.9297C12.0135 18.9307 11.9667 18.9307 11.9595 18.9297C11.5601 18.8827 10.9672 18.2147 8.80322 15.3357C6.22632 11.9077 4.99072 9.68369 4.99072 7.92969C4.99072 6.27269 6.33382 4.92969 7.99072 4.92969Z" fill="white" fill-opacity="0.8"/>
</svg>
