<svg width="8" height="8" viewBox="0 0 8 8" fill="none" xmlns="http://www.w3.org/2000/svg">
<path d="M3.99809 1.66797C3.60909 1.66797 3.21576 2.0611 3.30543 2.44577C3.34309 2.60854 3.43643 2.82837 3.60909 3.1263C3.69309 3.27107 3.50976 3.38097 3.42676 3.2357C3.25943 2.94227 3.12309 2.7424 3.00143 2.62804C2.70476 2.34877 2.1751 2.49787 1.98076 2.83464C1.78643 3.17143 1.9311 3.7043 2.30876 3.81897C2.46876 3.86764 2.69343 3.89264 3.03809 3.89197C3.20843 3.89164 3.21376 4.0993 3.05009 4.09864C2.71243 4.09664 2.48076 4.1233 2.3211 4.1713C1.93076 4.28897 1.78643 4.81897 1.98076 5.15597C2.1751 5.49264 2.7011 5.6443 2.98943 5.37464C3.11143 5.2603 3.25543 5.06564 3.42676 4.76697C3.50976 4.62297 3.69209 4.73463 3.60909 4.8763C3.43876 5.16797 3.34376 5.3823 3.30543 5.54464C3.21209 5.9413 3.60909 6.33463 3.99809 6.33463C4.38709 6.33463 4.76809 5.94164 4.67876 5.55697C4.64076 5.39397 4.54776 5.1743 4.37476 4.8763C4.28476 4.7213 4.48142 4.61264 4.56942 4.76697C4.73676 5.0603 4.87309 5.24797 4.99476 5.3623C5.29142 5.64163 5.82109 5.50463 6.01542 5.16797C6.20976 4.8313 6.06509 4.2983 5.68742 4.18364C5.52742 4.13497 5.29042 4.10997 4.94609 4.11064C4.77242 4.11097 4.77576 3.89097 4.94609 3.89197C5.28376 3.89364 5.52742 3.86697 5.68742 3.81897C6.07775 3.70164 6.20976 3.17143 6.01542 2.83464C5.82109 2.49787 5.29509 2.35824 5.00676 2.62804C4.88476 2.74224 4.74076 2.92484 4.56942 3.22354C4.48142 3.37664 4.28742 3.27577 4.37476 3.1263C4.54509 2.83467 4.64042 2.62037 4.67876 2.4579C4.77209 2.06117 4.38709 1.66797 3.99809 1.66797Z" fill="#F67924"/>
</svg>
