<svg width="24" height="24" viewBox="0 0 24 24" fill="none" xmlns="http://www.w3.org/2000/svg">
<path d="M5.70117 3.9978C3.66397 3.9978 2.01367 5.6148 2.01367 7.6228V16.3728C2.01367 18.3808 3.66397 19.9978 5.70117 19.9978H18.3262C20.3634 19.9978 22.0137 18.3808 22.0137 16.3728V7.6228C22.0137 5.6148 20.3635 3.9978 18.3262 3.9978H5.70117ZM5.70117 5.9978H18.3262C19.2713 5.9978 20.0137 6.7318 20.0137 7.6228V16.3728C20.0137 17.2638 19.2713 17.9978 18.3262 17.9978H5.70117C4.75607 17.9978 4.01367 17.2638 4.01367 16.3728V7.6228C4.01367 6.7318 4.75607 5.9978 5.70117 5.9978ZM7.01367 7.9978C6.46137 7.9978 6.01367 8.4458 6.01367 8.9978V11.9978C6.01367 12.5498 6.46137 12.9978 7.01367 12.9978C7.56597 12.9978 8.01367 12.5498 8.01367 11.9978V9.9978H10.0137C10.566 9.9978 11.0137 9.5498 11.0137 8.9978C11.0137 8.4458 10.566 7.9978 10.0137 7.9978H7.01367ZM17.0137 10.9978C16.4614 10.9978 16.0137 11.4458 16.0137 11.9978V13.9978H14.0137C13.4614 13.9978 13.0137 14.4458 13.0137 14.9978C13.0137 15.5498 13.4614 15.9978 14.0137 15.9978H17.0137C17.566 15.9978 18.0137 15.5498 18.0137 14.9978V11.9978C18.0137 11.4458 17.566 10.9978 17.0137 10.9978Z" fill="white" fill-opacity="0.8"/>
</svg>
