<svg width="24" height="24" viewBox="0 0 24 24" fill="none" xmlns="http://www.w3.org/2000/svg">
<rect x="1.60001" y="11.2002" width="1.6" height="1.6" rx="0.8" fill="#636567"/>
<rect width="1.6" height="1.6" rx="0.8" transform="matrix(-1 0 0 1 22.4 11.2002)" fill="#636567"/>
<rect x="3.20001" y="12.7998" width="1.6" height="1.6" rx="0.8" fill="#636567"/>
<rect width="1.6" height="1.6" rx="0.8" transform="matrix(-1 0 0 1 20.8 12.7998)" fill="#636567"/>
<rect x="4.79999" y="14.4004" width="1.6" height="1.6" rx="0.8" fill="#636567"/>
<rect width="1.6" height="1.6" rx="0.8" transform="matrix(-1 0 0 1 19.2 14.4004)" fill="#636567"/>
<rect x="6.39999" y="16" width="1.6" height="1.6" rx="0.8" fill="#636567"/>
<rect x="9.60001" y="14.4004" width="1.6" height="6.4" rx="0.8" fill="#636567"/>
<rect x="11.2" y="9.59961" width="1.6" height="4.8" rx="0.8" fill="#636567"/>
<rect x="12.8" y="3.2002" width="1.6" height="6.4" rx="0.8" fill="#636567"/>
<rect width="1.6" height="1.6" rx="0.8" transform="matrix(-1 0 0 1 17.6 16)" fill="#636567"/>
<rect x="3.20001" y="9.59961" width="1.6" height="1.6" rx="0.8" fill="#636567"/>
<rect width="1.6" height="1.6" rx="0.8" transform="matrix(-1 0 0 1 20.8 9.59961)" fill="#636567"/>
<rect x="4.79999" y="8" width="1.6" height="1.6" rx="0.8" fill="#636567"/>
<rect width="1.6" height="1.6" rx="0.8" transform="matrix(-1 0 0 1 19.2 8)" fill="#636567"/>
<rect x="6.39999" y="6.40039" width="1.6" height="1.6" rx="0.8" fill="#636567"/>
<rect width="1.6" height="1.6" rx="0.8" transform="matrix(-1 0 0 1 17.6 6.40039)" fill="#636567"/>
</svg>
