<svg width="24" height="24" viewBox="0 0 24 24" fill="none" xmlns="http://www.w3.org/2000/svg">
<rect x="1.6" y="11.2" width="1.6" height="1.6" fill="white" fill-opacity="0.98"/>
<rect width="1.6" height="1.6" transform="matrix(-1 0 0 1 22.4 11.2)" fill="white" fill-opacity="0.98"/>
<rect x="3.2" y="12.8" width="1.6" height="1.6" fill="white" fill-opacity="0.98"/>
<rect width="1.6" height="1.6" transform="matrix(-1 0 0 1 20.8 12.8)" fill="white" fill-opacity="0.98"/>
<rect x="4.8" y="14.3999" width="1.6" height="1.6" fill="white" fill-opacity="0.98"/>
<rect width="1.6" height="1.6" transform="matrix(-1 0 0 1 19.2 14.3999)" fill="white" fill-opacity="0.98"/>
<rect x="6.4" y="16" width="1.6" height="1.6" fill="white" fill-opacity="0.98"/>
<rect x="9.6" y="19.2" width="1.6" height="1.6" fill="white" fill-opacity="0.98"/>
<rect x="9.6" y="17.6001" width="1.6" height="1.6" fill="white" fill-opacity="0.98"/>
<rect x="9.6" y="16" width="1.6" height="1.6" fill="white" fill-opacity="0.98"/>
<rect x="9.6" y="14.3999" width="1.6" height="1.6" fill="white" fill-opacity="0.98"/>
<rect x="11.2" y="12.8" width="1.6" height="1.6" fill="white" fill-opacity="0.98"/>
<rect x="11.2" y="11.2" width="1.6" height="1.6" fill="white" fill-opacity="0.98"/>
<rect x="11.2" y="9.6001" width="1.6" height="1.6" fill="white" fill-opacity="0.98"/>
<rect x="12.8" y="8" width="1.6" height="1.6" fill="white" fill-opacity="0.98"/>
<rect x="12.8" y="6.3999" width="1.6" height="1.6" fill="white" fill-opacity="0.98"/>
<rect x="12.8" y="4.80005" width="1.6" height="1.6" fill="white" fill-opacity="0.98"/>
<rect x="12.8" y="3.19995" width="1.6" height="1.6" fill="white" fill-opacity="0.98"/>
<rect width="1.6" height="1.6" transform="matrix(-1 0 0 1 17.6 16)" fill="white" fill-opacity="0.98"/>
<rect x="3.2" y="9.6001" width="1.6" height="1.6" fill="white" fill-opacity="0.98"/>
<rect width="1.6" height="1.6" transform="matrix(-1 0 0 1 20.8 9.6001)" fill="white" fill-opacity="0.98"/>
<rect x="4.8" y="8" width="1.6" height="1.6" fill="white" fill-opacity="0.98"/>
<rect width="1.6" height="1.6" transform="matrix(-1 0 0 1 19.2 8)" fill="white" fill-opacity="0.98"/>
<rect x="6.4" y="6.3999" width="1.6" height="1.6" fill="white" fill-opacity="0.98"/>
<rect width="1.6" height="1.6" transform="matrix(-1 0 0 1 17.6 6.3999)" fill="white" fill-opacity="0.98"/>
</svg>
