<svg width="20" height="20" viewBox="0 0 20 20" fill="none" xmlns="http://www.w3.org/2000/svg">
<path fill-rule="evenodd" clip-rule="evenodd" d="M10 4C6.685 4 4 6.75291 4 10.1518C4 12.8739 5.7175 15.1731 8.1025 15.9882C8.4025 16.0421 8.515 15.8575 8.515 15.696C8.515 15.5499 8.5075 15.0655 8.5075 14.5503C7 14.8348 6.61 14.1735 6.49 13.8274C6.4225 13.6506 6.13 13.1046 5.875 12.9585C5.665 12.8432 5.365 12.5586 5.8675 12.551C6.34 12.5433 6.6775 12.997 6.79 13.1815C7.33 14.112 8.1925 13.8505 8.5375 13.689C8.59 13.2892 8.7475 13.02 8.92 12.8662C7.585 12.7124 6.19 12.1818 6.19 9.8288C6.19 9.15979 6.4225 8.60613 6.805 8.17551C6.745 8.02171 6.535 7.39116 6.865 6.54529C6.865 6.54529 7.3675 6.38381 8.515 7.17585C8.995 7.03743 9.505 6.96823 10.015 6.96823C10.525 6.96823 11.035 7.03743 11.515 7.17585C12.6625 6.37612 13.165 6.54529 13.165 6.54529C13.495 7.39116 13.285 8.02171 13.225 8.17551C13.6075 8.60613 13.84 9.1521 13.84 9.8288C13.84 12.1895 12.4375 12.7124 11.1025 12.8662C11.32 13.0585 11.5075 13.4276 11.5075 14.0043C11.5075 14.8271 11.5 15.4884 11.5 15.696C11.5 15.8575 11.6125 16.0498 11.9125 15.9882C14.2825 15.1731 16 12.8662 16 10.1518C16 6.75291 13.315 4 10 4Z" fill="white" fill-opacity="0.54"/>
</svg>
