<svg width="24" height="24" viewBox="0 0 24 24" fill="none" xmlns="http://www.w3.org/2000/svg">
<path d="M8.99221 20.9297C10.0972 20.9297 10.9922 20.0347 10.9922 18.9297L10.9922 14.9297C10.9922 13.8247 10.0972 12.9297 8.99221 12.9297L4.99221 12.9297C3.88722 12.9297 2.99222 13.8247 2.99222 14.9297L2.99222 18.9297C2.99222 20.0347 3.88722 20.9297 4.99221 20.9297L8.99221 20.9297ZM8.99221 18.9297L4.99221 18.9297L4.99221 14.9297L8.99221 14.9297L8.99221 18.9297ZM18.9922 10.9297C20.0972 10.9297 20.9922 10.0347 20.9922 8.92966L20.9922 4.92965C20.9922 3.82464 20.0972 2.92964 18.9922 2.92964L14.9922 2.92964C13.8872 2.92964 12.9922 3.82464 12.9922 4.92965L12.9922 8.92966C12.9922 10.0347 13.8872 10.9297 14.9922 10.9297L18.9922 10.9297ZM8.99221 10.9297C10.0972 10.9297 10.9922 10.0347 10.9922 8.92966L10.9922 4.92965C10.9922 3.82464 10.0972 2.92964 8.99221 2.92964L4.99222 2.92964C3.88722 2.92964 2.99222 3.82464 2.99222 4.92965L2.99222 8.92966C2.99222 10.0347 3.88722 10.9297 4.99222 10.9297L8.99221 10.9297ZM18.9922 8.92966L14.9922 8.92966L14.9922 4.92965L18.9922 4.92965L18.9922 8.92966ZM8.99221 8.92966L4.99222 8.92966L4.99222 4.92965L8.99221 4.92965L8.99221 8.92966Z" fill="white" fill-opacity="0.8"/>
<rect x="13" y="13" width="3.5" height="3.50001" rx="1" fill="white" fill-opacity="0.8"/>
<rect x="17.5" y="13" width="3.5" height="3.50001" rx="1" fill="white" fill-opacity="0.8"/>
<rect x="13" y="17.5" width="3.5" height="3.50001" rx="1" fill="white" fill-opacity="0.8"/>
<rect x="17.5" y="17.5" width="3.5" height="3.50001" rx="1" fill="white" fill-opacity="0.8"/>
</svg>
