<svg width="24" height="24" viewBox="0 0 24 24" fill="none" xmlns="http://www.w3.org/2000/svg">
<path d="M19 3.90626C17.513 3.90926 16.516 5.01127 16.406 5.09327C15.817 5.53627 15.177 5.94326 14.5 6.28126C13.078 6.99226 11.536 7.43126 10 7.68726C9.462 7.77726 8.97601 7.84325 8.53101 7.87525C8.27101 7.89325 8.085 7.90626 8 7.90626H5.93799C3.73299 7.90626 2 9.69226 2 11.9063C2 14.1153 3.791 15.9063 6 15.9063V16.9063C6 18.5633 7.343 19.9063 9 19.9063C10.657 19.9063 12 18.5633 12 16.9063L12.006 16.5653C12.848 16.8073 13.71 17.1353 14.5 17.5313C15.173 17.8683 15.82 18.2793 16.406 18.7183C16.516 18.8013 17.63 19.9153 19 19.9063C20.642 19.8953 22 18.6303 22 17.0313V6.78126C22 5.18226 20.662 3.90326 19 3.90626ZM19 5.90626C19.567 5.90626 20 6.31826 20 6.78126V17.0313C20 17.4943 19.567 17.9063 19 17.9063C18.433 17.9063 18 17.4943 18 17.0313C18 14.5033 18 9.30926 18 6.78126C18 6.31826 18.433 5.90626 19 5.90626ZM16 7.72727C16 10.2423 15.991 13.5452 15.991 16.0602C15.785 15.9452 15.619 15.8563 15.406 15.7503C13.789 14.9393 12.064 14.4123 10.344 14.1253C9.30799 13.9523 8.486 13.9063 8 13.9063V9.90626C8.486 9.90626 9.30899 9.86026 10.344 9.68726C12.063 9.40126 13.79 8.87026 15.406 8.06226C15.62 7.95526 15.793 7.84327 16 7.72727ZM5.93799 9.90626H6V13.9063C4.895 13.9063 4 13.0113 4 11.9063C4 10.7853 4.84899 9.90626 5.93799 9.90626ZM8 15.9063C8.085 15.9063 8.27101 15.9193 8.53101 15.9373C8.97601 15.9693 9.462 16.0353 10 16.1253V16.9063C10 17.4583 9.552 17.9063 9 17.9063C8.448 17.9063 8 17.4583 8 16.9063V15.9063Z" fill="white" fill-opacity="0.8"/>
</svg>
