<svg width="24" height="24" viewBox="0 0 24 24" fill="none" xmlns="http://www.w3.org/2000/svg">
<path d="M17.9961 4.95312C17.9961 3.29613 16.6531 1.95312 14.9961 1.95312H8.9961C7.3391 1.95312 5.99609 3.29613 5.99609 4.95312V18.9531C5.99609 20.6101 7.3391 21.9531 8.9961 21.9531H14.9961C16.6531 21.9531 17.9961 20.6101 17.9961 18.9531V4.95312ZM15.9961 4.95312V17.9531C14.1781 17.9531 9.8141 17.9531 7.9961 17.9531V4.95312C7.9961 4.40112 8.4441 3.95312 8.9961 3.95312H14.9961C15.5481 3.95312 15.9961 4.40112 15.9961 4.95312ZM12.9961 19.9531C12.9961 20.5051 12.5481 20.9531 11.9961 20.9531C11.4441 20.9531 10.9961 20.5051 10.9961 19.9531C10.9961 19.4011 11.4441 18.9531 11.9961 18.9531C12.5481 18.9531 12.9961 19.4011 12.9961 19.9531Z" fill="white" fill-opacity="0.98"/>
</svg>
