<svg width="24" height="24" viewBox="0 0 24 24" fill="none" xmlns="http://www.w3.org/2000/svg">
<path d="M6 3.90625C4.343 3.90625 3 5.24925 3 6.90625V13.9062C2.448 13.9062 2 14.3542 2 14.9062V16.9062C2 18.6023 3.242 19.9062 5 19.9062H19C20.758 19.9062 22 18.6023 22 16.9062V14.9062C22 14.3542 21.552 13.9062 21 13.9062V6.90625C21 5.24925 19.657 3.90625 18 3.90625H6ZM6 5.90625H18C18.552 5.90625 19 6.35425 19 6.90625V13.9062H5V6.90625C5 6.35425 5.448 5.90625 6 5.90625ZM4 15.9062H20V16.9062C20 17.5192 19.631 17.9062 19 17.9062H5C4.369 17.9062 4 17.5192 4 16.9062V15.9062Z" fill="white" fill-opacity="0.98"/>
</svg>
