<svg width="24" height="24" viewBox="0 0 24 24" fill="none" xmlns="http://www.w3.org/2000/svg">
<path d="M8.96899 2.45571C7.55099 2.90571 6.328 3.63971 5.25 4.64371C4.917 4.95371 4.81501 5.46172 5.03101 5.86172C5.83201 7.34272 4.994 8.92771 3.187 9.01871C2.745 9.04072 2.354 9.36872 2.25 9.79972C2.071 10.5447 2 11.1687 2 11.9867C2 12.6737 2.07399 13.4517 2.21899 14.1437C2.30899 14.5757 2.685 14.8867 3.125 14.9247C4.943 15.0817 5.84301 16.4687 5.03101 18.2367C4.85101 18.6297 4.933 19.0997 5.25 19.3937C6.312 20.3757 7.53199 21.0687 8.96899 21.5187C9.37899 21.6467 9.84199 21.4917 10.094 21.1437C11.206 19.6047 12.819 19.5997 13.875 21.1437C14.124 21.5067 14.58 21.6817 15 21.5497C16.387 21.1127 17.679 20.3697 18.75 19.3937C19.08 19.0927 19.167 18.6057 18.969 18.2057C18.137 16.5267 19.094 14.9857 20.812 14.9557C21.268 14.9477 21.674 14.6487 21.781 14.2057C21.954 13.4887 22 12.8647 22 11.9867C22 11.2327 21.911 10.4897 21.75 9.76872C21.648 9.31172 21.249 8.98772 20.781 8.98672C19.09 8.98372 18.142 7.32172 18.969 5.86172C19.199 5.45572 19.127 4.95771 18.781 4.64371C17.691 3.65371 16.362 2.87971 14.969 2.45571C14.541 2.32571 14.086 2.48572 13.844 2.86172C12.878 4.36272 11.074 4.38871 10.125 2.89371C9.882 2.50971 9.40099 2.31871 8.96899 2.45571ZM15.047 4.57972C15.73 4.86572 16.269 5.16472 16.888 5.63372C16.162 7.93072 17.393 10.3167 19.943 10.8977C20.006 11.3107 20 11.5607 20 11.9867C20 12.4957 20.007 12.6747 19.949 13.0427C17.41 13.5687 16.154 15.8877 16.861 18.3387C16.253 18.7797 15.818 19.0857 15.055 19.3807C13.263 17.5567 10.775 17.4767 8.94501 19.3927C8.23101 19.0787 7.68201 18.7997 7.12701 18.3307C7.81501 15.8417 6.65201 13.6927 4.07001 13.0407C3.95501 12.5847 4.001 11.2967 4.067 10.9057C6.737 10.2657 7.78901 7.90272 7.12601 5.62672C7.71201 5.18572 8.23901 4.86472 8.92401 4.58672C10.649 6.34172 13.239 6.51672 15.047 4.57972ZM12 7.98672C9.791 7.98672 8 9.77772 8 11.9867C8 14.1967 9.791 15.9867 12 15.9867C14.209 15.9867 16 14.1967 16 11.9867C16 9.77772 14.209 7.98672 12 7.98672ZM12 9.98672C13.105 9.98672 14 10.8827 14 11.9867C14 13.0917 13.105 13.9867 12 13.9867C10.895 13.9867 10 13.0917 10 11.9867C10 10.8827 10.895 9.98672 12 9.98672Z" fill="white" fill-opacity="0.8"/>
</svg>
