<svg width="14" height="14" viewBox="0 0 14 14" fill="none" xmlns="http://www.w3.org/2000/svg">
<path d="M8.7567 1.13916C8.602 1.13916 8.44292 1.21995 8.33121 1.32688C7.42786 2.19184 7.15125 2.91518 7.48153 3.90603C6.71089 4.49671 6.22416 4.64167 5.26212 4.64167C3.947 4.64167 3.08833 4.80022 2.50406 5.38408V5.40228C1.95736 5.94874 1.95736 6.82374 2.50406 7.36974L4.13751 9.01591L1.35437 11.7978C1.12658 12.0253 1.10961 12.4074 1.3374 12.6349C1.56525 12.863 1.94815 12.863 2.176 12.6349L4.96947 9.84074L6.60566 11.4688C7.15241 12.0154 8.02765 12.0154 8.57441 11.4688H8.59266C9.17717 10.8849 9.34003 10.1365 9.34003 8.71783C9.34003 7.81599 9.52512 7.17958 10.0855 6.50991C11.1641 6.82608 11.7915 6.52333 12.676 5.63917C12.7854 5.5298 12.84 5.37475 12.84 5.2201C12.84 5.01495 12.7882 4.70047 12.6577 4.30917C12.4476 3.67911 12.0857 3.0452 11.5093 2.4691C10.9329 1.89306 10.2986 1.53139 9.66816 1.32134C9.27662 1.1909 8.96197 1.13916 8.7567 1.13916ZM8.98262 2.33768C9.60236 2.45271 10.2263 2.86297 10.6707 3.30718C11.1152 3.75133 11.4937 4.29534 11.6503 5.00835C11.0935 5.54245 10.753 5.58469 10.1961 5.29156C9.974 5.1746 9.69254 5.21596 9.51503 5.39341C8.45278 6.45508 8.17336 7.41816 8.17336 8.71783C8.17336 9.84949 8.10681 10.2701 7.75407 10.6492C7.65449 10.7566 7.51711 10.7402 7.426 10.6492L3.32441 6.55016C3.23329 6.45916 3.23609 6.34249 3.30953 6.25324C3.5179 5.99949 3.98165 5.80239 5.2567 5.80309C6.78095 5.80396 7.59126 5.41144 8.59266 4.47314C8.77017 4.29569 8.81427 4.02351 8.70198 3.79904C8.40203 3.19943 8.44882 2.88339 8.98262 2.33768Z" fill="white" fill-opacity="0.54"/>
</svg>
