<svg width="18" height="18" viewBox="0 0 18 18" fill="none" xmlns="http://www.w3.org/2000/svg">
<rect width="10.8" height="1.2" rx="0.6" transform="matrix(-1 0 0 1 14.4 2.40039)" fill="#7D7F82"/>
<rect width="1.2" height="10.8" rx="0.6" transform="matrix(-1 0 0 1 3.59998 3.59961)" fill="#7D7F82"/>
<rect width="1.2" height="10.8" rx="0.6" transform="matrix(-1 0 0 1 15.6 3.59961)" fill="#7D7F82"/>
<rect width="10.8" height="1.2" rx="0.6" transform="matrix(-1 0 0 1 14.4 14.4004)" fill="#7D7F82"/>
<rect width="1.2" height="3.6" rx="0.6" transform="matrix(-1 0 0 1 7.19995 1.2002)" fill="#7D7F82"/>
<rect width="1.2" height="3.6" rx="0.6" transform="matrix(-1 0 0 1 12 1.2002)" fill="#7D7F82"/>
<rect width="3.6" height="1.2" rx="0.6" transform="matrix(-1 0 0 1 10.8 4.7998)" fill="#7D7F82"/>
<rect width="1.2" height="1.2" rx="0.6" transform="matrix(-1 0 0 1 7.19995 10.7998)" fill="#7D7F82"/>
<rect width="1.2" height="2.4" rx="0.6" transform="matrix(-1 0 0 1 9.59998 9.59961)" fill="#7D7F82"/>
<rect width="1.2" height="3.6" rx="0.6" transform="matrix(-1 0 0 1 12 8.40039)" fill="#7D7F82"/>
</svg>
