<svg width="24" height="24" viewBox="0 0 24 24" fill="none" xmlns="http://www.w3.org/2000/svg">
<path d="M11.9229 2.19758C10.9059 2.18558 9.91046 2.52158 9.20386 3.22858L2.26636 10.3216C1.96796 10.6266 1.88806 11.0656 2.07886 11.4476L2.98505 13.2596L2.95386 18.9786C2.95376 20.1096 3.86005 21.0096 4.98505 21.0096H9.17255C10.1699 21.0096 10.9849 20.1946 10.9849 19.1976V14.8846C10.9849 14.4006 11.3759 14.0096 11.8599 14.0096H12.1099C12.5939 14.0096 12.9849 14.4006 12.9849 14.8846V19.1976C12.9849 20.1946 13.7999 21.0096 14.7979 21.0096H18.9849C20.1099 21.0096 21.0159 20.1036 21.0159 18.9786L20.9849 13.2596L21.8909 11.4476C22.0839 11.0626 22.0079 10.5956 21.7039 10.2906C21.4439 10.0306 15.3289 3.91559 14.7039 3.29059C13.9789 2.56559 12.9389 2.20858 11.9229 2.19758ZM11.9229 4.19758C12.4259 4.20758 12.9279 4.39058 13.2659 4.72858C13.8469 5.30858 18.8019 10.2636 19.7659 11.2286L19.0789 12.5716C19.0089 12.7126 18.9839 12.8526 18.9849 13.0096L19.0159 18.9786C19.0159 18.9926 19.0059 19.0096 18.9849 19.0096H14.9849V14.8846C14.9849 13.2956 13.6989 12.0096 12.1099 12.0096H11.8599C10.2709 12.0096 8.98505 13.2956 8.98505 14.8846V19.0096H4.98505C4.96465 19.0096 4.95386 18.9986 4.95386 18.9786L4.98505 13.0096C4.98605 12.8526 4.96166 12.7126 4.89136 12.5716L4.20386 11.1976L10.6099 4.63459C10.9189 4.32559 11.4189 4.18658 11.9229 4.19758Z" fill="white" fill-opacity="0.54"/>
</svg>
