<svg width="18" height="18" viewBox="0 0 18 18" fill="none" xmlns="http://www.w3.org/2000/svg">
<path d="M15.7607 3.66211C16.1747 3.66211 16.5107 3.99811 16.5107 4.41211C16.5107 4.82611 16.1747 5.16211 15.7607 5.16211H2.26074C1.84674 5.16211 1.51074 4.82611 1.51074 4.41211C1.51074 3.99811 1.84674 3.66211 2.26074 3.66211H15.7607ZM15.7607 6.66212C15.9527 6.66212 16.153 6.72662 16.3 6.87287C16.5925 7.16612 16.5925 7.65811 16.3 7.95136L15.3392 8.91212L16.3 9.87288C16.5925 10.1661 16.5925 10.6581 16.3 10.9514C16.0067 11.2439 15.5147 11.2439 15.2215 10.9514L13.7215 9.45137C13.429 9.15812 13.429 8.66612 13.7215 8.37287L15.2215 6.87287C15.3685 6.72662 15.5687 6.66212 15.7607 6.66212ZM11.2607 6.66212C11.6747 6.66212 12.0107 6.99812 12.0107 7.41212C12.0107 7.82612 11.6747 8.16212 11.2607 8.16212H2.26074C1.84674 8.16212 1.51074 7.82612 1.51074 7.41212C1.51074 6.99812 1.84674 6.66212 2.26074 6.66212H11.2607ZM11.2607 9.66212C11.6747 9.66212 12.0107 9.99812 12.0107 10.4121C12.0107 10.8261 11.6747 11.1621 11.2607 11.1621H2.26074C1.84674 11.1621 1.51074 10.8261 1.51074 10.4121C1.51074 9.99812 1.84674 9.66212 2.26074 9.66212H11.2607ZM15.7607 12.6621C16.1747 12.6621 16.5107 12.9981 16.5107 13.4121C16.5107 13.8261 16.1747 14.1621 15.7607 14.1621H2.26074C1.84674 14.1621 1.51074 13.8261 1.51074 13.4121C1.51074 12.9981 1.84674 12.6621 2.26074 12.6621H15.7607Z" fill="white" fill-opacity="0.8"/>
</svg>
