<svg width="24" height="24" viewBox="0 0 24 24" fill="none" xmlns="http://www.w3.org/2000/svg">
<path d="M11.9941 18.8652C12.8612 18.8652 13.5614 19.5655 13.5615 20.4326C13.5615 21.2998 12.8613 22 11.9941 22C11.127 22 10.4268 21.2998 10.4268 20.4326C10.4268 19.5656 11.1271 18.8653 11.9941 18.8652ZM4.92383 16.8643C5.53528 16.2528 6.53601 16.2528 7.14746 16.8643C7.7587 17.4757 7.75884 18.4765 7.14746 19.0879C6.53607 19.6991 5.53524 19.6991 4.92383 19.0879C4.31243 18.4765 4.31254 17.4757 4.92383 16.8643ZM16.8525 16.8643C17.464 16.2528 18.4647 16.2528 19.0762 16.8643C19.6874 17.4757 19.6876 18.4765 19.0762 19.0879C18.4648 19.6991 17.464 19.6991 16.8525 19.0879C16.2411 18.4765 16.2413 17.4757 16.8525 16.8643ZM11.0273 7.54688C11.3388 6.60215 12.6506 6.60202 12.9619 7.54688C13.6956 9.72583 14.2844 10.3155 16.4521 11.0381C17.3971 11.3494 17.3971 12.6614 16.4521 12.9727C14.2735 13.6952 13.6845 14.2954 12.9619 16.4629C12.6506 17.4079 11.3386 17.4079 11.0273 16.4629C10.2936 14.284 9.70396 13.6953 7.53613 12.9727C7.06921 12.817 6.8252 12.4162 6.8252 12.0049C6.82528 11.5937 7.0694 11.1937 7.53613 11.0381C9.71512 10.3155 10.3047 9.72586 11.0273 7.54688ZM3.56738 10.4375C4.43448 10.4375 5.13468 11.1378 5.13477 12.0049C5.13477 12.872 4.43453 13.5723 3.56738 13.5723C2.70031 13.5722 2 12.872 2 12.0049C2.00008 11.1379 2.70036 10.4376 3.56738 10.4375ZM20.4326 10.4375C21.2995 10.4377 21.9999 11.1379 22 12.0049C22 12.8719 21.2996 13.5721 20.4326 13.5723C19.5655 13.5723 18.8643 12.872 18.8643 12.0049C18.8643 11.1378 19.5655 10.4375 20.4326 10.4375ZM4.91211 4.92383C5.52352 4.31241 6.52428 4.31249 7.13574 4.92383C7.74719 5.53528 7.74719 6.53601 7.13574 7.14746C6.52428 7.75875 5.52351 7.75886 4.91211 7.14746C4.30083 6.53605 4.30086 5.53526 4.91211 4.92383ZM16.8418 4.92383C17.4533 4.31243 18.454 4.3124 19.0654 4.92383C19.6768 5.53527 19.6768 6.53604 19.0654 7.14746C18.454 7.75888 17.4533 7.75881 16.8418 7.14746C16.2303 6.53601 16.2303 5.53528 16.8418 4.92383ZM11.9941 2C12.8598 2 13.5614 2.70173 13.5615 3.56738C13.5615 4.43311 12.8599 5.13477 11.9941 5.13477C11.1284 5.13474 10.4268 4.43309 10.4268 3.56738C10.4268 2.70174 11.1285 2.00002 11.9941 2Z" fill="white" fill-opacity="0.54"/>
</svg>
