<svg width="24" height="24" viewBox="0 0 24 24" fill="none" xmlns="http://www.w3.org/2000/svg">
<path d="M10.0137 3.90625C5.59567 3.90625 2.01367 7.48825 2.01367 11.9062C2.01367 12.4582 2.46167 12.9062 3.01367 12.9062C3.56567 12.9062 4.01367 12.4582 4.01367 11.9062C4.01367 8.59225 6.69967 5.90625 10.0137 5.90625C13.3277 5.90625 16.0137 8.59225 16.0137 11.9062C16.0137 14.1152 14.2227 15.9062 12.0137 15.9062C10.3567 15.9062 8.93368 14.9043 8.32568 13.4683C8.12368 12.9903 8.01367 12.4582 8.01367 11.9062C8.01367 10.8242 8.44866 9.80925 9.20166 9.06225C9.59366 8.67325 9.58966 8.04825 9.20166 7.65625C9.00666 7.46025 8.73867 7.34524 8.48267 7.34423C8.22667 7.34224 7.99068 7.46125 7.79468 7.65625C6.66768 8.77525 5.99967 10.2862 6.01367 11.9062C6.05467 16.7562 9.99767 19.8782 14.0137 19.9062C18.4317 19.9372 22.0137 16.3242 22.0137 11.9062C22.0137 11.3542 21.5657 10.9062 21.0137 10.9062C20.4617 10.9062 20.0137 11.3542 20.0137 11.9062C20.0137 15.2202 17.3277 17.9062 14.0137 17.9062C13.6607 17.9062 13.3647 17.8792 13.0287 17.8212C15.8497 17.3312 18.0137 14.8672 18.0137 11.9062C18.0137 7.48825 14.4317 3.90625 10.0137 3.90625ZM12.0137 9.90624C10.9087 9.90624 10.0137 10.8012 10.0137 11.9062C10.0137 13.0112 10.9087 13.9062 12.0137 13.9062C13.1187 13.9062 14.0137 13.0112 14.0137 11.9062C14.0137 10.8012 13.1187 9.90624 12.0137 9.90624Z" fill="white" fill-opacity="0.54"/>
</svg>
