<svg width="24" height="24" viewBox="0 0 24 24" fill="none" xmlns="http://www.w3.org/2000/svg">
<path d="M11.9951 18.1787C12.7754 18.1788 13.4061 18.8086 13.4062 19.5889C13.4062 20.3693 12.7755 20.9999 11.9951 21C11.2147 21 10.584 20.3693 10.584 19.5889C10.5842 18.8086 11.2148 18.1787 11.9951 18.1787ZM5.63184 16.377C6.18214 15.8271 7.08264 15.8269 7.63281 16.377C8.18312 16.9273 8.18312 17.8286 7.63281 18.3789C7.08262 18.929 6.18215 18.9288 5.63184 18.3789C5.08153 17.8286 5.08153 16.9273 5.63184 16.377ZM16.3672 16.377C16.9174 15.8269 17.8179 15.8271 18.3682 16.377C18.9185 16.9273 18.9185 17.8286 18.3682 18.3789C17.8178 18.9288 16.9174 18.929 16.3672 18.3789C15.8169 17.8286 15.8169 16.9273 16.3672 16.377ZM11.125 7.99316C11.4052 7.14269 12.5851 7.14269 12.8652 7.99316C13.5255 9.95393 14.0561 10.4845 16.0068 11.1348C16.8573 11.4149 16.8573 12.5948 16.0068 12.875C14.0459 13.5253 13.5156 14.0666 12.8652 16.0176C12.5849 16.8675 11.4054 16.8675 11.125 16.0176C10.4646 14.0565 9.93351 13.5254 7.98242 12.875C7.56249 12.7348 7.34277 12.375 7.34277 12.0049C7.34282 11.6348 7.56249 11.2749 7.98242 11.1348C9.94344 10.4844 10.4747 9.95408 11.125 7.99316ZM4.41113 10.5938C5.19137 10.5939 5.82122 11.2246 5.82129 12.0049C5.82129 12.7852 5.19141 13.4158 4.41113 13.416C3.6307 13.416 3 12.7853 3 12.0049C3.00007 11.2245 3.63074 10.5938 4.41113 10.5938ZM19.5889 10.5938C20.3693 10.5938 20.9999 11.2245 21 12.0049C21 12.7853 20.3693 13.416 19.5889 13.416C18.8086 13.4158 18.1787 12.7852 18.1787 12.0049C18.1788 11.2246 18.8086 10.5939 19.5889 10.5938ZM5.62109 5.63184C6.1714 5.08153 7.07274 5.08153 7.62305 5.63184C8.17289 6.18214 8.17309 7.08264 7.62305 7.63281C7.07274 8.18312 6.1714 8.18312 5.62109 7.63281C5.07098 7.08262 5.07118 6.18215 5.62109 5.63184ZM16.3574 5.63184C16.9077 5.08153 17.8081 5.08153 18.3584 5.63184C18.9086 6.18215 18.9087 7.08255 18.3584 7.63281C17.8081 8.18289 16.9077 8.18294 16.3574 7.63281C15.8072 7.08257 15.8073 6.18216 16.3574 5.63184ZM11.9951 3C12.7742 3.00006 13.4062 3.63202 13.4062 4.41113C13.4061 5.19009 12.7741 5.82123 11.9951 5.82129C11.2161 5.82129 10.5842 5.19013 10.584 4.41113C10.584 3.63198 11.216 3 11.9951 3Z" fill="white" fill-opacity="0.98"/>
</svg>
