<svg width="18" height="18" viewBox="0 0 18 18" fill="none" xmlns="http://www.w3.org/2000/svg">
<path d="M6.02101 1.49902C4.36426 1.49902 3.02101 2.84228 3.02101 4.49903V13.4991C3.01651 15.1356 4.37101 16.5148 6.02101 16.4991H12.021C13.6988 16.5036 15.0255 15.1288 15.021 13.4991V4.49903C15.021 2.84228 13.6778 1.49902 12.021 1.49902H6.02101ZM6.02101 2.99903H12.021C12.8498 2.99903 13.521 3.67028 13.521 4.49903C13.521 4.49903 13.5263 13.3363 13.5158 13.4751C12.7463 12.5503 11.5755 11.9991 10.3102 11.9991C9.98775 11.9991 8.05426 11.9991 7.73176 11.9991C6.42826 11.9991 5.268 12.5151 4.52025 13.4188L4.52101 4.49903C4.52101 3.67028 5.19226 2.99903 6.02101 2.99903ZM9.021 4.49903C7.36425 4.49903 6.02101 5.84229 6.02101 7.49904C6.02101 9.1558 7.36425 10.499 9.021 10.499C10.6778 10.499 12.021 9.1558 12.021 7.49904C12.021 5.84229 10.6778 4.49903 9.021 4.49903ZM9.021 5.99904C9.84975 5.99904 10.521 6.67029 10.521 7.49904C10.521 8.32704 9.84975 8.99904 9.021 8.99904C8.19225 8.99904 7.521 8.32704 7.521 7.49904C7.521 6.67029 8.19225 5.99904 9.021 5.99904ZM7.73176 13.4991C8.05426 13.4991 9.98775 13.4991 10.3102 13.4991C11.256 13.4991 12.2055 14.0158 12.6637 14.8573C12.4717 14.9578 12.2033 14.9991 12.021 14.9991H6.02101C5.82751 14.9991 5.50651 14.9466 5.36551 14.8371C5.77351 13.9918 6.70876 13.4991 7.73176 13.4991Z" fill="white" fill-opacity="0.8"/>
</svg>
