<svg width="24" height="24" viewBox="0 0 24 24" fill="none" xmlns="http://www.w3.org/2000/svg">
<path d="M12 2.01367C6.47699 2.01367 2 6.49067 2 12.0137C2 17.5367 6.47699 22.0136 12 22.0136C17.523 22.0136 22 17.5367 22 12.0137C22 6.49067 17.523 2.01367 12 2.01367ZM12 4.01367C13.32 4.01367 14.77 7.04567 14.991 11.0107L9.02099 11.0227C9.24099 7.05767 10.68 4.01367 12 4.01367ZM8.46899 4.81668C7.60899 6.48968 7.14899 8.70768 7.03799 11.0157L4.05801 11.0067C4.35601 8.28168 6.19099 5.99568 8.46899 4.81668ZM15.536 4.82168C17.814 6.00068 19.602 8.22267 19.947 11.0227L16.968 11.0137C16.874 8.61366 16.343 6.50368 15.536 4.82168ZM4.06399 13.0177L7.04299 12.9927C7.15399 15.3007 7.61698 17.5566 8.47298 19.2116C6.08099 18.0126 4.40799 15.6657 4.06399 13.0177ZM9.005 13.0257L14.975 13.0127C14.755 16.9766 13.32 20.0136 12 20.0136C10.68 20.0136 9.225 16.9906 9.005 13.0257ZM16.973 13.0157L19.939 13.0067C19.595 15.6557 17.923 18.0217 15.532 19.2007C16.42 17.3647 16.862 15.3237 16.973 13.0157Z" fill="white" fill-opacity="0.8"/>
</svg>
