<svg width="24" height="24" viewBox="0 0 24 24" fill="none" xmlns="http://www.w3.org/2000/svg">
<rect x="3.20001" y="8" width="4.8" height="1.6" rx="0.8" fill="#636567"/>
<rect x="1.60001" y="9.59961" width="1.6" height="1.6" rx="0.8" fill="#636567"/>
<rect x="3.20001" y="11.2002" width="3.2" height="1.6" rx="0.8" fill="#636567"/>
<rect x="12.8" y="16" width="1.6" height="1.6" rx="0.8" fill="#636567"/>
<rect x="14.4" y="17.5996" width="1.6" height="1.6" rx="0.8" fill="#636567"/>
<path d="M18.4004 16C18.842 16.0002 19.2001 16.3582 19.2002 16.7998V20C19.2002 20.0277 19.199 20.0551 19.1963 20.082C19.158 20.4586 18.8581 20.7578 18.4814 20.7959L18.4004 20.7998H16.7998C16.3581 20.7997 16 20.4418 16 20C16 19.5582 16.3581 19.2003 16.7998 19.2002H17.5996V16.7998C17.5997 16.3581 17.9586 16 18.4004 16Z" fill="#636567"/>
<rect x="19.2" y="9.59961" width="1.6" height="6.4" rx="0.8" fill="#636567"/>
<rect x="19.2" y="4.7998" width="1.6" height="1.6" rx="0.8" fill="#636567"/>
<rect x="17.6" y="6.40039" width="1.6" height="1.6" rx="0.8" fill="#636567"/>
<rect x="16" y="8" width="1.6" height="1.6" rx="0.8" fill="#636567"/>
<rect x="14.4" y="9.59961" width="1.6" height="1.6" rx="0.8" fill="#636567"/>
<rect x="12.8" y="11.2002" width="1.6" height="1.6" rx="0.8" fill="#636567"/>
<path d="M12 12.8008C12.4418 12.8008 12.7998 13.1588 12.7998 13.6006V15.2002C12.7998 15.642 12.4418 16 12 16C11.5582 16 11.2002 15.642 11.2002 15.2002V14.4004H7.2002C6.75843 14.4004 6.40049 14.0423 6.40039 13.6006C6.40039 13.1588 6.75837 12.8008 7.2002 12.8008C7.26324 12.4219 11.6032 12.8008 12 12.8008Z" fill="#636567"/>
<rect x="8" y="6.40039" width="4.8" height="1.6" rx="0.8" fill="#636567"/>
<rect x="12.8" y="4.7998" width="4.8" height="1.6" rx="0.8" fill="#636567"/>
<path d="M21.5996 3.2002C22.0414 3.2002 22.4004 3.55817 22.4004 4V8.7998C22.4004 9.24163 22.0414 9.59961 21.5996 9.59961C21.158 9.5994 20.7998 9.2415 20.7998 8.7998V4.7998H18.4004C17.9586 4.7998 17.5996 4.44183 17.5996 4C17.5996 3.55817 17.9586 3.2002 18.4004 3.2002H21.5996Z" fill="#636567"/>
</svg>
