<svg width="18" height="18" viewBox="0 0 18 18" fill="none" xmlns="http://www.w3.org/2000/svg">
<path d="M13.5108 8.99854C12.682 8.99854 12.0108 9.66979 12.0108 10.4985V13.4985C12.0108 14.3273 12.682 14.9985 13.5108 14.9985H15.0108C15.8395 14.9985 16.5108 14.3273 16.5108 13.4985V10.4985C16.5108 9.66979 15.8395 8.99854 15.0108 8.99854H13.5108ZM13.5108 10.4985H15.0108V13.4985H13.5108V10.4985ZM8.26075 2.99854C7.432 2.99854 6.76075 3.66979 6.76075 4.49854V13.4985C6.76075 14.3273 7.432 14.9985 8.26075 14.9985H9.76075C10.5895 14.9985 11.2607 14.3273 11.2607 13.4985V4.49854C11.2607 3.66979 10.5895 2.99854 9.76075 2.99854H8.26075ZM8.26075 4.49854H9.76075V13.4985H8.26075V4.49854ZM3.01074 6.74854C2.18199 6.74854 1.51074 7.41979 1.51074 8.24854V13.4985C1.51074 14.3273 2.18199 14.9985 3.01074 14.9985H4.51074C5.3395 14.9985 6.01075 14.3273 6.01075 13.4985V8.24854C6.01075 7.41979 5.3395 6.74854 4.51074 6.74854H3.01074ZM3.01074 8.24854H4.51074V13.4985H3.01074V8.24854Z" fill="white" fill-opacity="0.8"/>
</svg>
