<svg width="19" height="18" viewBox="0 0 19 18" fill="none" xmlns="http://www.w3.org/2000/svg">
<path d="M6.12415 2.24304C3.84595 2.24304 1.99915 4.08955 1.99915 6.36805C1.99915 8.75606 3.35927 11.0091 5.60852 13.0716C6.37622 13.7751 7.2028 14.3923 8.02254 14.9466C8.30987 15.1401 8.57859 15.3156 8.81949 15.4618C8.96634 15.5511 9.06317 15.6156 9.12414 15.6493C9.35064 15.7753 9.64764 15.7753 9.87414 15.6493C9.93512 15.6156 10.0319 15.5511 10.1788 15.4618C10.4197 15.3156 10.6884 15.1401 10.9757 14.9466C11.7955 14.3923 12.6221 13.7751 13.3898 13.0716C15.639 11.0091 16.9991 8.75606 16.9991 6.36805C16.9991 4.08955 15.1523 2.24304 12.8741 2.24304C11.5802 2.24304 10.3169 2.94805 9.52254 3.97705C8.74794 2.93005 7.48907 2.24304 6.12415 2.24304Z" fill="white" fill-opacity="0.2"/>
</svg>
