<svg width="24" height="24" viewBox="0 0 24 24" fill="none" xmlns="http://www.w3.org/2000/svg">
<path d="M5.99219 3.00598C4.33519 3.00598 2.99219 4.34898 2.99219 6.00598C2.99219 7.66298 4.33519 9.00598 5.99219 9.00598C7.21018 9.00598 8.31919 8.24198 8.77319 7.13098C9.86919 7.48198 10.4882 8.71798 10.9922 12.006C11.3542 14.368 11.7732 16.043 12.3982 17.006H10.7112C10.3442 16.375 9.70218 16.006 8.99218 16.006C7.88718 16.006 6.99218 16.902 6.99218 18.006C6.99218 19.111 7.88718 20.006 8.99218 20.006C9.70218 20.006 10.3662 19.628 10.7112 19.006H15.1482C15.5602 20.202 16.7352 21.006 17.9922 21.006C19.6492 21.006 20.9922 19.663 20.9922 18.006C20.9922 16.349 19.6492 15.006 17.9922 15.006C16.7742 15.006 15.6702 15.719 15.2112 16.881C14.0302 16.44 13.5902 15.404 13.0232 12.006C12.6302 9.64898 12.2302 7.97398 11.5862 7.00598L13.2732 6.97498C13.5992 7.60098 14.2822 8.00598 14.9922 8.00598C16.0972 8.00598 16.9922 7.10998 16.9922 6.00598C16.9922 4.90098 16.0972 4.00598 14.9922 4.00598C14.2822 4.00598 13.6242 4.36698 13.2422 5.00598H8.83618C8.36618 3.80998 7.24918 3.00598 5.99219 3.00598ZM5.99219 5.00598C6.54418 5.00598 6.99218 5.45398 6.99218 6.00598C6.99218 6.55798 6.54418 7.00598 5.99219 7.00598C5.44019 7.00598 4.99219 6.55798 4.99219 6.00598C4.99219 5.72998 5.09219 5.46799 5.27319 5.28699C5.45419 5.10599 5.71619 5.00598 5.99219 5.00598ZM17.9922 17.006C18.5442 17.006 18.9922 17.454 18.9922 18.006C18.9922 18.558 18.5442 19.006 17.9922 19.006C17.4402 19.006 16.9922 18.558 16.9922 18.006C16.9922 17.454 17.4402 17.006 17.9922 17.006Z" fill="white" fill-opacity="0.8"/>
</svg>
