<svg width="18" height="18" viewBox="0 0 18 18" fill="none" xmlns="http://www.w3.org/2000/svg">
<path d="M4.51074 2.99805C2.85399 2.99805 1.51074 4.3413 1.51074 5.99805V14.998C1.51074 15.616 2.21124 15.9783 2.70624 15.607L5.51874 13.498H13.5107C15.1675 13.498 16.5107 12.1548 16.5107 10.498V5.99805C16.5107 4.3413 15.1675 2.99805 13.5107 2.99805H4.51074ZM4.51074 4.49805H13.5107C14.3395 4.49805 15.0107 5.1693 15.0107 5.99805V10.498C15.0107 11.3268 14.3395 11.998 13.5107 11.998H5.26074C5.09874 11.998 4.945 12.0416 4.81525 12.1391L3.01074 13.498V5.99805C3.01074 5.1693 3.68199 4.49805 4.51074 4.49805ZM6.01074 7.49805C5.59674 7.49805 5.26074 7.83405 5.26074 8.24805C5.26074 8.66205 5.59674 8.99805 6.01074 8.99805C6.42474 8.99805 6.76074 8.66205 6.76074 8.24805C6.76074 7.83405 6.42474 7.49805 6.01074 7.49805ZM9.01074 7.49805C8.59674 7.49805 8.26074 7.83405 8.26074 8.24805C8.26074 8.66205 8.59674 8.99805 9.01074 8.99805C9.42474 8.99805 9.76074 8.66205 9.76074 8.24805C9.76074 7.83405 9.42474 7.49805 9.01074 7.49805ZM12.0107 7.49805C11.5967 7.49805 11.2607 7.83405 11.2607 8.24805C11.2607 8.66205 11.5967 8.99805 12.0107 8.99805C12.4247 8.99805 12.7607 8.66205 12.7607 8.24805C12.7607 7.83405 12.4247 7.49805 12.0107 7.49805Z" fill="white" fill-opacity="0.8"/>
</svg>
