<svg width="18" height="18" viewBox="0 0 18 18" fill="none" xmlns="http://www.w3.org/2000/svg">
<path fill-rule="evenodd" clip-rule="evenodd" d="M8.25 3C8.25 2.58579 8.58579 2.25 9 2.25C12.7275 2.25 15.75 5.27245 15.75 9C15.75 12.7275 12.7275 15.75 9 15.75C5.27245 15.75 2.25 12.7275 2.25 9C2.25 8.58579 2.58579 8.25 3 8.25C3.41421 8.25 3.75 8.58579 3.75 9C3.75 11.8991 6.10088 14.25 9 14.25C11.8991 14.25 14.25 11.8991 14.25 9C14.25 6.10088 11.8991 3.75 9 3.75C8.58579 3.75 8.25 3.41421 8.25 3Z" fill="#335FFC"/>
</svg>
