<svg width="178" height="48" viewBox="0 0 178 48" fill="none" xmlns="http://www.w3.org/2000/svg">
<path fill-rule="evenodd" clip-rule="evenodd" d="M73.2093 24C73.2093 10.7467 83.986 0 97.2764 0C110.567 0 121.343 10.7467 121.343 24C121.343 37.2533 110.567 48 97.2764 48C83.986 48 73.2093 37.2533 73.2093 24ZM84.3515 24C84.3515 31.12 90.1365 36.8889 97.2764 36.8889C104.416 36.8889 110.201 31.12 110.201 24C110.201 16.88 104.416 11.1111 97.2764 11.1111C90.1365 11.1111 84.3515 16.88 84.3515 24Z" fill="white" fill-opacity="0.98"/>
<path fill-rule="evenodd" clip-rule="evenodd" d="M129.366 24C129.366 10.7467 140.143 0 153.433 0C166.723 0 177.5 10.7467 177.5 24C177.5 37.2533 166.723 48 153.433 48C140.143 48 129.366 37.2533 129.366 24ZM140.508 24C140.508 31.12 146.293 36.8889 153.433 36.8889C160.573 36.8889 166.358 31.12 166.358 24C166.358 16.88 160.573 11.1111 153.433 11.1111C146.293 11.1111 140.508 16.88 140.508 24Z" fill="white" fill-opacity="0.98"/>
<path d="M0.5 0.888916H12.1502L21.3046 30.7378L27.5443 15.3334C28.3643 13.3156 30.3253 12 32.5003 12H36.9393C39.1232 12 41.0842 13.3156 41.8954 15.3334L48.135 30.7378L51.5668 19.5556H63.217L55.9256 43.3334C55.2392 45.5734 53.1623 47.1111 50.8091 47.1111H46.7266C44.5427 47.1111 42.5817 45.7956 41.7706 43.7778L34.7198 26.3823L27.669 43.7778C26.849 45.7956 24.888 47.1111 22.713 47.1111H18.6305C16.2773 47.1111 14.2004 45.5823 13.514 43.3334L0.5 0.888916Z" fill="white" fill-opacity="0.98"/>
<path d="M53.8844 12L57.2894 0.888916H68.9486L65.5346 12H53.8844Z" fill="white" fill-opacity="0.98"/>
</svg>
