<svg width="18" height="18" viewBox="0 0 18 18" fill="none" xmlns="http://www.w3.org/2000/svg">
<path d="M15.7607 5.24316C15.7607 3.58641 14.4175 2.24316 12.7607 2.24316H9.76074C8.10399 2.24316 6.76074 3.58641 6.76074 5.24316C6.76074 5.65716 7.09674 5.99316 7.51074 5.99316C7.92474 5.99316 8.26074 5.65716 8.26074 5.24316C8.26074 4.41441 8.93199 3.74316 9.76074 3.74316H12.7607C13.5895 3.74316 14.2607 4.41441 14.2607 5.24316V12.7432C14.2607 13.5719 13.5895 14.2432 12.7607 14.2432H9.76074C8.93199 14.2432 8.26074 13.5719 8.26074 12.7432C8.26074 12.3292 7.92474 11.9932 7.51074 11.9932C7.09674 11.9932 6.76074 12.3292 6.76074 12.7432C6.76074 14.3999 8.10399 15.7432 9.76074 15.7432H12.7607C14.4175 15.7432 15.7607 14.3999 15.7607 12.7432V5.24316ZM10.5107 8.99316C10.5107 8.57916 10.1747 8.24316 9.76074 8.24316H4.51074V5.99316L1.51074 8.99316L4.51074 11.9932V9.74316H9.76074C10.1747 9.74316 10.5107 9.40716 10.5107 8.99316Z" fill="#FF375B"/>
</svg>
