<svg width="18" height="18" viewBox="0 0 18 18" fill="none" xmlns="http://www.w3.org/2000/svg">
<path d="M4.49316 2.19727C4.20891 2.19727 3.94041 2.36527 3.81366 2.61877L2.31366 5.61878C2.28666 5.67278 2.24316 5.88352 2.24316 5.94727C2.24316 6.69727 2.62942 7.28902 2.98792 7.61527L2.99316 14.1973C2.57916 14.1973 2.24316 14.5333 2.24316 14.9473C2.24316 15.3613 2.57916 15.6973 2.99316 15.6973H14.9932C15.4072 15.6973 15.7432 15.3613 15.7432 14.9473C15.7432 14.5333 15.4072 14.1973 14.9932 14.1973L14.9857 7.63177C15.3434 7.30552 15.7432 6.69727 15.7432 5.94727C15.7432 5.88352 15.6997 5.67278 15.6727 5.61878L14.1727 2.61877C14.0459 2.36527 13.7774 2.19727 13.4932 2.19727H4.49316ZM4.96191 3.69727H13.0244L14.2469 6.11152C14.1982 6.38227 13.8697 6.69727 13.4932 6.69727C13.0792 6.69727 12.7432 6.36127 12.7432 5.94727C12.7432 5.53327 12.4072 5.19727 11.9932 5.19727C11.7862 5.19727 11.5897 5.27227 11.4539 5.40802C11.3182 5.54377 11.2432 5.74027 11.2432 5.94727C11.2432 6.36127 10.9072 6.69727 10.4932 6.69727C10.0792 6.69727 9.74316 6.36127 9.74316 5.94727C9.74316 5.53327 9.40716 5.19727 8.99316 5.19727C8.78616 5.19727 8.58967 5.27227 8.45392 5.40802C8.31817 5.54377 8.24316 5.74027 8.24316 5.94727C8.24316 6.36127 7.90716 6.69727 7.49316 6.69727C7.07916 6.69727 6.74316 6.36127 6.74316 5.94727C6.74316 5.53327 6.40716 5.19727 5.99316 5.19727C5.78616 5.19727 5.58967 5.27227 5.45392 5.40802C5.31817 5.54377 5.24316 5.74027 5.24316 5.94727C5.24316 6.36127 4.90716 6.69727 4.49316 6.69727C4.11666 6.69727 3.81141 6.45427 3.75891 6.09202L4.96191 3.69727ZM5.99165 7.61376C6.3914 7.97751 6.90966 8.19727 7.49316 8.19727C8.07666 8.19727 8.58891 7.99252 8.98866 7.62802C9.3884 7.99252 9.90966 8.19727 10.4932 8.19727C11.0767 8.19727 11.5949 7.97978 11.9947 7.61603C12.3952 7.97978 12.9097 8.19727 13.4932 8.19727V14.1973H4.49316V8.19727C5.07666 8.19727 5.5919 7.97751 5.99165 7.61376ZM6.74316 8.94727C6.32916 8.94727 5.99316 9.28327 5.99316 9.69728V11.9473C5.99316 12.3613 6.32916 12.6973 6.74316 12.6973H11.2432C11.6572 12.6973 11.9932 12.3613 11.9932 11.9473V9.69728C11.9932 9.28327 11.6572 8.94727 11.2432 8.94727C10.8292 8.94727 10.4932 9.28327 10.4932 9.69728V11.1973H7.49316V9.69728C7.49316 9.28327 7.15716 8.94727 6.74316 8.94727Z" fill="white" fill-opacity="0.8"/>
</svg>
