<svg width="18" height="18" viewBox="0 0 18 18" fill="none" xmlns="http://www.w3.org/2000/svg">
<path d="M8.62809 1.56367L3.3781 4.56367C2.8741 4.8516 2.8741 5.58825 3.3781 5.87617C4.03435 6.25117 7.97184 8.50117 8.62809 8.87617C8.85834 9.00795 9.14709 9.00795 9.37809 8.87617L14.6281 5.87617C15.1321 5.58825 15.1321 4.8516 14.6281 4.56367L9.37809 1.56367C9.14784 1.4319 8.85909 1.4319 8.62809 1.56367ZM9.00309 3.08708L12.7298 5.21992L9.00309 7.35277C8.22909 6.91042 6.5386 5.94128 5.27635 5.21992L9.00309 3.08708ZM3.5656 8.24333C3.38035 8.29388 3.1996 8.41507 3.09685 8.59492C2.89135 8.95455 3.01885 9.42067 3.3781 9.62617L8.62809 12.6262C8.85834 12.7579 9.14709 12.7579 9.37809 12.6262L14.6281 9.62617C14.9881 9.42067 15.1148 8.95455 14.9093 8.59492C14.7038 8.2353 14.2381 8.10817 13.8781 8.31367L9.00309 11.1028L4.1281 8.31367C3.9481 8.21093 3.75085 8.19285 3.5656 8.24333ZM3.5656 11.9933C3.38035 12.0439 3.1996 12.1651 3.09685 12.3449C2.89135 12.7045 3.01885 13.1707 3.3781 13.3762L8.62809 16.3762C8.85834 16.5079 9.14709 16.5079 9.37809 16.3762L14.6281 13.3762C14.9881 13.1707 15.1148 12.7045 14.9093 12.3449C14.7038 11.9853 14.2381 11.8582 13.8781 12.0637L9.00309 14.8528L4.1281 12.0637C3.9481 11.9609 3.75085 11.9428 3.5656 11.9933Z" fill="white" fill-opacity="0.8"/>
</svg>
