<svg width="32" height="32" viewBox="0 0 32 32" fill="none" xmlns="http://www.w3.org/2000/svg">
<rect x="4.26667" y="12.8" width="2.13333" height="2.13333" fill="#F84600"/>
<rect x="14.9333" y="10.6666" width="2.13333" height="2.13333" fill="#F84600"/>
<rect x="12.8" y="12.8" width="2.13333" height="2.13333" fill="#F84600"/>
<rect x="17.0667" y="12.8" width="2.13333" height="2.13333" fill="#F84600"/>
<rect x="14.9333" y="14.9333" width="2.13333" height="2.13333" fill="#F84600"/>
<rect x="12.8" y="17.0667" width="2.13333" height="2.13333" fill="#F84600"/>
<rect x="17.0667" y="17.0667" width="2.13333" height="2.13333" fill="#F84600"/>
<rect x="19.2" y="19.2" width="2.13333" height="2.13333" fill="#F84600"/>
<rect x="19.2" y="21.3334" width="2.13333" height="2.13333" fill="#F84600"/>
<rect x="10.6667" y="19.2" width="2.13333" height="2.13333" fill="#F84600"/>
<rect x="10.6667" y="21.3334" width="2.13333" height="2.13333" fill="#F84600"/>
<rect x="25.6" y="12.8" width="2.13333" height="2.13333" fill="#F84600"/>
<rect x="4.26667" y="17.0667" width="2.13333" height="2.13333" fill="#F84600"/>
<rect x="4.26667" y="14.9333" width="2.13333" height="2.13333" fill="#F84600"/>
<rect x="25.6" y="14.9333" width="2.13333" height="2.13333" fill="#F84600"/>
<rect x="25.6" y="17.0667" width="2.13333" height="2.13333" fill="#F84600"/>
<rect x="6.4" y="10.6666" width="2.13333" height="2.13333" fill="#F84600"/>
<rect x="23.4667" y="10.6666" width="2.13333" height="2.13333" fill="#F84600"/>
<rect x="6.4" y="21.3334" width="2.13333" height="2.13333" fill="#F84600"/>
<rect x="23.4667" y="21.3334" width="2.13333" height="2.13333" fill="#F84600"/>
<rect x="6.4" y="8.53333" width="2.13333" height="2.13333" fill="#F84600"/>
<rect x="23.4667" y="8.53333" width="2.13333" height="2.13333" fill="#F84600"/>
<rect x="6.4" y="19.2" width="2.13333" height="2.13333" fill="#F84600"/>
<rect x="23.4667" y="19.2" width="2.13333" height="2.13333" fill="#F84600"/>
<rect x="8.53333" y="6.40002" width="2.13333" height="2.13333" fill="#F84600"/>
<rect x="19.2" y="6.40002" width="2.13333" height="2.13333" fill="#F84600"/>
<rect x="8.53333" y="23.4667" width="2.13333" height="2.13333" fill="#F84600"/>
<rect x="19.2" y="23.4667" width="2.13333" height="2.13333" fill="#F84600"/>
<rect x="12.8" y="4.26672" width="2.13333" height="2.13333" fill="#F84600"/>
<rect x="12.8" y="25.6" width="2.13333" height="2.13333" fill="#F84600"/>
<rect x="14.9333" y="4.26672" width="2.13333" height="2.13333" fill="#F84600"/>
<rect x="14.9333" y="25.6" width="2.13333" height="2.13333" fill="#F84600"/>
<rect x="17.0667" y="4.26672" width="2.13333" height="2.13333" fill="#F84600"/>
<rect x="17.0667" y="25.6" width="2.13333" height="2.13333" fill="#F84600"/>
<rect x="10.6667" y="6.40002" width="2.13333" height="2.13333" fill="#F84600"/>
<rect x="12.8" y="6.40002" width="2.13333" height="2.13333" fill="#F84600"/>
<rect x="12.8" y="23.4667" width="2.13333" height="2.13333" fill="#F84600"/>
<rect x="17.0667" y="23.4667" width="2.13333" height="2.13333" fill="#F84600"/>
<rect x="17.0667" y="6.40002" width="2.13333" height="2.13333" fill="#F84600"/>
<rect x="21.3333" y="6.40002" width="2.13333" height="2.13333" fill="#F84600"/>
<rect x="10.6667" y="23.4667" width="2.13333" height="2.13333" fill="#F84600"/>
<rect x="21.3333" y="23.4667" width="2.13333" height="2.13333" fill="#F84600"/>
</svg>
