<svg width="24" height="24" viewBox="0 0 24 24" fill="none" xmlns="http://www.w3.org/2000/svg">
<rect x="8" y="4.79999" width="1.6" height="1.6" fill="white" fill-opacity="0.98"/>
<rect x="8" y="6.40002" width="1.6" height="1.6" fill="white" fill-opacity="0.98"/>
<rect x="8" y="8" width="1.6" height="1.6" fill="white" fill-opacity="0.98"/>
<rect x="9.6" y="9.59998" width="1.6" height="1.6" fill="white" fill-opacity="0.98"/>
<rect x="11.2" y="9.59998" width="1.6" height="1.6" fill="white" fill-opacity="0.98"/>
<rect x="11.2" y="12.8" width="1.6" height="1.6" fill="white" fill-opacity="0.98"/>
<rect x="12.8" y="12.8" width="1.6" height="1.6" fill="white" fill-opacity="0.98"/>
<rect x="14.4" y="12.8" width="1.6" height="1.6" fill="white" fill-opacity="0.98"/>
<rect x="16" y="14.4" width="1.6" height="1.6" fill="white" fill-opacity="0.98"/>
<rect x="17.6" y="16" width="1.6" height="1.6" fill="white" fill-opacity="0.98"/>
<rect x="17.6" y="17.6" width="1.6" height="1.6" fill="white" fill-opacity="0.98"/>
<rect x="9.6" y="12.8" width="1.6" height="1.6" fill="white" fill-opacity="0.98"/>
<rect x="8" y="12.8" width="1.6" height="1.6" fill="white" fill-opacity="0.98"/>
<rect x="6.4" y="14.4" width="1.6" height="1.6" fill="white" fill-opacity="0.98"/>
<rect x="4.8" y="16" width="1.6" height="1.6" fill="white" fill-opacity="0.98"/>
<rect x="4.8" y="17.6" width="1.6" height="1.6" fill="white" fill-opacity="0.98"/>
<rect x="6.4" y="19.2" width="11.2" height="1.6" fill="white" fill-opacity="0.98"/>
<rect x="12.8" y="9.59998" width="1.6" height="1.6" fill="white" fill-opacity="0.98"/>
<rect x="9.6" y="3.20001" width="1.6" height="1.6" fill="white" fill-opacity="0.98"/>
<rect x="11.2" y="3.20001" width="1.6" height="1.6" fill="white" fill-opacity="0.98"/>
<rect x="14.4" y="4.79999" width="1.6" height="1.6" fill="white" fill-opacity="0.98"/>
<rect x="14.4" y="6.40002" width="1.6" height="1.6" fill="white" fill-opacity="0.98"/>
<rect x="14.4" y="8" width="1.6" height="1.6" fill="white" fill-opacity="0.98"/>
<rect x="12.8" y="3.20001" width="1.6" height="1.6" fill="white" fill-opacity="0.98"/>
</svg>
