<svg width="32" height="32" viewBox="0 0 32 32" fill="none" xmlns="http://www.w3.org/2000/svg">
<rect x="4.26667" y="12.7998" width="2.13333" height="6.4" rx="1" fill="#F84600"/>
<rect x="14.9333" y="10.667" width="2.13333" height="2.13333" rx="1" fill="#F84600"/>
<rect x="12.8" y="12.7998" width="2.13333" height="2.13333" rx="1" fill="#F84600"/>
<rect x="17.0667" y="12.7998" width="2.13333" height="2.13333" rx="1" fill="#F84600"/>
<rect x="14.9333" y="14.9336" width="2.13333" height="2.13333" rx="1" fill="#F84600"/>
<rect x="12.8" y="17.0664" width="2.13333" height="2.13333" rx="1" fill="#F84600"/>
<rect x="17.0667" y="17.0664" width="2.13333" height="2.13333" rx="1" fill="#F84600"/>
<rect x="19.2" y="19.2002" width="2.13333" height="4.26667" rx="1" fill="#F84600"/>
<rect x="10.6667" y="19.2002" width="2.13333" height="4.26667" rx="1" fill="#F84600"/>
<rect x="25.6" y="12.7998" width="2.13333" height="6.4" rx="1" fill="#F84600"/>
<rect x="6.4" y="8.5332" width="2.13333" height="4.26667" rx="1" fill="#F84600"/>
<rect x="23.4667" y="8.5332" width="2.13333" height="4.26667" rx="1" fill="#F84600"/>
<rect x="6.4" y="19.2002" width="2.13333" height="4.26667" rx="1" fill="#F84600"/>
<rect x="23.4667" y="19.2002" width="2.13333" height="4.26667" rx="1" fill="#F84600"/>
<rect x="8.53333" y="6.40039" width="6.4" height="2.13333" rx="1" fill="#F84600"/>
<rect x="8.53333" y="23.4668" width="6.4" height="2.13333" rx="1" fill="#F84600"/>
<rect x="12.8" y="4.2666" width="6.4" height="2.13333" rx="1" fill="#F84600"/>
<rect x="12.8" y="25.5996" width="6.4" height="2.13333" rx="1" fill="#F84600"/>
<rect x="17.0667" y="6.40039" width="6.4" height="2.13333" rx="1" fill="#F84600"/>
<rect x="17.0667" y="23.4668" width="6.4" height="2.13333" rx="1" fill="#F84600"/>
</svg>
