<svg width="24" height="24" viewBox="0 0 24 24" fill="none" xmlns="http://www.w3.org/2000/svg">
<rect x="4.8" y="11.2002" width="14.4" height="1.6" rx="0.5" fill="#A5A7AA"/>
<rect x="19.2" y="9.59961" width="1.6" height="4.8" rx="0.5" fill="#A5A7AA"/>
<rect x="3.2" y="9.59961" width="1.6" height="4.8" rx="0.5" fill="#A5A7AA"/>
<rect x="17.6" y="6.40039" width="1.6" height="3.2" rx="0.5" fill="#A5A7AA"/>
<rect x="4.8" y="14.4004" width="1.6" height="3.2" rx="0.5" fill="#A5A7AA"/>
<rect x="17.6" y="14.4004" width="1.6" height="3.2" rx="0.5" fill="#A5A7AA"/>
<rect x="4.8" y="6.40039" width="1.6" height="3.2" rx="0.5" fill="#A5A7AA"/>
<rect x="14.4" y="4.7998" width="1.6" height="1.6" fill="#A5A7AA"/>
<rect x="6.4" y="17.5996" width="4.8" height="1.6" rx="0.5" fill="#A5A7AA"/>
<rect x="14.4" y="17.5996" width="1.6" height="1.6" fill="#A5A7AA"/>
<rect x="9.6" y="3.2002" width="4.8" height="1.6" rx="0.5" fill="#A5A7AA"/>
<rect x="11.2" y="3.2002" width="1.6" height="1.6" fill="#A5A7AA"/>
<rect x="11.2" y="19.2002" width="1.6" height="1.6" fill="#A5A7AA"/>
<rect x="9.6" y="19.2002" width="4.8" height="1.6" rx="0.5" fill="#A5A7AA"/>
<rect x="8" y="4.7998" width="1.6" height="1.6" fill="#A5A7AA"/>
<rect x="6.4" y="4.7998" width="4.8" height="1.6" rx="0.5" fill="#A5A7AA"/>
<rect x="8" y="6.40039" width="1.6" height="11.2" rx="0.5" fill="#A5A7AA"/>
<rect x="8" y="8" width="1.6" height="1.6" fill="#A5A7AA"/>
<rect x="8" y="9.59961" width="1.6" height="1.6" fill="#A5A7AA"/>
<rect x="8" y="12.7998" width="1.6" height="1.6" fill="#A5A7AA"/>
<rect x="8" y="14.4004" width="1.6" height="1.6" fill="#A5A7AA"/>
<rect x="12.8" y="17.5996" width="4.8" height="1.6" rx="0.5" fill="#A5A7AA"/>
<rect x="14.4" y="14.4004" width="1.6" height="1.6" fill="#A5A7AA"/>
<rect x="14.4" y="12.7998" width="1.6" height="1.6" fill="#A5A7AA"/>
<rect x="14.4" y="9.59961" width="1.6" height="1.6" fill="#A5A7AA"/>
<rect x="14.4" y="8" width="1.6" height="1.6" fill="#A5A7AA"/>
<rect x="14.4" y="6.40039" width="1.6" height="11.2" rx="0.5" fill="#A5A7AA"/>
<rect x="12.8" y="4.7998" width="4.8" height="1.6" rx="0.5" fill="#A5A7AA"/>
<rect x="8" y="17.5996" width="1.6" height="1.6" fill="#A5A7AA"/>
</svg>
