<svg width="18" height="18" viewBox="0 0 18 18" fill="none" xmlns="http://www.w3.org/2000/svg">
<path d="M4.51074 2.92969C2.85392 2.92969 1.51074 4.27294 1.51074 5.92969V11.9297C1.51074 13.5864 2.85392 14.9297 4.51074 14.9297H13.5107C15.1675 14.9297 16.5107 13.5864 16.5107 11.9297V5.92969C16.5107 4.27294 15.1675 2.92969 13.5107 2.92969H4.51074ZM4.51074 4.42969H13.5107C14.3395 4.42969 15.0107 5.10094 15.0107 5.92969V11.9297C15.0107 12.7584 14.3395 13.4297 13.5107 13.4297H4.51074C3.68229 13.4297 3.01074 12.7584 3.01074 11.9297V5.92969C3.01074 5.10094 3.68229 4.42969 4.51074 4.42969ZM5.26074 5.92969C5.06882 5.92969 4.86811 5.99419 4.72164 6.14044C4.42876 6.43369 4.42876 6.92568 4.72164 7.21893L5.68262 8.17969L4.72164 9.14044C4.42876 9.43369 4.42876 9.92568 4.72164 10.2189C5.01459 10.5114 5.50689 10.5114 5.79984 10.2189L7.29984 8.71893C7.59249 8.42568 7.59249 7.93369 7.29984 7.64044L5.79984 6.14044C5.65337 5.99419 5.45267 5.92969 5.26074 5.92969ZM9.01074 8.92969C8.59674 8.92969 8.26074 9.26569 8.26074 9.67969C8.26074 10.0937 8.59674 10.4297 9.01074 10.4297H11.2607C11.6747 10.4297 12.0107 10.0937 12.0107 9.67969C12.0107 9.26569 11.6747 8.92969 11.2607 8.92969H9.01074Z" fill="white" fill-opacity="0.8"/>
</svg>
