<svg width="24" height="24" viewBox="0 0 24 24" fill="none" xmlns="http://www.w3.org/2000/svg">
<path d="M20 18V20H4V18H20ZM20 6H4V20C2.89543 20 2 19.1046 2 18V6C2 4.89543 2.89543 4 4 4H20L20.2041 4.01074C21.2128 4.113 22 4.96435 22 6V18C22 19.0357 21.2128 19.887 20.2041 19.9893L20 20V6Z" fill="white"/>
<path d="M9.70703 10.293C10.0976 10.6835 10.0976 11.3165 9.70703 11.707L7 14.4141L5.58594 13L7.58594 11L5.58594 9L7 7.58594L9.70703 10.293Z" fill="white"/>
<path d="M12 14H17V16H12V14Z" fill="white"/>
<path d="M17 14V16H12V14H17Z" fill="white"/>
</svg>
