<svg width="18" height="18" viewBox="0 0 18 18" fill="none" xmlns="http://www.w3.org/2000/svg">
<path d="M3.00488 2.24316C2.59088 2.24316 2.25488 2.57916 2.25488 2.99316C2.25488 3.36816 2.25488 5.61816 2.25488 5.99316C2.25488 6.40716 2.59088 6.74316 3.00488 6.74316H3.75488V11.2432H3.00488C2.59088 11.2432 2.25488 11.5792 2.25488 11.9932C2.25488 12.3682 2.25488 14.6182 2.25488 14.9932C2.25488 15.4072 2.59088 15.7432 3.00488 15.7432H6.00488C6.41888 15.7432 6.75488 15.4072 6.75488 14.9932V14.2432H11.2549C11.2549 14.5124 11.2549 14.8994 11.2549 14.9932C11.2549 15.4072 11.5909 15.7432 12.0049 15.7432H15.0049C15.4189 15.7432 15.7549 15.4072 15.7549 14.9932V11.9932C15.7549 11.5792 15.4189 11.2432 15.0049 11.2432H14.2549V6.74316H15.0049C15.4189 6.74316 15.7549 6.40716 15.7549 5.99316V2.99316C15.7549 2.57916 15.4189 2.24316 15.0049 2.24316H12.0049C11.5909 2.24316 11.2549 2.57916 11.2549 2.99316C11.2549 3.08691 11.2549 3.47391 11.2549 3.74316H6.75488V2.99316C6.75488 2.57916 6.41888 2.24316 6.00488 2.24316H3.00488ZM3.75488 3.74316H5.25488V5.24316H3.75488C3.75488 4.70391 3.75488 4.28241 3.75488 3.74316ZM12.7549 3.74316H14.2549V5.24316H12.7549C12.7549 4.70391 12.7549 4.28241 12.7549 3.74316ZM6.75488 5.24316H11.2549C11.2549 5.51241 11.2549 5.89941 11.2549 5.99316C11.2549 6.40716 11.5909 6.74316 12.0049 6.74316H12.7549V11.2432H12.0049C11.5909 11.2432 11.2549 11.5792 11.2549 11.9932C11.2549 12.0869 11.2549 12.4739 11.2549 12.7432H6.75488V11.9932C6.75488 11.5792 6.41888 11.2432 6.00488 11.2432H5.25488V6.74316H6.00488C6.41888 6.74316 6.75488 6.40716 6.75488 5.99316V5.24316ZM3.75488 12.7432H5.25488V13.4932V14.2432H3.75488C3.75488 13.7039 3.75488 13.2824 3.75488 12.7432ZM12.7549 12.7432H14.2549V14.2432H12.7549C12.7549 13.9739 12.7549 13.7332 12.7549 13.4932C12.7549 13.2532 12.7549 13.0124 12.7549 12.7432Z" fill="white" fill-opacity="0.8"/>
</svg>
