<svg width="24" height="24" viewBox="0 0 24 24" fill="none" xmlns="http://www.w3.org/2000/svg">
<rect x="3.2002" y="3.2002" width="1.6" height="4.8" fill="white" fill-opacity="0.54"/>
<rect x="3.2002" y="16" width="1.6" height="4.8" fill="white" fill-opacity="0.54"/>
<rect x="16" y="3.2002" width="1.6" height="4.8" fill="white" fill-opacity="0.54"/>
<rect x="16" y="16" width="1.6" height="4.8" fill="white" fill-opacity="0.54"/>
<rect x="4.7998" y="3.2002" width="1.6" height="1.6" fill="white" fill-opacity="0.54"/>
<rect x="8" y="4.7998" width="8" height="1.6" fill="white" fill-opacity="0.54"/>
<rect x="8" y="17.6001" width="8" height="1.6" fill="white" fill-opacity="0.54"/>
<rect x="4.7998" y="16" width="1.6" height="1.6" fill="white" fill-opacity="0.54"/>
<rect x="17.6001" y="3.2002" width="1.6" height="1.6" fill="white" fill-opacity="0.54"/>
<rect x="17.6001" y="16" width="1.6" height="1.6" fill="white" fill-opacity="0.54"/>
<rect x="4.7998" y="6.3999" width="1.6" height="9.6" fill="white" fill-opacity="0.54"/>
<rect x="17.6001" y="8" width="1.6" height="8" fill="white" fill-opacity="0.54"/>
<rect x="4.7998" y="19.2002" width="1.6" height="1.6" fill="white" fill-opacity="0.54"/>
<rect x="17.6001" y="6.3999" width="1.6" height="1.6" fill="white" fill-opacity="0.54"/>
<rect x="17.6001" y="19.2002" width="1.6" height="1.6" fill="white" fill-opacity="0.54"/>
<rect x="6.3999" y="3.2002" width="1.6" height="4.8" fill="white" fill-opacity="0.54"/>
<rect x="6.3999" y="16" width="1.6" height="4.8" fill="white" fill-opacity="0.54"/>
<rect x="19.2002" y="3.2002" width="1.6" height="4.8" fill="white" fill-opacity="0.54"/>
<rect x="19.2002" y="16" width="1.6" height="4.8" fill="white" fill-opacity="0.54"/>
</svg>
