<svg width="24" height="24" viewBox="0 0 24 24" fill="none" xmlns="http://www.w3.org/2000/svg">
<rect x="8" y="4.7998" width="8" height="1.6" rx="0.8" fill="#7D7F82"/>
<rect x="8" y="17.6001" width="8" height="1.6" rx="0.8" fill="#7D7F82"/>
<rect x="4.7998" y="8" width="1.6" height="8" rx="0.8" fill="#7D7F82"/>
<rect x="17.6001" y="8" width="1.6" height="8" rx="0.8" fill="#7D7F82"/>
<path d="M7.2002 16C7.64187 16.0001 7.99989 16.3581 8 16.7998V20C8 20.0277 7.99884 20.0551 7.99609 20.082C7.95778 20.4583 7.65847 20.7575 7.28223 20.7959L7.2002 20.7998H4C3.55817 20.7998 3.2002 20.4418 3.2002 20V16.7998C3.2003 16.3581 3.55824 16 4 16H7.2002ZM4.7998 17.5996V19.2002H6.40039V17.5996H4.7998Z" fill="#7D7F82"/>
<path d="M7.2002 3.2002C7.22789 3.2002 7.25526 3.20135 7.28223 3.2041C7.65847 3.24251 7.95778 3.5417 7.99609 3.91797C7.99884 3.94493 8 3.97231 8 4V7.2002C7.9999 7.61418 7.68537 7.95495 7.28223 7.99609L7.2002 8H4C3.58593 8 3.24526 7.68543 3.2041 7.28223L3.2002 7.2002V4C3.2002 3.55817 3.55817 3.2002 4 3.2002H7.2002ZM4.7998 4.7998V6.40039H6.40039V4.7998H4.7998Z" fill="#7D7F82"/>
<path d="M20 16C20.4418 16 20.7997 16.3581 20.7998 16.7998V20C20.7998 20.0277 20.7986 20.0551 20.7959 20.082C20.7548 20.4853 20.4141 20.7998 20 20.7998H16.7998C16.3581 20.7997 16 20.4418 16 20V16.7998C16.0001 16.3581 16.3581 16.0001 16.7998 16H20ZM17.5996 17.5996V19.2002H19.2002V17.5996H17.5996Z" fill="#7D7F82"/>
<path d="M20 3.2002C20.4141 3.2002 20.7548 3.51467 20.7959 3.91797C20.7986 3.94494 20.7998 3.97231 20.7998 4V7.2002C20.7997 7.64193 20.4418 8 20 8H16.7998C16.3858 7.9999 16.0451 7.68537 16.0039 7.28223L16 7.2002V4C16 3.55824 16.3581 3.2003 16.7998 3.2002H20ZM17.5996 4.7998V6.40039H19.2002V4.7998H17.5996Z" fill="#7D7F82"/>
</svg>
