<svg width="32" height="32" viewBox="0 0 32 32" fill="none" xmlns="http://www.w3.org/2000/svg">
<path d="M2.6665 25.3333V22.6667H15.9998V25.3333H2.6665ZM2.6665 18.6667V16H9.33317V18.6667H2.6665ZM2.6665 12V9.33333H9.33317V12H2.6665ZM27.4665 25.3333L22.3332 20.2C21.7998 20.5778 21.2165 20.8611 20.5832 21.05C19.9498 21.2389 19.3109 21.3333 18.6665 21.3333C16.8221 21.3333 15.2498 20.6833 13.9498 19.3833C12.6498 18.0833 11.9998 16.5111 11.9998 14.6667C11.9998 12.8222 12.6498 11.25 13.9498 9.95C15.2498 8.65 16.8221 8 18.6665 8C20.5109 8 22.0832 8.65 23.3832 9.95C24.6832 11.25 25.3332 12.8222 25.3332 14.6667C25.3332 15.3111 25.2387 15.95 25.0498 16.5833C24.8609 17.2167 24.5776 17.8 24.1998 18.3333L29.3332 23.4667L27.4665 25.3333ZM18.6665 18.6667C19.7776 18.6667 20.7221 18.2778 21.4998 17.5C22.2776 16.7222 22.6665 15.7778 22.6665 14.6667C22.6665 13.5556 22.2776 12.6111 21.4998 11.8333C20.7221 11.0556 19.7776 10.6667 18.6665 10.6667C17.5554 10.6667 16.6109 11.0556 15.8332 11.8333C15.0554 12.6111 14.6665 13.5556 14.6665 14.6667C14.6665 15.7778 15.0554 16.7222 15.8332 17.5C16.6109 18.2778 17.5554 18.6667 18.6665 18.6667Z" fill="#4A4C4F"/>
</svg>
