<svg width="18" height="18" viewBox="0 0 18 18" fill="none" xmlns="http://www.w3.org/2000/svg">
<rect width="10.8" height="1.2" transform="matrix(-1 0 0 1 14.3999 1.19995)" fill="white" fill-opacity="0.54"/>
<rect width="10.8" height="1.2" transform="matrix(-1 0 0 1 14.3999 15.6001)" fill="white" fill-opacity="0.54"/>
<rect width="1.2" height="13.2" transform="matrix(-1 0 0 1 3.6001 2.3999)" fill="white" fill-opacity="0.54"/>
<rect width="1.2" height="13.2" transform="matrix(-1 0 0 1 15.6001 2.3999)" fill="white" fill-opacity="0.54"/>
<rect width="6" height="1.2" transform="matrix(-1 0 0 1 12 9.6001)" fill="white" fill-opacity="0.54"/>
<rect width="2.4" height="1.2" transform="matrix(-1 0 0 1 8.3999 7.19995)" fill="white" fill-opacity="0.54"/>
<rect width="1.2" height="1.2" transform="matrix(-1 0 0 1 10.7998 2.3999)" fill="white" fill-opacity="0.54"/>
<rect width="1.2" height="1.2" transform="matrix(-1 0 0 1 10.7998 3.6001)" fill="white" fill-opacity="0.54"/>
<rect width="1.2" height="1.2" transform="matrix(-1 0 0 1 12 4.80005)" fill="white" fill-opacity="0.54"/>
<rect width="1.2" height="1.2" transform="matrix(-1 0 0 1 13.2002 6)" fill="white" fill-opacity="0.54"/>
<rect width="1.2" height="1.2" transform="matrix(-1 0 0 1 14.3999 6)" fill="white" fill-opacity="0.54"/>
<rect width="6" height="1.2" transform="matrix(-1 0 0 1 12 12)" fill="white" fill-opacity="0.54"/>
</svg>
