<svg width="18" height="18" viewBox="0 0 18 18" fill="none" xmlns="http://www.w3.org/2000/svg">
<rect width="10.8" height="1.2" rx="0.6" transform="matrix(-1 0 0 1 14.4 1.2002)" fill="#7D7F82"/>
<rect width="10.8" height="1.2" rx="0.6" transform="matrix(-1 0 0 1 14.4 15.5996)" fill="#7D7F82"/>
<rect width="1.2" height="13.2" rx="0.6" transform="matrix(-1 0 0 1 3.59998 2.40039)" fill="#7D7F82"/>
<rect width="1.2" height="13.2" rx="0.6" transform="matrix(-1 0 0 1 15.6 2.40039)" fill="#7D7F82"/>
<rect width="6" height="1.2" rx="0.6" transform="matrix(-1 0 0 1 12 9.59961)" fill="#7D7F82"/>
<rect width="2.4" height="1.2" rx="0.6" transform="matrix(-1 0 0 1 8.40002 7.2002)" fill="#7D7F82"/>
<rect width="1.2" height="2.4" rx="0.6" transform="matrix(-1 0 0 1 10.8 2.40039)" fill="#7D7F82"/>
<rect width="1.2" height="1.2" rx="0.6" transform="matrix(-1 0 0 1 12 4.7998)" fill="#7D7F82"/>
<rect width="2.4" height="1.2" rx="0.6" transform="matrix(-1 0 0 1 14.4 6)" fill="#7D7F82"/>
<rect width="6" height="1.2" rx="0.6" transform="matrix(-1 0 0 1 12 12)" fill="#7D7F82"/>
</svg>
