<svg width="18" height="18" viewBox="0 0 18 18" fill="none" xmlns="http://www.w3.org/2000/svg">
<rect width="1.2" height="12" transform="matrix(-1 0 0 1 3.6001 2.3999)" fill="white" fill-opacity="0.98"/>
<rect width="12" height="1.2" transform="matrix(-1 0 0 1 15.6001 14.3999)" fill="white" fill-opacity="0.98"/>
<rect width="1.2" height="1.2" transform="matrix(-1 0 0 1 7.2002 10.8)" fill="white" fill-opacity="0.98"/>
<rect width="1.2" height="1.2" transform="matrix(-1 0 0 1 8.3999 9.6001)" fill="white" fill-opacity="0.98"/>
<rect width="1.2" height="1.2" transform="matrix(-1 0 0 1 9.6001 8.3999)" fill="white" fill-opacity="0.98"/>
<rect width="1.2" height="1.2" transform="matrix(-1 0 0 1 10.7998 8.3999)" fill="white" fill-opacity="0.98"/>
<rect width="1.2" height="1.2" transform="matrix(-1 0 0 1 13.2002 6)" fill="white" fill-opacity="0.98"/>
<rect width="1.2" height="1.2" transform="matrix(-1 0 0 1 14.3999 4.80005)" fill="white" fill-opacity="0.98"/>
<rect width="1.2" height="1.2" transform="matrix(-1 0 0 1 15.6001 3.6001)" fill="white" fill-opacity="0.98"/>
<rect width="1.2" height="1.2" transform="matrix(-1 0 0 1 15.6001 4.80005)" fill="white" fill-opacity="0.98"/>
<rect width="1.2" height="1.2" transform="matrix(-1 0 0 1 15.6001 6)" fill="white" fill-opacity="0.98"/>
<rect width="1.2" height="1.2" transform="matrix(-1 0 0 1 15.6001 7.19995)" fill="white" fill-opacity="0.98"/>
<rect width="1.2" height="1.2" transform="matrix(-1 0 0 1 14.3999 3.6001)" fill="white" fill-opacity="0.98"/>
<rect width="1.2" height="1.2" transform="matrix(-1 0 0 1 13.2002 3.6001)" fill="white" fill-opacity="0.98"/>
<rect width="1.2" height="1.2" transform="matrix(-1 0 0 1 12 3.6001)" fill="white" fill-opacity="0.98"/>
<rect width="1.2" height="1.2" transform="matrix(-1 0 0 1 12 7.19995)" fill="white" fill-opacity="0.98"/>
</svg>
