<svg width="18" height="18" viewBox="0 0 18 18" fill="none" xmlns="http://www.w3.org/2000/svg">
<rect width="1.2" height="12" rx="0.6" transform="matrix(-1 0 0 1 3.59998 2.40039)" fill="white"/>
<rect width="12" height="1.2" rx="0.6" transform="matrix(-1 0 0 1 15.6 14.4004)" fill="white"/>
<rect width="1.2" height="1.2" rx="0.6" transform="matrix(-1 0 0 1 7.20001 10.7998)" fill="white"/>
<rect width="1.2" height="1.2" rx="0.6" transform="matrix(-1 0 0 1 8.40002 9.59961)" fill="white"/>
<rect width="2.4" height="1.2" rx="0.6" transform="matrix(-1 0 0 1 10.8 8.40039)" fill="white"/>
<rect width="1.2" height="1.2" rx="0.6" transform="matrix(-1 0 0 1 13.2 6)" fill="white"/>
<rect width="1.2" height="1.2" rx="0.6" transform="matrix(-1 0 0 1 14.4 4.7998)" fill="white"/>
<path d="M11.4004 3.59961C11.4419 3.59961 15.082 3.60429 15.1211 3.6123C15.3944 3.66833 15.5996 3.91031 15.5996 4.2002V7.7998C15.5996 8.13118 15.3314 8.40039 15 8.40039C14.6686 8.40039 14.4004 8.13118 14.4004 7.7998V4.7998H11.4004C11.0691 4.7998 10.7999 4.53148 10.7998 4.2002C10.7998 3.86882 11.069 3.59961 11.4004 3.59961Z" fill="white"/>
<rect width="1.2" height="1.2" rx="0.6" transform="matrix(-1 0 0 1 12 7.2002)" fill="white"/>
</svg>
