<svg width="24" height="24" viewBox="0 0 24 24" fill="none" xmlns="http://www.w3.org/2000/svg">
<path d="M9.06434 3.00028C7.38634 2.97808 6.07533 4.28228 6.03333 6.03148C6.00033 7.42607 5.99633 9.27597 6.00233 11.5623C6.00533 12.8803 6.03233 17.7943 6.03333 18.0003C6.04833 19.7103 7.38234 21.0003 9.06434 21.0003C9.55634 21.0003 10.0773 20.8973 10.6273 20.5623C11.2513 20.1833 12.6633 19.1563 14.7213 17.5943C14.8023 17.5323 18.7203 14.4953 18.8773 14.3753C19.7653 13.6973 20.0793 12.7523 20.0333 11.9383C20.0163 11.6313 19.9813 11.3593 19.8773 11.0313C19.7083 10.5003 19.4303 10.0293 18.9713 9.68778C18.4613 9.30898 14.8693 6.57327 14.8143 6.53147C12.6713 4.90098 11.2973 3.89968 10.5963 3.43778C10.0843 3.10048 9.65832 2.99948 9.09632 3.00028C9.06432 3.00028 9.08234 3.00038 9.06434 3.00028Z" fill="white" fill-opacity="0.98"/>
</svg>
