<svg width="24" height="24" viewBox="0 0 24 24" fill="none" xmlns="http://www.w3.org/2000/svg">
<path d="M11.9991 1.95312C6.47608 1.95312 2.01808 6.43012 1.99908 11.9531C1.98008 17.4681 6.48108 21.9731 11.9991 21.9841C17.5171 21.9951 22.0091 17.4291 21.9991 11.9531C21.9891 6.43012 17.5221 1.95312 11.9991 1.95312ZM11.9991 3.95312C16.4171 3.95312 19.9991 7.53512 19.9991 11.9531C19.9991 14.2031 19.0621 16.2311 17.5671 17.6851C16.8301 16.0921 15.2491 14.9531 13.4361 14.9531C13.0771 14.9531 10.9211 14.9531 10.5611 14.9531C8.75109 14.9531 7.17309 16.0781 6.43609 17.6721C4.94209 16.2181 3.99908 14.2031 3.99908 11.9531C3.99908 7.53512 7.58108 3.95312 11.9991 3.95312ZM11.9991 5.95312C9.79008 5.95312 7.99908 7.74412 7.99908 9.95312C7.99908 12.1621 9.79008 13.9531 11.9991 13.9531C14.2081 13.9531 15.9991 12.1621 15.9991 9.95312C15.9991 7.74412 14.2081 5.95312 11.9991 5.95312ZM11.9991 7.95312C13.1041 7.95312 13.9991 8.84812 13.9991 9.95312C13.9991 11.0581 13.1041 11.9531 11.9991 11.9531C10.8941 11.9531 9.99908 11.0581 9.99908 9.95312C9.99908 8.84812 10.8941 7.95312 11.9991 7.95312ZM10.5611 16.9531C10.9211 16.9531 13.0771 16.9531 13.4361 16.9531C14.5521 16.9531 15.5621 17.7671 15.9161 18.9141C14.4881 19.7571 12.8931 19.9531 11.9991 19.9531C11.0811 19.9531 9.55808 19.7471 8.09408 18.9401C8.44508 17.7831 9.45509 16.9531 10.5611 16.9531Z" fill="white" fill-opacity="0.54"/>
</svg>
