<svg width="18" height="18" viewBox="0 0 18 18" fill="none" xmlns="http://www.w3.org/2000/svg">
<rect width="1.2" height="8.4" transform="matrix(-1 0 0 1 2.3999 4.80005)" fill="white" fill-opacity="0.54"/>
<rect width="13.2" height="1.2" transform="matrix(-1 0 0 1 15.6001 13.2)" fill="white" fill-opacity="0.54"/>
<rect width="13.2" height="1.2" transform="matrix(-1 0 0 1 15.6001 3.6001)" fill="white" fill-opacity="0.54"/>
<rect width="2.4" height="1.2" transform="matrix(-1 0 0 1 7.2002 7.19995)" fill="white" fill-opacity="0.54"/>
<rect width="3.6" height="1.2" transform="matrix(-1 0 0 1 13.2002 7.19995)" fill="white" fill-opacity="0.54"/>
<rect width="3.6" height="1.2" transform="matrix(-1 0 0 1 13.2002 10.8)" fill="white" fill-opacity="0.54"/>
<rect width="2.4" height="1.2" transform="matrix(-1 0 0 1 7.2002 10.8)" fill="white" fill-opacity="0.54"/>
<rect width="1.2" height="1.2" transform="matrix(-1 0 0 1 8.3999 6)" fill="white" fill-opacity="0.54"/>
<rect width="1.2" height="1.2" transform="matrix(-1 0 0 1 8.3999 9.6001)" fill="white" fill-opacity="0.54"/>
<rect width="1.2" height="8.4" transform="matrix(-1 0 0 1 16.7998 4.80005)" fill="white" fill-opacity="0.54"/>
</svg>
