<svg width="18" height="18" viewBox="0 0 18 18" fill="none" xmlns="http://www.w3.org/2000/svg">
<rect width="1.2" height="8.4" rx="0.6" transform="matrix(-1 0 0 1 2.40002 4.7998)" fill="#7D7F82"/>
<rect width="13.2" height="1.2" rx="0.6" transform="matrix(-1 0 0 1 15.6 13.2002)" fill="#7D7F82"/>
<rect width="13.2" height="1.2" rx="0.6" transform="matrix(-1 0 0 1 15.6 3.59961)" fill="#7D7F82"/>
<rect width="2.4" height="1.2" rx="0.6" transform="matrix(-1 0 0 1 7.19995 7.2002)" fill="#7D7F82"/>
<rect width="3.6" height="1.2" rx="0.6" transform="matrix(-1 0 0 1 13.2 7.2002)" fill="#7D7F82"/>
<rect width="3.6" height="1.2" rx="0.6" transform="matrix(-1 0 0 1 13.2 10.7998)" fill="#7D7F82"/>
<rect width="2.4" height="1.2" rx="0.6" transform="matrix(-1 0 0 1 7.19995 10.7998)" fill="#7D7F82"/>
<rect width="1.2" height="1.2" rx="0.6" transform="matrix(-1 0 0 1 8.40002 6)" fill="#7D7F82"/>
<rect width="1.2" height="1.2" rx="0.6" transform="matrix(-1 0 0 1 8.40002 9.59961)" fill="#7D7F82"/>
<rect width="1.2" height="8.4" rx="0.6" transform="matrix(-1 0 0 1 16.8 4.7998)" fill="#7D7F82"/>
</svg>
