<svg width="18" height="18" viewBox="0 0 18 18" fill="none" xmlns="http://www.w3.org/2000/svg">
<path d="M4.8608 2.24878C4.1897 2.24878 3.52325 2.50828 3.01123 3.01828C1.98718 4.03828 1.9871 5.68377 3.01123 6.70377C3.43625 7.12677 4.08898 7.34727 4.95447 7.45002C5.30855 7.49202 5.64133 7.49502 5.99315 7.49877C5.99315 8.24877 5.99728 9.82301 5.99315 10.4988C5.68115 10.498 5.36593 10.4837 5.09495 10.5055C4.19255 10.5767 3.49768 10.7905 3.01123 11.275C1.98718 12.295 1.9871 13.9637 3.01123 14.9837C4.0352 16.0037 5.6864 16.0037 6.71038 14.9837C7.13548 14.56 7.35718 13.8872 7.45963 13.0247C7.5014 12.6715 7.48925 12.3498 7.49315 11.9988C8.5754 12.0055 9.79415 11.9943 10.4931 11.9988C10.4924 12.3093 10.4587 12.6145 10.4797 12.8845C10.5517 13.7838 10.7662 14.4752 11.2521 14.9605C12.2766 15.9805 13.9274 15.9805 14.9519 14.9605C15.9756 13.9405 15.9756 12.295 14.9519 11.275C14.5266 10.852 13.8741 10.6307 13.0086 10.5287C12.6546 10.4867 12.3449 10.5025 11.9931 10.4988C11.9999 9.40301 11.9886 8.17452 11.9931 7.49877C12.3336 7.50027 12.6171 7.49352 12.8916 7.47327C13.7991 7.40502 14.4876 7.18902 14.9751 6.70377C15.9989 5.68377 15.9989 4.03828 14.9751 3.01828C14.4629 2.50828 13.7969 2.24878 13.1256 2.24878C12.4544 2.24878 11.7876 2.50828 11.2761 3.01828C10.7894 3.50353 10.5517 4.19578 10.4797 5.09428C10.4579 5.37103 10.4767 5.68079 10.4797 6.00403C9.6074 6.00704 7.6004 6.00403 7.50665 6.00403C7.50815 5.68154 7.50515 5.37178 7.48303 5.09428C7.4114 4.19503 7.19698 3.50353 6.71038 3.01828C6.19835 2.50828 5.5319 2.24878 4.8608 2.24878ZM4.8608 3.74127C5.14842 3.74127 5.44378 3.84329 5.65685 4.06829C5.85087 4.27304 5.96698 4.44403 5.99473 4.81902C6.01325 5.06952 5.99315 5.39802 5.99315 5.99877L5.33323 5.99653L4.85698 5.99502C4.4702 6.00327 4.15138 5.7595 4.07713 5.68525C3.63823 5.248 3.63185 4.51827 4.07075 4.08102C4.2902 3.86202 4.57317 3.74202 4.8608 3.74127ZM13.1256 3.74127C13.4129 3.74127 13.7024 3.84929 13.9214 4.06829C14.3601 4.50554 14.3684 5.23376 13.9296 5.67101C13.8254 5.77526 13.6349 6.00027 13.1384 6.00852C12.7446 6.01527 12.5766 5.99877 11.9931 5.99877C11.9931 5.44002 11.9991 5.25027 11.9961 4.87602C11.9931 4.47927 12.2211 4.17629 12.3291 4.06829C12.5489 3.84929 12.8376 3.74202 13.1256 3.74127ZM7.49315 7.49877H10.4931V10.4988H7.49315V7.49877ZM11.9931 11.9988C12.5309 11.9988 12.7582 11.9965 13.1354 11.9935C13.5576 11.989 13.8246 12.2447 13.9379 12.3527C14.3714 12.7645 14.3309 13.4995 13.8996 13.9442C13.5576 14.2967 12.8106 14.3665 12.3989 14.0035C12.3156 13.93 11.9909 13.651 11.9939 13.138C11.9961 12.8695 11.9931 12.496 11.9931 11.9988ZM5.99315 11.9988C5.99315 12.5328 6.00867 12.7525 5.99615 13.1628C5.9858 13.5003 5.81705 13.738 5.65685 13.9105C5.23588 14.365 4.50365 14.3478 4.06475 13.9105C3.62585 13.4733 3.62593 12.7623 4.06475 12.325C4.16908 12.2208 4.50478 11.995 4.7837 11.9988C5.25575 12.004 5.39773 11.9988 5.99315 11.9988Z" fill="white" fill-opacity="0.8"/>
</svg>
