<svg width="24" height="24" viewBox="0 0 24 24" fill="none" xmlns="http://www.w3.org/2000/svg">
<path d="M9.78036 6.90719C9.92787 6.10857 11.0723 6.10857 11.2198 6.90719C11.7699 9.89321 14.1068 12.2302 17.0929 12.7802C17.8915 12.9277 17.8915 14.0722 17.0929 14.2197L16.8165 14.2754C13.9631 14.9147 11.7528 17.1993 11.2198 20.0927L11.1808 20.2324C10.9497 20.8446 10.0505 20.8446 9.81942 20.2324L9.78036 20.0927C9.23027 17.1067 6.89333 14.7698 3.90732 14.2197C3.10869 14.0722 3.10869 12.9277 3.90732 12.7802C6.89333 12.2302 9.23027 9.89321 9.78036 6.90719ZM10.5001 10.4941C9.74313 11.7136 8.71372 12.743 7.49423 13.5C8.71348 14.2568 9.74317 15.2857 10.5001 16.5048C11.2569 15.2859 12.286 14.2567 13.505 13.5C12.2858 12.743 11.2569 11.7134 10.5001 10.4941Z" fill="white"/>
<path d="M18.8086 8.32523L18.792 8.38578C18.6858 8.66656 18.2506 8.64626 18.1914 8.32523C18.184 8.28502 18.173 8.24573 18.1641 8.20609L18.5 8.26761L18.835 8.20609C18.8261 8.24566 18.816 8.28509 18.8086 8.32523ZM18.1914 2.67484C18.2545 2.33235 18.7455 2.33235 18.8086 2.67484C19.037 3.91425 19.9841 4.88959 21.2061 5.1641L21.2676 5.50003L21.2061 5.835C20.0236 6.10055 19.1005 7.02356 18.835 8.20609L18.5 8.26761L18.1641 8.20609C17.9073 7.06285 17.0375 6.1599 15.9112 5.86136L15.6748 5.80863C15.3323 5.74553 15.3323 5.25454 15.6748 5.19144C16.9545 4.95565 17.9557 3.95446 18.1914 2.67484ZM21.3252 5.19144C21.6677 5.25454 21.6677 5.74553 21.3252 5.80863L21.2061 5.835L21.2676 5.50003L21.2061 5.1641C21.2457 5.173 21.285 5.18403 21.3252 5.19144Z" fill="white"/>
</svg>
