<svg width="18" height="18" viewBox="0 0 18 18" fill="none" xmlns="http://www.w3.org/2000/svg">
<path fill-rule="evenodd" clip-rule="evenodd" d="M6.56903 3H11.431C12.0347 2.99999 12.533 2.99998 12.9389 3.03315C13.3604 3.06759 13.748 3.14151 14.112 3.32698C14.6765 3.6146 15.1354 4.07354 15.423 4.63803C15.6085 5.00203 15.6824 5.38956 15.7169 5.81113C15.75 6.21702 15.75 6.71529 15.75 7.31901V9.93058C15.75 10.5343 15.75 11.0326 15.7169 11.4384C15.6824 11.86 15.6085 12.2475 15.423 12.6116C15.1354 13.176 14.6765 13.635 14.112 13.9226C13.748 14.1081 13.3604 14.182 12.9389 14.2164C12.533 14.2496 12.0347 14.2496 11.431 14.2496H11.2736L9.56949 16.238C9.427 16.4043 9.21897 16.5 9 16.5C8.78103 16.5 8.573 16.4043 8.43051 16.238L6.72644 14.2496H6.56904C5.96531 14.2496 5.46703 14.2496 5.06113 14.2164C4.63956 14.182 4.25203 14.1081 3.88803 13.9226C3.32354 13.635 2.8646 13.176 2.57698 12.6116C2.39151 12.2475 2.31759 11.86 2.28315 11.4384C2.24998 11.0326 2.24999 10.5343 2.25 9.93056V7.31903C2.24999 6.7153 2.24998 6.21703 2.28315 5.81113C2.31759 5.38956 2.39151 5.00203 2.57698 4.63803C2.8646 4.07354 3.32354 3.6146 3.88803 3.32698C4.25203 3.14151 4.63956 3.06759 5.06113 3.03315C5.46703 2.99998 5.9653 2.99999 6.56903 3ZM5.18328 4.52816C4.85447 4.55503 4.68631 4.60372 4.56902 4.66349C4.28677 4.8073 4.0573 5.03677 3.91349 5.31902C3.85372 5.43631 3.80503 5.60447 3.77816 5.93328C3.75058 6.27085 3.75 6.70757 3.75 7.35V9.89958C3.75 10.542 3.75058 10.9787 3.77816 11.3163C3.80503 11.6451 3.85372 11.8133 3.91349 11.9306C4.0573 12.2128 4.28677 12.4423 4.56902 12.5861C4.68631 12.6459 4.85447 12.6946 5.18328 12.7214C5.52085 12.749 5.95757 12.7496 6.6 12.7496H7.07144C7.29041 12.7496 7.49844 12.8453 7.64093 13.0115L9 14.5974L10.3591 13.0115C10.5016 12.8453 10.7096 12.7496 10.9286 12.7496H11.4C12.0424 12.7496 12.4792 12.749 12.8167 12.7214C13.1455 12.6946 13.3137 12.6459 13.431 12.5861C13.7132 12.4423 13.9427 12.2128 14.0865 11.9306C14.1463 11.8133 14.195 11.6451 14.2218 11.3163C14.2494 10.9787 14.25 10.542 14.25 9.89958V7.35C14.25 6.70757 14.2494 6.27085 14.2218 5.93328C14.195 5.60447 14.1463 5.43631 14.0865 5.31902C13.9427 5.03677 13.7132 4.8073 13.431 4.66349C13.3137 4.60372 13.1455 4.55503 12.8167 4.52816C12.4792 4.50058 12.0424 4.5 11.4 4.5H6.6C5.95757 4.5 5.52085 4.50058 5.18328 4.52816Z" fill="white" fill-opacity="0.54"/>
<path fill-rule="evenodd" clip-rule="evenodd" d="M6.21968 6.21966C6.51257 5.92677 6.98745 5.92677 7.28034 6.21966L8.78034 7.71966C9.07323 8.01256 9.07323 8.48743 8.78034 8.78032L7.28034 10.2803C6.98745 10.5732 6.51257 10.5732 6.21968 10.2803C5.92679 9.98743 5.92679 9.51256 6.21968 9.21966L7.18935 8.24999L6.21968 7.28032C5.92679 6.98743 5.92679 6.51256 6.21968 6.21966Z" fill="white" fill-opacity="0.54"/>
<path fill-rule="evenodd" clip-rule="evenodd" d="M9.00001 10.5C9.00001 10.0858 9.3358 9.74999 9.75001 9.74999H11.25C11.6642 9.74999 12 10.0858 12 10.5C12 10.9142 11.6642 11.25 11.25 11.25H9.75001C9.3358 11.25 9.00001 10.9142 9.00001 10.5Z" fill="white" fill-opacity="0.54"/>
</svg>
