<svg width="8" height="9" viewBox="0 0 8 9" fill="none" xmlns="http://www.w3.org/2000/svg">
<path d="M3.99809 2.16846C3.60909 2.16846 3.21576 2.56159 3.30543 2.94626C3.34309 3.10902 3.43643 3.32886 3.60909 3.62679C3.69309 3.77156 3.50976 3.88146 3.42676 3.73619C3.25943 3.44276 3.12309 3.24289 3.00143 3.12852C2.70476 2.84926 2.1751 2.99836 1.98076 3.33512C1.78643 3.67192 1.9311 4.20479 2.30876 4.31946C2.46876 4.36812 2.69343 4.39312 3.03809 4.39246C3.20843 4.39212 3.21376 4.59979 3.05009 4.59913C2.71243 4.59713 2.48076 4.62379 2.3211 4.67179C1.93076 4.78946 1.78643 5.31946 1.98076 5.65646C2.1751 5.99312 2.7011 6.14479 2.98943 5.87512C3.11143 5.76079 3.25543 5.56612 3.42676 5.26746C3.50976 5.12346 3.69209 5.23512 3.60909 5.37679C3.43876 5.66846 3.34376 5.88279 3.30543 6.04512C3.21209 6.44179 3.60909 6.83512 3.99809 6.83512C4.38709 6.83512 4.76809 6.44212 4.67876 6.05746C4.64076 5.89446 4.54776 5.67479 4.37476 5.37679C4.28476 5.22179 4.48142 5.11312 4.56942 5.26746C4.73676 5.56079 4.87309 5.74846 4.99476 5.86279C5.29142 6.14212 5.82109 6.00512 6.01542 5.66846C6.20976 5.33179 6.06509 4.79879 5.68742 4.68412C5.52742 4.63546 5.29042 4.61046 4.94609 4.61112C4.77242 4.61146 4.77576 4.39146 4.94609 4.39246C5.28376 4.39412 5.52742 4.36746 5.68742 4.31946C6.07775 4.20212 6.20976 3.67192 6.01542 3.33512C5.82109 2.99836 5.29509 2.85872 5.00676 3.12852C4.88476 3.24272 4.74076 3.42532 4.56942 3.72402C4.48142 3.87712 4.28742 3.77626 4.37476 3.62679C4.54509 3.33516 4.64042 3.12086 4.67876 2.95839C4.77209 2.56166 4.38709 2.16846 3.99809 2.16846Z" fill="#F67924"/>
</svg>
