<svg width="18" height="18" viewBox="0 0 18 18" fill="none" xmlns="http://www.w3.org/2000/svg">
<rect x="7.19995" y="2.40039" width="3.6" height="1.2" rx="0.6" fill="#7D7F82"/>
<rect x="4.80005" y="3.59961" width="2.4" height="1.2" rx="0.6" fill="#7D7F82"/>
<rect x="10.8" y="3.59961" width="2.4" height="1.2" rx="0.6" fill="#7D7F82"/>
<rect x="3.59998" y="4.7998" width="1.2" height="6" rx="0.6" fill="#7D7F82"/>
<rect x="6" y="8.40039" width="1.2" height="1.2" rx="0.6" fill="#7D7F82"/>
<rect x="7.19995" y="9.59961" width="1.2" height="1.2" rx="0.6" fill="#7D7F82"/>
<rect x="8.40002" y="8.40039" width="1.2" height="1.2" rx="0.6" fill="#7D7F82"/>
<rect x="9.59998" y="7.2002" width="1.2" height="1.2" rx="0.6" fill="#7D7F82"/>
<rect x="10.8" y="6" width="1.2" height="1.2" rx="0.6" fill="#7D7F82"/>
<rect x="13.2" y="4.7998" width="1.2" height="6" rx="0.6" fill="#7D7F82"/>
<rect x="4.80005" y="10.7998" width="1.2" height="2.4" rx="0.6" fill="#7D7F82"/>
<rect x="12" y="10.7998" width="1.2" height="2.4" rx="0.6" fill="#7D7F82"/>
<rect x="6" y="13.2002" width="1.2" height="1.2" rx="0.6" fill="#7D7F82"/>
<rect x="7.19995" y="14.4004" width="1.2" height="1.2" rx="0.6" fill="#7D7F82"/>
<rect x="8.40002" y="15.5996" width="1.2" height="1.2" rx="0.6" fill="#7D7F82"/>
<rect x="9.59998" y="14.4004" width="1.2" height="1.2" rx="0.6" fill="#7D7F82"/>
<rect x="10.8" y="13.2002" width="1.2" height="1.2" rx="0.6" fill="#7D7F82"/>
</svg>
