<svg width="24" height="24" viewBox="0 0 24 24" fill="none" xmlns="http://www.w3.org/2000/svg">
<rect x="12.8" y="11.2002" width="3.2" height="1.6" rx="0.8" fill="white"/>
<rect x="8" y="11.2002" width="3.2" height="1.6" rx="0.8" fill="white"/>
<rect x="12.8" y="8" width="3.2" height="1.6" rx="0.8" transform="rotate(90 12.8 8)" fill="white"/>
<rect x="12.8" y="12.7998" width="3.2" height="1.6" rx="0.8" transform="rotate(90 12.8 12.7998)" fill="white"/>
<rect x="3.19995" y="6.40039" width="1.6" height="11.2" rx="0.8" fill="white"/>
<rect x="19.2" y="6.40039" width="1.6" height="11.2" rx="0.8" fill="white"/>
<rect x="9.59998" y="20.7998" width="4.8" height="1.6" rx="0.8" fill="white"/>
<rect x="8" y="19.2002" width="1.6" height="1.6" rx="0.8" fill="white"/>
<rect x="8" y="3.2002" width="1.6" height="1.6" rx="0.8" fill="white"/>
<rect x="14.4" y="19.2002" width="1.6" height="1.6" rx="0.8" fill="white"/>
<rect x="14.4" y="3.2002" width="1.6" height="1.6" rx="0.8" fill="white"/>
<rect x="4.80005" y="17.5996" width="3.2" height="1.6" rx="0.8" fill="white"/>
<rect x="4.80005" y="4.7998" width="3.2" height="1.6" rx="0.8" fill="white"/>
<rect x="16" y="17.5996" width="3.2" height="1.6" rx="0.8" fill="white"/>
<rect x="16" y="4.7998" width="3.2" height="1.6" rx="0.8" fill="white"/>
<rect x="9.59998" y="1.59961" width="4.8" height="1.6" rx="0.8" fill="white"/>
</svg>
