<svg width="24" height="24" viewBox="0 0 24 24" fill="none" xmlns="http://www.w3.org/2000/svg">
<rect x="11.2002" y="1.6001" width="1.6" height="1.6" fill="white" fill-opacity="0.8"/>
<rect x="4.7998" y="4.80005" width="1.6" height="1.6" fill="white" fill-opacity="0.8"/>
<rect x="4.7998" y="6.3999" width="1.6" height="1.6" fill="white" fill-opacity="0.8"/>
<rect x="6.3999" y="8" width="1.6" height="1.6" fill="white" fill-opacity="0.8"/>
<rect x="17.6001" y="6.3999" width="1.6" height="1.6" fill="white" fill-opacity="0.8"/>
<rect x="16" y="8" width="1.6" height="1.6" fill="white" fill-opacity="0.8"/>
<rect x="11.2002" y="19.2" width="1.6" height="1.6" fill="white" fill-opacity="0.8"/>
<rect x="11.2002" y="8" width="1.6" height="1.6" fill="white" fill-opacity="0.8"/>
<rect x="11.2002" y="9.6001" width="1.6" height="1.6" fill="white" fill-opacity="0.8"/>
<rect x="11.2002" y="12.8" width="1.6" height="1.6" fill="white" fill-opacity="0.8"/>
<rect x="11.2002" y="14.3999" width="1.6" height="1.6" fill="white" fill-opacity="0.8"/>
<rect x="9.6001" y="11.2" width="1.6" height="1.6" fill="white" fill-opacity="0.8"/>
<rect x="8" y="11.2" width="1.6" height="1.6" fill="white" fill-opacity="0.8"/>
<rect x="12.7998" y="11.2" width="1.6" height="1.6" fill="white" fill-opacity="0.8"/>
<rect x="14.3999" y="11.2" width="1.6" height="1.6" fill="white" fill-opacity="0.8"/>
<rect x="4.7998" y="16" width="1.6" height="1.6" fill="white" fill-opacity="0.8"/>
<rect x="6.3999" y="17.6001" width="1.6" height="1.6" fill="white" fill-opacity="0.8"/>
<rect x="8" y="19.2" width="1.6" height="1.6" fill="white" fill-opacity="0.8"/>
<rect x="9.6001" y="20.8" width="1.6" height="1.6" fill="white" fill-opacity="0.8"/>
<rect x="12.7998" y="20.8" width="1.6" height="1.6" fill="white" fill-opacity="0.8"/>
<rect x="14.3999" y="19.2" width="1.6" height="1.6" fill="white" fill-opacity="0.8"/>
<rect x="16" y="17.6001" width="1.6" height="1.6" fill="white" fill-opacity="0.8"/>
<rect x="17.6001" y="16" width="1.6" height="1.6" fill="white" fill-opacity="0.8"/>
<rect x="16" y="4.80005" width="1.6" height="1.6" fill="white" fill-opacity="0.8"/>
<rect x="6.3999" y="4.80005" width="1.6" height="1.6" fill="white" fill-opacity="0.8"/>
<rect x="17.6001" y="4.80005" width="1.6" height="1.6" fill="white" fill-opacity="0.8"/>
<rect x="8" y="3.19995" width="1.6" height="1.6" fill="white" fill-opacity="0.8"/>
<rect x="9.6001" y="1.6001" width="1.6" height="1.6" fill="white" fill-opacity="0.8"/>
<rect x="12.7998" y="1.6001" width="1.6" height="1.6" fill="white" fill-opacity="0.8"/>
<rect x="14.3999" y="3.19995" width="1.6" height="1.6" fill="white" fill-opacity="0.8"/>
<rect x="11.2002" y="20.8" width="1.6" height="1.6" fill="white" fill-opacity="0.8"/>
<rect x="3.2002" y="6.3999" width="1.6" height="3.2" fill="white" fill-opacity="0.8"/>
<rect x="3.2002" y="12.8" width="1.6" height="3.2" fill="white" fill-opacity="0.8"/>
<rect x="1.6001" y="9.6001" width="1.6" height="3.2" fill="white" fill-opacity="0.8"/>
<rect x="19.2002" y="6.3999" width="1.6" height="3.2" fill="white" fill-opacity="0.8"/>
<rect x="19.2002" y="12.8" width="1.6" height="3.2" fill="white" fill-opacity="0.8"/>
<rect x="20.7998" y="9.6001" width="1.6" height="3.2" fill="white" fill-opacity="0.8"/>
</svg>
