<svg width="32" height="32" viewBox="0 0 32 32" fill="none" xmlns="http://www.w3.org/2000/svg">
<path d="M12.0858 4.00037C9.84845 3.97077 8.10045 5.7097 8.04445 8.04197C8.00045 9.90143 7.99511 12.368 8.00311 15.4164C8.00711 17.1737 8.04311 23.7257 8.04445 24.0004C8.06445 26.2804 9.84312 28.0004 12.0858 28.0004C12.7418 28.0004 13.4364 27.863 14.1698 27.4164C15.0018 26.911 16.8844 25.5417 19.6284 23.459C19.7364 23.3764 24.9604 19.327 25.1698 19.167C26.3538 18.263 26.7724 17.003 26.7111 15.9177C26.6884 15.5084 26.6418 15.1457 26.5031 14.7084C26.2778 14.0004 25.9071 13.3724 25.2951 12.917C24.6151 12.412 19.8258 8.76437 19.7525 8.70863C16.8951 6.53463 15.0631 5.19957 14.1284 4.58371C13.4458 4.13397 12.8778 3.99931 12.1284 4.00037C12.0858 4.00037 12.1098 4.00051 12.0858 4.00037Z" fill="white" fill-opacity="0.98"/>
</svg>
