<svg width="24" height="24" viewBox="0 0 24 24" fill="none" xmlns="http://www.w3.org/2000/svg">
<path d="M5.99218 2.92981C4.33519 2.92981 2.99219 4.27281 2.99219 5.92981V8.92981C2.99219 9.48181 3.44019 9.92981 3.99219 9.92981C4.54418 9.92981 4.99218 9.48181 4.99218 8.92981V5.92981C4.99218 5.37781 5.44018 4.92981 5.99218 4.92981H8.99218C9.54418 4.92981 9.99218 4.48181 9.99218 3.92981C9.99218 3.37781 9.54418 2.92981 8.99218 2.92981H5.99218ZM14.9922 2.92981C14.4402 2.92981 13.9922 3.37781 13.9922 3.92981C13.9922 4.48181 14.4402 4.92981 14.9922 4.92981H17.9922C18.5442 4.92981 18.9922 5.37781 18.9922 5.92981V8.92981C18.9922 9.48181 19.4402 9.92981 19.9922 9.92981C20.5442 9.92981 20.9922 9.48181 20.9922 8.92981V5.92981C20.9922 4.27281 19.6492 2.92981 17.9922 2.92981H14.9922ZM3.99219 13.9298C3.44019 13.9298 2.99219 14.3778 2.99219 14.9298V17.9298C2.99219 19.5868 4.33519 20.9298 5.99218 20.9298H8.99218C9.54418 20.9298 9.99218 20.4818 9.99218 19.9298C9.99218 19.3778 9.54418 18.9298 8.99218 18.9298H5.99218C5.44018 18.9298 4.99218 18.4818 4.99218 17.9298V14.9298C4.99218 14.3778 4.54418 13.9298 3.99219 13.9298ZM19.9922 13.9298C19.4402 13.9298 18.9922 14.3778 18.9922 14.9298V17.9298C18.9922 18.4818 18.5442 18.9298 17.9922 18.9298H14.9922C14.4402 18.9298 13.9922 19.3778 13.9922 19.9298C13.9922 20.4818 14.4402 20.9298 14.9922 20.9298H17.9922C19.6492 20.9298 20.9922 19.5868 20.9922 17.9298V14.9298C20.9922 14.3778 20.5442 13.9298 19.9922 13.9298Z" fill="white" fill-opacity="0.98"/>
</svg>
