<svg width="15" height="15" viewBox="0 0 15 15" fill="none" xmlns="http://www.w3.org/2000/svg">
<rect x="8" y="3" width="1" height="1" rx="0.5" fill="white"/>
<rect x="9" y="4" width="2" height="1" rx="0.5" fill="white"/>
<rect x="11" y="5" width="1" height="1" rx="0.5" fill="white"/>
<rect x="12" y="6" width="1" height="4" rx="0.5" fill="white"/>
<rect x="11" y="10" width="1" height="1" rx="0.5" fill="white"/>
<rect x="10" y="11" width="1" height="1" rx="0.5" fill="white"/>
<rect x="6" y="12" width="4" height="1" rx="0.5" fill="white"/>
<path d="M4.5 10C4.77614 10 5 10.2239 5 10.5V11H5.5C5.77614 11 6 11.2239 6 11.5C6 11.7761 5.77614 12 5.5 12H4.5C4.22386 12 4 11.7761 4 11.5V10.5C4 10.2239 4.22386 10 4.5 10Z" fill="white"/>
<rect x="3" y="8" width="1" height="2" rx="0.5" fill="white"/>
<rect x="5" y="3" width="2" height="1" rx="0.5" fill="white"/>
<rect x="2" y="3" width="2" height="1" rx="0.5" fill="white"/>
<rect x="4" y="1" width="1" height="2" rx="0.5" fill="white"/>
<rect x="4" y="4" width="1" height="2" rx="0.5" fill="white"/>
<rect x="3" y="12" width="1" height="1" rx="0.5" fill="white"/>
<rect x="2" y="13" width="1" height="1" rx="0.5" fill="white"/>
</svg>
