<svg width="18" height="18" viewBox="0 0 18 18" fill="none" xmlns="http://www.w3.org/2000/svg">
<path d="M7.51062 1.46484C4.19689 1.46484 1.51062 4.15135 1.51062 7.46486C1.51062 10.7784 4.19689 13.4649 7.51062 13.4649C8.88814 13.4649 10.1938 12.9916 11.2065 12.2116L14.4715 15.5041C14.7645 15.7966 15.2568 15.7966 15.5497 15.5041C15.8426 15.2109 15.8426 14.7189 15.5497 14.4256L12.2621 11.1556C13.0427 10.1431 13.5106 8.84261 13.5106 7.46486C13.5106 4.15135 10.8243 1.46484 7.51062 1.46484ZM7.51062 2.96485C9.99589 2.96485 12.0106 4.97935 12.0106 7.46486C12.0106 9.95036 9.99589 11.9649 7.51062 11.9649C5.02534 11.9649 3.01062 9.95036 3.01062 7.46486C3.01062 4.97935 5.02534 2.96485 7.51062 2.96485Z" fill="white" fill-opacity="0.36"/>
</svg>
