<svg width="18" height="18" viewBox="0 0 18 18" fill="none" xmlns="http://www.w3.org/2000/svg">
<path d="M7.51172 1.46484C4.19799 1.46484 1.51172 4.15135 1.51172 7.46486C1.51172 10.7784 4.19799 13.4649 7.51172 13.4649C8.88924 13.4649 10.1949 12.9916 11.2076 12.2116L14.4726 15.5041C14.7656 15.7966 15.2579 15.7966 15.5508 15.5041C15.8437 15.2109 15.8437 14.7189 15.5508 14.4256L12.2632 11.1556C13.0438 10.1431 13.5117 8.84261 13.5117 7.46486C13.5117 4.15135 10.8254 1.46484 7.51172 1.46484ZM7.51172 2.96485C9.99699 2.96485 12.0117 4.97935 12.0117 7.46486C12.0117 9.95036 9.99699 11.9649 7.51172 11.9649C5.02644 11.9649 3.01172 9.95036 3.01172 7.46486C3.01172 4.97935 5.02644 2.96485 7.51172 2.96485Z" fill="white" fill-opacity="0.8"/>
</svg>
