<svg width="14" height="14" viewBox="0 0 14 14" fill="none" xmlns="http://www.w3.org/2000/svg">
<path fill-rule="evenodd" clip-rule="evenodd" d="M4.07747 1.70898C2.78889 1.70898 1.74414 2.75368 1.74414 4.04232V9.87565C1.74414 11.1643 2.78889 12.209 4.07747 12.209H9.91079C11.1994 12.209 12.2441 11.1643 12.2441 9.87565V4.04232C12.2441 2.75368 11.1994 1.70898 9.91079 1.70898H4.07747ZM9.90767 4.26533C10.0402 4.1389 10.2216 4.08326 10.3956 4.08326C10.5696 4.08326 10.7511 4.1389 10.8836 4.26533C11.1493 4.51812 11.1493 4.943 10.8836 5.19579L6.12906 9.727C5.86401 9.97979 5.41818 9.97979 5.15314 9.727L3.115 7.78505C2.84996 7.53226 2.84996 7.10731 3.115 6.85458C3.38073 6.60179 3.82655 6.60179 4.0916 6.85458L5.6411 8.33124L9.90767 4.26533Z" fill="#335FFC"/>
</svg>
