<svg width="24" height="24" viewBox="0 0 24 24" fill="none" xmlns="http://www.w3.org/2000/svg">
<rect x="3.2002" y="6.3999" width="1.6" height="12.8" fill="white" fill-opacity="0.98"/>
<rect x="17.6001" y="12.7998" width="1.6" height="6.4" fill="white" fill-opacity="0.98"/>
<rect x="4.7998" y="4.7998" width="6.4" height="1.6" fill="white" fill-opacity="0.98"/>
<rect x="4.7998" y="19.2002" width="12.8" height="1.6" fill="white" fill-opacity="0.98"/>
<rect width="1.6" height="1.6" transform="matrix(-1 0 0 1 16 8)" fill="white" fill-opacity="0.98"/>
<rect width="1.6" height="1.6" transform="matrix(-1 0 0 1 14.3999 9.6001)" fill="white" fill-opacity="0.98"/>
<rect width="1.6" height="1.6" transform="matrix(-1 0 0 1 12.7998 11.2002)" fill="white" fill-opacity="0.98"/>
<rect width="1.6" height="1.6" transform="matrix(-1 0 0 1 11.2002 12.7998)" fill="white" fill-opacity="0.98"/>
<rect width="1.6" height="1.6" transform="matrix(-1 0 0 1 20.7998 3.2002)" fill="white" fill-opacity="0.98"/>
<rect width="1.6" height="1.6" transform="matrix(-1 0 0 1 20.7998 8)" fill="white" fill-opacity="0.98"/>
<rect width="1.6" height="1.6" transform="matrix(-1 0 0 1 16 3.2002)" fill="white" fill-opacity="0.98"/>
<rect width="1.6" height="1.6" transform="matrix(-1 0 0 1 19.2002 3.2002)" fill="white" fill-opacity="0.98"/>
<rect width="1.6" height="1.6" transform="matrix(-1 0 0 1 19.2002 4.7998)" fill="white" fill-opacity="0.98"/>
<rect width="1.6" height="1.6" transform="matrix(-1 0 0 1 17.6001 6.3999)" fill="white" fill-opacity="0.98"/>
<rect width="1.6" height="1.6" transform="matrix(-1 0 0 1 17.6001 3.2002)" fill="white" fill-opacity="0.98"/>
<rect width="1.6" height="1.6" transform="matrix(-1 0 0 1 20.7998 4.7998)" fill="white" fill-opacity="0.98"/>
<rect width="1.6" height="1.6" transform="matrix(-1 0 0 1 20.7998 6.3999)" fill="white" fill-opacity="0.98"/>
</svg>
