<svg width="18" height="18" viewBox="0 0 18 18" fill="none" xmlns="http://www.w3.org/2000/svg">
<path d="M4.49914 3.02148C2.84239 3.02148 1.49915 4.36473 1.49915 6.02148V12.0215C1.49915 12.4355 1.58164 12.8345 1.73314 13.193C1.88764 13.5582 2.1119 13.88 2.39015 14.1545C2.65865 14.4192 2.9744 14.6382 3.32765 14.7875C3.6914 14.9435 4.07764 15.0215 4.49914 15.0215H13.4991C15.1559 15.0215 16.4991 13.6782 16.4991 12.0215V6.02148C16.4991 4.36473 15.1559 3.02148 13.4991 3.02148H4.49914ZM4.49914 4.52148H13.4991C14.3279 4.52148 14.9991 5.19273 14.9991 6.02148L14.9999 10.3407C13.4766 9.20296 12.3749 9.29148 10.6634 10.3107C9.15889 8.25498 7.71215 7.12698 6.30365 7.24023C5.20565 7.32873 4.20814 8.024 3.0074 9.4955L2.99914 6.02148C2.99914 5.19273 3.67039 4.52148 4.49914 4.52148ZM12.7491 6.02148C12.3351 6.02148 11.9991 6.35748 11.9991 6.77148C11.9991 7.18548 12.3351 7.52148 12.7491 7.52148C13.1631 7.52148 13.4991 7.18548 13.4991 6.77148C13.4991 6.35748 13.1631 6.02148 12.7491 6.02148ZM6.37414 8.74023C7.44064 8.63823 8.49965 9.64324 9.86614 11.693C10.0964 12.038 10.5764 12.134 10.9206 11.9045C12.7941 10.6557 13.2674 10.6662 14.9054 12.2555C14.9024 12.2735 14.8859 12.2847 14.8821 12.3027C14.8139 12.6207 14.6789 12.9087 14.4599 13.1232C14.1966 13.352 13.8756 13.5215 13.4991 13.5215H4.49914C4.11364 13.5215 3.78889 13.3692 3.53839 13.1232C3.28789 12.8772 3.11089 12.5367 3.06964 12.1625C4.32814 10.0152 5.35489 8.83773 6.37414 8.74023Z" fill="white" fill-opacity="0.54"/>
</svg>
