<svg width="18" height="18" viewBox="0 0 18 18" fill="none" xmlns="http://www.w3.org/2000/svg">
<path d="M8.71704 1.52559C8.05779 1.80684 4.10229 3.4951 3.44379 3.77635C3.16704 3.8941 2.99829 4.1551 2.99829 4.45585C2.99829 7.74085 3.12954 9.21084 3.72504 10.9036C4.50429 13.1198 6.03429 14.8861 8.62329 16.3658C8.85354 16.4978 9.14304 16.4978 9.37329 16.3658C11.9855 14.8726 13.5223 13.1123 14.2948 10.9036C14.8828 9.22284 14.9983 7.82485 14.9983 4.45585C14.9983 4.1566 14.828 3.89485 14.5528 3.77635L9.32678 1.52559C9.13778 1.44459 8.90604 1.44459 8.71704 1.52559ZM8.99829 3.00234L13.4953 4.95461C13.5605 10.3359 12.506 12.6946 9.00504 14.8403C5.41329 12.6061 4.4593 10.2218 4.49605 4.9606C5.5183 4.5241 8.13354 3.37134 8.99829 3.00234Z" fill="white" fill-opacity="0.8"/>
</svg>
