<svg width="19" height="18" viewBox="0 0 19 18" fill="none" xmlns="http://www.w3.org/2000/svg">
<path d="M9.51129 1.49902C8.19665 1.49977 7.20722 2.15002 6.41888 3.46777L2.48525 10.2883C1.87646 11.294 1.589 12.0013 1.59462 12.749C1.60729 14.423 3.02786 15.743 4.76129 15.749H14.2613C15.9969 15.749 17.4214 14.4485 17.428 12.749C17.4308 12.0035 17.1211 11.2513 16.5126 10.2883L12.6285 3.51502C11.8995 2.19577 10.8439 1.49827 9.51129 1.49902ZM9.51129 2.99902C10.2097 2.99902 10.7401 3.35227 11.2183 4.21777L15.1519 11.0383C15.6409 11.813 15.8462 12.341 15.8446 12.749C15.8413 13.6093 15.1377 14.249 14.2613 14.249H4.76129C3.89236 14.246 3.18437 13.595 3.17796 12.749C3.17479 12.332 3.38221 11.822 3.87067 11.015L7.77952 4.21777C8.30701 3.33577 8.82135 2.99902 9.51129 2.99902ZM9.51129 5.99902C9.07405 5.99902 8.71962 6.33502 8.71962 6.74902V9.74902C8.71962 10.163 9.07405 10.499 9.51129 10.499C9.94853 10.499 10.303 10.163 10.303 9.74902V6.74902C10.303 6.33502 9.94853 5.99902 9.51129 5.99902ZM9.51129 11.249C9.07405 11.249 8.71962 11.585 8.71962 11.999C8.71962 12.413 9.07405 12.749 9.51129 12.749C9.94853 12.749 10.303 12.413 10.303 11.999C10.303 11.585 9.94853 11.249 9.51129 11.249Z" fill="#FF375B"/>
</svg>
