<svg width="18" height="18" viewBox="0 0 18 18" fill="none" xmlns="http://www.w3.org/2000/svg">
<rect x="9.59998" y="12" width="1.2" height="2.4" rx="0.5" fill="#7D7F82"/>
<rect x="10.8" y="9.59961" width="1.2" height="2.4" rx="0.5" fill="#7D7F82"/>
<rect x="7.20001" y="3.59961" width="1.2" height="2.4" rx="0.5" fill="#7D7F82"/>
<rect x="6" y="6" width="1.2" height="2.4" rx="0.5" fill="#7D7F82"/>
<path d="M9.09961 2.40039C9.37575 2.40039 9.59961 2.62425 9.59961 2.90039V7.2002H12.7002C12.7346 7.20021 12.7683 7.20332 12.8008 7.20996C13.0286 7.25657 13.2002 7.45856 13.2002 7.7002V9.09961C13.2002 9.37569 12.9762 9.5995 12.7002 9.59961H12.5C12.2239 9.59961 12 9.37575 12 9.09961V8.40039H8.90039C8.62438 8.40039 8.4006 8.17635 8.40039 7.90039V2.90039C8.40039 2.62425 8.62425 2.40039 8.90039 2.40039H9.09961Z" fill="#7D7F82"/>
<path d="M5.5 8.40039C5.77614 8.40039 6 8.62425 6 8.90039V9.59961H9.09961C9.37562 9.59961 9.5994 9.82365 9.59961 10.0996V15.0996C9.59961 15.3758 9.37575 15.5996 9.09961 15.5996H8.90039C8.62425 15.5996 8.40039 15.3758 8.40039 15.0996V10.7998H5.2998C5.02375 10.7997 4.7998 10.5759 4.7998 10.2998V8.90039C4.7998 8.62431 5.02375 8.4005 5.2998 8.40039H5.5Z" fill="#7D7F82"/>
</svg>
