<svg width="18" height="19" viewBox="0 0 18 19" fill="none" xmlns="http://www.w3.org/2000/svg">
<rect x="4.79999" y="3.7998" width="1.2" height="10.1333" rx="0.6" fill="#7D7F82"/>
<rect x="9.59998" y="6.33301" width="1.2" height="7.6" rx="0.6" fill="#7D7F82"/>
<rect x="4.79999" y="3.7998" width="2.4" height="1.26667" rx="0.633333" fill="#7D7F82"/>
<rect x="6" y="2.5332" width="1.2" height="2.53333" rx="0.6" fill="#7D7F82"/>
<rect x="9.59998" y="6.33301" width="2.4" height="1.26667" rx="0.633333" fill="#7D7F82"/>
<rect x="10.8" y="13.9336" width="2.4" height="1.26667" rx="0.633333" fill="#7D7F82"/>
<rect x="12" y="7.59961" width="1.2" height="7.6" rx="0.6" fill="#7D7F82"/>
<rect x="6" y="13.9336" width="2.4" height="1.26667" rx="0.633333" fill="#7D7F82"/>
<rect x="6" y="13.9336" width="1.2" height="2.53333" rx="0.6" fill="#7D7F82"/>
<rect x="10.8" y="13.9336" width="1.2" height="2.53333" rx="0.6" fill="#7D7F82"/>
<rect x="10.8" y="5.06641" width="1.2" height="2.53333" rx="0.6" fill="#7D7F82"/>
<rect x="7.20001" y="5.06641" width="1.2" height="10.1333" rx="0.6" fill="#7D7F82"/>
</svg>
