<svg width="18" height="18" viewBox="0 0 18 18" fill="none" xmlns="http://www.w3.org/2000/svg">
<path d="M8.99854 1.46484C8.17054 1.46484 7.49644 2.13311 7.49644 2.95811L7.49854 4.46484H4.49854C3.67046 4.46484 2.99854 5.14059 2.99854 5.96484V8.96484C2.99854 9.78909 3.67046 10.4648 4.49854 10.4648H7.49854V14.9648C7.49854 15.7891 8.17054 16.4648 8.99854 16.4648C9.82654 16.4648 10.4985 15.7891 10.4985 14.9648V10.4648H12.7485C12.9473 10.4641 13.1895 10.4004 13.3298 10.2594L15.5303 7.98761C15.819 7.69736 15.8183 7.22859 15.5303 6.93759L13.2825 4.73108C13.1415 4.58783 12.9495 4.46409 12.7485 4.46484H10.4985V2.96484C10.4985 2.14059 9.82654 1.46484 8.99854 1.46484ZM12.3945 5.9686L13.9343 7.46182L12.486 8.97684C12.1868 8.97759 4.49854 8.96484 4.49854 8.96484V5.96484L12.3945 5.9686Z" fill="white" fill-opacity="0.8"/>
</svg>
