<svg width="18" height="18" viewBox="0 0 18 18" fill="none" xmlns="http://www.w3.org/2000/svg">
<path d="M3.75 15.75C3.3375 15.75 2.98438 15.6031 2.69063 15.3094C2.39687 15.0156 2.25 14.6625 2.25 14.25V3.75C2.25 3.3375 2.39687 2.98438 2.69063 2.69063C2.98438 2.39687 3.3375 2.25 3.75 2.25H14.25C14.35 2.25 14.4438 2.25938 14.5313 2.27813C14.6188 2.29688 14.7063 2.325 14.7938 2.3625L13.4062 3.75H3.75V14.25H14.25V9.2625L15.75 7.7625V14.25C15.75 14.6625 15.6031 15.0156 15.3094 15.3094C15.0156 15.6031 14.6625 15.75 14.25 15.75H3.75ZM8.64375 12.75L4.40625 8.5125L5.45625 7.4625L8.64375 10.65L15.525 3.76875L16.5938 4.8L8.64375 12.75Z" fill="#7D7F82"/>
</svg>
