<svg width="18" height="18" viewBox="0 0 18 18" fill="none" xmlns="http://www.w3.org/2000/svg">
<rect x="7.19995" y="3.6001" width="1.2" height="1.2" fill="white" fill-opacity="0.54"/>
<rect x="9.59998" y="12" width="1.2" height="1.2" fill="white" fill-opacity="0.54"/>
<rect x="10.8" y="9.6001" width="1.2" height="1.2" fill="white" fill-opacity="0.54"/>
<rect x="12" y="7.19995" width="1.2" height="1.2" fill="white" fill-opacity="0.54"/>
<rect x="7.19995" y="4.80005" width="1.2" height="1.2" fill="white" fill-opacity="0.54"/>
<rect x="9.59998" y="13.2" width="1.2" height="1.2" fill="white" fill-opacity="0.54"/>
<rect x="10.8" y="10.8" width="1.2" height="1.2" fill="white" fill-opacity="0.54"/>
<rect x="12" y="8.3999" width="1.2" height="1.2" fill="white" fill-opacity="0.54"/>
<rect x="6" y="6" width="1.2" height="1.2" fill="white" fill-opacity="0.54"/>
<rect x="6" y="7.19995" width="1.2" height="1.2" fill="white" fill-opacity="0.54"/>
<rect x="4.80005" y="8.3999" width="1.2" height="1.2" fill="white" fill-opacity="0.54"/>
<rect x="4.80005" y="9.6001" width="4.8" height="1.2" fill="white" fill-opacity="0.54"/>
<rect x="9.59998" y="7.19995" width="3.6" height="1.2" fill="white" fill-opacity="0.54"/>
<rect x="8.40002" y="2.3999" width="1.2" height="6" fill="white" fill-opacity="0.54"/>
<rect x="8.40002" y="9.6001" width="1.2" height="6" fill="white" fill-opacity="0.54"/>
</svg>
