<svg width="24" height="24" viewBox="0 0 24 24" fill="none" xmlns="http://www.w3.org/2000/svg">
<path d="M11.9961 1.95312C8.1091 1.95312 5.2951 3.12013 4.3001 4.78113C4.04209 5.21113 3.99609 5.67712 3.99609 5.95312V17.9531C3.99609 18.2291 4.07409 18.6821 4.31709 19.1281C5.1941 20.7331 8.1091 21.9531 11.9961 21.9531C15.8821 21.9531 18.5901 20.8171 19.6281 19.2301C19.8521 18.8871 20.0021 18.3761 19.9961 17.9531V5.95312C19.9961 5.67712 19.9591 5.38713 19.8341 5.08313C19.0401 3.16513 15.8821 1.95312 11.9961 1.95312ZM11.9961 3.95312C13.7491 3.95312 15.3861 4.26314 16.5581 4.76514C17.5351 5.18414 17.9961 5.64313 17.9961 5.95312C17.9961 6.26312 17.5351 6.72211 16.5581 7.14111C15.3861 7.64311 13.7491 7.95312 11.9961 7.95312C10.2431 7.95312 8.6051 7.64311 7.4331 7.14111C6.4561 6.72211 5.9961 6.26312 5.9961 5.95312C5.9961 5.64313 6.4561 5.18414 7.4331 4.76514C8.6051 4.26314 10.2431 3.95312 11.9961 3.95312ZM5.9921 8.66113C7.4681 9.50513 9.57711 9.95312 11.9961 9.95312C14.4141 9.95312 16.5141 9.51512 17.9911 8.67212L17.9961 11.9531C17.9961 12.2631 17.5351 12.7221 16.5581 13.1411C15.3861 13.6431 13.7491 13.9531 11.9961 13.9531C10.2431 13.9531 8.6051 13.6431 7.4331 13.1411C6.4561 12.7221 5.9961 12.2631 5.9961 11.9531L5.9921 8.66113ZM5.99711 14.6711C7.42411 15.4451 9.57711 15.9531 11.9961 15.9531C14.4141 15.9531 16.4791 15.4821 17.9921 14.6721L17.9961 17.9531C17.9961 18.2631 17.5351 18.7221 16.5581 19.1411C15.3861 19.6431 13.7491 19.9531 11.9961 19.9531C10.2431 19.9531 8.6051 19.6431 7.4331 19.1411C6.4561 18.7221 5.9961 18.2631 5.9961 17.9531L5.99711 14.6711Z" fill="white" fill-opacity="0.8"/>
</svg>
