<svg width="14" height="14" viewBox="0 0 14 14" fill="none" xmlns="http://www.w3.org/2000/svg">
<path d="M6.40845 2.91211C6.76347 2.91222 7.07798 3.15096 7.177 3.48926L7.51489 4.66797C7.7711 5.55501 8.44623 6.23832 9.3313 6.48926L10.5012 6.82715V6.82129C10.8389 6.92047 11.0782 7.23592 11.0784 7.5918C11.0784 7.94778 10.8389 8.2631 10.4954 8.3623L9.32544 8.69531C8.44048 8.95208 7.75946 9.62872 7.50903 10.5156L7.17114 11.6885C7.07217 12.021 6.76933 12.2489 6.40259 12.249C6.03575 12.249 5.73302 12.027 5.63403 11.6885L5.29614 10.5156C5.03996 9.6288 4.36454 8.94635 3.47974 8.69531L2.30884 8.35645C1.97117 8.2572 1.73267 7.94188 1.73267 7.58594C1.7328 7.23007 1.97124 6.91461 2.3147 6.81543L3.4856 6.4834C4.37048 6.22654 5.05166 5.54902 5.302 4.66211L5.63989 3.48926C5.73899 3.15096 6.05337 2.91211 6.40845 2.91211ZM10.0012 2.00684C10.1179 1.66312 10.5887 1.66307 10.7053 2.00684C10.9673 2.8005 11.183 3.01669 11.9749 3.2793C12.3184 3.396 12.3183 3.86858 11.9749 3.98535C11.183 4.24796 10.9673 4.46415 10.7053 5.25781C10.5888 5.60199 10.1178 5.60194 10.0012 5.25781C9.73921 4.46418 9.5235 4.24794 8.73169 3.98535C8.56295 3.93287 8.47498 3.78735 8.47485 3.63574C8.47485 3.48401 8.56283 3.33765 8.73169 3.2793C9.52342 3.01672 9.73922 2.80043 10.0012 2.00684Z" fill="#0B0C0E"/>
</svg>
