<svg width="18" height="18" viewBox="0 0 18 18" fill="none" xmlns="http://www.w3.org/2000/svg">
<g clip-path="url(#clip0_17394_52806)">
<path d="M9.00487 5.26012C10.8601 5.26012 12.411 6.54601 12.8036 8.28344H16.2785C16.2785 4.2589 13.0196 1 9.00487 1C4.99015 1 1.72144 4.2589 1.72144 8.28344H5.19628C5.59874 6.55583 7.14966 5.26012 8.99506 5.26012H9.00487Z" fill="white"/>
<path d="M9.00484 13.0642C7.03183 13.0642 5.40238 11.6016 5.13735 9.69732L1.7214 9.6875C1.70177 13.712 4.94103 16.9808 8.96557 17.0004C12.9901 17.02 16.2588 13.7808 16.2785 9.75621L12.8527 9.73658C12.5778 11.6212 10.9484 13.0642 8.99502 13.0642H9.00484Z" fill="white"/>
</g>
<defs>
<clipPath id="clip0_17394_52806">
<rect width="14.5571" height="16" fill="white" transform="translate(1.72144 1)"/>
</clipPath>
</defs>
</svg>
