<svg width="18" height="18" viewBox="0 0 18 18" fill="none" xmlns="http://www.w3.org/2000/svg">
<g clip-path="url(#clip0_17394_52797)">
<path d="M9 1C4.58194 1 1 4.58194 1 9C1 13.4181 4.58194 17 9 17C13.4181 17 17 13.4181 17 9C17 4.58194 13.4181 1 9 1ZM9.26839 16.5252C5.11871 16.5252 1.75355 13.16 1.75355 9C1.75355 4.84 5.11871 1.48516 9.26839 1.48516C13.4181 1.48516 16.7935 4.85032 16.7935 9.01032C16.7935 13.1703 13.4284 16.5355 9.26839 16.5355V16.5252Z" fill="white"/>
<path d="M9.59868 2.51758C7.37933 2.51758 5.42836 3.63242 4.25159 5.32532C4.93288 4.91242 5.73804 4.68532 6.58449 4.68532C9.1032 4.68532 11.1367 6.72919 11.1367 9.23758C11.1367 11.746 9.09288 13.7898 6.58449 13.7898C5.98578 13.7898 5.41804 13.6763 4.89159 13.4595C6.06836 14.6982 7.74062 15.4724 9.58836 15.4724C13.1703 15.4724 16.0709 12.5718 16.0709 8.98984C16.0709 5.4079 13.1703 2.51758 9.59868 2.51758Z" fill="white"/>
</g>
<defs>
<clipPath id="clip0_17394_52797">
<rect width="16" height="16" fill="white" transform="translate(1 1)"/>
</clipPath>
</defs>
</svg>
