<svg width="16" height="16" viewBox="0 0 16 16" fill="none" xmlns="http://www.w3.org/2000/svg">
<g clip-path="url(#clip0_17394_52776)">
<path d="M12.3316 5.60994C11.3671 5.60994 10.4973 5.85197 9.83424 6.23231C10.0754 5.84333 10.2648 5.37655 10.3768 4.85791C10.2734 4.94435 10.1615 5.02215 10.0323 5.06537C9.07644 5.45435 7.81917 4.58131 7.21637 3.12048C6.69969 1.8671 6.83747 0.58779 7.47472 0C6.4069 0.397623 5.60604 1.88439 5.60604 3.6564C5.60604 4.62453 5.84716 5.50621 6.23467 6.1718C5.83855 5.92977 5.35631 5.7396 4.8224 5.61858C4.90851 5.72231 4.98602 5.83468 5.03769 5.9557C5.43381 6.90654 4.57267 8.16856 3.10873 8.78228C1.86008 9.30956 0.576975 9.1799 -0.0172119 8.54025C0.387524 9.6121 1.8773 10.3901 3.65125 10.3814C4.60712 10.3814 5.47687 10.1307 6.13995 9.7504C5.89883 10.148 5.70938 10.6148 5.59743 11.1421C5.70076 11.0556 5.81271 10.9778 5.94188 10.926C6.88914 10.5284 8.15502 11.4014 8.76643 12.8622C9.28311 14.1156 9.16255 15.3949 8.5167 15.9914C9.58451 15.5851 10.3768 14.0983 10.3681 12.3263C10.3681 11.3582 10.1184 10.4765 9.72229 9.81091C10.1184 10.0616 10.592 10.2518 11.126 10.3641C11.0398 10.2604 10.9623 10.148 10.9107 10.0184C10.5145 9.06753 11.3843 7.80551 12.8482 7.20043C14.0969 6.68179 15.38 6.81145 15.9742 7.45111C15.5694 6.37925 14.0797 5.59265 12.3143 5.59265L12.3316 5.60994ZM7.19054 8.75635C7.33693 8.49703 7.41444 8.21178 7.41444 7.92653C7.41444 7.67585 7.34554 7.42518 7.2336 7.20043C7.49194 7.33874 7.7675 7.42518 8.06029 7.42518C8.31863 7.42518 8.55975 7.36467 8.79226 7.2523C8.65448 7.51162 8.57698 7.77958 8.57698 8.06483C8.57698 8.32415 8.64587 8.57482 8.75782 8.80821C8.49947 8.66126 8.2153 8.57482 7.92251 8.58347C7.67278 8.58347 7.42305 8.65262 7.19915 8.76499L7.19054 8.75635Z" fill="white"/>
</g>
<defs>
<clipPath id="clip0_17394_52776">
<rect width="16" height="16" fill="white"/>
</clipPath>
</defs>
</svg>
