<svg width="16" height="16" viewBox="0 0 16 16" fill="none" xmlns="http://www.w3.org/2000/svg">
<path d="M8 0C3.5792 0 0 3.5792 0 8C0 12.4208 3.5792 16 8 16C12.4208 16 16 12.4208 16 8C16 3.5792 12.4208 0 8 0ZM3.14389 10.1378C3.71463 10.7376 4.50786 11.1149 5.39782 11.1149C7.11971 11.1149 8.50302 9.72189 8.50302 8.00967C8.50302 6.29746 7.11004 4.90447 5.39782 4.90447C4.50786 4.90447 3.71463 5.28174 3.14389 5.8815C3.84039 4.82709 5.0399 4.13059 6.3942 4.13059C8.54172 4.13059 10.283 5.87183 10.283 8.01935C10.283 10.1669 8.54172 11.9081 6.3942 11.9081C5.03023 11.9081 3.84039 11.2116 3.14389 10.1572V10.1378ZM3.01814 8C3.01814 6.54897 4.19831 5.3688 5.64933 5.3688C7.10036 5.3688 8.28053 6.54897 8.28053 8C8.28053 9.45103 7.10036 10.6312 5.64933 10.6312C4.19831 10.6312 3.01814 9.45103 3.01814 8ZM6.0266 12.6046C8.57074 12.6046 10.6312 10.5441 10.6312 8C10.6312 5.45586 8.57074 3.3954 6.0266 3.3954C5.50423 3.3954 5.00121 3.48247 4.53688 3.64692C5.41717 3.01814 6.48126 2.65054 7.64208 2.65054C10.6022 2.65054 12.9915 5.04958 12.9915 8C12.9915 10.9504 10.5925 13.3495 7.64208 13.3495C6.48126 13.3495 5.41717 12.9819 4.53688 12.3531C5.00121 12.5175 5.50423 12.6046 6.0266 12.6046ZM8.6578 14.7618C7.72914 14.7618 6.83918 14.5683 6.0266 14.2297C6.38452 14.2975 6.75212 14.3362 7.12938 14.3362C10.6312 14.3362 13.4655 11.5018 13.4655 8C13.4655 4.49819 10.6215 1.66385 7.11971 1.66385C6.74244 1.66385 6.37485 1.70254 6.01693 1.77025C6.8295 1.43168 7.70979 1.23821 8.64812 1.23821C12.3821 1.23821 15.4099 4.26602 15.4099 8C15.4099 11.734 12.3821 14.7618 8.64812 14.7618H8.6578Z" fill="white"/>
</svg>
