<svg width="18" height="18" viewBox="0 0 18 18" fill="none" xmlns="http://www.w3.org/2000/svg">
<path d="M6.76172 2.92981C5.35322 2.92981 4.18172 3.87857 3.85847 5.18732C3.76922 5.19332 2.26172 5.17981 2.26172 5.17981C1.84772 5.17981 1.51172 5.51581 1.51172 5.92981C1.51172 6.34381 1.84772 6.67981 2.26172 6.67981C2.26172 6.67981 3.74372 6.67306 3.85247 6.67981C4.22822 7.98556 5.35322 8.92981 6.76172 8.92981C8.15447 8.92981 9.32521 7.96157 9.66346 6.67532L15.7617 6.67981C16.1757 6.67981 16.5117 6.34381 16.5117 5.92981C16.5117 5.51581 16.1757 5.17981 15.7617 5.17981L9.67321 5.18132C9.33496 3.89507 8.15447 2.92981 6.76172 2.92981ZM6.76172 4.42981C7.59047 4.42981 8.26172 5.10106 8.26172 5.92981C8.26172 6.75856 7.59047 7.42981 6.76172 7.42981C5.93297 7.42981 5.26172 6.75856 5.26172 5.92981C5.26172 5.10106 5.93297 4.42981 6.76172 4.42981ZM12.0117 8.92981C10.619 8.92981 9.44896 9.88981 9.11071 11.1761L2.26172 11.1798C1.84772 11.1798 1.51172 11.5158 1.51172 11.9298C1.51172 12.3438 1.84772 12.6798 2.26172 12.6798L9.11371 12.6813C9.45196 13.9676 10.619 14.9298 12.0117 14.9298C13.4045 14.9298 14.5707 13.9691 14.909 12.6828L15.7617 12.6798C16.1757 12.6798 16.5117 12.3438 16.5117 11.9298C16.5117 11.5158 16.1757 11.1798 15.7617 11.1798L14.9157 11.1791C14.5775 9.89283 13.4045 8.92981 12.0117 8.92981ZM12.0117 10.4298C12.8405 10.4298 13.5117 11.1011 13.5117 11.9298C13.5117 12.7586 12.8405 13.4298 12.0117 13.4298C11.183 13.4298 10.5117 12.7586 10.5117 11.9298C10.5117 11.1011 11.183 10.4298 12.0117 10.4298Z" fill="white" fill-opacity="0.98"/>
</svg>
