<svg width="18" height="18" viewBox="0 0 18 18" fill="none" xmlns="http://www.w3.org/2000/svg">
<path d="M8.99332 1.49902C6.3291 1.49902 4.49332 3.33503 4.49332 5.99904C4.49332 6.36279 4.49332 7.47654 4.49332 7.49904C4.49332 7.74054 4.37137 7.90479 3.95422 8.24904C3.90689 8.28804 3.70852 8.45829 3.64957 8.50704C2.70052 9.29154 2.23342 10.0265 2.24332 11.2491C2.25329 12.4851 3.26084 13.4848 4.49332 13.4991H6.87532C6.87532 13.4991 6.74332 13.9573 6.74332 14.2491C6.74332 15.4918 7.75057 16.4991 8.99332 16.4991C10.2361 16.4991 11.2433 15.4918 11.2433 14.2491C11.2433 13.9573 11.1173 13.4991 11.1173 13.4991H13.4933C14.7233 13.5036 15.7448 12.4903 15.7433 11.2491C15.7418 10.0355 15.2738 9.28779 14.3371 8.50704C14.2756 8.45529 14.0581 8.28954 14.0086 8.24904C13.6006 7.90854 13.4933 7.73754 13.4933 7.49904C13.4933 6.56154 13.4933 5.99904 13.4933 5.99904C13.4933 3.33503 11.6573 1.49902 8.99332 1.49902ZM8.99332 2.99903C10.8293 2.99903 11.9933 4.16303 11.9933 5.99904C11.9933 5.99904 11.9933 6.56154 11.9933 7.49904C11.9933 8.29554 12.3293 8.79805 13.0478 9.3973C13.1048 9.44455 13.3456 9.63355 13.3996 9.67855C14.0281 10.2028 14.2426 10.5576 14.2433 11.2491C14.2441 11.6571 13.8946 12.0006 13.4933 11.9991C13.3516 11.9983 11.1683 11.9983 8.99332 11.9991C6.81855 11.9998 4.65269 12.0006 4.49332 11.9991C4.07467 11.9938 3.74669 11.6653 3.74332 11.2491C3.73777 10.5591 3.95219 10.2036 4.58707 9.67855C4.63889 9.6358 4.86067 9.4423 4.91519 9.3973C5.6451 8.7943 5.99332 8.30304 5.99332 7.49904C5.99332 7.47654 5.99332 6.36279 5.99332 5.99904C5.99332 4.16303 7.15755 2.99903 8.99332 2.99903ZM8.99332 13.4991C9.40732 13.4991 9.74332 13.8351 9.74332 14.2491C9.74332 14.6631 9.40732 14.9991 8.99332 14.9991C8.57932 14.9991 8.24332 14.6631 8.24332 14.2491C8.24332 13.8351 8.57932 13.4991 8.99332 13.4991Z" fill="white" fill-opacity="0.8"/>
</svg>
