<svg width="24" height="24" viewBox="0 0 24 24" fill="none" xmlns="http://www.w3.org/2000/svg">
<path d="M6.99853 2.99072C4.78953 2.99072 2.99854 4.78162 2.99854 6.99072V16.9907C2.99854 19.1998 4.78953 20.9907 6.99853 20.9907H16.9985C19.2075 20.9907 20.9985 19.1998 20.9985 16.9907V6.99072C20.9985 4.78162 19.2075 2.99072 16.9985 2.99072H6.99853ZM6.99853 4.99072H16.9985C18.1035 4.99072 18.9985 5.88612 18.9985 6.99072V16.9907C18.9985 18.0953 18.1035 18.9907 16.9985 18.9907H6.99853C5.89353 18.9907 4.99853 18.0953 4.99853 16.9907V6.99072C4.99853 5.88612 5.89353 4.99072 6.99853 4.99072ZM7.99853 6.99072C7.44653 6.99072 6.99853 7.43842 6.99853 7.99072C6.99853 8.54302 7.44653 8.99072 7.99853 8.99072H15.9985C16.5505 8.99072 16.9985 8.54302 16.9985 7.99072C16.9985 7.43842 16.5505 6.99072 15.9985 6.99072H7.99853ZM8.99853 10.9907C8.44653 10.9907 7.99853 11.4384 7.99853 11.9907C7.99853 12.543 8.44653 12.9907 8.99853 12.9907H14.9985C15.5505 12.9907 15.9985 12.543 15.9985 11.9907C15.9985 11.4384 15.5505 10.9907 14.9985 10.9907H8.99853ZM9.99853 14.9907C9.44653 14.9907 8.99853 15.4384 8.99853 15.9907C8.99853 16.543 9.44653 16.9907 9.99853 16.9907H13.9985C14.5505 16.9907 14.9985 16.543 14.9985 15.9907C14.9985 15.4384 14.5505 14.9907 13.9985 14.9907H9.99853Z" fill="white" fill-opacity="0.8"/>
</svg>
