<svg width="8" height="32" viewBox="0 0 8 32" fill="none" xmlns="http://www.w3.org/2000/svg">
<rect width="4" height="4" rx="2" fill="#F84600"/>
<rect y="4" width="4" height="4" rx="2" fill="#F84600"/>
<rect y="8" width="4" height="4" rx="2" fill="#F84600"/>
<rect y="12" width="4" height="4" rx="2" fill="#F84600"/>
<rect y="16" width="4" height="4" rx="2" fill="#F84600"/>
<rect y="20" width="4" height="4" rx="2" fill="#F84600"/>
<rect y="24" width="4" height="4" rx="2" fill="#F84600"/>
<rect y="28" width="4" height="4" rx="2" fill="#F84600"/>
<rect x="4" width="4" height="4" rx="2" fill="#F84600"/>
<rect x="4" y="4" width="4" height="4" rx="2" fill="#F84600"/>
<rect x="4" y="8" width="4" height="4" rx="2" fill="#F84600"/>
<rect x="4" y="12" width="4" height="4" rx="2" fill="#F84600"/>
<rect x="4" y="16" width="4" height="4" rx="2" fill="#F84600"/>
<rect x="4" y="20" width="4" height="4" rx="2" fill="#F84600"/>
<rect x="4" y="24" width="4" height="4" rx="2" fill="#F84600"/>
<rect x="4" y="28" width="4" height="4" rx="2" fill="#F84600"/>
</svg>
