<svg width="24" height="24" viewBox="0 0 24 24" fill="none" xmlns="http://www.w3.org/2000/svg">
<path d="M12.0078 1.95312C10.9048 1.95312 9.99584 2.84812 9.99584 3.95312H8.00184C6.89883 3.95312 6.00484 4.84812 6.00484 5.95312L5.99584 7.95312C5.99584 8.11513 6.09883 8.45215 6.09883 8.45215L4.28784 10.2651C3.89884 10.6561 3.89884 11.2811 4.28784 11.6721L6.28583 13.6721C6.47283 13.8591 6.73784 13.9531 7.00284 13.9531H9.99584V19.9531C9.99584 21.0581 10.8928 21.9531 11.9958 21.9531C13.0988 21.9531 13.9958 21.0581 13.9958 19.9531V13.9531H15.9898C17.0928 13.9531 17.9958 13.0581 17.9958 11.9531V9.95312C17.9958 9.79612 17.9248 9.45312 17.9248 9.45312L19.7038 7.67212C20.0928 7.28112 20.0928 6.65614 19.7038 6.26514L17.7059 4.26514C17.5189 4.07814 17.2538 3.95312 16.9888 3.95312H14.0048C14.0048 2.84812 13.1108 1.95312 12.0078 1.95312ZM7.99584 5.95312H16.5518L17.5818 6.98413L16.5829 7.95312C16.5319 7.95312 16.1038 7.95312 15.9898 7.95312H7.99584V5.95312ZM7.43984 9.95312H15.9958V11.9531H7.40883L6.44184 10.9841L7.43984 9.95312Z" fill="white" fill-opacity="0.8"/>
</svg>
