<svg width="24" height="24" viewBox="0 0 24 24" fill="none" xmlns="http://www.w3.org/2000/svg">
<path d="M6.01413 3.9978C3.80503 3.9978 2.01413 5.7888 2.01413 7.9978V19.9978C2.01413 20.8218 2.94863 21.3048 3.60793 20.8098L7.35793 17.9978H18.0141C20.2232 17.9978 22.0141 16.2068 22.0141 13.9978V7.9978C22.0141 5.7888 20.2232 3.9978 18.0141 3.9978H6.01413ZM6.01413 5.9978H18.0141C19.1187 5.9978 20.0141 6.8928 20.0141 7.9978V13.9978C20.0141 15.1028 19.1187 15.9978 18.0141 15.9978H7.01413C6.79773 15.9978 6.59343 16.0558 6.42033 16.1858L4.01413 17.9978V7.9978C4.01413 6.8928 4.90953 5.9978 6.01413 5.9978ZM7.01413 7.9978C6.46183 7.9978 6.01413 8.4458 6.01413 8.9978C6.01413 9.5498 6.46183 9.9978 7.01413 9.9978H17.0141C17.5664 9.9978 18.0141 9.5498 18.0141 8.9978C18.0141 8.4458 17.5664 7.9978 17.0141 7.9978H7.01413ZM7.01413 11.9978C6.46183 11.9978 6.01413 12.4458 6.01413 12.9978C6.01413 13.5498 6.46183 13.9978 7.01413 13.9978H14.0141C14.5664 13.9978 15.0141 13.5498 15.0141 12.9978C15.0141 12.4458 14.5664 11.9978 14.0141 11.9978H7.01413Z" fill="white" fill-opacity="0.8"/>
</svg>
