<svg width="24" height="24" viewBox="0 0 24 24" fill="none" xmlns="http://www.w3.org/2000/svg">
<path d="M7.59032 1.99884C5.63932 1.99884 4.02832 3.47884 4.02832 5.34284V18.6549C4.02832 20.5189 5.63932 21.9989 7.59032 21.9989H16.4663C18.4173 21.9989 20.0283 20.5189 20.0283 18.6549C20.0283 18.0039 20.0283 10.8569 20.0283 8.99886C20.0283 8.98886 20.0283 8.97786 20.0283 8.96786C20.0283 5.40484 16.5893 1.99884 13.0283 1.99884C8.81432 1.99884 8.80432 1.99884 7.59032 1.99884ZM7.59032 3.99885C8.58132 3.99885 9.70232 3.99885 12.0283 3.99885V6.65486C12.0283 8.51887 13.6393 9.99887 15.5903 9.99887H18.0283C18.0283 12.5359 18.0283 18.0709 18.0283 18.6549C18.0283 19.3689 17.3543 19.9989 16.4663 19.9989H7.59032C6.70232 19.9989 6.02832 19.3689 6.02832 18.6549V5.34284C6.02832 4.62884 6.70232 3.99885 7.59032 3.99885ZM14.0283 4.12385C15.8003 4.59385 17.4443 6.23185 17.9033 7.99886H15.5903C14.7013 7.99886 14.0283 7.36886 14.0283 6.65486V4.12385ZM9.02832 7.99886C8.47632 7.99886 8.02832 8.44686 8.02832 8.99886C8.02832 9.55086 8.47632 9.99887 9.02832 9.99887H10.0283C10.5803 9.99887 11.0283 9.55086 11.0283 8.99886C11.0283 8.44686 10.5803 7.99886 10.0283 7.99886H9.02832ZM9.02832 11.9989C8.47632 11.9989 8.02832 12.4469 8.02832 12.9989C8.02832 13.5509 8.47632 13.9989 9.02832 13.9989H15.0283C15.5803 13.9989 16.0283 13.5509 16.0283 12.9989C16.0283 12.4469 15.5803 11.9989 15.0283 11.9989H9.02832ZM9.02832 15.9989C8.47632 15.9989 8.02832 16.4469 8.02832 16.9989C8.02832 17.5509 8.47632 17.9989 9.02832 17.9989H15.0283C15.5803 17.9989 16.0283 17.5509 16.0283 16.9989C16.0283 16.4469 15.5803 15.9989 15.0283 15.9989H9.02832Z" fill="white" fill-opacity="0.8"/>
</svg>
