<svg width="24" height="24" viewBox="0 0 24 24" fill="none" xmlns="http://www.w3.org/2000/svg">
<path d="M4.92947 11.3566C4.92947 11.3566 11.5739 8.55811 13.8783 7.5727C14.7617 7.17856 17.7574 5.91722 17.7574 5.91722C17.7574 5.91722 19.1401 5.36543 19.0248 6.70555C18.9864 7.25739 18.6792 9.18873 18.3719 11.2778C17.911 14.234 17.4117 17.466 17.4117 17.466C17.4117 17.466 17.3349 18.3726 16.682 18.5303C16.0291 18.6879 14.9537 17.9785 14.7617 17.8208C14.608 17.7026 11.8811 15.9288 10.8825 15.0617C10.6137 14.8252 10.3065 14.3522 10.9209 13.8004C12.3036 12.4997 13.9551 10.8836 14.9537 9.85884C15.4146 9.38582 15.8754 8.28219 13.9551 9.6223C11.2282 11.5537 8.53973 13.3668 8.53973 13.3668C8.53973 13.3668 7.9252 13.761 6.77301 13.4062C5.62076 13.0515 4.27651 12.5785 4.27651 12.5785C4.27651 12.5785 3.3548 11.9873 4.92947 11.3566Z" fill="#7D7F82"/>
</svg>
