<svg width="18" height="18" viewBox="0 0 18 18" fill="none" xmlns="http://www.w3.org/2000/svg">
<path d="M3.03168 8.32278C3.03168 8.32278 8.6707 6.01783 10.6264 5.2062C11.3761 4.88158 13.9186 3.84269 13.9186 3.84269C13.9186 3.84269 15.092 3.38821 14.9942 4.49198C14.9616 4.9465 14.7008 6.53723 14.4401 8.25785C14.0489 10.6927 13.6252 13.3547 13.6252 13.3547C13.6252 13.3547 13.56 14.1014 13.0059 14.2313C12.4518 14.3611 11.5391 13.7768 11.3761 13.6469C11.2457 13.5496 8.93145 12.0886 8.08397 11.3744C7.8558 11.1797 7.59505 10.7901 8.11654 10.3356C9.29 9.26425 10.6916 7.93323 11.5391 7.08916C11.9302 6.69956 12.3214 5.79057 10.6916 6.89434C8.37734 8.48511 6.09565 9.97847 6.09565 9.97847C6.09565 9.97847 5.57411 10.3031 4.59626 10.0109C3.61836 9.71877 2.47752 9.32918 2.47752 9.32918C2.47752 9.32918 1.69528 8.84222 3.03168 8.32278Z" fill="white" fill-opacity="0.54"/>
</svg>
