<svg width="18" height="18" viewBox="0 0 18 18" fill="none" xmlns="http://www.w3.org/2000/svg">
<path d="M8.99876 1.46484C8.58476 1.46484 8.24876 1.80084 8.24876 2.21484C8.24876 2.62884 8.58476 2.96484 8.99876 2.96484C9.41276 2.96484 9.74876 2.62884 9.74876 2.21484C9.74876 1.80084 9.41276 1.46484 8.99876 1.46484ZM4.49876 3.71484C4.08454 3.71484 3.74876 4.05084 3.74876 4.46484C3.74876 4.87884 4.08454 5.21484 4.49876 5.21484C4.91299 5.21484 5.24876 4.87884 5.24876 4.46484C5.24876 4.05084 4.91299 3.71484 4.49876 3.71484ZM8.99876 3.71484C6.51349 3.71484 4.49876 5.72934 4.49876 8.21484C4.49876 9.19659 4.81429 10.1393 5.38939 10.9103C5.45299 10.9951 5.99824 11.5793 6.16287 11.7773C6.31077 11.9551 6.41561 12.1201 6.51439 12.2693C6.66559 12.4981 6.74876 12.6661 6.74876 12.7148V14.2148C6.74876 15.4576 7.75601 16.4648 8.99876 16.4648C10.2415 16.4648 11.2488 15.4576 11.2488 14.2148V12.7148C11.2488 12.6646 11.3103 12.4958 11.4595 12.2693C11.5593 12.1186 11.707 11.9588 11.8578 11.7773C12.0093 11.5966 12.535 11.0078 12.6078 10.9103C13.1815 10.1401 13.4988 9.19509 13.4988 8.21484C13.4988 5.72934 11.4843 3.71484 8.99876 3.71484ZM13.4988 3.71484C13.0848 3.71484 12.7488 4.05084 12.7488 4.46484C12.7488 4.87884 13.0848 5.21484 13.4988 5.21484C13.9128 5.21484 14.2488 4.87884 14.2488 4.46484C14.2488 4.05084 13.9128 3.71484 13.4988 3.71484ZM8.99876 5.21484C10.6555 5.21484 11.9988 6.55809 11.9988 8.21484C11.9988 8.86959 11.7955 9.48234 11.413 9.99609C11.392 10.0238 10.8783 10.5863 10.6863 10.8166C10.5018 11.0371 10.3518 11.2463 10.2175 11.4488C10.096 11.6326 10.0188 11.7856 9.94226 11.9581C9.30401 11.9581 8.70026 11.9581 8.06201 11.9581C7.98551 11.7856 7.90226 11.6333 7.78001 11.4488C7.64726 11.2493 7.49156 11.0333 7.31126 10.8166C7.10464 10.5683 6.59561 10.0111 6.58466 9.99609C6.20126 9.48234 5.99876 8.87034 5.99876 8.21484C5.99876 6.55809 7.34194 5.21484 8.99876 5.21484ZM2.99876 8.21484C2.58454 8.21484 2.24876 8.55084 2.24876 8.96484C2.24876 9.37884 2.58454 9.71484 2.99876 9.71484C3.41299 9.71484 3.74876 9.37884 3.74876 8.96484C3.74876 8.55084 3.41299 8.21484 2.99876 8.21484ZM14.9988 8.21484C14.5848 8.21484 14.2488 8.55084 14.2488 8.96484C14.2488 9.37884 14.5848 9.71484 14.9988 9.71484C15.4128 9.71484 15.7488 9.37884 15.7488 8.96484C15.7488 8.55084 15.4128 8.21484 14.9988 8.21484ZM8.24876 13.4648C8.77001 13.4648 9.22751 13.4648 9.74876 13.4648V14.2148C9.74876 14.6288 9.41276 14.9648 8.99876 14.9648C8.58476 14.9648 8.24876 14.6288 8.24876 14.2148V13.4648Z" fill="white" fill-opacity="0.54"/>
</svg>
