<svg width="18" height="18" viewBox="0 0 18 18" fill="none" xmlns="http://www.w3.org/2000/svg">
<path d="M5.24902 2.24316C3.59227 2.24316 2.24902 3.58642 2.24902 5.24318V12.7432C2.24902 14.4 3.59227 15.7432 5.24902 15.7432H12.749C14.4058 15.7432 15.749 14.4 15.749 12.7432V5.24318C15.749 3.58642 14.4058 2.24316 12.749 2.24316H5.24902ZM5.24902 3.74317H12.749C13.5778 3.74317 14.249 4.41443 14.249 5.24318V12.7432C14.249 13.572 13.5778 14.2432 12.749 14.2432H5.24902C4.42027 14.2432 3.74902 13.572 3.74902 12.7432V5.24318C3.74902 4.41443 4.42027 3.74317 5.24902 3.74317ZM8.99901 5.24318C8.58502 5.24318 8.24902 5.57918 8.24902 5.99319C8.24902 6.40719 8.58502 6.74319 8.99901 6.74319C9.41301 6.74319 9.74901 6.40719 9.74901 5.99319C9.74901 5.57918 9.41301 5.24318 8.99901 5.24318ZM8.24902 7.4932C7.83502 7.4932 7.49902 7.8292 7.49902 8.2432C7.49902 8.6047 7.76828 8.87469 8.10802 8.9467L7.66326 11.1022C7.48926 11.973 8.11177 12.7432 8.99901 12.7432H9.74901C10.163 12.7432 10.499 12.4072 10.499 11.9932C10.499 11.5792 10.163 11.2432 9.74901 11.2432H9.16326L9.72576 8.38419C9.81876 7.91994 9.47226 7.4932 8.99901 7.4932C8.90451 7.4932 8.37052 7.4932 8.24902 7.4932Z" fill="white" fill-opacity="0.8"/>
</svg>
