<svg width="14" height="14" viewBox="0 0 14 14" fill="none" xmlns="http://www.w3.org/2000/svg">
<path d="M4.07747 1.70898C2.78889 1.70898 1.74414 2.75368 1.74414 4.04232V9.87565C1.74414 11.1643 2.78889 12.209 4.07747 12.209H9.91079C11.1994 12.209 12.2441 11.1643 12.2441 9.87565V4.04232C12.2441 2.75368 11.1994 1.70898 9.91079 1.70898H4.07747ZM4.07747 2.87565H9.91079C10.5554 2.87565 11.0775 3.39797 11.0775 4.04232V9.87565C11.0775 10.52 10.5554 11.0423 9.91079 11.0423H4.07747C3.43289 11.0423 2.9108 10.52 2.9108 9.87565V4.04232C2.9108 3.39797 3.43289 2.87565 4.07747 2.87565Z" fill="white" fill-opacity="0.8"/>
</svg>
