<svg width="32" height="32" viewBox="0 0 32 32" fill="none" xmlns="http://www.w3.org/2000/svg">
<rect x="0.0005" y="0.0005" width="31.999" height="31.999" stroke="#0076A0" stroke-width="0.001"/>
<path d="M14.6646 17.2402H17.3306C17.5417 17.2402 17.7536 17.254 17.9644 17.2803C18.0345 17.289 18.1045 17.299 18.1743 17.3105C19.2234 17.4834 20.2392 17.9654 21.0493 18.6514C21.1034 18.6972 21.1563 18.7444 21.2085 18.792C21.6774 19.2193 22.0682 19.7173 22.3442 20.2627C22.4364 20.4447 22.5164 20.6316 22.5815 20.8232L22.6255 20.9854C22.6368 21.0393 22.6444 21.0931 22.6489 21.1465C22.6535 21.2 22.6547 21.2531 22.6528 21.3057C22.628 21.9881 22.0724 22.5723 21.3306 22.5723H10.6646C10.552 22.5723 10.4431 22.5582 10.3394 22.5322C10.2872 22.5192 10.2364 22.5033 10.187 22.4844C9.54802 22.2393 9.15277 21.5205 9.37256 20.8232C9.66133 19.9077 10.2697 19.1077 11.0552 18.4971C11.1113 18.4535 11.1682 18.4108 11.2261 18.3691C11.4576 18.2025 11.7029 18.052 11.9585 17.9189C12.0863 17.8524 12.2165 17.7899 12.3491 17.7324C12.4815 17.675 12.6161 17.6222 12.7524 17.5742C12.8207 17.5502 12.8894 17.5274 12.9585 17.5059C13.511 17.3334 14.0886 17.2402 14.6646 17.2402ZM15.9976 7.90723C16.2739 7.90723 16.5436 7.93493 16.8042 7.98828C18.3663 8.3081 19.596 9.53837 19.9155 11.1006C19.9688 11.3609 19.9976 11.6302 19.9976 11.9062C19.9976 12.1823 19.9688 12.4516 19.9155 12.7119C19.596 14.2741 18.3663 15.5044 16.8042 15.8242C16.6088 15.8642 16.4083 15.89 16.2036 15.9004C16.1354 15.9039 16.0666 15.9053 15.9976 15.9053C15.9284 15.9053 15.8598 15.9039 15.7915 15.9004C15.5872 15.89 15.387 15.8641 15.1919 15.8242C13.6948 15.518 12.5028 14.3758 12.1245 12.9062C12.0422 12.5866 11.9985 12.2516 11.9985 11.9062C11.9985 11.492 12.0613 11.0926 12.1782 10.7168C12.6067 9.33912 13.7598 8.28118 15.1919 7.98828C15.4522 7.93505 15.7215 7.90723 15.9976 7.90723Z" fill="#0076A0" stroke="#0076A0" stroke-width="0.001"/>
</svg>
