<svg width="14" height="14" viewBox="0 0 14 14" fill="none" xmlns="http://www.w3.org/2000/svg">
<g clip-path="url(#clip0_17272_15341)">
<path d="M9.62508 7.00033C10.4301 7.00033 11.0776 6.34699 11.0776 5.54199C11.0776 4.73699 10.4301 4.08366 9.62508 4.08366C8.82008 4.08366 8.16675 4.73699 8.16675 5.54199C8.16675 6.34699 8.82008 7.00033 9.62508 7.00033ZM5.25008 6.41699C6.21841 6.41699 6.99425 5.63533 6.99425 4.66699C6.99425 3.69866 6.21841 2.91699 5.25008 2.91699C4.28175 2.91699 3.50008 3.69866 3.50008 4.66699C3.50008 5.63533 4.28175 6.41699 5.25008 6.41699ZM9.62508 8.16699C8.55758 8.16699 6.41675 8.70366 6.41675 9.77116V11.0837H12.8334V9.77116C12.8334 8.70366 10.6926 8.16699 9.62508 8.16699ZM5.25008 7.58366C3.89091 7.58366 1.16675 8.26616 1.16675 9.62533V11.0837H5.25008V9.77116C5.25008 9.27533 5.44258 8.40616 6.63258 7.74699C6.12508 7.64199 5.63508 7.58366 5.25008 7.58366Z" fill="white" fill-opacity="0.36"/>
</g>
<defs>
<clipPath id="clip0_17272_15341">
<rect width="14" height="14" fill="white"/>
</clipPath>
</defs>
</svg>
