<svg width="14" height="14" viewBox="0 0 14 14" fill="none" xmlns="http://www.w3.org/2000/svg">
<g clip-path="url(#clip0_17272_15335)">
<path d="M3.50008 8.75C4.14175 8.75 4.66675 9.275 4.66675 9.91667C4.66675 10.5583 4.14175 11.0833 3.50008 11.0833C2.85841 11.0833 2.33341 10.5583 2.33341 9.91667C2.33341 9.275 2.85841 8.75 3.50008 8.75ZM3.50008 7.58333C2.21675 7.58333 1.16675 8.63333 1.16675 9.91667C1.16675 11.2 2.21675 12.25 3.50008 12.25C4.78341 12.25 5.83341 11.2 5.83341 9.91667C5.83341 8.63333 4.78341 7.58333 3.50008 7.58333ZM7.00008 2.91667C7.64175 2.91667 8.16675 3.44167 8.16675 4.08333C8.16675 4.725 7.64175 5.25 7.00008 5.25C6.35841 5.25 5.83341 4.725 5.83341 4.08333C5.83341 3.44167 6.35841 2.91667 7.00008 2.91667ZM7.00008 1.75C5.71675 1.75 4.66675 2.8 4.66675 4.08333C4.66675 5.36667 5.71675 6.41667 7.00008 6.41667C8.28341 6.41667 9.33341 5.36667 9.33341 4.08333C9.33341 2.8 8.28341 1.75 7.00008 1.75ZM10.5001 8.75C11.1417 8.75 11.6667 9.275 11.6667 9.91667C11.6667 10.5583 11.1417 11.0833 10.5001 11.0833C9.85841 11.0833 9.33341 10.5583 9.33341 9.91667C9.33341 9.275 9.85841 8.75 10.5001 8.75ZM10.5001 7.58333C9.21675 7.58333 8.16675 8.63333 8.16675 9.91667C8.16675 11.2 9.21675 12.25 10.5001 12.25C11.7834 12.25 12.8334 11.2 12.8334 9.91667C12.8334 8.63333 11.7834 7.58333 10.5001 7.58333Z" fill="white" fill-opacity="0.36"/>
</g>
<defs>
<clipPath id="clip0_17272_15335">
<rect width="14" height="14" fill="white"/>
</clipPath>
</defs>
</svg>
