<svg width="14" height="14" viewBox="0 0 14 14" fill="none" xmlns="http://www.w3.org/2000/svg">
<path d="M6.9987 1.13965C4.4542 1.13965 2.33203 2.04907 2.33203 3.47298C2.33203 4.8969 4.4542 5.80632 6.9987 5.80632C9.5432 5.80632 11.6654 4.8969 11.6654 3.47298C11.6654 2.04907 9.5432 1.13965 6.9987 1.13965ZM2.33203 5.58757V6.97298C2.33203 8.3969 4.4542 9.30632 6.9987 9.30632C9.5432 9.30632 11.6654 8.3969 11.6654 6.97298V5.58757C10.6072 6.45673 8.95753 6.97298 6.9987 6.97298C5.03986 6.97298 3.3902 6.45673 2.33203 5.58757ZM2.33203 9.08757V10.473C2.33203 11.8969 4.4542 12.8063 6.9987 12.8063C9.5432 12.8063 11.6654 11.8969 11.6654 10.473V9.08757C10.6072 9.95673 8.95753 10.473 6.9987 10.473C5.03986 10.473 3.3902 9.95673 2.33203 9.08757Z" fill="white" fill-opacity="0.36"/>
</svg>
