<svg width="14" height="14" viewBox="0 0 14 14" fill="none" xmlns="http://www.w3.org/2000/svg">
<g clip-path="url(#clip0_17272_15344)">
<path d="M8.16667 7C8.16667 6.35833 7.64167 5.83333 7 5.83333C6.35833 5.83333 5.83333 6.35833 5.83333 7C5.83333 7.64167 6.35833 8.16667 7 8.16667C7.64167 8.16667 8.16667 7.64167 8.16667 7ZM7 1.75C4.10083 1.75 1.75 4.10083 1.75 7H0L2.33333 9.33333L4.66667 7H2.91667C2.91667 4.7425 4.7425 2.91667 7 2.91667C9.2575 2.91667 11.0833 4.7425 11.0833 7C11.0833 9.2575 9.2575 11.0833 7 11.0833C6.11917 11.0833 5.3025 10.7975 4.63167 10.325L3.80333 11.165C4.69 11.8417 5.79833 12.25 7 12.25C9.89917 12.25 12.25 9.89917 12.25 7C12.25 4.10083 9.89917 1.75 7 1.75Z" fill="white" fill-opacity="0.36"/>
</g>
<defs>
<clipPath id="clip0_17272_15344">
<rect width="14" height="14" fill="white"/>
</clipPath>
</defs>
</svg>
