<svg width="24" height="24" viewBox="0 0 24 24" fill="none" xmlns="http://www.w3.org/2000/svg">
<path d="M21 3H3C1.9 3 1 3.9 1 5V17C1 18.1 1.9 19 3 19H8V20C8 20.55 8.45 21 9 21H15C15.55 21 16 20.55 16 20V19H17C17.55 19 18 18.55 18 18C18 17.45 17.55 17 17 17H4C3.45 17 3 16.55 3 16V6C3 5.45 3.45 5 4 5H20C20.55 5 21 5.45 21 6V12C21 12.55 21.45 13 22 13C22.55 13 23 12.55 23 12V5C23 3.9 22.1 3 21 3ZM23.29 18.71L20.25 21.75C19.84 22.16 19.16 22.16 18.75 21.75C18.34 21.34 18.34 20.66 18.75 20.25L21 18L18.75 15.75C18.34 15.34 18.34 14.66 18.75 14.25C19.16 13.84 19.84 13.84 20.25 14.25L23.29 17.29C23.68 17.68 23.68 18.32 23.29 18.71Z" fill="white" fill-opacity="0.54"/>
<path d="M14.8605 8.15153L17.6505 10.9415C17.8405 11.1315 17.8405 11.4515 17.6505 11.6415L14.8605 14.4315C14.5505 14.7515 14.0105 14.5315 14.0105 14.0815L14.0105 12.2915L8.00047 12.2915C7.45047 12.2915 7.00047 11.8415 7.00047 11.2915C7.00047 10.7415 7.45047 10.2915 8.00047 10.2915L14.0105 10.2915L14.0105 8.50153C14.0105 8.05153 14.5505 7.83153 14.8605 8.15153Z" fill="white" fill-opacity="0.54"/>
</svg>
