<svg width="24" height="24" viewBox="0 0 24 24" fill="none" xmlns="http://www.w3.org/2000/svg">
<path d="M11.999 2.99072C11.4467 2.99072 10.999 3.43872 10.999 3.99072V19.9907C10.999 20.5427 11.4467 20.9907 11.999 20.9907C12.5513 20.9907 12.999 20.5427 12.999 19.9907V3.99072C12.999 3.43872 12.5513 2.99072 11.999 2.99072ZM5.99902 4.99072C3.78992 4.99072 1.99902 6.78172 1.99902 8.99072V14.9907C1.99902 17.1997 3.78992 18.9907 5.99902 18.9907H7.99902C8.55132 18.9907 8.99903 18.5427 8.99903 17.9907C8.99903 17.4387 8.55132 16.9907 7.99902 16.9907H5.99902C4.89442 16.9907 3.99902 16.0957 3.99902 14.9907V8.99072C3.99902 7.88572 4.89442 6.99072 5.99902 6.99072H7.99902C8.55132 6.99072 8.99903 6.54272 8.99903 5.99072C8.99903 5.43872 8.55132 4.99072 7.99902 4.99072H5.99902ZM15.999 4.99072C15.4467 4.99072 14.999 5.43872 14.999 5.99072C14.999 6.54272 15.4467 6.99072 15.999 6.99072H17.999C19.1036 6.99072 19.999 7.88572 19.999 8.99072V14.9907C19.999 16.0957 19.1036 16.9907 17.999 16.9907H15.999C15.4467 16.9907 14.999 17.4387 14.999 17.9907C14.999 18.5427 15.4467 18.9907 15.999 18.9907H17.999C20.2081 18.9907 21.999 17.1997 21.999 14.9907V8.99072C21.999 6.78172 20.2081 4.99072 17.999 4.99072H15.999Z" fill="white" fill-opacity="0.8"/>
</svg>
