<svg width="18" height="18" viewBox="0 0 18 18" fill="none" xmlns="http://www.w3.org/2000/svg">
<rect width="1.2" height="10.8" rx="0.6" transform="matrix(-1 0 0 1 3.59961 3.59961)" fill="#A5A7AA"/>
<rect width="1.2" height="3.6" rx="0.6" transform="matrix(-1 0 0 1 9.59961 7.2002)" fill="#A5A7AA"/>
<path d="M13.7998 3.59961C14.1312 3.59961 14.4004 3.86882 14.4004 4.2002V6H15C15.3312 6 15.5994 6.26842 15.5996 6.59961C15.5996 6.93098 15.3314 7.2002 15 7.2002H10.2002C9.86882 7.2002 9.59961 6.93098 9.59961 6.59961C9.59982 6.26842 9.86895 6 10.2002 6H13.2002V4.2002C13.2002 3.86889 13.4685 3.59971 13.7998 3.59961Z" fill="#A5A7AA"/>
<path d="M15 10.7998C15.3314 10.7998 15.5996 11.069 15.5996 11.4004C15.5994 11.7316 15.3312 12 15 12H14.4004V13.7998C14.4004 14.1312 14.1312 14.4004 13.7998 14.4004C13.4685 14.4003 13.2002 14.1311 13.2002 13.7998V12H10.2002C9.86895 12 9.59982 11.7316 9.59961 11.4004C9.59961 11.069 9.86882 10.7998 10.2002 10.7998H15Z" fill="#A5A7AA"/>
<rect width="1.2" height="3.6" rx="0.6" transform="matrix(-1 0 0 1 16.7998 7.2002)" fill="#A5A7AA"/>
<rect width="9.6" height="1.2" rx="0.6" transform="matrix(-1 0 0 1 13.2002 2.40039)" fill="#A5A7AA"/>
<rect width="9.6" height="1.2" rx="0.6" transform="matrix(-1 0 0 1 13.2002 14.4004)" fill="#A5A7AA"/>
<rect width="1.2" height="1.2" rx="0.6" transform="matrix(-1 0 0 1 14.4004 8.40039)" fill="#A5A7AA"/>
</svg>
