<svg width="24" height="24" viewBox="0 0 24 24" fill="none" xmlns="http://www.w3.org/2000/svg">
<path d="M4.99902 3.90625C3.34212 3.90625 1.99902 5.24935 1.99902 6.90625V16.6562C1.99902 18.4511 3.45412 19.9062 5.24902 19.9062H18.749C20.5439 19.9062 21.999 18.4511 21.999 16.6562V8.90625C21.999 8.35395 21.5513 7.90625 20.999 7.90625H19.999V4.90625C19.999 4.35395 19.5513 3.90625 18.999 3.90625H4.99902ZM4.99902 5.90625H17.999V7.90625H4.99902C4.44672 7.90625 3.99902 7.45855 3.99902 6.90625C3.99902 6.35395 4.44672 5.90625 4.99902 5.90625ZM4.99902 9.90625H19.999V16.6562C19.999 17.3467 19.4393 17.9062 18.749 17.9062H5.24902C4.55862 17.9062 3.99902 17.3467 3.99902 16.6562L4.00482 9.73035C4.00482 9.73035 4.36282 9.90935 4.99902 9.90625ZM16.999 12.9062C16.4467 12.9062 15.999 13.354 15.999 13.9062C15.999 14.4585 16.4467 14.9062 16.999 14.9062C17.5513 14.9062 17.999 14.4585 17.999 13.9062C17.999 13.354 17.5513 12.9062 16.999 12.9062Z" fill="white" fill-opacity="0.54"/>
</svg>
