<svg width="18" height="18" viewBox="0 0 18 18" fill="none" xmlns="http://www.w3.org/2000/svg">
<path d="M9.01074 1.49927C4.86849 1.49927 1.51074 4.85702 1.51074 8.99927C1.51074 13.1415 4.86849 16.4993 9.01074 16.4993C13.153 16.4993 16.5107 13.1415 16.5107 8.99927C16.5107 4.85702 13.153 1.49927 9.01074 1.49927ZM9.01074 5.24927C9.42474 5.24927 9.76074 5.58527 9.76074 5.99927V9.74927C9.76074 10.1633 9.42474 10.4993 9.01074 10.4993C8.59674 10.4993 8.26074 10.1633 8.26074 9.74927V5.99927C8.26074 5.58527 8.59674 5.24927 9.01074 5.24927ZM9.01074 11.2493C9.42474 11.2493 9.76074 11.5853 9.76074 11.9993C9.76074 12.4133 9.42474 12.7493 9.01074 12.7493C8.59674 12.7493 8.26074 12.4133 8.26074 11.9993C8.26074 11.5853 8.59674 11.2493 9.01074 11.2493Z" fill="#F67924"/>
</svg>
