<svg width="24" height="24" viewBox="0 0 24 24" fill="none" xmlns="http://www.w3.org/2000/svg">
<path d="M6.00368 4.88281C5.74768 4.88281 5.48068 4.96882 5.28468 5.16382L4.00368 6.4458L3.72267 6.16382C3.33167 5.77382 2.67569 5.77382 2.28469 6.16382C1.89469 6.55482 1.89469 7.2108 2.28469 7.6018L3.28469 8.6018C3.67569 8.9918 4.33167 8.9918 4.72267 8.6018L6.72267 6.6018C7.11267 6.2108 7.11267 5.55482 6.72267 5.16382C6.52667 4.96882 6.25968 4.88281 6.00368 4.88281ZM10.0037 5.88281C9.45167 5.88281 9.00367 6.33081 9.00367 6.88281C9.00367 7.43481 9.45167 7.88281 10.0037 7.88281H21.0037C21.5557 7.88281 22.0037 7.43481 22.0037 6.88281C22.0037 6.33081 21.5557 5.88281 21.0037 5.88281H10.0037ZM6.00368 9.88281C5.74768 9.88281 5.48068 9.96881 5.28468 10.1638L4.00368 11.4458L3.72267 11.1638C3.33167 10.7738 2.67569 10.7738 2.28469 11.1638C1.89469 11.5548 1.89469 12.2108 2.28469 12.6018L3.28469 13.6018C3.67569 13.9918 4.33167 13.9918 4.72267 13.6018L6.72267 11.6018C7.11267 11.2108 7.11267 10.5548 6.72267 10.1638C6.52667 9.96881 6.25968 9.88281 6.00368 9.88281ZM10.0037 10.8828C9.45167 10.8828 9.00367 11.3308 9.00367 11.8828C9.00367 12.4348 9.45167 12.8828 10.0037 12.8828H21.0037C21.5557 12.8828 22.0037 12.4348 22.0037 11.8828C22.0037 11.3308 21.5557 10.8828 21.0037 10.8828H10.0037ZM6.00368 14.8828C5.74768 14.8828 5.48068 14.9688 5.28468 15.1638L4.00368 16.4458L3.72267 16.1638C3.33167 15.7738 2.67569 15.7738 2.28469 16.1638C1.89469 16.5548 1.89469 17.2108 2.28469 17.6018L3.28469 18.6018C3.67569 18.9918 4.33167 18.9918 4.72267 18.6018L6.72267 16.6018C7.11267 16.2108 7.11267 15.5548 6.72267 15.1638C6.52667 14.9688 6.25968 14.8828 6.00368 14.8828ZM10.0037 15.8828C9.45167 15.8828 9.00367 16.3308 9.00367 16.8828C9.00367 17.4348 9.45167 17.8828 10.0037 17.8828H21.0037C21.5557 17.8828 22.0037 17.4348 22.0037 16.8828C22.0037 16.3308 21.5557 15.8828 21.0037 15.8828H10.0037Z" fill="white" fill-opacity="0.8"/>
</svg>
