<svg width="18" height="18" viewBox="0 0 18 18" fill="none" xmlns="http://www.w3.org/2000/svg">
<path d="M3.74841 3.6622C3.33441 3.6622 2.99841 3.99797 2.99841 4.4122C2.99841 4.82642 3.33441 5.16219 3.74841 5.16219H14.2484C14.6624 5.16219 14.9984 4.82642 14.9984 4.4122C14.9984 3.99797 14.6624 3.6622 14.2484 3.6622H3.74841ZM3.74841 6.66219C3.33441 6.66219 2.99841 6.99797 2.99841 7.41219C2.99841 7.82619 3.33441 8.16219 3.74841 8.16219H14.2484C14.6624 8.16219 14.9984 7.82619 14.9984 7.41219C14.9984 6.99797 14.6624 6.66219 14.2484 6.66219H3.74841ZM3.74841 9.66219C3.33441 9.66219 2.99841 9.99819 2.99841 10.4122C2.99841 10.8262 3.33441 11.1622 3.74841 11.1622H14.2484C14.6624 11.1622 14.9984 10.8262 14.9984 10.4122C14.9984 9.99819 14.6624 9.66219 14.2484 9.66219H3.74841ZM3.74841 12.6622C3.33441 12.6622 2.99841 12.9982 2.99841 13.4122C2.99841 13.8262 3.33441 14.1622 3.74841 14.1622H11.2484C11.6624 14.1622 11.9984 13.8262 11.9984 13.4122C11.9984 12.9982 11.6624 12.6622 11.2484 12.6622H3.74841Z" fill="white" fill-opacity="0.98"/>
</svg>
