<svg width="18" height="18" viewBox="0 0 18 18" fill="none" xmlns="http://www.w3.org/2000/svg">
<rect x="6" y="6" width="1.2" height="1.2" rx="0.6" fill="#7D7F82"/>
<rect x="7.19995" y="7.2002" width="1.2" height="1.2" rx="0.6" fill="#7D7F82"/>
<path d="M7.7998 2.40039C8.13118 2.40039 8.40039 2.66863 8.40039 3C8.40039 3.33137 8.13118 3.59961 7.7998 3.59961H3.59961V7.7998C3.59961 8.13118 3.33137 8.40039 3 8.40039C2.66863 8.40039 2.40039 8.13118 2.40039 7.7998V3C2.40039 2.66863 2.66863 2.40039 3 2.40039H7.7998Z" fill="#7D7F82"/>
<rect x="13.2" y="13.2002" width="1.2" height="1.2" rx="0.6" fill="#7D7F82"/>
<rect x="12" y="12" width="1.2" height="1.2" rx="0.6" fill="#7D7F82"/>
<rect x="10.8" y="10.7998" width="1.2" height="1.2" rx="0.6" fill="#7D7F82"/>
<rect x="9.59998" y="9.59961" width="1.2" height="1.2" rx="0.6" fill="#7D7F82"/>
<path d="M15 9.59961C15.3314 9.59961 15.5996 9.86882 15.5996 10.2002V15C15.5996 15.3314 15.3314 15.5996 15 15.5996H10.2002C9.86882 15.5996 9.59961 15.3314 9.59961 15C9.59961 14.6686 9.86882 14.4004 10.2002 14.4004H14.4004V10.2002C14.4004 9.86882 14.6686 9.59961 15 9.59961Z" fill="#7D7F82"/>
<rect x="3.59998" y="3.59961" width="1.2" height="1.2" rx="0.6" fill="#7D7F82"/>
<rect x="4.80005" y="4.7998" width="1.2" height="1.2" rx="0.6" fill="#7D7F82"/>
</svg>
