<svg width="18" height="18" viewBox="0 0 18 18" fill="none" xmlns="http://www.w3.org/2000/svg">
<rect x="6" y="6" width="1.2" height="1.2" rx="0.6" fill="#7D7F82"/>
<rect x="2.3999" y="2.40039" width="1.2" height="1.2" rx="0.6" fill="#7D7F82"/>
<rect x="14.3999" y="14.4004" width="1.2" height="1.2" rx="0.6" fill="#7D7F82"/>
<rect x="13.2" y="13.2002" width="1.2" height="1.2" rx="0.6" fill="#7D7F82"/>
<rect x="12" y="12" width="1.2" height="1.2" rx="0.6" fill="#7D7F82"/>
<rect x="10.8" y="10.7998" width="1.2" height="1.2" rx="0.6" fill="#7D7F82"/>
<path d="M15 9.59961C15.3314 9.59961 15.5996 9.86882 15.5996 10.2002C15.5995 10.5315 15.3313 10.7998 15 10.7998H10.7998V15C10.7998 15.3313 10.5315 15.5995 10.2002 15.5996C9.86882 15.5996 9.59961 15.3314 9.59961 15V10.2002C9.59961 9.91025 9.80569 9.66825 10.0791 9.6123C10.1182 9.60431 10.1588 9.59961 10.2002 9.59961H15Z" fill="#7D7F82"/>
<path d="M7.7998 2.40039C8.13118 2.40039 8.40039 2.66863 8.40039 3V7.7998C8.40039 8.08975 8.19431 8.33175 7.9209 8.3877L7.7998 8.40039H3C2.66863 8.40039 2.40039 8.13118 2.40039 7.7998C2.4005 7.46852 2.66869 7.2002 3 7.2002H7.2002V3C7.2002 2.66869 7.46852 2.4005 7.7998 2.40039Z" fill="#7D7F82"/>
<rect x="3.6001" y="3.59961" width="1.2" height="1.2" rx="0.6" fill="#7D7F82"/>
<rect x="4.80005" y="4.7998" width="1.2" height="1.2" rx="0.6" fill="#7D7F82"/>
</svg>
