<svg width="319" height="64" viewBox="0 0 319 64" fill="none" xmlns="http://www.w3.org/2000/svg">
<rect x="220" y="45" width="4" height="4" fill="#F84600" fill-opacity="0.12"/>
<rect x="220" y="25" width="4" height="4" fill="#F84600" fill-opacity="0.12"/>
<rect x="130" y="45" width="4" height="4" fill="#F84600" fill-opacity="0.12"/>
<rect x="230" y="45" width="4" height="4" fill="#F84600" fill-opacity="0.12"/>
<rect x="230" y="25" width="4" height="4" fill="#F84600" fill-opacity="0.12"/>
<rect x="240" y="45" width="4" height="4" fill="#F84600" fill-opacity="0.12"/>
<rect x="240" y="25" width="4" height="4" fill="#F84600" fill-opacity="0.12"/>
<rect x="150" y="45" width="4" height="4" fill="#F84600" fill-opacity="0.12"/>
<rect x="250" y="45" width="4" height="4" fill="#F84600" fill-opacity="0.12"/>
<rect x="250" y="25" width="4" height="4" fill="#F84600" fill-opacity="0.12"/>
<rect x="160" y="45" width="4" height="4" fill="#F84600" fill-opacity="0.12"/>
<rect x="260" y="45" width="4" height="4" fill="#F84600" fill-opacity="0.12"/>
<rect x="260" y="25" width="4" height="4" fill="#F84600" fill-opacity="0.12"/>
<rect x="170" y="45" width="4" height="4" fill="#F84600" fill-opacity="0.12"/>
<rect x="270" y="45" width="4" height="4" fill="#F84600" fill-opacity="0.12"/>
<rect x="180" y="45" width="4" height="4" fill="#F84600" fill-opacity="0.12"/>
<rect x="280" y="45" width="4" height="4" fill="#F84600" fill-opacity="0.12"/>
<rect x="190" y="45" width="4" height="4" fill="#F84600" fill-opacity="0.12"/>
<rect x="290" y="45" width="4" height="4" fill="#F84600" fill-opacity="0.12"/>
<rect x="290" y="25" width="4" height="4" fill="#F84600" fill-opacity="0.12"/>
<rect x="200" y="45" width="4" height="4" fill="#F84600" fill-opacity="0.12"/>
<rect x="300" y="45" width="4" height="4" fill="#F84600" fill-opacity="0.12"/>
<rect x="300" y="25" width="4" height="4" fill="#F84600" fill-opacity="0.12"/>
<rect x="300" y="5" width="4" height="4" fill="#F84600" fill-opacity="0.12"/>
<rect x="210" y="45" width="4" height="4" fill="#F84600" fill-opacity="0.12"/>
<rect x="310" y="45" width="4" height="4" fill="#F84600" fill-opacity="0.12"/>
<rect x="310" y="25" width="4" height="4" fill="#F84600" fill-opacity="0.12"/>
<rect x="310" y="5" width="4" height="4" fill="#F84600" fill-opacity="0.12"/>
<rect x="220" y="50" width="4" height="4" fill="#F84600" fill-opacity="0.12"/>
<rect x="220" y="30" width="4" height="4" fill="#F84600" fill-opacity="0.12"/>
<rect x="130" y="50" width="4" height="4" fill="#F84600" fill-opacity="0.12"/>
<rect x="230" y="50" width="4" height="4" fill="#F84600" fill-opacity="0.12"/>
<rect x="230" y="30" width="4" height="4" fill="#F84600" fill-opacity="0.12"/>
<rect x="140" y="50" width="4" height="4" fill="#F84600" fill-opacity="0.12"/>
<rect x="240" y="50" width="4" height="4" fill="#F84600" fill-opacity="0.12"/>
<rect x="240" y="30" width="4" height="4" fill="#F84600" fill-opacity="0.12"/>
<rect x="150" y="50" width="4" height="4" fill="#F84600" fill-opacity="0.12"/>
<rect x="250" y="50" width="4" height="4" fill="#F84600" fill-opacity="0.12"/>
<rect x="250" y="30" width="4" height="4" fill="#F84600" fill-opacity="0.12"/>
<rect x="250" y="10" width="4" height="4" fill="#F84600" fill-opacity="0.12"/>
<rect x="160" y="50" width="4" height="4" fill="#F84600" fill-opacity="0.12"/>
<rect x="260" y="50" width="4" height="4" fill="#F84600" fill-opacity="0.12"/>
<rect x="260" y="30" width="4" height="4" fill="#F84600" fill-opacity="0.12"/>
<rect x="170" y="50" width="4" height="4" fill="#F84600" fill-opacity="0.12"/>
<rect x="170" y="30" width="4" height="4" fill="#F84600" fill-opacity="0.12"/>
<rect x="110" y="50" width="4" height="4" fill="#F84600" fill-opacity="0.12"/>
<rect x="270" y="50" width="4" height="4" fill="#F84600" fill-opacity="0.12"/>
<rect x="180" y="50" width="4" height="4" fill="#F84600" fill-opacity="0.12"/>
<rect x="280" y="50" width="4" height="4" fill="#F84600" fill-opacity="0.12"/>
<rect x="280" y="30" width="4" height="4" fill="#F84600" fill-opacity="0.12"/>
<rect x="190" y="50" width="4" height="4" fill="#F84600" fill-opacity="0.12"/>
<rect x="290" y="50" width="4" height="4" fill="#F84600" fill-opacity="0.12"/>
<rect x="290" y="30" width="4" height="4" fill="#F84600" fill-opacity="0.12"/>
<rect x="200" y="50" width="4" height="4" fill="#F84600" fill-opacity="0.12"/>
<rect x="200" y="30" width="4" height="4" fill="#F84600" fill-opacity="0.12"/>
<rect x="300" y="50" width="4" height="4" fill="#F84600" fill-opacity="0.12"/>
<rect x="300" y="30" width="4" height="4" fill="#F84600" fill-opacity="0.12"/>
<rect x="300" y="10" width="4" height="4" fill="#F84600" fill-opacity="0.12"/>
<rect x="210" y="50" width="4" height="4" fill="#F84600" fill-opacity="0.12"/>
<rect x="310" y="50" width="4" height="4" fill="#F84600" fill-opacity="0.12"/>
<rect x="310" y="30" width="4" height="4" fill="#F84600" fill-opacity="0.12"/>
<rect x="310" y="10" width="4" height="4" fill="#F84600" fill-opacity="0.12"/>
<rect x="120" y="55" width="4" height="4" fill="#F84600" fill-opacity="0.12"/>
<rect x="220" y="55" width="4" height="4" fill="#F84600" fill-opacity="0.12"/>
<rect x="220" y="35" width="4" height="4" fill="#F84600" fill-opacity="0.12"/>
<rect x="220" y="15" width="4" height="4" fill="#F84600" fill-opacity="0.12"/>
<rect x="130" y="55" width="4" height="4" fill="#F84600" fill-opacity="0.12"/>
<rect x="230" y="55" width="4" height="4" fill="#F84600" fill-opacity="0.12"/>
<rect x="230" y="35" width="4" height="4" fill="#F84600" fill-opacity="0.12"/>
<rect x="140" y="55" width="4" height="4" fill="#F84600" fill-opacity="0.12"/>
<rect x="240" y="55" width="4" height="4" fill="#F84600" fill-opacity="0.12"/>
<rect x="240" y="35" width="4" height="4" fill="#F84600" fill-opacity="0.12"/>
<rect x="240" y="15" width="4" height="4" fill="#F84600" fill-opacity="0.12"/>
<rect x="150" y="55" width="4" height="4" fill="#F84600" fill-opacity="0.12"/>
<rect x="250" y="55" width="4" height="4" fill="#F84600" fill-opacity="0.12"/>
<rect x="250" y="35" width="4" height="4" fill="#F84600" fill-opacity="0.12"/>
<rect x="250" y="15" width="4" height="4" fill="#F84600" fill-opacity="0.12"/>
<rect x="160" y="55" width="4" height="4" fill="#F84600" fill-opacity="0.12"/>
<rect x="100" y="55" width="4" height="4" fill="#F84600" fill-opacity="0.12"/>
<rect x="260" y="55" width="4" height="4" fill="#F84600" fill-opacity="0.12"/>
<rect x="260" y="35" width="4" height="4" fill="#F84600" fill-opacity="0.12"/>
<rect x="170" y="55" width="4" height="4" fill="#F84600" fill-opacity="0.12"/>
<rect x="170" y="35" width="4" height="4" fill="#F84600" fill-opacity="0.12"/>
<rect x="110" y="55" width="4" height="4" fill="#F84600" fill-opacity="0.12"/>
<rect x="270" y="55" width="4" height="4" fill="#F84600" fill-opacity="0.12"/>
<rect x="180" y="55" width="4" height="4" fill="#F84600" fill-opacity="0.12"/>
<rect x="280" y="55" width="4" height="4" fill="#F84600" fill-opacity="0.12"/>
<rect x="280" y="35" width="4" height="4" fill="#F84600" fill-opacity="0.12"/>
<rect x="190" y="55" width="4" height="4" fill="#F84600" fill-opacity="0.12"/>
<rect x="190" y="35" width="4" height="4" fill="#F84600" fill-opacity="0.12"/>
<rect x="290" y="55" width="4" height="4" fill="#F84600" fill-opacity="0.12"/>
<rect x="290" y="35" width="4" height="4" fill="#F84600" fill-opacity="0.12"/>
<rect x="200" y="55" width="4" height="4" fill="#F84600" fill-opacity="0.12"/>
<rect x="200" y="35" width="4" height="4" fill="#F84600" fill-opacity="0.12"/>
<rect x="300" y="55" width="4" height="4" fill="#F84600" fill-opacity="0.12"/>
<rect x="300" y="35" width="4" height="4" fill="#F84600" fill-opacity="0.12"/>
<rect x="300" y="15" width="4" height="4" fill="#F84600" fill-opacity="0.12"/>
<rect x="210" y="55" width="4" height="4" fill="#F84600" fill-opacity="0.12"/>
<rect x="310" y="55" width="4" height="4" fill="#F84600" fill-opacity="0.12"/>
<rect x="310" y="35" width="4" height="4" fill="#F84600" fill-opacity="0.12"/>
<rect x="310" y="15" width="4" height="4" fill="#F84600" fill-opacity="0.12"/>
<rect x="120" y="60" width="4" height="4" fill="#F84600" fill-opacity="0.12"/>
<rect x="60" y="60" width="4" height="4" fill="#F84600" fill-opacity="0.12"/>
<rect x="20" y="60" width="4" height="4" fill="#F84600" fill-opacity="0.12"/>
<rect x="45" y="60" width="4" height="4" fill="#F84600" fill-opacity="0.12"/>
<rect x="220" y="60" width="4" height="4" fill="#F84600" fill-opacity="0.12"/>
<rect x="220" y="40" width="4" height="4" fill="#F84600" fill-opacity="0.12"/>
<rect x="220" y="20" width="4" height="4" fill="#F84600" fill-opacity="0.12"/>
<rect x="130" y="60" width="4" height="4" fill="#F84600" fill-opacity="0.12"/>
<rect x="70" y="60" width="4" height="4" fill="#F84600" fill-opacity="0.12"/>
<rect x="30" y="60" width="4" height="4" fill="#F84600" fill-opacity="0.12"/>
<rect x="55" y="60" width="4" height="4" fill="#F84600" fill-opacity="0.12"/>
<rect x="230" y="60" width="4" height="4" fill="#F84600" fill-opacity="0.12"/>
<rect x="230" y="40" width="4" height="4" fill="#F84600" fill-opacity="0.12"/>
<rect x="140" y="60" width="4" height="4" fill="#F84600" fill-opacity="0.12"/>
<rect x="80" y="60" width="4" height="4" fill="#F84600" fill-opacity="0.12"/>
<rect x="15" y="60" width="4" height="4" fill="#F84600" fill-opacity="0.12"/>
<rect x="40" y="60" width="4" height="4" fill="#F84600" fill-opacity="0.12"/>
<rect x="80" y="55" width="4" height="4" fill="#F84600" fill-opacity="0.12"/>
<rect x="15" y="55" width="4" height="4" fill="#F84600" fill-opacity="0.12"/>
<rect x="40" y="55" width="4" height="4" fill="#F84600" fill-opacity="0.12"/>
<rect x="65" y="55" width="4" height="4" fill="#F84600" fill-opacity="0.12"/>
<rect x="25" y="55" width="4" height="4" fill="#F84600" fill-opacity="0.12"/>
<rect x="60" y="55" width="4" height="4" fill="#F84600" fill-opacity="0.12"/>
<rect x="60" y="50" width="4" height="4" fill="#F84600" fill-opacity="0.12"/>
<rect x="240" y="60" width="4" height="4" fill="#F84600" fill-opacity="0.12"/>
<rect x="240" y="40" width="4" height="4" fill="#F84600" fill-opacity="0.12"/>
<rect x="240" y="20" width="4" height="4" fill="#F84600" fill-opacity="0.12"/>
<rect x="150" y="60" width="4" height="4" fill="#F84600" fill-opacity="0.12"/>
<rect x="90" y="60" width="4" height="4" fill="#F84600" fill-opacity="0.12"/>
<rect x="250" y="60" width="4" height="4" fill="#F84600" fill-opacity="0.12"/>
<rect x="250" y="40" width="4" height="4" fill="#F84600" fill-opacity="0.12"/>
<rect x="250" y="20" width="4" height="4" fill="#F84600" fill-opacity="0.12"/>
<rect x="160" y="60" width="4" height="4" fill="#F84600" fill-opacity="0.12"/>
<rect x="160" y="40" width="4" height="4" fill="#F84600" fill-opacity="0.12"/>
<rect x="100" y="60" width="4" height="4" fill="#F84600" fill-opacity="0.12"/>
<rect x="260" y="60" width="4" height="4" fill="#F84600" fill-opacity="0.12"/>
<rect x="260" y="40" width="4" height="4" fill="#F84600" fill-opacity="0.12"/>
<rect x="170" y="60" width="4" height="4" fill="#F84600" fill-opacity="0.12"/>
<rect x="170" y="40" width="4" height="4" fill="#F84600" fill-opacity="0.12"/>
<rect x="110" y="60" width="4" height="4" fill="#F84600" fill-opacity="0.12"/>
<rect x="270" y="60" width="4" height="4" fill="#F84600" fill-opacity="0.12"/>
<rect x="270" y="40" width="4" height="4" fill="#F84600" fill-opacity="0.12"/>
<rect x="180" y="60" width="4" height="4" fill="#F84600" fill-opacity="0.12"/>
<rect x="280" y="60" width="4" height="4" fill="#F84600" fill-opacity="0.12"/>
<rect x="280" y="40" width="4" height="4" fill="#F84600" fill-opacity="0.12"/>
<rect x="190" y="60" width="4" height="4" fill="#F84600" fill-opacity="0.12"/>
<rect x="190" y="40" width="4" height="4" fill="#F84600" fill-opacity="0.12"/>
<rect x="290" y="60" width="4" height="4" fill="#F84600" fill-opacity="0.12"/>
<rect x="290" y="40" width="4" height="4" fill="#F84600" fill-opacity="0.12"/>
<rect x="290" y="20" width="4" height="4" fill="#F84600" fill-opacity="0.12"/>
<rect x="200" y="60" width="4" height="4" fill="#F84600" fill-opacity="0.12"/>
<rect x="200" y="40" width="4" height="4" fill="#F84600" fill-opacity="0.12"/>
<rect x="300" y="60" width="4" height="4" fill="#F84600" fill-opacity="0.12"/>
<rect x="300" y="40" width="4" height="4" fill="#F84600" fill-opacity="0.12"/>
<rect x="300" y="20" width="4" height="4" fill="#F84600" fill-opacity="0.12"/>
<rect x="210" y="60" width="4" height="4" fill="#F84600" fill-opacity="0.12"/>
<rect x="210" y="40" width="4" height="4" fill="#F84600" fill-opacity="0.12"/>
<rect x="310" y="60" width="4" height="4" fill="#F84600" fill-opacity="0.12"/>
<rect x="310" y="40" width="4" height="4" fill="#F84600" fill-opacity="0.12"/>
<rect x="310" y="20" width="4" height="4" fill="#F84600" fill-opacity="0.12"/>
<rect x="125" y="60" width="4" height="4" fill="#F84600" fill-opacity="0.12"/>
<rect x="65" y="60" width="4" height="4" fill="#F84600" fill-opacity="0.12"/>
<rect x="25" y="60" width="4" height="4" fill="#F84600" fill-opacity="0.12"/>
<rect x="50" y="60" width="4" height="4" fill="#F84600" fill-opacity="0.12"/>
<rect x="225" y="60" width="4" height="4" fill="#F84600" fill-opacity="0.12"/>
<rect x="225" y="40" width="4" height="4" fill="#F84600" fill-opacity="0.12"/>
<rect x="225" y="20" width="4" height="4" fill="#F84600" fill-opacity="0.12"/>
<rect x="135" y="60" width="4" height="4" fill="#F84600" fill-opacity="0.12"/>
<rect x="135" y="40" width="4" height="4" fill="#F84600" fill-opacity="0.12"/>
<rect x="75" y="60" width="4" height="4" fill="#F84600" fill-opacity="0.12"/>
<rect x="10" y="60" width="4" height="4" fill="#F84600" fill-opacity="0.12"/>
<rect x="5" y="60" width="4" height="4" fill="#F84600" fill-opacity="0.12"/>
<rect y="60" width="4" height="4" fill="#F84600" fill-opacity="0.12"/>
<rect x="35" y="60" width="4" height="4" fill="#F84600" fill-opacity="0.12"/>
<rect x="235" y="60" width="4" height="4" fill="#F84600" fill-opacity="0.12"/>
<rect x="235" y="40" width="4" height="4" fill="#F84600" fill-opacity="0.12"/>
<rect x="235" y="20" width="4" height="4" fill="#F84600" fill-opacity="0.12"/>
<rect x="145" y="60" width="4" height="4" fill="#F84600" fill-opacity="0.12"/>
<rect x="85" y="60" width="4" height="4" fill="#F84600" fill-opacity="0.12"/>
<rect x="245" y="60" width="4" height="4" fill="#F84600" fill-opacity="0.12"/>
<rect x="245" y="40" width="4" height="4" fill="#F84600" fill-opacity="0.12"/>
<rect x="245" y="20" width="4" height="4" fill="#F84600" fill-opacity="0.12"/>
<rect x="155" y="60" width="4" height="4" fill="#F84600" fill-opacity="0.12"/>
<rect x="155" y="40" width="4" height="4" fill="#F84600" fill-opacity="0.12"/>
<rect x="95" y="60" width="4" height="4" fill="#F84600" fill-opacity="0.12"/>
<rect x="255" y="60" width="4" height="4" fill="#F84600" fill-opacity="0.12"/>
<rect x="255" y="40" width="4" height="4" fill="#F84600" fill-opacity="0.12"/>
<rect x="255" y="20" width="4" height="4" fill="#F84600" fill-opacity="0.12"/>
<rect x="165" y="60" width="4" height="4" fill="#F84600" fill-opacity="0.12"/>
<rect x="165" y="40" width="4" height="4" fill="#F84600" fill-opacity="0.12"/>
<rect x="105" y="60" width="4" height="4" fill="#F84600" fill-opacity="0.12"/>
<rect x="265" y="60" width="4" height="4" fill="#F84600" fill-opacity="0.12"/>
<rect x="265" y="40" width="4" height="4" fill="#F84600" fill-opacity="0.12"/>
<rect x="175" y="60" width="4" height="4" fill="#F84600" fill-opacity="0.12"/>
<rect x="175" y="40" width="4" height="4" fill="#F84600" fill-opacity="0.12"/>
<rect x="115" y="60" width="4" height="4" fill="#F84600" fill-opacity="0.12"/>
<rect x="275" y="60" width="4" height="4" fill="#F84600" fill-opacity="0.12"/>
<rect x="275" y="40" width="4" height="4" fill="#F84600" fill-opacity="0.12"/>
<rect x="185" y="60" width="4" height="4" fill="#F84600" fill-opacity="0.12"/>
<rect x="285" y="60" width="4" height="4" fill="#F84600" fill-opacity="0.12"/>
<rect x="285" y="40" width="4" height="4" fill="#F84600" fill-opacity="0.12"/>
<rect x="285" y="20" width="4" height="4" fill="#F84600" fill-opacity="0.12"/>
<rect x="195" y="60" width="4" height="4" fill="#F84600" fill-opacity="0.12"/>
<rect x="195" y="40" width="4" height="4" fill="#F84600" fill-opacity="0.12"/>
<rect x="295" y="60" width="4" height="4" fill="#F84600" fill-opacity="0.12"/>
<rect x="295" y="40" width="4" height="4" fill="#F84600" fill-opacity="0.12"/>
<rect x="295" y="20" width="4" height="4" fill="#F84600" fill-opacity="0.12"/>
<rect x="205" y="60" width="4" height="4" fill="#F84600" fill-opacity="0.12"/>
<rect x="205" y="40" width="4" height="4" fill="#F84600" fill-opacity="0.12"/>
<rect x="305" y="60" width="4" height="4" fill="#F84600" fill-opacity="0.12"/>
<rect x="305" y="40" width="4" height="4" fill="#F84600" fill-opacity="0.12"/>
<rect x="305" y="20" width="4" height="4" fill="#F84600" fill-opacity="0.12"/>
<rect x="215" y="60" width="4" height="4" fill="#F84600" fill-opacity="0.12"/>
<rect x="215" y="40" width="4" height="4" fill="#F84600" fill-opacity="0.12"/>
<rect x="215" y="20" width="4" height="4" fill="#F84600" fill-opacity="0.12"/>
<rect x="315" y="60" width="4" height="4" fill="#F84600" fill-opacity="0.12"/>
<rect x="315" y="40" width="4" height="4" fill="#F84600" fill-opacity="0.12"/>
<rect x="315" y="20" width="4" height="4" fill="#F84600" fill-opacity="0.12"/>
<rect x="125" y="55" width="4" height="4" fill="#F84600" fill-opacity="0.12"/>
<rect x="225" y="55" width="4" height="4" fill="#F84600" fill-opacity="0.12"/>
<rect x="225" y="35" width="4" height="4" fill="#F84600" fill-opacity="0.12"/>
<rect x="135" y="55" width="4" height="4" fill="#F84600" fill-opacity="0.12"/>
<rect x="235" y="55" width="4" height="4" fill="#F84600" fill-opacity="0.12"/>
<rect x="235" y="35" width="4" height="4" fill="#F84600" fill-opacity="0.12"/>
<rect x="235" y="15" width="4" height="4" fill="#F84600" fill-opacity="0.12"/>
<rect x="145" y="55" width="4" height="4" fill="#F84600" fill-opacity="0.12"/>
<rect x="245" y="55" width="4" height="4" fill="#F84600" fill-opacity="0.12"/>
<rect x="245" y="35" width="4" height="4" fill="#F84600" fill-opacity="0.12"/>
<rect x="155" y="55" width="4" height="4" fill="#F84600" fill-opacity="0.12"/>
<rect x="155" y="35" width="4" height="4" fill="#F84600" fill-opacity="0.12"/>
<rect x="255" y="55" width="4" height="4" fill="#F84600" fill-opacity="0.12"/>
<rect x="255" y="35" width="4" height="4" fill="#F84600" fill-opacity="0.12"/>
<rect x="255" y="15" width="4" height="4" fill="#F84600" fill-opacity="0.12"/>
<rect x="165" y="55" width="4" height="4" fill="#F84600" fill-opacity="0.12"/>
<rect x="165" y="35" width="4" height="4" fill="#F84600" fill-opacity="0.12"/>
<rect x="105" y="55" width="4" height="4" fill="#F84600" fill-opacity="0.12"/>
<rect x="265" y="55" width="4" height="4" fill="#F84600" fill-opacity="0.12"/>
<rect x="265" y="35" width="4" height="4" fill="#F84600" fill-opacity="0.12"/>
<rect x="175" y="55" width="4" height="4" fill="#F84600" fill-opacity="0.12"/>
<rect x="175" y="35" width="4" height="4" fill="#F84600" fill-opacity="0.12"/>
<rect x="115" y="55" width="4" height="4" fill="#F84600" fill-opacity="0.12"/>
<rect x="275" y="55" width="4" height="4" fill="#F84600" fill-opacity="0.12"/>
<rect x="185" y="55" width="4" height="4" fill="#F84600" fill-opacity="0.12"/>
<rect x="285" y="55" width="4" height="4" fill="#F84600" fill-opacity="0.12"/>
<rect x="285" y="35" width="4" height="4" fill="#F84600" fill-opacity="0.12"/>
<rect x="195" y="55" width="4" height="4" fill="#F84600" fill-opacity="0.12"/>
<rect x="195" y="35" width="4" height="4" fill="#F84600" fill-opacity="0.12"/>
<rect x="295" y="55" width="4" height="4" fill="#F84600" fill-opacity="0.12"/>
<rect x="295" y="35" width="4" height="4" fill="#F84600" fill-opacity="0.12"/>
<rect x="295" y="15" width="4" height="4" fill="#F84600" fill-opacity="0.12"/>
<rect x="205" y="55" width="4" height="4" fill="#F84600" fill-opacity="0.12"/>
<rect x="205" y="35" width="4" height="4" fill="#F84600" fill-opacity="0.12"/>
<rect x="305" y="55" width="4" height="4" fill="#F84600" fill-opacity="0.12"/>
<rect x="305" y="35" width="4" height="4" fill="#F84600" fill-opacity="0.12"/>
<rect x="305" y="15" width="4" height="4" fill="#F84600" fill-opacity="0.12"/>
<rect x="215" y="55" width="4" height="4" fill="#F84600" fill-opacity="0.12"/>
<rect x="215" y="35" width="4" height="4" fill="#F84600" fill-opacity="0.12"/>
<rect x="315" y="55" width="4" height="4" fill="#F84600" fill-opacity="0.12"/>
<rect x="315" y="35" width="4" height="4" fill="#F84600" fill-opacity="0.12"/>
<rect x="125" y="50" width="4" height="4" fill="#F84600" fill-opacity="0.12"/>
<rect x="225" y="50" width="4" height="4" fill="#F84600" fill-opacity="0.12"/>
<rect x="225" y="30" width="4" height="4" fill="#F84600" fill-opacity="0.12"/>
<rect x="135" y="50" width="4" height="4" fill="#F84600" fill-opacity="0.12"/>
<rect x="235" y="50" width="4" height="4" fill="#F84600" fill-opacity="0.12"/>
<rect x="235" y="30" width="4" height="4" fill="#F84600" fill-opacity="0.12"/>
<rect x="235" y="10" width="4" height="4" fill="#F84600" fill-opacity="0.12"/>
<rect x="245" y="50" width="4" height="4" fill="#F84600" fill-opacity="0.12"/>
<rect x="245" y="30" width="4" height="4" fill="#F84600" fill-opacity="0.12"/>
<rect x="155" y="50" width="4" height="4" fill="#F84600" fill-opacity="0.12"/>
<rect x="255" y="50" width="4" height="4" fill="#F84600" fill-opacity="0.12"/>
<rect x="255" y="30" width="4" height="4" fill="#F84600" fill-opacity="0.12"/>
<rect x="165" y="50" width="4" height="4" fill="#F84600" fill-opacity="0.12"/>
<rect x="265" y="50" width="4" height="4" fill="#F84600" fill-opacity="0.12"/>
<rect x="265" y="30" width="4" height="4" fill="#F84600" fill-opacity="0.12"/>
<rect x="175" y="50" width="4" height="4" fill="#F84600" fill-opacity="0.12"/>
<rect x="115" y="50" width="4" height="4" fill="#F84600" fill-opacity="0.12"/>
<rect x="275" y="50" width="4" height="4" fill="#F84600" fill-opacity="0.12"/>
<rect x="185" y="50" width="4" height="4" fill="#F84600" fill-opacity="0.12"/>
<rect x="285" y="50" width="4" height="4" fill="#F84600" fill-opacity="0.12"/>
<rect x="285" y="30" width="4" height="4" fill="#F84600" fill-opacity="0.12"/>
<rect x="195" y="50" width="4" height="4" fill="#F84600" fill-opacity="0.12"/>
<rect x="195" y="30" width="4" height="4" fill="#F84600" fill-opacity="0.12"/>
<rect x="295" y="50" width="4" height="4" fill="#F84600" fill-opacity="0.12"/>
<rect x="295" y="30" width="4" height="4" fill="#F84600" fill-opacity="0.12"/>
<rect x="205" y="50" width="4" height="4" fill="#F84600" fill-opacity="0.12"/>
<rect x="305" y="50" width="4" height="4" fill="#F84600" fill-opacity="0.12"/>
<rect x="305" y="30" width="4" height="4" fill="#F84600" fill-opacity="0.12"/>
<rect x="305" y="10" width="4" height="4" fill="#F84600" fill-opacity="0.12"/>
<rect x="215" y="50" width="4" height="4" fill="#F84600" fill-opacity="0.12"/>
<rect x="215" y="30" width="4" height="4" fill="#F84600" fill-opacity="0.12"/>
<rect x="315" y="50" width="4" height="4" fill="#F84600" fill-opacity="0.12"/>
<rect x="315" y="30" width="4" height="4" fill="#F84600" fill-opacity="0.12"/>
<rect x="125" y="45" width="4" height="4" fill="#F84600" fill-opacity="0.12"/>
<rect x="225" y="45" width="4" height="4" fill="#F84600" fill-opacity="0.12"/>
<rect x="225" y="25" width="4" height="4" fill="#F84600" fill-opacity="0.12"/>
<rect x="135" y="45" width="4" height="4" fill="#F84600" fill-opacity="0.12"/>
<rect x="235" y="45" width="4" height="4" fill="#F84600" fill-opacity="0.12"/>
<rect x="235" y="25" width="4" height="4" fill="#F84600" fill-opacity="0.12"/>
<rect x="245" y="45" width="4" height="4" fill="#F84600" fill-opacity="0.12"/>
<rect x="245" y="25" width="4" height="4" fill="#F84600" fill-opacity="0.12"/>
<rect x="155" y="45" width="4" height="4" fill="#F84600" fill-opacity="0.12"/>
<rect x="255" y="45" width="4" height="4" fill="#F84600" fill-opacity="0.12"/>
<rect x="255" y="25" width="4" height="4" fill="#F84600" fill-opacity="0.12"/>
<rect x="165" y="45" width="4" height="4" fill="#F84600" fill-opacity="0.12"/>
<rect x="265" y="45" width="4" height="4" fill="#F84600" fill-opacity="0.12"/>
<rect x="175" y="45" width="4" height="4" fill="#F84600" fill-opacity="0.12"/>
<rect x="275" y="45" width="4" height="4" fill="#F84600" fill-opacity="0.12"/>
<rect x="185" y="45" width="4" height="4" fill="#F84600" fill-opacity="0.12"/>
<rect x="285" y="45" width="4" height="4" fill="#F84600" fill-opacity="0.12"/>
<rect x="285" y="25" width="4" height="4" fill="#F84600" fill-opacity="0.12"/>
<rect x="195" y="45" width="4" height="4" fill="#F84600" fill-opacity="0.12"/>
<rect x="195" y="25" width="4" height="4" fill="#F84600" fill-opacity="0.12"/>
<rect x="295" y="45" width="4" height="4" fill="#F84600" fill-opacity="0.12"/>
<rect x="295" y="25" width="4" height="4" fill="#F84600" fill-opacity="0.12"/>
<rect x="205" y="45" width="4" height="4" fill="#F84600" fill-opacity="0.12"/>
<rect x="305" y="45" width="4" height="4" fill="#F84600" fill-opacity="0.12"/>
<rect x="305" y="25" width="4" height="4" fill="#F84600" fill-opacity="0.12"/>
<rect x="305" y="5" width="4" height="4" fill="#F84600" fill-opacity="0.12"/>
<rect x="305" width="4" height="4" fill="#F84600" fill-opacity="0.12"/>
<rect x="215" y="45" width="4" height="4" fill="#F84600" fill-opacity="0.12"/>
<rect x="215" y="25" width="4" height="4" fill="#F84600" fill-opacity="0.12"/>
<rect x="315" y="45" width="4" height="4" fill="#F84600" fill-opacity="0.12"/>
<rect x="315" y="25" width="4" height="4" fill="#F84600" fill-opacity="0.12"/>
</svg>
