<svg width="20" height="20" viewBox="0 0 20 20" fill="none" xmlns="http://www.w3.org/2000/svg">
<path d="M4 20H0V16H4V20ZM12 20H8V16H12V20ZM20 20H16V16H20V20ZM8 16H4V12H8V16ZM16 16H12V12H16V16ZM4 12H0V8H4V12ZM12 12H8V8H12V12ZM20 12H16V8H20V12ZM8 8H4V4H8V8ZM16 8H12V4H16V8ZM4 4H0V0H4V4ZM12 4H8V0H12V4ZM20 4H16V0H20V4Z" fill="url(#paint0_linear_20182_23175)"/>
<defs>
<linearGradient id="paint0_linear_20182_23175" x1="0" y1="0" x2="20.5" y2="20" gradientUnits="userSpaceOnUse">
<stop stop-color="white"/>
<stop offset="0.80905"/>
</linearGradient>
</defs>
</svg>
