<?xml version="1.0" standalone="no"?>
<!DOCTYPE svg PUBLIC "-//W3C//DTD SVG 1.1//EN" "http://www.w3.org/Graphics/SVG/1.1/DTD/svg11.dtd" >
<svg xmlns="http://www.w3.org/2000/svg">
<metadata>Generated by IcoMoon</metadata>
<defs>
<font id="icomoon" horiz-adv-x="1024">
<font-face units-per-em="1024" ascent="960" descent="-64" />
<missing-glyph horiz-adv-x="1024" />
<glyph unicode="&#x20;" horiz-adv-x="512" d="" />
<glyph unicode="&#xe900;" glyph-name="agent" d="M213.25 835c-47.147 0-85.333-38.187-85.333-85.333v-256c0-47.147 38.187-85.333 85.333-85.333h128c47.147 0 85.333 38.187 85.333 85.333v256c0 47.147-38.187 85.333-85.333 85.333h-128zM597.248 792.333c-47.147 0-85.333-38.187-85.333-85.333v-170.667c0-47.147 38.187-85.334 85.333-85.334h170.667c47.147 0 85.333 38.187 85.333 85.334v170.667c0 47.147-38.187 85.333-85.333 85.333h-170.667zM213.25 749.667h128v-256h-128v256zM597.248 707h170.667v-170.667h-170.667v170.667zM597.248 365.666c-47.147 0-85.333-38.187-85.333-85.333v-85.333c0-47.147 38.187-85.333 85.333-85.333h213.333c47.147 0 85.333 38.187 85.333 85.333v85.333c0 47.147-38.187 85.333-85.333 85.333h-213.333zM241.239 322.999c-39.253 0-70.656-31.403-70.656-70.656v-114.688c0-39.253 31.403-70.656 70.656-70.656h114.688c39.253 0 70.656 31.403 70.656 70.656v114.688c0 39.253-31.403 70.656-70.656 70.656h-114.688zM597.248 280.333h213.333v-85.333h-213.333v85.333zM255.917 237.666h85.333v-85.333h-85.333v85.333z" />
<glyph unicode="&#xe901;" glyph-name="all-token" d="M127.944 699.583c-23.552 0-42.667-19.115-42.667-42.667s19.115-42.667 42.667-42.667c23.552 0 42.667 19.115 42.667 42.667s-19.115 42.667-42.667 42.667zM298.611 699.583c-23.552 0-42.667-19.115-42.667-42.667s19.115-42.667 42.667-42.667h597.332c23.552 0 42.667 19.115 42.667 42.667s-19.115 42.667-42.667 42.667h-597.332zM127.944 486.25c-23.552 0-42.667-19.115-42.667-42.667s19.115-42.667 42.667-42.667c23.552 0 42.667 19.115 42.667 42.667s-19.115 42.667-42.667 42.667zM298.611 486.25c-23.552 0-42.667-19.115-42.667-42.667s19.115-42.667 42.667-42.667h597.332c23.552 0 42.667 19.115 42.667 42.667s-19.115 42.667-42.667 42.667h-597.332zM127.944 272.919c-23.552 0-42.667-19.115-42.667-42.667s19.115-42.667 42.667-42.667c23.552 0 42.667 19.115 42.667 42.667s-19.115 42.667-42.667 42.667zM298.611 272.919c-23.552 0-42.667-19.115-42.667-42.667s19.115-42.667 42.667-42.667h597.332c23.552 0 42.667 19.115 42.667 42.667s-19.115 42.667-42.667 42.667h-597.332z" />
<glyph unicode="&#xe902;" glyph-name="approve" d="M895.479 616.253c-10.923 0-22.315-3.67-30.635-11.989l-140.032-139.99-54.656 54.656c-16.64 16.641-44.672 16.641-61.312 0-16.683-16.683-16.683-44.672 0-61.355l85.333-85.333c16.64-16.64 44.672-16.64 61.312 0l170.667 170.668c16.683 16.683 16.683 44.672 0 61.354-8.32 8.32-19.755 11.989-30.677 11.989zM362.667 835c-106.027 0-192-85.973-192-192s85.973-192 192-192c106.027 0 192 85.974 192 192s-85.973 192-192 192zM362.667 749.667c58.923 0 106.667-47.744 106.667-106.667s-47.744-106.667-106.667-106.667c-58.923 0-106.667 47.744-106.667 106.667s47.744 106.667 106.667 106.667zM215.979 393.655c-78.251-32.299-130.646-111.445-130.646-198.656v-85.333c0-23.552 19.115-42.667 42.667-42.667h469.333c23.552 0 42.667 19.115 42.667 42.667v85.333c0 85.163-52.693 162.389-130.645 196.011-11.008 4.736-23.765 4.864-34.688 0-37.76-16.939-74.539-25.344-112-25.344-37.333 0-74.24 8.875-113.323 26.667-10.752 4.907-22.442 5.845-33.364 1.323zM232.405 306.359c40.32-15.275 88.918-26.027 130.262-26.027 41.003 0 87.595 10.027 127.104 24.619 38.528-21.931 64.896-62.976 64.896-109.952v-42.667h-384v42.667c0 49.707 27.989 91.605 61.738 111.36z" />
<glyph unicode="&#xe903;" glyph-name="auto-briefing" d="M405.944 835c-82.475 0-149.333-66.859-149.333-149.333v-469.335c0-82.472 66.859-149.333 149.333-149.333h213.331c82.478 0 149.333 66.862 149.333 149.333v469.335c0 82.475-66.856 149.333-149.333 149.333h-213.331zM405.944 749.666h213.331c35.328 0 64-28.655 64-64v-469.335c0-35.345-28.672-64-64-64h-213.331c-35.328 0-64 28.655-64 64v469.335c0 35.345 28.672 64 64 64zM164.622 619c-22.229 7.812-46.848-4.437-54.699-26.667-15.829-45.078-23.979-92.617-23.979-141.334 0-49.105 7.936-97.276 23.979-142.668 7.893-22.209 32.469-33.2 54.699-25.333 22.187 7.868 34.517 31.124 26.667 53.333-12.843 36.272-20.011 75.303-20.011 114.667 0 39.053 6.016 77.312 18.688 113.331 7.808 22.234-3.115 46.857-25.344 54.669zM861.963 616.333c-22.272-7.706-34.384-31.065-26.704-53.333 12.328-35.575 18.682-73.498 18.682-112 0-39.565-7.037-78.235-20.008-114.667-7.896-22.198 4.477-46.757 26.664-54.67 22.232-7.902 46.763 4.471 54.699 26.67 16.213 45.596 23.979 93.311 23.979 142.668 0 48.030-8.619 95.479-23.979 139.998-7.72 22.272-31.101 33.041-53.333 25.335zM512.611 280.331c-23.552 0-42.667-19.098-42.667-42.667 0-23.563 19.115-42.667 42.667-42.667s42.667 19.103 42.667 42.667c0 23.569-19.115 42.667-42.667 42.667z" />
<glyph unicode="&#xe904;" glyph-name="backtest" d="M170.611 832.389c-23.565 0-42.667-19.115-42.667-42.667v-554.669c0-94.248 76.412-170.667 170.667-170.667h554.666c23.552 0 42.667 19.115 42.667 42.667s-19.115 42.667-42.667 42.667h-554.666c-47.13 0-85.333 38.19-85.333 85.333v554.669c0 23.552-19.102 42.667-42.667 42.667zM597.276 747.056v-85.333h151.979l-118.653-118.657c-3.84-3.883-15.832-9.343-21.333-9.343h-66.647c-28.117 0-62.805-13.441-82.688-33.323l-149.325-149.332c-16.662-16.686-16.662-44.675 0-61.355 8.333-8.323 19.751-11.992 30.669-11.992s22.336 3.669 30.669 11.992l149.342 149.333c3.84 3.883 15.829 9.344 21.333 9.344h66.647c28.114 0 62.805 13.44 82.688 33.323l118.653 118.656v-151.979h85.333v256c0 23.552-19.115 42.667-42.667 42.667h-256z" />
<glyph unicode="&#xe905;" glyph-name="bind" d="M298.625 793.333c-117.803 0-213.333-95.531-213.333-213.333v-42.667c0-46.931 14.080-97.875 54.656-141.353 16.085-17.195 42.795-18.731 60.032-2.645 17.195 16.081 18.73 44.117 2.645 61.312-23.040 24.704-32 55.339-32 82.686v42.667c0 70.699 57.301 128 128 128h255.999c70.699 0 128-57.301 128-128v-42.667c0-70.701-57.301-127.998-128-127.998h-85.333c-23.552 0-42.666-19.115-42.666-42.667 0-23.556 19.114-42.667 42.666-42.667h85.333c117.803 0 213.333 95.531 213.333 213.331v42.667c0 117.803-95.531 213.333-213.333 213.333h-255.999zM469.291 580c-117.802 0-213.332-95.533-213.332-213.331v-42.667c0-117.803 95.531-213.333 213.332-213.333h256c117.803 0 213.333 95.531 213.333 213.333v42.667c0 46.933-14.080 97.877-54.656 141.312-16.085 17.237-42.795 18.769-60.032 2.688-17.195-16.085-18.731-44.117-2.645-61.355 23.040-24.661 32-55.3 32-82.645v-42.667c0-70.699-57.301-128-128-128h-256c-70.698 0-127.999 57.301-127.999 128v42.667c0 70.694 57.301 128 127.999 128h85.333c23.552 0 42.667 19.11 42.667 42.665 0 23.552-19.115 42.667-42.667 42.667h-85.333z" />
<glyph unicode="&#xe906;" glyph-name="candlestick" d="M341.333 874.667c23.564 0 42.667-19.103 42.667-42.667v-85.333h42.667c23.564 0 42.667-19.103 42.667-42.667v-512c0-23.563-19.103-42.667-42.667-42.667h-42.667v-85.333c0-23.563-19.103-42.667-42.667-42.667s-42.667 19.103-42.667 42.667v85.333h-42.667c-23.564 0-42.667 19.103-42.667 42.667v512c0 23.564 19.103 42.667 42.667 42.667h42.667v85.333c0 23.564 19.103 42.667 42.667 42.667zM768 618.667c23.563 0 42.667-19.103 42.667-42.667v-384c0-23.563-19.103-42.667-42.667-42.667h-42.667v-85.333c0-23.563-19.103-42.667-42.667-42.667s-42.667 19.103-42.667 42.667v85.333h-42.667c-23.563 0-42.667 19.103-42.667 42.667v384c0 23.564 19.103 42.667 42.667 42.667h42.667v85.333c0 23.564 19.103 42.667 42.667 42.667s42.667-19.103 42.667-42.667v-85.333h42.667zM298.667 234.667h85.333v426.667h-85.333v-426.667zM640 234.667h85.333v298.667h-85.333v-298.667z" />
<glyph unicode="&#xe907;" glyph-name="card-view" d="M213.25 789.417c-23.552 0-42.666-19.115-42.666-42.667 0-10.667 0-74.667 0-85.333 0-23.552 19.115-42.667 42.666-42.667h85.333c23.552 0 42.667 19.115 42.667 42.667v85.333c0 23.552-19.115 42.667-42.667 42.667h-85.333zM469.248 789.417c-23.552 0-42.665-19.115-42.665-42.667 0-10.667 0-74.667 0-85.333 0-23.552 19.113-42.667 42.665-42.667h85.333c23.552 0 42.667 19.115 42.667 42.667v85.333c0 23.552-19.115 42.667-42.667 42.667h-85.333zM725.248 789.417c-23.552 0-42.667-19.115-42.667-42.667 0-10.667 0-74.667 0-85.333 0-23.552 19.115-42.667 42.667-42.667h85.333c23.552 0 42.667 19.115 42.667 42.667v85.333c0 23.552-19.115 42.667-42.667 42.667h-85.333zM213.25 533.417c-23.552 0-42.666-19.113-42.666-42.665 0-10.667 0-74.667 0-85.333 0-23.552 19.115-42.667 42.666-42.667h85.333c23.552 0 42.667 19.115 42.667 42.667v85.333c0 23.552-19.115 42.665-42.667 42.665h-85.333zM469.248 533.417c-23.552 0-42.665-19.113-42.665-42.665 0-10.667 0-74.667 0-85.333 0-23.552 19.113-42.667 42.665-42.667h85.333c23.552 0 42.667 19.115 42.667 42.667v85.333c0 23.552-19.115 42.665-42.667 42.665h-85.333zM725.248 533.417c-23.552 0-42.667-19.113-42.667-42.665 0-10.667 0-74.667 0-85.333 0-23.552 19.115-42.667 42.667-42.667h85.333c23.552 0 42.667 19.115 42.667 42.667v85.333c0 23.552-19.115 42.665-42.667 42.665h-85.333zM213.25 277.419c-23.552 0-42.666-19.115-42.666-42.667 0-10.667 0-74.667 0-85.333 0-23.552 19.115-42.667 42.666-42.667h85.333c23.552 0 42.667 19.115 42.667 42.667v85.333c0 23.552-19.115 42.667-42.667 42.667h-85.333zM469.248 277.419c-23.552 0-42.665-19.115-42.665-42.667 0-10.667 0-74.667 0-85.333 0-23.552 19.113-42.667 42.665-42.667h85.333c23.552 0 42.667 19.115 42.667 42.667v85.333c0 23.552-19.115 42.667-42.667 42.667h-85.333zM725.248 277.419c-23.552 0-42.667-19.115-42.667-42.667 0-10.667 0-74.667 0-85.333 0-23.552 19.115-42.667 42.667-42.667h85.333c23.552 0 42.667 19.115 42.667 42.667v85.333c0 23.552-19.115 42.667-42.667 42.667h-85.333z" />
<glyph unicode="&#xe908;" glyph-name="chart-tool" d="M950.857 9.143c0 484.748-392.966 877.714-877.714 877.714h877.714v-877.714z" />
<glyph unicode="&#xe909;" glyph-name="chat-agent-planing" d="M555.222 876.663c-70.699 0-128-57.301-128-128h-84.002c-71.232 0-129.331-58.113-129.331-129.323v-84.010c-70.695 0-128-57.301-128-128 0-70.696 57.305-128 128-128v-84.008c0-71.214 58.103-129.326 129.331-129.326h126.669c23.552 0 42.667 19.115 42.667 42.667v42.667c0 23.552 19.115 42.667 42.667 42.667 23.554 0 42.668-19.115 42.668-42.667v-42.667c0-23.552 19.115-42.667 42.667-42.667h126.674c71.214 0 129.326 58.112 129.326 129.326v126.674c0 23.552-19.115 42.667-42.667 42.667h-42.667c-23.552 0-42.667 19.115-42.667 42.667s19.115 42.667 42.667 42.667h42.667c23.552 0 42.667 19.115 42.667 42.667v126.677c0 71.211-58.112 129.323-129.326 129.323h-84.008c0 70.699-57.304 128-128.002 128zM555.222 791.33c23.554 0 42.668-19.115 42.668-42.667v-42.667c0-23.552 19.115-42.667 42.667-42.667h126.674c24.11 0 43.992-19.883 43.992-43.99v-84.010c-70.702 0-128-57.301-128-128 0-70.696 57.298-128 128-128v-84.008c0-24.11-19.883-43.992-43.992-43.992h-84.008c0 70.702-57.304 128-128.002 128-70.699 0-128-57.298-128-128h-84.002c-24.103 0-43.998 19.883-43.998 43.992v126.674c0 23.552-19.102 42.667-42.667 42.667h-42.667c-23.565 0-42.667 19.115-42.667 42.667s19.102 42.667 42.667 42.667h42.667c23.565 0 42.667 19.115 42.667 42.667v126.677c0 24.107 19.895 43.99 43.998 43.99h126.669c23.552 0 42.667 19.115 42.667 42.667v42.667c0 23.552 19.115 42.667 42.667 42.667z" />
<glyph unicode="&#xe90a;" glyph-name="chat-analyze-agent" d="M341.889 874.712c-23.552 0-42.667-19.115-42.667-42.667v-54.656c-54.016-19.328-96.683-61.995-116.011-116.011h-54.656c-23.552 0-42.667-19.115-42.667-42.667s19.115-42.667 42.667-42.667h42.667v-85.333h-42.667c-23.552 0-42.667-19.115-42.667-42.667s19.115-42.667 42.667-42.667h42.667v-85.333h-42.667c-23.552 0-42.667-19.115-42.667-42.667s19.115-42.667 42.667-42.667h54.656c19.328-54.016 61.995-96.683 116.011-116.014v-54.653c0-23.552 19.115-42.667 42.667-42.667s42.667 19.115 42.667 42.667v42.667h85.333v-42.667c0-23.552 19.115-42.667 42.667-42.667s42.667 19.115 42.667 42.667v42.667h85.335v-42.667c0-23.552 19.115-42.667 42.667-42.667s42.667 19.115 42.667 42.667v54.653c54.016 19.331 96.683 61.998 116.008 116.014h54.659c23.552 0 42.667 19.115 42.667 42.667s-19.115 42.667-42.667 42.667h-42.667v85.333h42.667c23.552 0 42.667 19.115 42.667 42.667s-19.115 42.667-42.667 42.667h-42.667v85.333h42.667c23.552 0 42.667 19.115 42.667 42.667s-19.115 42.667-42.667 42.667h-54.659c-19.325 54.016-61.992 96.683-116.008 116.011v54.656c0 23.552-19.115 42.667-42.667 42.667s-42.667-19.115-42.667-42.667v-42.667h-85.335v42.667c0 23.552-19.115 42.667-42.667 42.667s-42.667-19.115-42.667-42.667v-42.667h-85.333v42.667c0 23.552-19.115 42.667-42.667 42.667zM363.222 704.045h298.668c58.92 0 106.667-47.744 106.667-106.667v-298.666c0-58.926-47.747-106.667-106.667-106.667h-298.668c-58.923 0-106.667 47.741-106.667 106.667v298.666c0 58.923 47.744 106.667 106.667 106.667zM405.889 618.712c-35.328 0-64-28.672-64-64v-213.333c0-35.328 28.672-64 64-64h213.335c35.328 0 64 28.672 64 64v213.333c0 35.328-28.672 64-64 64h-213.335zM427.222 533.378h170.668v-170.666h-170.668v170.666z" />
<glyph unicode="&#xe90b;" glyph-name="chat-arrow-long" d="M248.281 179.012c-16.654 16.653-16.644 43.635 0 60.279 14.415 14.417 353.647 353.648 398.601 398.601l-307.904 0.936v84.777l411.508 0.935c11.797 0.030 22.626-4.948 30.532-12.852 7.872-7.874 12.791-18.705 12.791-30.472l-0.934-411.508h-84.779l-0.934 307.905c-44.954-44.954-384.186-384.184-398.601-398.601-16.645-16.644-43.625-16.653-60.279 0z" />
<glyph unicode="&#xe90c;" glyph-name="chat-arrow-short" d="M243.011 711.719c16.654 16.654 43.635 16.644 60.279 0 14.415-14.415 353.649-353.647 398.598-398.601l0.939 307.904h84.774l0.939-411.508c0.030-11.797-4.949-22.626-12.855-30.532-7.872-7.872-18.705-12.791-30.473-12.791l-411.504 0.934v84.779l307.905 0.934c-44.954 44.954-384.187 384.186-398.602 398.601-16.645 16.645-16.654 43.625 0 60.279z" />
<glyph unicode="&#xe90d;" glyph-name="chat-back" d="M768.499 448.307c0 23.552-19.072 42.624-42.624 42.624-20.395 0-258.773 0-322.345 0l126.548 127.872-59.947 59.947-201.13-199.808c-8.363-8.32-12.501-19.499-12.501-30.677 0-11.136 4.181-22.272 12.501-30.592l201.13-199.808 59.947 59.947-126.548 127.872c63.572 0 301.951 0 322.345 0 23.552 0 42.624 19.072 42.624 42.624z" />
<glyph unicode="&#xe90e;" glyph-name="chat-border-close" d="M522.24 857.6c-226.222 0-409.6-183.378-409.6-409.6s183.378-409.6 409.6-409.6c226.222 0 409.6 183.378 409.6 409.6s-183.378 409.6-409.6 409.6zM522.24 775.68c180.961 0 327.68-146.719 327.68-327.68s-146.719-327.68-327.68-327.68c-180.961 0-327.68 146.719-327.68 327.68s146.719 327.68 327.68 327.68zM399.36 611.84c-10.486 0-21.422-3.523-29.45-11.51-15.974-16.015-15.974-42.884 0-58.9l93.429-93.43-93.429-93.43c-15.974-16.015-15.974-42.885 0-58.9 16.015-15.974 42.885-15.974 58.9 0l93.43 93.43 93.43-93.43c16.015-15.974 42.885-15.974 58.9 0 15.974 16.015 15.974 42.885 0 58.9l-93.43 93.43 93.43 93.43c15.974 16.015 15.974 42.884 0 58.9-8.028 7.987-18.964 11.51-29.45 11.51s-21.422-3.523-29.45-11.51l-93.43-93.429-93.43 93.429c-8.028 7.987-18.964 11.51-29.45 11.51z" />
<glyph unicode="&#xe90f;" glyph-name="chat-close" d="M511.952 876.661c-235.64 0-426.667-191.019-426.667-426.668s191.027-426.664 426.667-426.664c235.648 0 426.668 191.016 426.668 426.664s-191.020 426.668-426.668 426.668zM383.952 620.661c10.913 0 22.334-3.67 30.669-11.99l97.331-97.322 97.324 97.322c8.36 8.32 19.752 11.99 30.676 11.99s22.316-3.67 30.676-11.99c16.64-16.682 16.64-44.67 0-61.354l-97.32-97.324 97.32-97.32c16.64-16.684 16.64-44.672 0-61.356-16.68-16.64-44.672-16.64-61.352 0l-97.324 97.324-97.331-97.324c-16.662-16.64-44.672-16.64-61.338 0-16.661 16.684-16.661 44.672 0 61.356l97.313 97.32-97.313 97.324c-16.661 16.684-16.661 44.672 0 61.354 8.337 8.32 19.749 11.99 30.669 11.99z" />
<glyph unicode="&#xe910;" glyph-name="chat-complete" d="M86 448.048c0-235.649 191.027-426.669 426.667-426.669 235.65 0 426.663 191.020 426.663 426.669 0 235.647-191.013 426.666-426.663 426.666-235.64 0-426.667-191.018-426.667-426.666zM724.77 648.017c9.694 9.247 22.969 13.317 35.689 13.317 12.727 0 26.002-4.070 35.694-13.317 19.434-18.49 19.434-49.567 0-68.057l-347.761-331.426c-19.387-18.491-51.995-18.491-71.382 0l-149.075 142.040c-19.387 18.49-19.387 49.572 0 68.057 19.436 18.49 52.044 18.49 71.431 0l113.335-108.007 312.069 297.392z" />
<glyph unicode="&#xe911;" glyph-name="chat-copy" d="M127.889 661.722c0 94.251 76.411 170.667 170.667 170.667h255.999c94.257 0 170.664-76.416 170.664-170.667 94.259 0 170.667-76.416 170.667-170.667v-256.002c0-94.248-76.407-170.667-170.667-170.667h-255.998c-94.255 0-170.666 76.419-170.666 170.667-94.255 0-170.667 76.419-170.667 170.669v256zM810.553 491.056c0 47.147-38.201 85.333-85.333 85.333v-170.667c0-94.25-76.407-170.669-170.664-170.669h-170.666c0-47.144 38.204-85.333 85.333-85.333h255.998c47.132 0 85.333 38.19 85.333 85.333v256.002zM298.639 746.66c-47.128 0-85.333-38.205-85.333-85.333v-256c0-47.126 38.205-85.332 85.333-85.332h256c47.126 0 85.333 38.207 85.333 85.332v256c0 47.128-38.207 85.333-85.333 85.333h-256z" />
<glyph unicode="&#xe912;" glyph-name="chat-default-ui" d="M801.459 425.759l-227.799 83.849-83.86 227.932c-4.966 13.489-13.951 25.131-25.743 33.354s-25.823 12.633-40.199 12.633c-14.376 0-28.407-4.409-40.199-12.633s-20.777-19.865-25.743-33.354l-83.95-227.667-227.972-83.847c-13.492-4.966-25.135-13.947-33.36-25.738s-12.635-25.82-12.635-40.192c0-14.377 4.41-28.401 12.635-40.192s19.868-20.772 33.36-25.738l227.663-84.378 83.862-227.799c4.966-13.491 13.951-25.134 25.743-33.357s25.822-12.631 40.199-12.631c14.377 0 28.407 4.408 40.199 12.631s20.776 19.866 25.743 33.357l83.863 227.753 227.968 83.85c13.496 4.966 25.139 13.947 33.362 25.738 8.228 11.786 12.636 25.815 12.636 40.192 0 14.372-4.408 28.401-12.636 40.192-8.223 11.786-19.866 20.772-33.362 25.738l0.225 0.307zM549.033 275.983c-9.544-3.502-18.207-9.037-25.395-16.225s-12.724-15.852-16.227-25.39l-83.862-227.092-83.685 227.267c-3.505 9.492-9.025 18.109-16.179 25.262s-15.775 12.672-25.266 16.179l-227.133 83.845 227.133 83.85c9.491 3.502 18.111 9.021 25.266 16.175s12.674 15.772 16.179 25.262l83.862 227.094 83.862-227.094c3.503-9.541 9.041-18.205 16.229-25.391 7.183-7.186 15.852-12.723 25.39-16.225l227.133-83.845-227.308-83.671zM564.966 818.783c0 9.363 3.722 18.343 10.342 24.964s15.606 10.34 24.97 10.34h70.62v70.608c0 9.363 3.717 18.343 10.342 24.964 6.62 6.621 15.601 10.34 24.965 10.34s18.345-3.72 24.97-10.34c6.62-6.621 10.342-15.601 10.342-24.964v-70.608h70.62c9.364 0 18.345-3.72 24.965-10.34 6.625-6.621 10.342-15.601 10.342-24.964s-3.717-18.343-10.342-24.964c-6.62-6.621-15.601-10.34-24.965-10.34h-70.62v-70.608c0-9.363-3.722-18.343-10.342-24.964-6.625-6.621-15.606-10.34-24.97-10.34s-18.345 3.719-24.965 10.34c-6.625 6.621-10.342 15.6-10.342 24.964v70.608h-70.62c-9.364 0-18.35 3.72-24.97 10.34s-10.342 15.601-10.342 24.964zM1024 606.959c0-9.363-3.722-18.343-10.342-24.964s-15.601-10.34-24.97-10.34h-35.308v-35.304c0-9.363-3.722-18.343-10.342-24.964s-15.606-10.34-24.97-10.34c-9.364 0-18.345 3.72-24.965 10.34-6.625 6.621-10.342 15.601-10.342 24.964v35.304h-35.313c-9.364 0-18.345 3.72-24.965 10.34-6.625 6.621-10.342 15.601-10.342 24.964s3.717 18.343 10.342 24.964c6.62 6.621 15.601 10.34 24.965 10.34h35.313v35.304c0 9.363 3.717 18.343 10.342 24.964 6.62 6.621 15.601 10.34 24.965 10.34s18.35-3.72 24.97-10.34c6.62-6.621 10.342-15.601 10.342-24.964v-35.304h35.308c9.37 0 18.35-3.72 24.97-10.34s10.342-15.601 10.342-24.964z" />
<glyph unicode="&#xe913;" glyph-name="chat-delete" d="M213.022 793.321c-10.919 0-22.336-3.67-30.669-11.99-16.661-16.682-16.661-44.671 0-61.354l268.002-267.989-268.002-267.99c-16.661-16.684-16.661-44.668 0-61.352 16.666-16.64 44.672-16.64 61.338 0l267.998 267.987 268-267.987c16.662-16.64 44.668-16.64 61.338 0 16.662 16.684 16.662 44.668 0 61.352l-268.004 267.99 268.004 267.989c16.662 16.683 16.662 44.672 0 61.354-8.331 8.32-19.756 11.99-30.669 11.99-10.92 0-22.331-3.67-30.669-11.99l-268-267.989-267.998 267.989c-8.333 8.32-19.751 11.99-30.669 11.99z" />
<glyph unicode="&#xe914;" glyph-name="chat-dislike-fill" d="M349.376 21.988c111.829 6.4 148.864 90.453 162.389 128.552 20.309 57.219-0.256 170.411-0.256 170.411l240.044 0.085c42.621 0 100.864 38.4 101.672 94.209 0.643 44.715-20.821 73.259-41.557 96.171 35.63 31.701 41.557 64.683 41.557 98.987 0 34.859-18.773 70.827-44.203 94.72 1.28 77.483-38.485 128.342-108.117 151.553-46.080 15.403-88.149 18.687-189.182 18.687-194.091 0-338.261-144.725-341.119-341.333-1.28-89.643 23.082-170.195 71.551-259.112 65.536-120.149 56.576-181.504 56.96-211.029 0.256-21.891 20.821-43.566 50.261-41.899z" />
<glyph unicode="&#xe915;" glyph-name="chat-dislike" d="M341.222 20.725c115.584 0 187.136 30.589 212.011 116.008 5.589 19.246 8.064 40.664 9.344 64 1.323 24.792 0.213 49.71-2.219 75.264l164.861 0.728c70.702 0 128 57.298 128 127.998 0 31.232-13.653 61.397-34.389 84.351 21.931 22.997 34.389 52.054 34.389 86.315 0 34.901-18.045 68.822-43.52 92.715 0 10.453 0.853 28.629 0.853 35.285 0 78.464-39.68 128.769-109.312 151.979-46.12 15.403-88.235 18.687-189.352 18.687-194.231 0-341.333-147.115-341.333-341.333 0-96.981 17.293-151.937 68.002-253.353 45.29-90.584 59.998-135.168 59.998-215.979 0-23.552 19.102-42.667 42.667-42.667zM382.374 107.804c-5.956 68.142-25.485 126.936-66.488 208.942-45.29 90.579-59.997 135.166-59.997 215.977 0 147.114 108.898 255.999 255.999 255.999 168.531 0 213.331-14.933 213.331-85.333-6.571 0-37.291 0-42.667 0-23.552 0-42.667-19.115-42.667-42.667s19.115-42.667 42.667-42.667c5.376 0 36.096 0 42.667 0 19.456 0 42.667-23.040 42.667-42.667 0-23.552-19.115-42.666-42.667-42.666-6.315 0-37.33 0-42.667 0-23.552 0-42.667-19.115-42.667-42.667s19.115-42.667 42.667-42.667c5.336 0 36.352 0 42.667 0 19.797 0 42.667-22.571 42.667-42.667 0-23.55-19.115-42.665-42.667-42.665h-213.331c-1.963 0-19.242-0.131-33.322-17.323-14.080-17.237-8.193-32.427-8.022-33.365 0.939-4.693 2.518-13.227 4.011-25.304 3.371-27.176 4.011-54.824 2.689-79.997-0.939-17.283-3.115-32.984-6.699-45.358-9.003-30.976-35.199-50.045-88.17-52.907z" />
<glyph unicode="&#xe916;" glyph-name="chat-expand-down" d="M256.315 618.857c-35.158 0-54.43-39.893-33.331-68.010 32-42.666 223.996-298.666 256-341.329 17.066-22.747 50.931-22.747 67.997 0l256.004 341.329c21.094 28.118 0.49 68.010-34.67 68.010h-512z" />
<glyph unicode="&#xe917;" glyph-name="chat-expand" d="M433.721 745.727c-10.667 2.176-22.144 1.237-31.915-5.333-19.498-13.056-24.959-40.363-11.946-59.989l154.111-231.979-154.111-232.020c-13.013-19.581-7.552-46.933 11.946-59.989 19.541-13.056 46.763-7.595 59.776 11.992l170.066 255.997c9.518 14.336 9.518 33.664 0 48l-170.066 255.999c-6.485 9.813-17.195 15.189-27.861 17.323z" />
<glyph unicode="&#xe918;" glyph-name="chat-file" d="M323.833 874.708c-83.281 0-152-63.147-152-142.677v-567.978c0-79.531 68.719-142.677 152-142.677h378.665c83.281 0 152 63.147 152 142.677 0 27.776 0 332.715 0 411.988 0 0.427 0.013 0.896 0 1.323 0 152.021-146.748 297.344-298.667 297.344-179.808 0-180.209 0-231.998 0zM323.833 789.375c42.261 0 90.074 0 189.332 0v-113.323c0-79.531 68.719-142.677 152-142.677h104c0-108.244 0-344.404 0-369.322 0-30.464-28.762-57.344-66.667-57.344h-378.665c-37.905 0-66.667 26.88-66.667 57.344v567.978c0 30.464 28.762 57.344 66.667 57.344zM598.498 778.708c75.593-20.053 141.743-84.608 161.331-160h-94.665c-37.956 0-66.667 26.88-66.667 57.344v102.656z" />
<glyph unicode="&#xe919;" glyph-name="chat-hammer" d="M552.403 856.431c-13.107 3.195-28.221-0.492-39.076-11.346l-244.777-244.489c-19.743-19.743-15.074-54.19 9.952-66.724l113.91-56.319-221.43-221.43c-49.684-49.684-50.831-129.638-1.311-179.2l1.311-1.27c49.562-49.603 130.868-49.603 180.47 0l199.107 198.083c111.657-58.327 242.729 3.768 272.589 121.528 10.772 42.516 6.308 81.711-25.354 125.948 17.736 17.697 34.775 35.474 36.209 36.989 48.824 48.783 48.333 129.597-1.27 179.2l-1.27 1.27c-24.822 24.821-57.098 37.15-89.62 37.15-32.481 0-65.577-13.967-90.399-38.748-0.573-0.614-13.763-13.149-22.241-21.422-2.212 4.342-4.096 6.841-6.39 11.51-10.813 22.159-20.849 46.817-29.86 70.82-5.407 14.377-9.585 25.887-11.551 31.99-4.669 14.582-15.892 23.306-29 26.46zM526.803 742.521c7.004-17.080 14.664-34.816 22.241-51.2 14.828-32.154 59.433-105.062 113.459-153.6 5.366-4.833 10.732-10.115 16.63-15.358 7.823-6.922 7.864-7.496 30.72-26.87 34.079-28.918 40.714-52.142 33.26-80.65-15.073-57.836-68.977-93.471-130.089-77.742 31.048 37.233 46.408 112.108-10.691 169.902-44.728 45.259-102.851 42.678-141.967 28.015l-94.249 47.269 160.686 160.235zM741.843 693.901c11.592 0 23.224-4.014 31.99-12.82l1.311-1.27c17.572-17.613 17.777-44.851 0-64.798-6.758-7.619-21.381-21.422-35.922-35.922-24.986 22.446-47.555 45.015-64.43 66.478 13.558 13.353 34.12 33.3 35.062 34.242 8.929 8.929 20.439 14.049 31.99 14.090zM500.343 461.783c16.22 3.564 31.703-1.106 44.401-12.37 12.657-11.305 14.5-24.904 14.418-34.775-0.492-7.905-2.99-15.483-7.578-22.282-4.055-5.571-35.308-36.987-36.209-38.134l-221.512-220.979c-17.654-17.613-47.677-17.613-65.29 0l-1.27 1.27c-17.203 17.203-16.753 45.998 1.27 64.020l250.061 248.955c5.325 5.325 14.95 11.96 21.709 14.295z" />
<glyph unicode="&#xe91a;" glyph-name="chat-history" d="M213.25 661.823c-23.565 0-42.667-19.102-42.667-42.667s19.102-42.667 42.667-42.667h597.331c23.552 0 42.667 19.102 42.667 42.667s-19.115 42.667-42.667 42.667h-597.331zM213.25 491.157c-23.565 0-42.667-19.102-42.667-42.667s19.102-42.667 42.667-42.667h426.665c23.552 0 42.667 19.102 42.667 42.667s-19.115 42.667-42.667 42.667h-426.665zM213.25 320.491c-23.565 0-42.667-19.102-42.667-42.667s19.102-42.667 42.667-42.667h255.998c23.552 0 42.667 19.102 42.667 42.667s-19.115 42.667-42.667 42.667h-255.998z" />
<glyph unicode="&#xe91b;" glyph-name="chat-like-fill" d="M349.363 873.965c111.816-6.4 148.873-90.453 162.393-128.554 20.297-57.216-0.247-170.41-0.247-170.41l240.039-0.085c42.638 0 100.87-38.4 101.66-94.208 0.631-44.715-20.799-73.259-41.535-96.168 35.601-31.704 41.535-64.683 41.535-98.987 0-34.862-18.762-70.827-44.191-94.72 1.28-77.483-38.485-128.341-108.1-151.552-46.086-15.406-88.149-18.688-189.207-18.688-194.099 0-338.266 144.725-341.107 341.333-1.293 89.64 23.066 170.194 71.557 259.112 65.545 120.149 56.585 181.503 56.951 211.028 0.269 21.888 20.804 43.562 50.253 41.898z" />
<glyph unicode="&#xe91c;" glyph-name="chat-like" d="M341.222 874.056c115.601 0 187.149-30.592 212.002-116.011 5.598-19.242 8.073-40.661 9.331-63.999 1.336-24.789 0.239-49.707-2.189-75.265l164.853-0.725c70.696 0 128-57.301 128-127.999 0-31.232-13.636-61.397-34.384-84.351 21.936-22.996 34.384-52.055 34.384-86.314 0-34.901-18.051-68.824-43.503-92.718 0-10.45 0.836-28.626 0.836-35.282 0-78.467-39.669-128.768-109.329-151.979-46.12-15.406-88.218-18.688-189.335-18.688-194.232 0-341.333 147.115-341.333 341.333 0 96.98 17.293 151.934 68.002 253.352 45.29 90.581 59.998 135.169 59.998 215.979 0 23.552 19.102 42.667 42.667 42.667zM382.374 786.974c-5.956-68.139-25.485-126.933-66.487-208.939-45.291-90.581-59.998-135.168-59.998-215.977 0-147.115 108.898-256 256-256 168.548 0 213.33 14.933 213.33 85.333-6.554 0-37.302 0-42.667 0-23.563 0-42.667 19.115-42.667 42.667s19.103 42.667 42.667 42.667c5.365 0 36.113 0 42.667 0 19.462 0 42.667 23.040 42.667 42.667 0 23.552-19.098 42.667-42.667 42.667-6.298 0-37.313 0-42.667 0-23.563 0-42.667 19.115-42.667 42.665 0 23.552 19.103 42.667 42.667 42.667 5.353 0 36.369 0 42.667 0 19.797 0 42.667 22.571 42.667 42.667 0 23.552-19.098 42.667-42.667 42.667h-213.33c-1.95 0-19.247 0.128-33.331 17.323-14.089 17.237-8.183 32.426-8.004 33.365 0.917 4.693 2.5 13.227 4.002 25.302 3.379 27.179 4.023 54.827 2.666 80-0.93 17.28-3.072 32.981-6.669 45.354-9.007 30.976-35.205 50.049-88.179 52.907z" />
<glyph unicode="&#xe91d;" glyph-name="chat-more" d="M512.333 533.25c47.13 0 85.336-38.187 85.336-85.334s-38.206-85.335-85.336-85.335c-47.13 0-85.333 38.188-85.333 85.335s38.204 85.334 85.333 85.334zM213.333 533.25c47.13 0 85.333-38.187 85.333-85.334s-38.204-85.335-85.333-85.335c-47.13 0-85.333 38.188-85.333 85.335s38.204 85.334 85.333 85.334zM810.667 533.25c47.127 0 85.333-38.187 85.333-85.334s-38.207-85.335-85.333-85.335c-47.132 0-85.333 38.188-85.333 85.335s38.201 85.334 85.333 85.334z" />
<glyph unicode="&#xe91e;" glyph-name="chat-new" d="M725.248 876.667c-11.307 0-22.652-4.011-30.673-11.99-64-64-64-64-85.333-85.333l-298.669-298.665c-7.979-8.021-11.989-19.371-11.989-30.677v-170.667c0-23.552 19.115-42.667 42.667-42.667 21.333 0 149.331 0 170.665 0 11.307 0 22.656 4.011 30.677 11.989l298.667 298.666c21.333 21.333 21.333 21.333 85.333 85.333 7.979 8.021 11.989 19.371 11.989 30.677 0 69.803-17.792 119.679-54.656 157.354-37.248 37.973-86.955 55.98-158.677 55.98zM298.583 834c-94.251 0-170.667-76.416-170.667-170.667v-426.666c0-94.251 76.416-170.667 170.667-170.667h426.665c94.251 0 170.667 76.416 170.667 170.667v170.667c0 23.552-19.115 42.667-42.667 42.667s-42.667-19.115-42.667-42.667v-170.667c0-47.147-38.187-85.333-85.333-85.333h-426.665c-47.147 0-85.333 38.187-85.333 85.333v426.666c0 47.147 38.187 85.333 85.333 85.333h170.665c23.552 0 42.667 19.114 42.667 42.667s-19.115 42.667-42.667 42.667h-170.665zM742.613 790.523c38.485-2.261 62.852-11.051 79.962-28.544 17.493-17.835 27.558-44.758 29.905-82.518-20.864-20.864-33.792-33.238-41.728-41.216-33.835 33.792-76.757 76.332-110.549 110.167 7.979 7.979 21.547 21.248 42.411 42.112zM640 687.823l110.298-109.995-257.071-255.827c-26.965 0-70.014 0-109.31 0v109.312l256.083 256.51z" />
<glyph unicode="&#xe91f;" glyph-name="chat-noti-disable" d="M554.667 832.010c0 23.564-19.102 42.667-42.667 42.667s-42.667-19.102-42.667-42.667v-42.667c-117.821 0-213.333-95.512-213.333-213.333v-213.335c0-32.303-17.949-60.412-44.417-74.901-20.67-11.315-40.916-29.534-40.916-53.099v-16.427l170.667 170.667v187.095c0 70.693 57.308 128 128 128h85.333c28.655 0 55.108-9.415 76.442-25.321l60.719 60.722c-37.086 31.162-84.932 49.932-137.161 49.932v42.667zM554.667 149.333h-71.322l-12.233-12.233c5.261-17.604 21.577-30.434 40.887-30.434 23.565 0 42.667 19.102 42.667 42.667zM640 149.342h170.667c23.565 0 42.667 19.106 42.667 42.667v42.667c0 23.565-20.245 41.783-40.917 53.099-26.466 14.49-44.416 42.598-44.416 74.901v211.549l-85.333-85.332v-126.217c0-51.055 22.438-96.794 57.796-128h-312.009l-85.335-85.333 40.88-0.009c0-70.694 57.306-128 128-128s128 57.306 128 128v0.009zM149.962 136.837l663.738 663.738c16.662 16.662 43.677 16.662 60.34 0s16.662-43.677 0-60.34l-663.738-663.738c-16.662-16.662-43.677-16.662-60.34 0s-16.662 43.677 0 60.34z" />
<glyph unicode="&#xe920;" glyph-name="chat-noti-enable" d="M469.333 789.344v42.667c0 23.564 19.102 42.667 42.667 42.667s42.667-19.102 42.667-42.667v-42.667h-85.333zM469.333 789.343c-117.821 0-213.333-95.513-213.333-213.333v-213.335c0-32.303-17.949-60.412-44.417-74.901-20.67-11.315-40.916-29.534-40.916-53.099v-42.667c0-23.565 19.103-42.667 42.667-42.667l170.667-0.009c0-70.694 57.306-128 128-128s128 57.306 128 128v0.009h170.667c23.565 0 42.667 19.102 42.667 42.667v42.667c0 23.565-20.245 41.783-40.917 53.099-26.466 14.49-44.416 42.598-44.416 74.901v213.335c0 117.821-95.514 213.333-213.333 213.333h-85.333zM512 106.667c-23.565 0-42.667 19.102-42.667 42.667h85.333c0-23.565-19.102-42.667-42.667-42.667z" />
<glyph unicode="&#xe921;" glyph-name="chat-other" d="M706.56 79.36c90.481 0 163.84 73.359 163.84 163.84v409.6c0 90.481-73.359 163.84-163.84 163.84h-409.6c-90.481 0-163.84-73.359-163.84-163.84v-409.6c0-90.481 73.359-163.84 163.84-163.84h409.6zM706.56 161.28h-409.6c-45.261 0-81.92 36.659-81.92 81.92v409.6c0 45.261 36.659 81.92 81.92 81.92h409.6c45.261 0 81.92-36.659 81.92-81.92v-409.6c0-45.261-36.659-81.92-81.92-81.92zM501.76 243.2c22.61 0 40.96 18.35 40.96 40.96v204.8c0 22.61-18.35 40.96-40.96 40.96s-40.96-18.35-40.96-40.96v-204.8c0-22.61 18.35-40.96 40.96-40.96zM501.76 570.88c22.61 0 40.96 18.35 40.96 40.96s-18.35 40.96-40.96 40.96c-22.61 0-40.96-18.35-40.96-40.96s18.35-40.96 40.96-40.96z" />
<glyph unicode="&#xe922;" glyph-name="chat-process" d="M255.889 832.393c-70.699 0-128-57.301-128-128.001v-85.333c0-70.699 57.301-128 128-128h511.997c70.702 0 128 57.301 128 128v85.333c0 70.699-57.298 128.001-128 128.001h-511.997zM255.889 747.059h511.997c23.552 0 42.667-19.115 42.667-42.667v-85.333c0-23.552-19.115-42.667-42.667-42.667h-511.997c-23.552 0-42.667 19.115-42.667 42.667v85.333c0 23.552 19.115 42.667 42.667 42.667zM298.556 704.392c-23.552 0-42.667-19.115-42.667-42.667s19.115-42.667 42.667-42.667c23.552 0 42.666 19.115 42.666 42.667s-19.114 42.667-42.666 42.667zM426.555 704.392c-23.552 0-42.667-19.115-42.667-42.667s19.115-42.667 42.667-42.667c23.552 0 42.667 19.115 42.667 42.667s-19.115 42.667-42.667 42.667zM255.889 405.725c-70.699 0-128-57.304-128-127.999v-85.333c0-70.702 57.301-128 128-128h511.997c70.702 0 128 57.298 128 128v85.333c0 70.696-57.298 127.999-128 127.999h-511.997zM255.889 320.393h511.997c23.552 0 42.667-19.115 42.667-42.667v-85.333c0-23.552-19.115-42.667-42.667-42.667h-511.997c-23.552 0-42.667 19.115-42.667 42.667v85.333c0 23.552 19.115 42.667 42.667 42.667zM298.556 277.726c-23.552 0-42.667-19.115-42.667-42.667s19.115-42.667 42.667-42.667c23.552 0 42.666 19.115 42.666 42.667s-19.114 42.667-42.666 42.667zM426.555 277.726c-23.552 0-42.667-19.115-42.667-42.667s19.115-42.667 42.667-42.667c23.552 0 42.667 19.115 42.667 42.667s-19.115 42.667-42.667 42.667z" />
<glyph unicode="&#xe923;" glyph-name="chat-refresh" d="M512.333 832.389c-87.637 0-171.349-29.398-238.677-82.688-18.475-14.592-21.291-41.515-6.656-59.989s41.515-21.291 59.989-6.656c52.352 41.429 117.12 64 185.344 64 164.952 0 298.669-133.717 298.669-298.667h-85.333l128-170.669 128 170.669h-85.333c0 212.096-171.907 384-384.002 384zM171 619.056l-128-170.667h85.333c0-212.095 171.904-383.997 384-383.997 87.679 0 171.352 29.355 238.68 82.688 18.472 14.592 21.288 41.512 6.656 59.984-14.638 18.478-41.518 21.294-59.989 6.656-52.395-41.466-117.077-63.994-185.346-63.994-164.949 0-298.667 133.712-298.667 298.663h85.333l-128 170.667z" />
<glyph unicode="&#xe924;" glyph-name="chat-robot" d="M20.48 407.478c0 22.622 18.338 40.96 40.96 40.96h40.96v-81.92h-40.96c-22.622 0-40.96 18.342-40.96 40.96zM389.12 817.080h122.88c22.622 0 40.96-18.338 40.96-40.96v-81.92h204.8c90.485 0 163.84-73.354 163.84-163.842v-81.92h40.96c22.622 0 40.96-18.338 40.96-40.96 0-22.618-18.338-40.96-40.96-40.96h-40.96v-122.88c0-90.485-73.355-163.84-163.84-163.84h-491.52c-90.486 0-163.84 73.355-163.84 163.84v286.72c0 90.488 73.354 163.842 163.84 163.842h204.8v40.96h-81.92c-22.621 0-40.96 18.339-40.96 40.96s18.339 40.96 40.96 40.96zM839.68 530.358c0 45.245-36.676 81.922-81.92 81.922h-491.52c-45.243 0-81.92-36.677-81.92-81.922v-286.72c0-45.24 36.677-81.92 81.92-81.92h491.52c45.244 0 81.92 36.68 81.92 81.92v286.72zM409.6 489.398c-33.915 0.041-61.44-27.525-61.44-61.44s27.525-61.44 61.44-61.44c5.571 0 13.845 0.696 21.75 3.85-5.079-20.767-14.090-36.291-26.87-51.2-7.373-8.602-6.022-22.077 2.58-29.45 8.561-7.373 21.095-6.308 28.14 2.58 32.317 40.673 45.138 80.736 35.84 138.203-6.226 38.502-31.457 58.855-61.44 58.896zM614.4 489.398c-33.915 0.041-61.44-27.525-61.44-61.44s27.525-61.44 61.44-61.44c5.571 0 13.844 0.696 21.75 3.85-5.079-20.767-14.090-36.291-26.87-51.2-7.373-8.602-6.021-22.077 2.58-29.45 8.561-7.373 21.094-6.308 28.14 2.58 32.317 40.673 45.138 80.736 35.84 138.203-6.226 38.502-31.457 58.855-61.44 58.896z" />
<glyph unicode="&#xe925;" glyph-name="chat-rubbish" d="M511.889 876.661c-43.218 0-78.223-38.186-78.223-85.333h-195.555c-21.589 0-39.111-19.115-39.111-42.667s17.522-42.666 39.111-42.666v-511.999c0-93.44 70.595-170.667 156.444-170.667h234.667c85.85 0 156.446 77.013 156.446 170.667v511.999c21.589 0 39.108 19.114 39.108 42.666s-17.519 42.667-39.108 42.667h-195.558c0 47.147-35.004 85.333-78.221 85.333zM316.333 705.996h391.11v-511.999c0-46.805-34.807-85.333-77.009-85.333l-235.879 1.323c-43.1 0-78.222 37.973-78.222 84.011v511.999zM433.667 620.662c-21.589 0-39.111-19.115-39.111-42.667v-341.332c0-23.552 17.522-42.667 39.111-42.667s39.11 19.115 39.11 42.667v341.332c0 23.552-17.521 42.667-39.11 42.667zM590.11 620.662c-21.589 0-39.108-19.115-39.108-42.667v-341.332c0-23.552 17.519-42.667 39.108-42.667s39.113 19.115 39.113 42.667v341.332c0 23.552-17.523 42.667-39.113 42.667z" />
<glyph unicode="&#xe926;" glyph-name="chat-send" d="M171.933 592.94c56.747 19.712 659.329 225.45 690.049 236.074 11.947 4.139 23.936 6.485 34.944 5.888 10.069-0.555 19.328-3.584 27.051-9.941 11.307-9.301 14.891-20.778 15.189-33.066 0.299-11.264-2.133-23.253-3.925-34.944-7.083-46.592-74.667-571.095-80.213-605.954-6.528-41.216-34.219-84.736-85.248-83.925-25.941 0.427-45.781 6.4-77.312 37.632-47.829 47.403-150.784 156.672-197.419 208.811-23.168 25.941-21.248 61.909-3.243 82.56 11.691 13.397 102.955 102.613 145.195 147.414 9.259 9.813 3.755 24.704-1.323 29.867-4.907 4.992-18.731 8.32-27.008 1.707-58.795-46.978-177.493-135.639-193.238-146.178-19.029-12.757-48.47-17.92-73.046-13.099s-206.891 36.224-206.891 36.224c-18.56 3.413-49.322 23.723-49.578 64.213-0.213 42.37 38.613 60.247 86.016 76.716z" />
<glyph unicode="&#xe927;" glyph-name="chat-share" d="M725.22 876.667c-70.696 0-128-57.301-128-128 0-10.965 1.752-24.619 4.352-34.774l-228.392-159.402c-20.437 13.824-48.128 23.509-74.624 23.509-70.698 0-127.999-57.301-127.999-128s57.301-127.998 127.999-127.998c26.965 0 53.59 10.024 74.241 24.235l228.861-160.683c-2.816-10.542-4.437-22.784-4.437-34.219 0-70.702 57.304-128 128-128 70.702 0 128 57.298 128 128 0 70.696-57.298 128-128 128-26.965 0-53.248-9.734-73.853-23.984l-229.462 160.558c2.773 10.539 4.651 22.657 4.651 34.091s-1.621 23.765-4.437 34.303l228.907 160.086c20.434-13.781 47.701-23.723 74.194-23.723 70.702 0 128 57.301 128 128s-57.298 128-128 128z" />
<glyph unicode="&#xe928;" glyph-name="chat-shortcuts" d="M170.746 751.667c-4.766 0-9.698-5.035-13.333-16l-13.334-39.979h-40c-21.995-0.171-25.395-11.819-8-25.344l33.336-25.343-12.002-42.667c-6.148-21.845 3.409-28.501 21.333-14.677l32 25.344 32-25.344c18.027-13.824 28.497-6.016 22.669 16l-12.002 43.99 32 24.021c17.336 13.312 13.815 23.893-8 24.021h-40l-13.333 39.979c-3.635 10.965-8.567 16-13.334 16zM384.080 709c-23.565 0-42.667-19.115-42.667-42.667s19.102-42.667 42.667-42.667h512c23.563 0 42.667 19.115 42.667 42.667s-19.103 42.667-42.667 42.667h-512zM170.746 538.333c-4.766 0-9.698-5.035-13.333-16l-13.334-39.979h-40c-21.995-0.171-25.395-11.818-8-25.343l33.336-25.344-12.002-42.666c-6.148-21.845 3.409-28.501 21.333-14.677l32 25.343 32-25.343c18.027-13.824 28.497-6.019 22.669 15.997l-12.002 43.992 32 24.021c17.336 13.312 13.815 23.893-8 24.021h-40l-13.333 39.979c-3.635 10.965-8.567 16-13.334 16zM384.080 495.666c-23.565 0-42.667-19.115-42.667-42.667s19.102-42.667 42.667-42.667h512c23.563 0 42.667 19.115 42.667 42.667s-19.103 42.667-42.667 42.667h-512zM170.746 325.001c-4.766 0-9.698-5.035-13.333-16.003l-13.334-39.976h-40c-21.995-0.171-25.395-11.822-8-25.344l33.336-25.344-12.002-42.667c-6.148-21.845 3.409-28.501 21.333-14.677l32 25.344 32-25.344c18.027-13.824 28.497-6.019 22.669 15.997l-12.002 43.992 32 24.018c17.336 13.312 13.815 23.893-8 24.024h-40l-13.333 39.976c-3.635 10.968-8.567 16.003-13.334 16.003zM384.080 282.334c-23.565 0-42.667-19.115-42.667-42.667s19.102-42.667 42.667-42.667h512c23.563 0 42.667 19.115 42.667 42.667s-19.103 42.667-42.667 42.667h-512z" />
<glyph unicode="&#xe929;" glyph-name="chat-star-empty" d="M513.074 855.839c-24.359 0.008-49.233-15.147-63.966-45.312l-90.62-186.568-206.558-29.316c-66.428-9.242-87.949-74.411-39.978-121.259l149.252-145.28-34.646-203.907c-11.41-66.004 43.336-105.896 102.614-74.62 22.903 12.12 140.668 73.128 183.902 95.956l183.902-95.956c59.343-31.276 114.259 8.572 102.614 74.62l-35.979 203.907 149.255 145.28c48.194 46.678 27.78 111.83-38.649 121.259l-207.889 29.316-89.289 186.568c-14.711 30.178-39.608 45.299-63.966 45.312zM513.074 745.23l87.953-179.908c6.204-12.728 17.967-20.668 31.983-22.656l199.897-29.303-145.257-139.947c-10.168-9.856-14.452-23.381-11.994-37.29l34.65-197.249-177.242 93.27c-12.45 6.571-27.532 6.571-39.978 0-22.114-11.649-130.197-68.438-177.242-93.27l33.319 195.883c2.385 13.866-1.954 28.843-11.994 38.656l-143.928 139.947 198.562 27.972c14.054 1.954 27.089 11.238 33.319 23.987l87.953 179.908z" />
<glyph unicode="&#xe92a;" glyph-name="chat-star" d="M513.074 855.831c-24.359 0.008-49.233-15.147-63.966-45.313l-90.62-186.568-206.558-29.316c-66.428-9.242-87.949-74.41-39.978-121.258l149.252-145.28-34.645-203.905c-11.41-66.004 43.336-105.896 102.614-74.62 22.903 12.112 140.668 73.128 183.902 95.956l183.902-95.956c59.343-31.276 114.259 8.572 102.614 74.62l-35.979 203.905 149.255 145.28c48.194 46.678 27.78 111.83-38.649 121.258l-207.89 29.316-89.288 186.568c-14.711 30.178-39.608 45.3-63.966 45.313z" />
<glyph unicode="&#xe92b;" glyph-name="chat-stop-play" d="M341.333 789.333h42.667c23.564 0 42.667-19.103 42.667-42.667v-597.333c0-23.564-19.103-42.667-42.667-42.667h-42.667c-23.564 0-42.667 19.103-42.667 42.667v597.333c0 23.564 19.103 42.667 42.667 42.667zM640 789.333h42.667c23.564 0 42.667-19.103 42.667-42.667v-597.333c0-23.564-19.103-42.667-42.667-42.667h-42.667c-23.564 0-42.667 19.103-42.667 42.667v597.333c0 23.564 19.103 42.667 42.667 42.667z" />
<glyph unicode="&#xe92c;" glyph-name="chat-stop-voice" d="M512.585 876.667c-235.649 0-426.668-191.019-426.668-426.666s191.019-426.667 426.668-426.667c235.648 0 426.667 191.019 426.667 426.667s-191.019 426.666-426.667 426.666zM427.251 620.667h170.667c47.147 0 85.333-38.187 85.333-85.333v-170.666c0-47.147-38.187-85.333-85.333-85.333h-170.667c-47.148 0-85.335 38.187-85.335 85.333v170.666c0 47.147 38.187 85.333 85.335 85.333z" />
<glyph unicode="&#xe92d;" glyph-name="chat-switch" d="M939.275 277.732l-213.333 213.331v-170.664h-554.664c-23.552 0-42.667-19.115-42.667-42.667s19.115-42.667 42.667-42.667h554.664v-170.667l213.333 213.333zM896.609 619.063c0 23.552-19.115 42.667-42.667 42.667h-554.664v170.667l-213.333-213.333 213.333-213.333v170.667h554.664c23.552 0 42.667 19.115 42.667 42.667z" />
<glyph unicode="&#xe92e;" glyph-name="chat-tell-more" d="M0 405.333c0 23.565 19.103 42.667 42.667 42.667h42.667v-85.333h-42.667c-23.564 0-42.667 19.102-42.667 42.667zM384 832h128c23.565 0 42.667-19.103 42.667-42.667v-85.333h213.333c94.255 0 170.667-76.41 170.667-170.667v-85.333h42.667c23.565 0 42.667-19.102 42.667-42.667s-19.102-42.667-42.667-42.667h-42.667v-128c0-94.255-76.412-170.667-170.667-170.667h-512c-94.257 0-170.667 76.412-170.667 170.667v298.667c0 94.257 76.41 170.667 170.667 170.667h213.333v42.667h-85.333c-23.564 0-42.667 19.103-42.667 42.667s19.103 42.667 42.667 42.667zM853.333 533.333c0 47.128-38.204 85.333-85.333 85.333h-512c-47.128 0-85.333-38.205-85.333-85.333v-298.667c0-47.13 38.205-85.333 85.333-85.333h512c47.13 0 85.333 38.204 85.333 85.333v298.667zM405.333 490.667c-35.328 0.043-64-28.672-64-64s28.672-64 64-64c5.803 0 14.422 0.725 22.656 4.011-5.29-21.632-14.677-37.803-27.989-53.333-7.68-8.96-6.272-22.997 2.688-30.677 8.917-7.68 21.974-6.571 29.312 2.688 33.664 42.368 47.019 84.096 37.333 143.957-6.485 40.107-32.768 61.312-64 61.355zM618.667 490.667c-35.328 0.043-64-28.672-64-64s28.672-64 64-64c5.803 0 14.421 0.725 22.656 4.011-5.291-21.632-14.677-37.803-27.989-53.333-7.68-8.96-6.272-22.997 2.688-30.677 8.917-7.68 21.973-6.571 29.312 2.688 33.664 42.368 47.019 84.096 37.333 143.957-6.485 40.107-32.768 61.312-64 61.355z" />
<glyph unicode="&#xe92f;" glyph-name="chat-thinking" d="M512 876.666c-235.562 0.469-426.325-190.123-426.666-426.667-0.341-236.546 192.597-426.197 426.666-426.669 234.069-0.466 426.712 190.68 426.667 426.669-0.040 235.989-191.101 426.197-426.667 426.667zM512 791.332c137.262 0 257.024-82.901 309.248-195.883-10.155 2.176-21.117 3.883-31.915 3.883-38.4 0-72.488-14.251-96.853-35.925-37.547 61.056-103.595 99.925-180.48 99.925-35.328 0-64 28.672-64 64s28.672 64 64 64zM365.525 758.564c-2.176-10.155-2.858-20.437-2.858-31.232 0-38.4 12.543-70.229 36.351-96.682-59.221-36.395-100.351-103.766-100.351-180.651 0-35.327-28.672-64.002-64-64.002s-64 28.675-64 64.002c0 137.259 82.133 254.592 194.858 308.565zM512 577.999c70.702 0 128-57.301 128-128s-57.298-128.002-128-128.002c-70.699 0-128 57.304-128 128.002s57.301 128 128 128zM789.333 513.999c35.328 0 64-28.672 64-64 0-137.258-84.224-256.725-196.011-309.29 2.179 10.155 4.011 21.163 4.011 31.954 0 38.4-12.072 70.36-35.88 96.853 61.008 37.507 99.88 103.595 99.88 180.482 0 35.328 28.672 64 64 64zM331.179 337.101c37.547-61.013 103.936-100.437 180.821-100.437 35.328 0 64-28.672 64-64s-28.672-64-64-64c-137.258 0-254.591 81.454-308.394 195.243 10.155-2.173 20.267-3.243 31.061-3.243 38.4 0 70.058 12.629 96.511 36.437z" />
<glyph unicode="&#xe930;" glyph-name="chat-unselected" d="M512.556 874.712c-235.639 0-426.667-191.018-426.667-426.666 0-235.645 191.027-426.667 426.667-426.667 235.647 0 426.668 191.022 426.668 426.667 0 235.648-191.022 426.666-426.668 426.666zM512.556 789.379c188.503 0 341.335-152.832 341.335-341.333s-152.832-341.333-341.335-341.333c-188.514 0-341.333 152.832-341.333 341.333s152.819 341.333 341.333 341.333z" />
<glyph unicode="&#xe931;" glyph-name="chat-upload" d="M511.582 834.995c-23.552 0-42.667-19.115-42.667-42.667v-298.666h-298.665c-23.552 0-42.667-19.115-42.667-42.667s19.115-42.667 42.667-42.667h298.665v-298.667c0-23.552 19.115-42.667 42.667-42.667s42.667 19.115 42.667 42.667v298.667h298.667c23.552 0 42.667 19.115 42.667 42.667s-19.115 42.667-42.667 42.667h-298.667v298.666c0 23.552-19.115 42.667-42.667 42.667z" />
<glyph unicode="&#xe932;" glyph-name="chat-useless" d="M522.24 857.6c-226.222 0-409.6-183.378-409.6-409.6s183.378-409.6 409.6-409.6c226.222 0 409.6 183.378 409.6 409.6s-183.378 409.6-409.6 409.6zM522.24 775.68c180.961 0 327.68-146.719 327.68-327.68s-146.719-327.68-327.68-327.68c-180.961 0-327.68 146.719-327.68 327.68s146.719 327.68 327.68 327.68zM358.4 488.96c-22.61 0-40.96-18.35-40.96-40.96s18.35-40.96 40.96-40.96h327.68c22.61 0 40.96 18.35 40.96 40.96s-18.35 40.96-40.96 40.96h-327.68z" />
<glyph unicode="&#xe933;" glyph-name="chat-voice" d="M520.95 283.315h-17.905c-123.054 0-222.796 98.493-222.796 219.962v236.712c0 121.515 99.742 220.010 222.796 220.010h17.905c102.123 0 188.175-67.786 214.512-160.306 3.62-12.685-5.949-25.273-19.246-25.273h-57.979c-17.505 0-31.744-14.008-31.744-31.297v-0.049c0-17.338 14.239-31.346 31.744-31.346h53.468c17.705 0 32.092-14.155 32.092-31.64s-14.387-31.64-32.092-31.64h-53.468c-17.505 0-31.744-14.056-31.744-31.395 0-17.289 14.239-31.346 31.744-31.346h53.468c17.705 0 32.092-14.155 32.092-31.689 0-17.436-14.387-31.591-32.092-31.591h-53.468c-17.505 0-31.744-14.056-31.744-31.395 0-17.29 14.239-31.298 31.744-31.298h55.153c13.594 0 23.311-13.128 19.046-25.861-29.409-87.475-112.932-150.559-211.486-150.559zM848.005 510.322c0 27.085 22.221 48.978 49.597 48.978s49.597-21.894 49.597-48.978c0-220.356-168.929-402.31-385.577-426.748v-98.596c0-27.034-22.22-48.978-49.598-48.978-27.428 0-49.598 21.944-49.598 48.978v98.596c-216.695 24.438-385.627 206.392-385.627 426.748 0 27.085 22.22 48.978 49.598 48.978s49.598-21.894 49.598-48.978c0-182.934 150.729-331.777 336.028-331.777 185.248 0 335.981 148.844 335.981 331.777z" />
<glyph unicode="&#xe934;" glyph-name="check" d="M682.112 575.917c-10.88 0-22.272-3.67-30.592-11.99l-158.293-159.997c-10.965-11.008-21.973-8.96-30.592 3.968l-42.537 64c-13.056 19.627-40.321 25.084-59.862 12.028-19.541-13.094-25.003-40.405-11.989-59.989l42.582-63.996c38.398-57.771 113.321-65.109 162.26-16.043l159.616 158.677c16.597 16.683 16.597 44.669 0 61.352-8.32 8.32-19.712 11.99-30.592 11.99z" />
<glyph unicode="&#xe935;" glyph-name="claim" d="M512.252 832.396c-31.765 0-64.081-6.144-89.337-18.688l-270.665-134.784c-16.282-8.875-24-23.254-24-38.699v-317.61c0-51.243 35.349-107.904 81.331-130.773l224.002-110.763c44.796-22.229 112.542-22.229 157.338 0l224 110.763c46.37 23.040 81.331 79.104 81.331 130.773v317.61c0 15.445-7.804 31.104-24 38.699l-270.665 134.784c-25.254 12.544-57.57 18.688-89.335 18.688zM461.585 737.719c26.598 13.227 74.731 13.227 101.333 0l25.331-11.989-246.666-122.667c-29.717 14.635-46.315 23.253-74.667 37.333l194.668 97.323zM682.918 677.729l74.667-37.333-194.667-96c-26.598-13.226-74.731-13.226-101.333 0-2.999 1.493-18.965 9.515-24 11.989l245.333 121.344zM213.583 571.063c39.326-19.584 72.23-34.944 114.667-55.978 35.298-17.536 82.304-41.387 94.379-46.976 18.498-8.576 31.033-12.629 46.927-15.787l0.030-293.248-222.671 110.677c-17.007 8.405-33.331 34.56-33.331 53.333v247.978zM810.918 571.063v-247.978c0-19.2-17.267-46.037-34.667-54.699l-221.333-109.312 0.124 293.077c15.893 3.115 32.201 8.235 45.367 14.805l210.509 104.106z" />
<glyph unicode="&#xe936;" glyph-name="coinmarketcap" d="M564.48 447.974c0-123.387-103.441-223.411-231.036-223.411s-231.044 100.045-231.044 223.411c0 123.369 103.441 223.426 231.044 223.426s231.036-100.034 231.036-223.426zM817.93 447.98c0-116.147-51.722-210.335-115.523-210.335s-115.523 94.188-115.523 210.335c0 116.144 51.712 210.335 115.512 210.335 63.805 0 115.523-94.161 115.523-210.335h0.010zM880.963 259.543c22.446 0 40.632 84.393 40.632 188.431 0 104.065-18.196 188.426-40.632 188.426-22.431 0-40.622-84.368-40.622-188.426s18.181-188.431 40.622-188.431z" />
<glyph unicode="&#xe937;" glyph-name="customize-avatar" d="M511.903 876.667c-117.82 0-213.333-95.514-213.333-213.333s95.514-213.333 213.333-213.333c117.817 0 213.334 95.514 213.334 213.333s-95.516 213.333-213.334 213.333zM511.903 791.334c70.696 0 128.001-57.306 128.001-128s-57.304-128-128.001-128c-70.694 0-128 57.305-128 128s57.306 128 128 128zM361.238 394c-111.543-30.486-190.669-127.475-190.669-242.664v-85.333c0-23.569 19.102-42.667 42.667-42.667h597.334c23.563 0 42.667 19.098 42.667 42.667v85.333c0 115.189-79.127 212.178-190.669 242.664-9.563 2.616-18.955 1.408-28.001-2.666-39.060-17.602-80.642-26.664-122.664-26.664s-83.605 9.062-122.667 26.664c-9.041 4.074-18.436 5.282-27.998 2.666zM378.569 308.668c43.085-16.293 87.241-29.332 133.333-29.332s90.249 13.039 133.331 29.332c72.681-22.016 122.67-83.365 122.67-157.332v-42.667h-512.001v42.667c0 73.967 49.988 135.316 122.667 157.332z" />
<glyph unicode="&#xe938;" glyph-name="deep-research" d="M573.699 769.263c181.297-19.020 322.312-164.646 322.312-341.474-0.005-189.747-162.39-343.579-362.682-343.579-84.775 0-162.723 27.616-224.474 73.787l-122.158-115.734c-16.005-15.161-41.048-15.161-57.052 0-17.278 16.368-17.278 43.892 0 60.26l118.842 112.635c-39.972 47.988-66.734 106.307-75.053 170.054-3.048 23.362 16.334 42.573 39.895 42.577 23.564 0 42.278-19.249 46.263-42.474 21.433-124.901 135.84-220.257 273.737-220.262 153.166 0 277.313 117.636 277.318 262.737 0 132.136-102.939 241.508-237.002 260-22.113 3.050-40.311 20.838-40.316 43.158 0 22.323 18.165 40.643 40.37 38.316zM234.645 905.421c24.246 0 45.894-15.29 53.948-38.158l27.789-79.106 87.211-27.526c21.768-6.874 36.579-27.067 36.579-49.895-0.004-22.823-14.815-43.021-36.579-49.895l-87.211-27.526-27.789-79.053c-8.050-22.877-29.696-38.21-53.948-38.21-24.241 0.010-45.848 15.342-53.895 38.21l-27.79 79.053-87.21 27.526c-21.765 6.873-36.575 27.071-36.579 49.895 0 22.828 14.811 43.021 36.579 49.895l87.21 27.526 27.79 79.106c8.051 22.859 29.659 38.147 53.895 38.158zM227.171 743.421l-27-25.527-22.579-7.158 22.579-7.105 27-25.579 7.474-21.368 7.526 21.368 27 25.579 22.579 7.105-22.579 7.158-27 25.527-7.526 21.421-7.474-21.421z" />
<glyph unicode="&#xe939;" glyph-name="disconnect" d="M737.873 734.171c16.661 16.661 43.674 16.66 60.335 0 16.661-16.663 16.661-43.672 0-60.334l-512-511.999c-16.662-16.657-43.672-16.661-60.333 0-16.658 16.661-16.657 43.669 0 60.331l15 15.044c-93.251 20.011-155.54 90.854-155.542 207.373 0 139.223 88.917 213.335 213.333 213.335h42.667c23.552 0 42.667-19.115 42.667-42.667-0.003-23.55-19.116-42.667-42.667-42.667h-42.667c-80.384 0-128-39.681-128-128.001 0.002-88.316 47.617-128 128-128h21.625l67.583 67.627c-2.472 5.393-3.874 11.383-3.875 17.707v42.667c0 66.082 21.667 124.535 66.624 164.001 36.693 32.171 86.080 49.333 146.709 49.333h64.29l76.25 76.25zM823.206 606.171c16.666 16.661 43.674 16.66 60.335 0 55.253-55.255 55.194-127.421 55.168-156.418v-3.499c0.009-43.132 0.013-101.235-55.168-156.416-24.764-24.764-58.039-37.973-85.376-45.21-28.011-7.415-55.177-9.958-72.789-9.958h-42.667c-23.565 0.004-42.667 19.106-42.667 42.667 0 23.565 19.102 42.662 42.667 42.667h42.667c10.829 0 30.618 1.741 50.957 7.125 21.018 5.564 37.508 13.675 46.874 23.040 29.402 29.402 30.17 55.804 30.17 97.835 0 29.487-1.246 68.911-30.17 97.833-16.657 16.662-16.657 43.672 0 60.334zM575.040 571.38c-29.547-3.091-52.002-12.418-68.373-26.792-20.113-17.663-32.26-44.518-36.002-77.584l104.375 104.376z" />
<glyph unicode="&#xe93a;" glyph-name="discord" d="M765.793 677.282c82.104-121.579 122.655-258.717 107.5-416.597-0.067-0.666-0.41-1.28-0.957-1.679-62.177-45.983-122.419-73.887-181.816-92.396-0.466-0.138-0.957-0.133-1.418 0.020-0.456 0.159-0.855 0.456-1.137 0.85-13.722 19.231-26.189 39.501-37.115 60.79-0.625 1.254-0.056 2.765 1.239 3.256 19.799 7.516 38.63 16.522 56.74 27.182 1.428 0.845 1.521 2.903 0.2 3.891-3.84 2.872-7.649 5.893-11.295 8.914-0.681 0.558-1.597 0.671-2.371 0.292-117.586-54.682-246.397-54.682-365.373 0-0.773 0.348-1.691 0.23-2.354-0.317-3.635-3.021-7.452-6.016-11.26-8.888-1.318-0.988-1.209-3.046 0.227-3.891 18.111-10.46 36.941-19.666 56.716-27.218 1.282-0.492 1.89-1.966 1.254-3.22-10.687-21.315-23.156-41.59-37.133-60.815-0.609-0.778-1.608-1.137-2.553-0.845-59.116 18.509-119.358 46.413-181.537 92.396-0.518 0.399-0.891 1.039-0.945 1.71-12.668 136.561 13.15 274.834 107.399 416.594 0.227 0.375 0.572 0.668 0.972 0.842 46.375 21.435 96.058 37.204 147.985 46.21 0.945 0.146 1.89-0.293 2.381-1.135 6.416-11.441 13.75-26.111 18.712-38.101 54.735 8.42 110.326 8.42 166.206 0 4.961 11.733 12.042 26.66 18.432 38.101 0.225 0.418 0.579 0.752 1.004 0.956 0.43 0.204 0.911 0.267 1.377 0.179 51.953-9.033 101.637-24.802 147.973-46.21 0.41-0.174 0.748-0.466 0.947-0.869zM457.681 417.633c0.572 40.369-28.654 73.775-65.341 73.775-36.387 0-65.332-33.113-65.332-73.775 0-40.658 29.517-73.769 65.332-73.769 36.397 0 65.341 33.111 65.341 73.769zM699.254 417.633c0.568 40.369-28.657 73.775-65.336 73.775-36.393 0-65.336-33.113-65.336-73.775 0-40.658 29.517-73.769 65.336-73.769 36.68 0 65.336 33.111 65.336 73.769z" />
<glyph unicode="&#xe93b;" glyph-name="discover-agents" d="M206.288 832.056c-43.136 0-78.677-34.219-78.677-77.313v-101.375c0-43.093 35.541-77.313 78.677-77.313h183.979c43.136 0 78.677 34.219 78.677 77.313v101.375c0 43.093-35.541 77.313-78.677 77.313h-183.979zM639.613 832.056c-47.15 0-85.336-38.187-85.336-85.333v-256c0-47.147 38.186-85.333 85.336-85.333h170.667c47.144 0 85.333 38.187 85.333 85.333v256c0 47.147-38.19 85.333-85.333 85.333h-170.667zM212.944 746.722h170.667v-85.333h-170.667v85.333zM639.613 746.722h170.667v-256h-170.667v256zM212.944 490.722c-47.147 0-85.333-38.187-85.333-85.333v-255.999c0-47.15 38.187-85.333 85.333-85.333h170.667c47.147 0 85.333 38.184 85.333 85.333v255.999c0 47.147-38.187 85.333-85.333 85.333h-170.667zM212.944 405.389h170.667v-255.999h-170.667v255.999zM632.957 320.057c-43.139 0-78.68-34.219-78.68-77.312v-102.702c0-43.093 35.541-75.986 78.68-75.986h183.979c43.133 0 78.677 32.893 78.677 75.986v102.702c0 43.093-35.544 77.312-78.677 77.312h-183.979zM639.613 234.724h170.667v-85.333h-170.667v85.333z" />
<glyph unicode="&#xe93c;" glyph-name="download" d="M810.5 748.667c0 70.698-57.301 128-128 128h-341.333c-70.699 0-128-57.302-128-128v-597.332c0-70.699 57.302-128 128-128h341.333c70.699 0 128 57.301 128 128v597.332zM725.167 748.667v-554.666c-77.568 0-349.099 0-426.667 0v554.666c0 23.552 19.115 42.667 42.667 42.667h341.333c23.552 0 42.667-19.115 42.667-42.667zM554.5 108.668c0-23.552-19.115-42.667-42.667-42.667s-42.667 19.115-42.667 42.667c0 23.552 19.115 42.667 42.667 42.667s42.667-19.115 42.667-42.667z" />
<glyph unicode="&#xe93d;" glyph-name="exit-fullscreen" d="M853.491 832.396c-10.923 0-22.357-3.67-30.677-11.99l-170.667-170.667-97.323 97.323v-255.999h256l-97.323 97.322 170.667 170.667c16.64 16.683 16.64 44.672 0 61.354-8.32 8.32-19.755 11.99-30.677 11.99zM213.49 405.73l97.323-97.323-170.667-170.667c-16.64-16.683-16.64-44.672 0-61.355 8.32-8.32 19.754-11.989 30.677-11.989s22.357 3.669 30.677 11.989l170.666 170.667 97.324-97.323v256h-256.001z" />
<glyph unicode="&#xe93e;" glyph-name="eye" d="M512.112 789.427c-126.251 0-232.619-62.037-320-164.010-29.909-34.859-56.063-72.107-77.311-109.313-12.885-22.528-20.737-39.935-25.345-50.687-4.608-10.709-4.608-23.936 0-34.645 4.608-10.752 12.459-28.159 25.345-50.686 21.248-37.205 47.402-74.456 77.311-109.312 87.381-101.973 193.749-164.011 320-164.011s232.62 62.037 320.002 164.011c29.906 34.856 56.064 72.107 77.312 109.312 12.885 22.526 20.736 39.934 25.344 50.686 4.608 10.709 4.608 23.936 0 34.645-4.608 10.752-12.459 28.159-25.344 50.687-21.248 37.205-47.406 74.454-77.312 109.313-87.381 101.973-193.752 164.010-320.002 164.010zM512.112 618.761c94.25 0 170.668-76.415 170.668-170.666s-76.419-170.664-170.668-170.664c-94.251 0-170.667 76.413-170.667 170.664s76.416 170.666 170.667 170.666zM512.112 533.428c-47.147 0-85.333-38.187-85.333-85.333s38.187-85.331 85.333-85.331c47.147 0 85.335 38.184 85.335 85.331s-38.188 85.333-85.335 85.333z" />
<glyph unicode="&#xe93f;" glyph-name="feedback" d="M340.937 835c-117.82 0-213.333-95.531-213.333-213.333 0-100.779 56.93-204.715 178.667-366.678 116.949-155.563 145.066-181.717 199.031-188.075 3.618-0.427 9.067-0.555 13.069 0 53.5 6.912 82.867 33.877 198.566 188.075 121.54 162.005 178.667 266.283 178.667 366.678 0 117.803-95.514 213.333-213.333 213.333-72.107 0-135.305-37.077-170.761-85.248-35.089 48.171-98.465 85.248-170.572 85.248zM340.937 749.667c70.69 0 127.999-57.301 127.999-128 0-56.875 85.333-56.875 85.333 0 0 70.699 57.306 128 128 128 70.69 0 128-57.301 128-128 0-74.453-52.924-169.728-162.667-315.99-91.75-122.283-117.423-151.125-134.669-153.344-0.358-0.043-2.355-0.043-2.662 0-17.041 2.005-42.338 30.507-134.668 153.344-109.948 146.261-162.667 241.152-162.667 315.99 0 70.699 57.306 128 128 128z" />
<glyph unicode="&#xe940;" glyph-name="fullscreen" d="M243.25 789.427c-86.921 0-157.333-68.992-157.333-154.667v-373.333c0-85.675 70.413-154.667 157.333-154.667h538.668c86.921 0 157.333 68.992 157.333 154.667v373.333c0 85.675-70.409 154.667-157.333 154.667h-538.668zM243.25 704.094h538.668c40.324 0 72-31.317 72-69.333v-373.333c0-38.016-31.676-69.333-72-69.333h-538.668c-40.324 0-72 31.317-72 69.333v373.333c0 38.016 31.676 69.333 72 69.333zM299.25 618.761c-23.565 0-42.667-19.115-42.667-42.667v-128c0-23.552 19.102-42.667 42.667-42.667s42.667 19.115 42.667 42.667v85.333h85.335c23.565 0 42.667 19.115 42.667 42.667s-19.102 42.667-42.667 42.667h-128.001zM725.918 490.761c-23.565 0-42.667-19.115-42.667-42.667v-85.333h-85.333c-23.565 0-42.667-19.115-42.667-42.667s19.102-42.667 42.667-42.667h128c23.565 0 42.667 19.115 42.667 42.667v128c0 23.552-19.102 42.667-42.667 42.667z" />
<glyph unicode="&#xe941;" glyph-name="github" d="M512 755.2c-169.728 0-307.2-140.949-307.2-314.972 0-139.372 87.936-257.091 210.048-298.824 15.36-2.76 21.12 6.692 21.12 14.961 0 7.48-0.384 32.282-0.384 58.66-77.184-14.566-97.152 19.292-103.296 37.012-3.456 9.052-18.432 37.007-31.488 44.488-10.752 5.903-26.112 20.475-0.384 20.864 24.192 0.394 41.472-22.835 47.232-32.282 27.648-47.642 71.808-34.253 89.472-25.984 2.688 20.47 10.752 34.253 19.584 42.127-68.352 7.875-139.776 35.041-139.776 155.515 0 34.253 11.904 62.601 31.488 84.648-3.072 7.875-13.824 40.159 3.072 83.467 0 0 25.728 8.268 84.48-32.285 24.576 7.087 50.688 10.63 76.8 10.63s52.224-3.543 76.8-10.63c58.752 40.946 84.48 32.285 84.48 32.285 16.896-43.309 6.144-75.593 3.072-83.467 19.584-22.048 31.488-50.001 31.488-84.648 0-120.868-71.808-147.64-140.16-155.515 11.136-9.846 20.736-28.744 20.736-58.271 0-42.127-0.384-75.986-0.384-86.615 0-8.269 5.76-18.115 21.12-14.961 121.344 41.733 209.28 159.846 209.28 298.824 0 174.023-137.472 314.972-307.2 314.972z" />
<glyph unicode="&#xe942;" glyph-name="header-mobile" d="M767.834 748.667c0 70.698-57.301 128-128 128h-256c-70.699 0-128-57.302-128-128v-597.332c0-70.699 57.302-128 128-128h256c70.699 0 128 57.301 128 128v597.332zM682.5 748.667v-554.666c-77.568 0-263.765 0-341.333 0v554.666c0 23.552 19.115 42.667 42.667 42.667h256c23.552 0 42.667-19.115 42.667-42.667zM554.5 108.668c0-23.552-19.115-42.667-42.667-42.667s-42.667 19.115-42.667 42.667c0 23.552 19.115 42.667 42.667 42.667s42.667-19.115 42.667-42.667z" />
<glyph unicode="&#xe943;" glyph-name="header-noti" d="M810.667 793.333c-63.445-0.128-105.984-47.147-110.677-50.646-25.131-18.901-52.437-36.266-81.323-50.688-60.672-30.336-126.464-49.067-192-59.989-22.955-3.84-43.69-6.656-62.677-8.021-11.093-0.768-19.030-1.323-22.656-1.323h-87.979c-94.080 0-168.021-76.203-168.021-170.668 0-94.251 76.416-170.667 170.667-170.667v-42.667c0-70.699 57.301-128 128-128s128 57.301 128 128l0.256 14.549c35.925-10.325 72.704-24.32 106.411-41.216 28.715-14.379 56.32-31.915 81.323-50.645 4.693-3.541 52.224-51.072 110.677-50.688 70.059 0.469 128 54.443 128 122.667v437.335c0 68.224-57.088 122.795-128 122.667zM810.667 708c24.192 0 42.667-17.579 42.667-37.333v-437.335c0-19.755-18.475-37.333-42.667-37.333s-42.667 17.579-42.667 37.333c0 107.861 0 329.474 0 437.335 0 19.755 18.475 37.333 42.667 37.333zM682.667 630.303c0-107.308-0.384-248.232-0.384-355.538-8.789 4.907-15.872 8.7-24.96 13.222-68.992 34.603-142.592 57.088-215.979 69.333-44.203 7.381-79.275 9.344-100.011 9.344v170.668c20.736 0 55.85 1.963 100.011 9.344 73.344 12.203 147.029 34.859 215.979 69.333 9.131 4.565 16.512 9.344 25.344 14.293zM253.354 537.333h2.646v-170.668c-47.147 0-85.333 38.187-85.333 85.333 0 47.829 36.224 85.335 82.688 85.335zM341.333 281.331c3.627 0 11.563-0.555 22.656-1.323 18.987-1.365 39.722-4.181 62.677-8.021v-33.323c0-23.552-19.115-42.667-42.667-42.667s-42.667 19.115-42.667 42.667v42.667z" />
<glyph unicode="&#xe944;" glyph-name="header-pc" d="M256 793.333c-70.699 0-128-57.301-128-128v-298.665c-23.552 0-42.667-19.115-42.667-42.667v-85.333c0-72.367 52.992-128 128-128h597.333c75.008 0 128 55.633 128 128v85.333c0 23.552-19.115 42.667-42.667 42.667v298.665c0 70.699-57.301 128-128 128h-512zM256 708h512c23.552 0 42.667-19.115 42.667-42.667v-298.665h-597.333v298.665c0 23.552 19.115 42.667 42.667 42.667zM170.667 281.335h682.667v-42.667c0-26.155-15.744-42.667-42.667-42.667h-597.333c-26.923 0-42.667 16.512-42.667 42.667v42.667z" />
<glyph unicode="&#xe945;" glyph-name="header-pin" d="M640.49 876.679c-11.315 0-22.951-5.909-31.122-13.73-66.074-63.266-86.306-116.173-62.148-188.646-56.367-43.204-91.968-53.807-162.334-53.807-96.192 0-158.997-11.597-201.732-54.302v-1.331c-39.987-39.97-39.987-103.97 0-143.906l119.475-120.406-203.567-203.475c-16.661-16.64-17.902-44.588-1.241-61.228 16.666-16.684 44.672-16.684 61.338 0l204.322 204.373 119.676-119.081c39.991-39.98 104.008-39.98 144 0h1.335c42.753 42.708 54.665 97.448 54.665 201.214 0 65.963 13.538 112.512 54.526 161.494 78.892-23.126 124.782-0.982 189.477 63.688 8.002 8 11.995 19.34 11.995 30.652 0 15.005-3.789 38.007-13.334 66.628-15.367 46.084-41.838 92.45-83.997 134.588-42.16 42.133-88.554 68.587-134.666 83.95-28.638 9.541-51.653 13.325-66.667 13.325zM657.014 789.015c45.33-8.414 90.966-38.421 123.471-70.912 32.512-32.486 60.197-72.277 71.651-124.428-40.726-39.066-65.631-42.155-106.364-20.715-16.245 8.555-36.832 5.53-49.815-7.45-77.696-77.654-98.134-148.096-98.134-243.158 0-82.773-4.868-113.537-30.668-141.266-7.284-7.856-17.332-6.656-23.996 0l-300.002 299.815c-6.665 6.656-6.46 15.19-1.088 21.718 15.241 18.56 49.161 32.976 142.422 32.925 111.488-0.064 170.756 28.646 244.002 97.276 12.984 12.979 16.209 32.887 7.996 49.306-21.939 43.857-18.517 66.973 20.527 106.888z" />
<glyph unicode="&#xe946;" glyph-name="header-qrcode" d="M383.668 66.999c47.146 0 85.333 38.187 85.333 85.333v170.667c0 47.147-38.187 85.333-85.333 85.333h-170.667c-47.146 0-85.333-38.187-85.333-85.333v-170.667c0-47.147 38.187-85.333 85.333-85.333h170.667zM383.668 152.333h-170.667v170.667h170.667v-170.667zM810.334 493.666c47.147 0 85.333 38.187 85.333 85.335v170.667c0 47.147-38.187 85.334-85.333 85.334h-170.667c-47.147 0-85.333-38.187-85.333-85.334v-170.667c0-47.148 38.187-85.335 85.333-85.335h170.667zM383.668 493.666c47.146 0 85.333 38.187 85.333 85.335v170.667c0 47.147-38.187 85.334-85.333 85.334h-170.666c-47.147 0-85.333-38.187-85.333-85.334v-170.667c0-47.148 38.187-85.335 85.333-85.335h170.666zM810.334 579.001h-170.667v170.667h170.667v-170.667zM383.668 579.001h-170.666v170.667h170.666v-170.667zM597.333 405.333h64c23.564 0 42.667-19.103 42.667-42.667v-64c0-23.564-19.103-42.667-42.667-42.667h-64c-23.564 0-42.667 19.103-42.667 42.667v64c0 23.564 19.103 42.667 42.667 42.667zM789.333 405.333h64c23.564 0 42.667-19.103 42.667-42.667v-64c0-23.564-19.103-42.667-42.667-42.667h-64c-23.564 0-42.667 19.103-42.667 42.667v64c0 23.564 19.103 42.667 42.667 42.667zM597.333 213.333h64c23.564 0 42.667-19.103 42.667-42.667v-64c0-23.564-19.103-42.667-42.667-42.667h-64c-23.564 0-42.667 19.103-42.667 42.667v64c0 23.564 19.103 42.667 42.667 42.667zM789.333 213.333h64c23.564 0 42.667-19.103 42.667-42.667v-64c0-23.564-19.103-42.667-42.667-42.667h-64c-23.564 0-42.667 19.103-42.667 42.667v64c0 23.564 19.103 42.667 42.667 42.667z" />
<glyph unicode="&#xe947;" glyph-name="header-setting" d="M382.677 855.223c-60.501-19.2-112.682-50.517-158.677-93.355-14.208-13.227-18.56-34.902-9.344-51.968 34.176-63.189-1.579-130.816-78.678-134.698-18.859-0.939-35.541-14.934-39.979-33.323-7.637-31.786-10.667-58.41-10.667-93.311 0-29.312 3.157-62.507 9.344-92.032 3.84-18.432 19.883-31.701 38.656-33.323 77.568-6.699 115.968-65.877 81.323-141.312-7.68-16.768-4.182-36.821 9.344-49.365 45.312-41.899 97.365-71.467 158.677-90.667 17.493-5.461 37.248 1.152 48 16 47.445 65.664 116.267 65.877 161.323 0 10.624-15.488 30.080-22.955 48-17.323 59.179 18.645 114.304 50.347 160 91.989 14.080 12.843 17.792 33.621 9.344 50.688-35.499 71.637 5.333 137.387 78.635 138.667 19.456 0.341 36.779 13.099 41.344 32 7.381 30.592 9.344 57.216 9.344 94.677 0 32.171-3.797 63.872-10.667 94.634-4.352 19.499-21.376 33.323-41.344 33.365-72.149 0.128-112.597 71.040-77.312 133.333 9.813 17.323 6.741 38.571-8.021 51.968-46.507 42.24-103.211 75.264-162.645 93.355-18.261 5.547-37.675-1.28-48-17.323-41.216-64.043-118.187-65.152-158.677-1.365-10.368 16.384-30.891 24.533-49.323 18.688zM642.005 764.599c29.141-12.203 52.139-24.96 78.549-44.971-30.976-98.005 21.547-199.807 130.347-224.596 2.688-17.621 2.432-28.288 2.432-46.464 0-21.717 0.299-29.355-2.176-45.056-108.331-22.443-161.92-121.387-131.755-225.963-25.941-18.816-44.501-31.872-77.056-44.459-76.459 77.824-182.613 81.237-260.693-0.512-30.464 13.397-53.888 25.301-77.568 45.312 29.355 106.197-20.267 197.888-130.432 225.707-4.907 19.456-2.944 74.411-0.128 91.093 113.92 27.307 158.806 128.127 130.518 225.236 25.003 18.816 47.488 32.512 76.715 44.373 73.6-74.88 184.106-82.347 261.248 0.299zM512 619.233c-94.251 0-170.667-76.416-170.667-170.666 0-94.293 76.416-170.667 170.667-170.667s170.667 76.373 170.667 170.667c0 94.25-76.416 170.666-170.667 170.666zM512 533.9c47.147 0 85.333-38.228 85.333-85.332 0-47.147-38.187-85.333-85.333-85.333s-85.333 38.187-85.333 85.333c0 47.104 38.187 85.332 85.333 85.332z" />
<glyph unicode="&#xe948;" glyph-name="home" d="M508.71 866.237c-43.392 0.512-85.864-13.824-116.012-43.989l-296-302.636c-12.732-13.013-16.141-31.744-8-48.043l38.664-77.312-1.331-244.011c-0.004-48.256 38.664-86.656 86.664-86.656h178.667c42.554 0 77.327 34.773 77.327 77.312v184.021c0 20.651 16.683 37.333 37.333 37.333h10.667c20.651 0 37.333-16.683 37.333-37.333v-184.021c0-42.539 34.773-77.312 77.355-77.312h178.645c48 0 86.656 38.656 86.656 86.656l-1.323 244.011 38.656 77.312c8.235 16.427 4.992 36.352-7.979 49.365-11.093 11.093-272 272-298.667 298.667-30.933 30.933-75.307 46.166-118.656 46.635zM508.71 780.903c21.461-0.427 42.88-8.235 57.301-22.656 24.789-24.747 236.203-236.161 277.333-277.334l-29.312-57.301c-2.987-6.016-4.053-11.989-4.011-18.688l1.323-254.677c0-0.597-0.427-1.323-1.323-1.323h-170.667v176c0 67.797-54.869 122.667-122.667 122.667h-10.667c-67.797 0-122.66-54.869-122.66-122.667v-176h-170.667c-0.87 0-1.331 0.469-1.331 1.323l1.331 254.677c0.043 6.699-0.998 12.672-3.997 18.688l-29.333 58.624 273.324 280.022c13.184 13.184 34.517 19.115 56.021 18.646z" />
<glyph unicode="&#xe949;" glyph-name="indicator-hub" d="M896.609 751.667c23.552 0 42.667-19.115 42.667-42.667s-19.115-42.667-42.667-42.667h-767.998c-23.552 0-42.667 19.115-42.667 42.667s19.115 42.667 42.667 42.667h767.998zM896.609 580.999c10.923 0 22.318-3.669 30.68-11.989 16.64-16.683 16.64-44.671 0-61.354l-54.659-54.657 54.659-54.657c16.64-16.681 16.64-44.67 0-61.356-16.686-16.64-44.675-16.64-61.355 0l-85.333 85.335c-16.64 16.683-16.64 44.672 0 61.355l85.333 85.333c8.363 8.32 19.752 11.989 30.674 11.989zM640.609 580.999c23.552 0 42.667-19.115 42.667-42.667s-19.115-42.667-42.667-42.667h-511.998c-23.552 0-42.667 19.115-42.667 42.667s19.115 42.667 42.667 42.667h511.998zM640.609 410.333c23.552 0 42.667-19.115 42.667-42.666s-19.115-42.667-42.667-42.667h-511.998c-23.552 0-42.667 19.115-42.667 42.667s19.115 42.666 42.667 42.666h511.998zM896.609 239.667c23.552 0 42.667-19.115 42.667-42.667s-19.115-42.667-42.667-42.667h-767.998c-23.552 0-42.667 19.115-42.667 42.667s19.115 42.667 42.667 42.667h767.998z" />
<glyph unicode="&#xe94a;" glyph-name="insights" d="M427.251 793.333c-188.503 0-341.335-152.832-341.335-341.331 0-23.552 19.115-42.667 42.667-42.667s42.667 19.115 42.667 42.667c0 141.395 114.603 255.998 256.001 255.998s256-114.603 256-255.998c0-94.251-76.416-170.667-170.667-170.667-70.699 0-131.414 42.748-157.356 104.017-8.619 20.395-13.312 43.098-13.312 66.65 0 46.165 18.56 89.47 50.688 121.342 16.725 16.597 16.555 43.264 0 59.989-8.32 8.363-19.754 13.27-30.677 13.313-10.923 0.085-20.992-4.993-29.354-13.313-48.085-47.744-76.587-112.211-75.99-181.331 1.749-206.933 169.984-340.139 341.335-341.333 188.501-1.323 341.333 152.832 341.333 341.333 0 23.552-19.115 42.667-42.667 42.667s-42.667-19.115-42.667-42.667c0-141.397-114.603-256-256-256-15.061 0-27.691 1.152-42.027 3.627 120.363 20.907 212.693 126.037 212.693 252.373 0 188.499-152.832 341.331-341.333 341.331zM512.585 537.334c-47.147 0-85.333-38.185-85.333-85.332s38.187-85.333 85.333-85.333c47.147 0 85.333 38.187 85.333 85.333s-38.187 85.332-85.333 85.332z" />
<glyph unicode="&#xe94b;" glyph-name="kol-radar" d="M342.529 874.722c-94.251 0-170.667-76.417-170.667-170.667v-512.004c-0.256-93.099 76.8-171.56 170.667-170.667h341.333c95.448-0.256 170.923 77.955 170.667 170.667v512.004c0 94.251-76.413 170.667-170.667 170.667h-341.333zM342.529 789.389h341.333c47.15 0 85.333-38.187 85.333-85.333 0 0 0.302-502.742-0.296-510.639-43.776 52.611-110.382 83.968-182.363 83.968-18.344 0-128.338 0-146.685 0-74.155 0-140.161-29.355-182.699-80.765l0.043 507.436c0 47.147 38.187 85.333 85.333 85.333zM513.195 704.055c-94.251 0-170.666-76.417-170.666-170.667s76.415-170.664 170.666-170.664c94.254 0 170.667 76.413 170.667 170.664s-76.413 170.667-170.667 170.667zM513.195 618.721c47.147 0 85.333-38.187 85.333-85.333 0-47.104-38.187-85.333-85.333-85.333s-85.333 38.229-85.333 85.333c0 47.147 38.187 85.333 85.333 85.333zM439.851 192.051c18.347 0 128.341 0 146.685 0 53.806 0 107.822-29.394 133.888-77.266-10.923-5.717-26.192-8.067-36.562-8.067h-341.333c-11.008 0-29.269 2.987-37.291 9.216 23.211 48.088 76.416 76.117 134.613 76.117z" />
<glyph unicode="&#xe94c;" glyph-name="language" d="M512 874.083c-235.648 0-426.667-191.019-426.667-426.668s191.018-426.662 426.667-426.662 426.667 191.014 426.667 426.662c0 235.649-191.019 426.668-426.667 426.668zM512 788.75c56.32 0 118.187-129.365 127.616-298.54l-254.72-0.512c9.387 169.175 70.784 299.052 127.104 299.052zM361.344 754.488c-36.693-71.381-56.32-166.016-61.056-264.492l-127.146 0.384c12.715 116.268 91.007 213.804 188.202 264.108zM662.869 754.275c97.195-50.304 173.483-145.109 188.203-264.577l-127.104 0.384c-4.011 102.402-26.667 192.428-61.099 264.193zM173.397 404.578l127.104 1.067c4.736-98.475 24.49-194.726 61.013-265.34-102.058 51.157-173.44 151.292-188.117 264.273zM384.213 404.237l254.72 0.555c-9.387-169.126-70.613-298.705-126.933-298.705s-118.4 128.981-127.787 298.15zM724.181 404.663l126.549 0.384c-14.677-113.024-86.016-213.973-188.032-264.277 37.888 78.336 56.747 165.419 61.483 263.893z" />
<glyph unicode="&#xe94d;" glyph-name="leaderboard" d="M768.614 448.083c-47.15 0-85.333-38.187-85.333-85.331v-170.667c0-47.15 38.184-85.333 85.333-85.333h85.333c47.144 0 85.333 38.184 85.333 85.333v170.667c0 47.144-38.19 85.331-85.333 85.331h-85.333zM768.614 362.752h85.333v-170.667h-85.333v170.667zM469.945 789.416c-47.147 0-85.333-38.187-85.333-85.333v-511.998c0-47.15 38.187-85.333 85.333-85.333h85.333c47.147 0 85.33 38.184 85.33 85.333v511.998c0 47.147-38.184 85.333-85.33 85.333h-85.333zM469.945 704.083h85.333v-511.998h-85.333v511.998zM171.278 576.083c-47.147 0-85.333-38.187-85.333-85.333v-298.664c0-47.15 38.187-85.333 85.333-85.333h85.333c47.147 0 85.334 38.184 85.334 85.333v298.664c0 47.147-38.187 85.333-85.334 85.333h-85.333zM171.278 490.75h85.333v-298.664h-85.333v298.664z" />
<glyph unicode="&#xe94e;" glyph-name="liquidity" d="M255.667 831.745c-70.699 0-128-57.301-128-128s57.301-128 128-128c51.968 0 99.285 32.597 118.656 80 46.763-14.976 73.174-67.712 94.678-208.001 15.445-100.779 33.323-172.245 59.989-213.333h-71.979c-15.659 26.923-43.052 42.667-73.345 42.667-47.147 0-85.333-38.229-85.333-85.333 0-47.147 38.187-85.333 85.333-85.333 30.293 0 58.625 16.128 73.345 42.667h189.312c17.579-51.029 67.712-85.333 121.344-85.333 70.699 0 128 57.301 128 128s-57.301 128-128 128c-51.968 0-99.072-30.421-118.656-80-50.389 18.816-69.163 63.019-93.355 208-16.768 100.566-33.835 172.033-61.312 213.334l71.979 1.323c13.909-26.709 43.051-43.989 73.344-43.989 47.147 0 85.333 38.229 85.333 85.333 0 47.147-38.187 85.333-85.333 85.333-30.293 0-58.368-15.403-74.667-42.667h-187.99c-20.053 51.029-67.712 85.333-121.344 85.333zM255.667 746.412c23.552 0 42.666-19.115 42.666-42.667s-19.115-42.667-42.666-42.667c-23.552 0-42.667 19.115-42.667 42.667 0 11.776 4.267 22.954 11.989 30.677s18.901 11.99 30.677 11.99zM767.667 234.411c23.552 0 42.667-19.115 42.667-42.667s-19.115-42.667-42.667-42.667c-23.552 0-42.667 19.115-42.667 42.667s19.115 42.667 42.667 42.667z" />
<glyph unicode="&#xe94f;" glyph-name="loading" d="M469.333 789.333c0 23.564 19.103 42.667 42.667 42.667 212.053 0 384-171.944 384-384 0-212.053-171.947-384-384-384-212.056 0-384 171.947-384 384 0 23.564 19.103 42.667 42.667 42.667s42.667-19.103 42.667-42.667c0-164.927 133.739-298.667 298.667-298.667s298.667 133.74 298.667 298.667c0 164.928-133.74 298.667-298.667 298.667-23.564 0-42.667 19.103-42.667 42.667z" />
<glyph unicode="&#xe950;" glyph-name="logo-big" d="M421.159 448c0 76.244 61.996 138.067 138.453 138.067s138.451-61.824 138.451-138.067-61.992-138.067-138.451-138.067c-76.457 0-138.453 61.824-138.453 138.067zM485.258 448c0-40.96 33.28-74.147 74.354-74.147s74.353 33.187 74.353 74.147-33.28 74.147-74.353 74.147c-41.074 0-74.354-33.187-74.354-74.147zM744.218 448c0 76.244 61.998 138.067 138.453 138.067s138.453-61.824 138.453-138.067c0-76.244-61.998-138.067-138.453-138.067s-138.453 61.824-138.453 138.067zM808.316 448c0-40.96 33.28-74.147 74.355-74.147s74.355 33.187 74.355 74.147c0 40.96-33.28 74.147-74.355 74.147s-74.355-33.187-74.355-74.147zM2.876 580.954h67.021l52.664-171.715 35.896 88.619c4.717 11.608 15.999 19.176 28.511 19.176h25.537c12.564 0 23.845-7.568 28.511-19.176l35.895-88.619 19.742 64.329h67.021l-41.946-136.789c-3.949-12.886-15.897-21.732-29.434-21.732h-23.486c-12.564 0-23.845 7.568-28.511 19.176l-40.562 100.073-40.562-100.073c-4.717-11.608-15.999-19.176-28.511-19.176h-23.486c-13.538 0-25.486 8.795-29.434 21.732l-74.867 244.175zM309.987 517.034l19.588 63.92h67.073l-19.64-63.92h-67.021z" />
<glyph unicode="&#xe951;" glyph-name="logout" d="M896.609 661.722c0 94.251-76.413 170.667-170.667 170.667h-170.664c-94.251 0-170.667-76.416-170.667-170.667 0-23.552 19.115-42.667 42.667-42.667s42.667 19.115 42.667 42.667c0 47.147 38.187 85.333 85.333 85.333h170.664c47.15 0 85.333-38.187 85.333-85.333v-426.669c0-47.144-38.184-85.333-85.333-85.333h-170.664c-47.147 0-85.333 38.19-85.333 85.333 0 23.552-19.115 42.667-42.667 42.667s-42.667-19.115-42.667-42.667c0-94.248 76.416-170.667 170.667-170.667h170.664c94.254 0 170.667 76.419 170.667 170.667v426.669zM597.942 448.389c0 23.552-19.115 42.667-42.664 42.667h-298.667v128l-170.667-170.667 170.667-170.669v128.002h298.667c23.55 0 42.664 19.115 42.664 42.667z" />
<glyph unicode="&#xe952;" glyph-name="market-pulse" d="M490.842 871.045l-298.666-170.667c-28.672-16.38-28.672-58.287 0-74.667 37.333-21.333 261.333-149.333 298.666-170.667 13.099-7.497 29.525-7.497 42.667 0l298.667 170.667c28.672 16.379 28.672 58.287 0 74.667l-298.667 170.667c-13.099 7.496-29.525 7.496-42.667 0zM512.176 784.379l212.008-121.335-212.008-121.335c-44.032 25.165-140.202 80.298-212.010 121.335l212.010 121.335zM202.843 491.046c-10.539-2.876-20.821-9.77-26.667-20.002-11.691-20.459-4.437-46.976 16-58.667l298.666-170.668c13.099-7.492 29.525-7.492 42.667 0l298.667 170.668c20.48 11.691 27.688 38.208 15.997 58.667s-38.184 27.691-58.664 16l-277.334-158.671-277.333 158.671c-10.24 5.845-21.461 6.873-32 4.002zM202.843 277.714c-10.539-2.879-20.821-9.774-26.667-20.002-11.691-20.457-4.437-46.979 16-58.67l298.666-170.667c13.099-7.492 29.525-7.492 42.667 0l298.667 170.667c20.48 11.691 27.688 38.212 15.997 58.67s-38.184 27.688-58.664 15.997l-277.334-158.669-277.333 158.669c-10.24 5.848-21.461 6.878-32 4.005z" />
<glyph unicode="&#xe953;" glyph-name="marketplace" d="M255.611 835c-16.171 0-31.445-9.557-38.656-23.979l-85.333-170.667c-1.536-3.072-4.011-15.061-4.011-18.687 0-42.667 21.974-76.331 42.369-94.891l0.298-374.444c-23.552 0-42.667-19.115-42.667-42.667s19.115-42.667 42.667-42.667h682.669c23.552 0 42.667 19.115 42.667 42.667s-19.115 42.667-42.667 42.667l-0.427 373.506c20.349 18.56 43.093 53.163 43.093 95.829 0 3.627-2.475 15.615-4.011 18.687l-85.333 170.667c-7.214 14.421-22.488 23.979-38.656 23.979h-512.002zM282.278 749.666h458.666l69.547-137.344c-2.77-15.403-21.458-33.323-42.877-33.323-23.552 0-42.667 19.115-42.667 42.667s-19.115 42.667-42.667 42.667c-11.776 0-22.955-4.267-30.68-11.989-7.72-7.723-11.986-18.901-11.986-30.677 0-23.552-19.115-42.667-42.667-42.667s-42.669 19.115-42.669 42.667c0 23.552-19.115 42.667-42.667 42.667-11.776 0-22.954-4.267-30.677-11.989s-11.99-18.901-11.99-30.677c0-23.552-19.115-42.667-42.667-42.667s-42.667 19.115-42.667 42.667c0 23.552-19.115 42.667-42.667 42.667-11.776 0-22.954-4.267-30.677-11.989s-11.99-18.901-11.99-30.677c0-23.552-19.115-42.667-42.667-42.667-21.419 0-38.784 13.824-41.771 34.432l68.437 136.235zM340.858 526.862c22.741-20.693 52.225-33.195 85.419-33.195s62.336 11.648 85.077 32.384c22.741-20.736 52.395-32.384 85.592-32.384 33.195 0 62.674 12.373 85.419 33.066 22.784-20.693 52.053-33.066 85.248-33.066v-341.335h-512.002v341.335c33.195 0 62.506 12.502 85.247 33.195zM383.611 451c-23.552 0-42.667-19.115-42.667-42.667v-128.001c0-23.552 19.115-42.667 42.667-42.667h256.002c23.552 0 42.667 19.115 42.667 42.667v128.001c0 23.553-19.115 42.667-42.667 42.667s-42.667-19.115-42.667-42.667v-85.334h-170.669v85.334c0 23.553-19.115 42.667-42.667 42.667z" />
<glyph unicode="&#xe954;" glyph-name="mobile-menu" d="M127.958 699.583c-23.552 0-42.667-19.115-42.667-42.667s19.115-42.667 42.667-42.667h767.999c23.552 0 42.667 19.115 42.667 42.667s-19.115 42.667-42.667 42.667h-767.999zM127.958 486.251c-23.552 0-42.667-19.115-42.667-42.667s19.115-42.667 42.667-42.667h767.999c23.552 0 42.667 19.115 42.667 42.667s-19.115 42.667-42.667 42.667h-767.999zM127.958 272.917c-23.552 0-42.667-19.115-42.667-42.667s19.115-42.667 42.667-42.667h767.999c23.552 0 42.667 19.115 42.667 42.667s-19.115 42.667-42.667 42.667h-767.999z" />
<glyph unicode="&#xe955;" glyph-name="play" d="M386.745 831.988c-71.595 0.947-127.531-54.699-129.323-129.331-1.408-59.503-1.579-138.432-1.323-235.982 0.128-56.235 1.28-265.899 1.323-274.688 0.64-72.96 57.558-128 129.323-128 20.992 0 43.22 4.395 66.686 18.688 26.624 16.171 86.869 59.989 174.677 126.635 3.456 2.645 170.624 132.224 177.323 137.344 37.888 28.928 51.285 69.248 49.323 103.979-0.725 13.099-2.219 24.704-6.656 38.699-7.211 22.656-19.072 42.752-38.656 57.324-21.76 16.162-175.019 132.886-177.365 134.669-91.435 69.568-150.059 112.29-179.968 131.997-21.845 14.391-40.020 18.701-63.999 18.667-1.365 0-0.596-0.004-1.364 0z" />
<glyph unicode="&#xe956;" glyph-name="portfolio" d="M511.962 876.667c-235.649 0-425.857-191.019-426.668-426.666-0.811-235.307 191.232-427.52 426.668-427.989s427.093 194.347 426.667 427.989c-0.427 235.647-191.019 426.666-426.667 426.666zM511.962 791.334c188.501 0 341.333-152.832 341.333-341.332 0-96-39.979-182.528-103.765-244.565-31.445 67.968-98.901 116.565-176.256 116.565-15.317 0-107.307 0-122.667 0-77.227 0-144.555-48-176-116.011-63.744 62.037-103.979 148.011-103.979 244.011 0 188.5 152.832 341.332 341.334 341.332zM511.962 706c-94.252 0-170.668-76.416-170.668-170.667s76.416-170.666 170.668-170.666c94.251 0 170.667 76.416 170.667 170.666s-76.416 170.667-170.667 170.667zM511.962 620.667c47.147 0 85.333-38.187 85.333-85.333s-38.187-85.332-85.333-85.332c-47.147 0-85.334 38.187-85.334 85.332s38.188 85.333 85.334 85.333zM450.607 236.668c15.36 0 107.349 0 122.667 0 47.616 0 90.709-34.731 105.813-83.669-60.928-35.968-128.981-44.331-167.125-44.331-39.168 0-104.15 8.789-166.614 43.221 14.976 49.365 58.070 84.779 105.26 84.779z" />
<glyph unicode="&#xe957;" glyph-name="preference" d="M276.526 832.069c-38.178 0-76.092-14.763-105.22-43.776-58.257-58.027-58.262-151.637 0-209.663 24.179-24.064 61.312-36.608 110.549-42.453 20.143-2.389 39.075-2.56 59.089-2.773 0-42.667 0.235-132.223 0-170.668-17.749 0.046-35.682 0.859-51.098-0.381-51.337-4.050-90.867-16.213-118.541-43.776-58.257-58.027-58.262-152.957 0-210.984 58.253-58.027 152.187-58.027 210.441 0 24.183 24.104 36.796 62.379 42.624 111.445 2.376 20.093 1.685 38.394 1.907 58.362 61.568-0.381 130.901 0.256 170.664 0-0.040-17.664-1.957-35.026-0.762-50.386 4.096-51.16 16.299-90.493 43.941-118.101 58.283-58.027 152.195-58.027 210.478 0 58.237 58.027 58.237 151.637 0 209.664-24.195 24.064-61.315 36.654-110.552 42.456-20.139 2.389-37.757 1.49-57.771 1.701 0.387 62.338-0.256 132.226 0 170.668 19.371-0.085 35.499 0.299 51.115 1.451 51.627 3.883 90.795 16.171 118.528 43.776 58.243 58.027 58.243 151.637 0 209.663-29.138 29.013-67.026 43.776-105.216 43.776-38.184 0-76.117-14.763-105.216-43.776-27.688-27.605-41.21-66.987-45.306-118.101-1.24-15.744-0.171-33.366 0-51.755-49.624-0.171-163.8 0-169.134 0 0.085 18.346-0.085 35.968-1.344 51.755-4.075 51.157-16.273 90.496-43.955 118.101-29.129 29.013-67.042 43.776-105.221 43.776zM276.526 747.163c16.362 0 33.165-5.804 45.286-18.604 11.038-11.648 17.643-21.375 19.222-42.708 1.054-14.251-0.090-32.939-0.090-67.115l-64.635 0.213c-22.003-0.469-40.141 13.398-44.365 17.622-24.969 24.875-25.331 66.388-0.363 91.263 12.484 12.459 28.582 19.285 44.945 19.328zM746.701 747.163c16.344 0 32.814-6.145 45.272-18.604 24.957-24.875 25.429-66.302 0.466-91.177-5.928-5.931-16.765-18.731-45.010-19.201-22.403-0.384-31.96 0.555-65.155 0.555 0 31.787 0.341 42.581 0.171 63.872-0.171 22.571 12.8 39.807 18.944 45.951 12.504 12.459 28.928 18.561 45.312 18.604zM426.277 533.403h170.664v-170.668h-170.664v170.668zM682.274 277.402c30.595 0 43.526 0.131 64.984 0.302 24.018 0.256 39.208-14.29 45.653-20.434 24.661-23.427 22.357-65.24-2.179-90.539-19.456-20.053-61.952-24.024-85.373-3.374-4.739 4.181-23.211 20.053-23.040 49.237 0.125 15.275-0.046 36.523-0.046 64.808zM340.944 277.402c0-30.379 0.883-42.877 0.171-66.219-0.589-19.2-10.189-32.722-19.302-42.536-23.949-25.856-65.604-24.878-90.573 0-24.969 24.872-24.964 65.32 0 90.197 5.935 5.928 25.033 18.773 40.9 18.557 26.854-0.296 34.931 0 68.804 0z" />
<glyph unicode="&#xe958;" glyph-name="receive" d="M213.657 789.333c10.923 0 22.314-3.67 30.677-11.99l523.99-523.989v194.645h85.333v-298.667c0-23.552-19.115-42.667-42.667-42.667h-298.667v85.333h194.645l-523.99 523.99c-16.64 16.683-16.64 44.671 0 61.354 8.363 8.32 19.755 11.99 30.677 11.99z" />
<glyph unicode="&#xe959;" glyph-name="required" d="M511.783 713.277c-44.26 0-89.012-44.729-78.809-88.496 4.285-18.518 14.905-43.531 34.55-77.429 9.557-16.472-11.302-28.976-20.745-12.447-19.038 33.386-34.551 56.127-48.393 69.139-33.754 31.774-94.018 14.809-116.13-23.506-22.11-38.32-5.65-98.949 37.319-111.996 18.204-5.536 43.767-8.381 82.982-8.306 19.381 0.039 19.987-23.59 1.365-23.514-38.418 0.228-64.777-2.806-82.943-8.267-44.412-13.388-60.834-73.69-38.723-112.034 22.112-38.304 81.959-55.561 114.764-24.879 13.881 13.008 30.265 35.157 49.758 69.138 9.444 16.384 30.189 3.68 20.745-12.439-19.38-33.186-30.189-57.572-34.55-76.041-10.62-45.132 34.55-89.884 78.809-89.884s87.609 44.715 77.445 88.48c-4.324 18.546-14.905 43.539-34.588 77.445-10.24 17.636 12.136 30 22.148 12.439 19.040-33.374 34.551-54.727 48.394-67.735 33.753-31.782 94.018-16.194 116.128 22.11 22.112 38.306 5.651 98.949-37.319 111.996-18.204 5.536-45.17 8.381-84.347 8.306-19.76-0.039-19.38 24.992 0 24.879 38.419-0.189 66.142 2.844 84.347 8.306 44.411 13.351 59.431 73.676 37.319 111.996-22.11 38.316-81.958 54.204-114.763 23.506-13.881-12.993-30.265-33.769-49.76-67.755-10.012-17.419-32.085-5.944-22.148 11.063 19.38 33.181 30.226 57.564 34.588 76.049 10.619 45.139-33.186 89.876-77.445 89.876z" />
<glyph unicode="&#xe95a;" glyph-name="run" d="M386.746 831.988c-71.595 0.947-127.531-54.699-129.323-129.331-1.408-59.503-1.579-138.433-1.323-235.982 0.128-56.234 1.28-265.898 1.323-274.688 0.64-72.96 57.557-128 129.323-128 20.992 0 43.219 4.397 66.688 18.688 26.624 16.173 86.867 59.99 174.675 126.637 3.456 2.643 170.624 132.224 177.325 137.344 37.888 28.928 51.283 69.248 49.322 103.978-0.726 13.098-2.218 24.704-6.656 38.698-7.21 22.656-19.072 42.752-38.656 57.325-21.76 16.16-175.018 132.884-177.363 134.668-91.437 69.568-150.061 112.29-179.971 131.997-21.843 14.392-40.019 18.701-64 18.667-1.363 0-0.595-0.004-1.363 0z" />
<glyph unicode="&#xe95b;" glyph-name="scan" d="M255.666 834.995c-70.698 0-128-57.301-128-128v-128c0-23.552 19.115-42.667 42.667-42.667s42.666 19.115 42.666 42.667v128c0 23.552 19.115 42.667 42.667 42.667h128c23.552 0 42.667 19.115 42.667 42.667s-19.115 42.667-42.667 42.667h-128zM639.667 834.995c-23.552 0-42.667-19.115-42.667-42.667s19.115-42.667 42.667-42.667h128c23.552 0 42.667-19.115 42.667-42.667v-128c0-23.552 19.115-42.667 42.667-42.667s42.667 19.115 42.667 42.667v128c0 70.699-57.301 128-128 128h-128zM170.333 365.662c-23.552 0-42.667-19.115-42.667-42.667v-128c0-70.699 57.301-128 128-128h128c23.552 0 42.667 19.115 42.667 42.667s-19.115 42.667-42.667 42.667h-128c-23.552 0-42.667 19.115-42.667 42.667v128c0 23.552-19.115 42.667-42.666 42.667zM853.001 365.662c-23.552 0-42.667-19.115-42.667-42.667v-128c0-23.552-19.115-42.667-42.667-42.667h-128c-23.552 0-42.667-19.115-42.667-42.667s19.115-42.667 42.667-42.667h128c70.699 0 128 57.301 128 128v128c0 23.552-19.115 42.667-42.667 42.667z" />
<glyph unicode="&#xe95c;" glyph-name="search" d="M427.333 876.667c-188.514 0-341.333-152.833-341.333-341.334 0-188.504 152.819-341.336 341.333-341.336 78.366 0 152.643 26.926 210.255 71.299l185.742-187.307c16.668-16.64 44.675-16.64 61.338 0 16.663 16.68 16.663 44.669 0 61.355l-187.028 186.027c44.407 57.6 71.026 131.583 71.026 209.962 0 188.502-152.821 341.334-341.332 341.334zM427.333 791.333c141.384 0 255.999-114.603 255.999-256.001s-114.615-256.002-255.999-256.002c-141.385 0-256 114.605-256 256.002s114.615 256.001 256 256.001z" />
<glyph unicode="&#xe95d;" glyph-name="selected" d="M298.238 835c-94.25 0-170.666-76.412-170.666-170.667v-426.666c0-94.256 76.416-170.668 170.666-170.668h426.666c94.253 0 170.665 76.412 170.665 170.668v426.666c0 94.255-76.412 170.667-170.665 170.667h-426.666zM724.675 648.022c9.694 9.247 22.962 13.317 35.689 13.317s26.002-4.070 35.694-13.317c19.434-18.49 19.434-49.567 0-68.057l-347.761-331.426c-19.387-18.49-51.996-18.49-71.382 0l-149.075 142.040c-19.386 18.49-19.386 49.572 0 68.057 19.436 18.49 52.045 18.49 71.431 0l113.335-108.007 312.069 297.392z" />
<glyph unicode="&#xe95e;" glyph-name="send" d="M810.667 106.667c-10.923 0-22.315 3.669-30.677 11.989l-490.666 490.667-118.656-118.656v298.667h298.667l-118.656-118.656 490.667-490.666c16.64-16.683 16.64-44.672 0-61.355-8.363-8.32-19.755-11.989-30.677-11.989z" />
<glyph unicode="&#xe95f;" glyph-name="share-image" d="M255.951 788.111c-94.251 0-170.666-76.416-170.666-170.667v-341.334c0-23.552 4.693-46.251 13.311-66.645 8.789-20.776 21.547-39.083 37.377-54.699 15.275-15.058 33.237-27.517 53.333-36.011 20.693-8.875 42.666-13.312 66.645-13.312h511.998c94.254 0 170.667 76.419 170.667 170.667v341.334c0 94.251-76.413 170.667-170.667 170.667h-511.998zM255.951 702.778h511.998c47.15 0 85.333-38.187 85.333-85.333l0.046-245.716c-86.659 64.725-149.333 59.689-246.699 1.707-85.59 116.948-167.893 181.118-248.021 174.676-62.464-5.035-119.211-44.588-187.52-128.3l-0.47 197.633c0 47.147 38.187 85.333 85.333 85.333zM725.282 617.445c-23.552 0-42.667-19.115-42.667-42.667s19.115-42.667 42.667-42.667c23.552 0 42.667 19.115 42.667 42.667s-19.115 42.667-42.667 42.667zM362.618 462.778c60.672 5.803 120.918-51.371 198.656-167.98 13.099-19.627 40.406-25.088 59.987-12.032 106.581 71.043 133.507 70.446 226.691-19.968-0.171-1.024-1.109-1.661-1.326-2.685-3.88-18.091-11.56-34.475-24.018-46.677-14.979-13.016-33.24-22.659-54.659-22.659h-511.998c-21.931 0-40.405 8.664-54.656 22.659s-24.32 33.365-26.667 54.653c71.595 122.158 130.005 189.142 187.989 194.689z" />
<glyph unicode="&#xe960;" glyph-name="shield" d="M495.903 873.211c-37.504-16-262.528-112.043-299.989-128.043-15.744-6.699-25.344-21.547-25.344-38.656 0-186.88 7.467-270.506 41.344-366.805 44.331-126.077 131.371-226.56 278.656-310.738 13.099-7.509 29.568-7.509 42.667 0 148.606 84.946 236.033 185.088 279.979 310.738 33.451 95.617 40.021 175.147 40.021 366.805 0 17.024-9.688 31.915-25.344 38.656l-297.302 128.043c-10.752 4.608-23.935 4.608-34.687 0zM511.903 789.2l255.83-111.062c3.709-306.136-56.28-440.319-255.446-562.386-204.331 127.101-258.602 262.741-256.511 562.045 58.155 24.832 206.933 90.411 256.127 111.403z" />
<glyph unicode="&#xe961;" glyph-name="signal-scanner" d="M511.917 876.667c-47.104 0-85.453-38.017-85.453-84.95l0.119-85.716h-170.667c-47.109 0-85.333-38.443-85.333-85.333v-170.667c0-46.891 38.225-85.331 85.333-85.331h170.667v-256c0-46.894 38.229-85.333 85.333-85.333s85.331 38.44 85.331 85.333v256h128c11.31 0.040 25.088 3.664 33.070 11.685l125.184 129.24c16.424 16.512 16.384 43.18 0 59.734l-127.875 125.526c-8.021 8.149-18.944 15.189-30.379 15.146h-128v85.333c0 46.891-38.227 85.333-85.331 85.333zM705.109 620.453l87.598-84.948-82.392-86.188c-17.021-0.043-454.398 0.683-454.398 0.683v170.667l449.192-0.214z" />
<glyph unicode="&#xe962;" glyph-name="stake" d="M511.834 876.667c-165.845 0-285.909-49.792-328.363-120.662-11.008-18.347-12.971-38.229-12.971-50.005v-511.999c0-11.776 3.328-31.104 13.696-50.133 37.419-68.48 161.792-120.533 327.638-120.533 165.803 0 281.344 48.469 325.632 116.181 9.557 14.635 15.957 36.437 15.701 54.485v511.999c0 11.776-1.579 24.149-6.912 37.12-33.877 81.835-168.619 133.547-334.421 133.547zM511.834 791.334c74.795 0 144.64-13.228 194.645-34.646 41.685-17.877 61.355-37.461 61.355-50.687s-19.669-32.81-61.355-50.688c-50.005-21.419-119.851-34.646-194.645-34.646s-144.683 13.227-194.688 34.646c-41.685 17.877-61.312 37.461-61.312 50.688s19.627 32.81 61.312 50.687c50.005 21.419 119.893 34.646 194.688 34.646zM255.663 590.458c62.976-36.011 152.96-55.125 256.171-55.125 103.168 0 192.768 18.688 255.787 54.656l0.213-139.988c0-13.227-19.669-32.811-61.355-50.688-50.005-21.419-119.851-34.645-194.645-34.645s-144.683 13.227-194.688 34.645c-41.685 17.877-61.312 37.461-61.312 50.688l-0.171 140.457zM255.877 334.033c60.885-33.024 152.747-54.699 255.957-54.699 103.168 0 191.275 20.096 255.829 54.656l0.171-139.989c0-13.227-19.669-32.811-61.355-50.688-50.005-21.419-119.851-34.645-194.645-34.645s-144.683 13.227-194.688 34.645c-41.685 17.877-61.312 37.461-61.312 50.688l0.043 140.032z" />
<glyph unicode="&#xe963;" glyph-name="style-type" d="M384.667 793.326c-80.128 0-146.773-53.974-165.163-128.427-5.077-0.341-90.837 0.427-90.837 0.427-23.552 0-42.667-19.115-42.667-42.667s19.115-42.667 42.667-42.667c0 0 84.309 0.384 90.496 0 21.376-74.283 85.376-128 165.504-128 79.232 0 145.834 55.082 165.077 128.255l346.922-0.255c23.552 0 42.667 19.115 42.667 42.667s-19.115 42.667-42.667 42.667l-346.367-0.086c-19.243 73.173-86.399 128.086-165.631 128.086zM384.667 707.993c47.147 0 85.333-38.187 85.333-85.333s-38.187-85.333-85.333-85.333c-47.147 0-85.333 38.187-85.333 85.333s38.187 85.333 85.333 85.333zM683.332 451.993c-79.229 0-145.791-54.613-165.034-127.789l-389.631-0.21c-23.552 0-42.667-19.115-42.667-42.667s19.115-42.667 42.667-42.667l389.802-0.085c19.243-73.176 85.634-127.915 164.863-127.915 79.235 0 145.579 54.653 164.824 127.829l48.509 0.171c23.552 0 42.667 19.115 42.667 42.667s-19.115 42.667-42.667 42.667l-48.128 0.040c-19.24 73.174-85.97 127.96-165.205 127.96zM683.332 366.66c47.15 0 85.333-38.19 85.333-85.333 0-47.15-38.184-85.333-85.333-85.333-47.144 0-85.333 38.184-85.333 85.333 0 47.144 38.19 85.333 85.333 85.333z" />
<glyph unicode="&#xe964;" glyph-name="subscription" d="M511.62 874.722c-151.565 0-256-104.449-256-256.001 0-20.693 0-84.053 0-85.333 0-13.739-6.938-23.083-30.669-42.667-2.693-2.219-13.978-11.904-17.331-14.677-53.99-44.629-80.563-86.44-80-155.993 0.567-70.315 57.886-127.186 128-128h135.509c0 0-7.509-26.066-7.509-42.667 0-70.696 57.301-128 128-128 70.7 0 127.999 57.304 127.999 128 0 16.6-7.168 42.667-7.168 42.667h135.168c69.973-0.256 128.085 57.39 128 128-0.085 69.040-26.709 111.577-79.997 155.993-3.499 2.944-15.872 12.373-18.688 14.677-23.211 19.371-29.315 29.099-29.315 42.667 0 53.333 0 85.333 0 85.333 0 151.553-104.448 256.001-255.999 256.001zM511.62 789.389c104.447 0 170.666-66.219 170.666-170.667 0 0 0-32 0-85.333 0-45.312 19.115-73.899 59.989-107.99 3.243-2.688 16.942-13.44 20.014-16 35.755-29.824 47.957-50.008 47.997-89.347 0.046-23.211-19.837-42.752-42.667-42.667-8.061 0.046-132.267 0.046-255.999 0-123.72-0.040-246.934-0.085-256 0-23.817 0.302-42.475 18.99-42.667 42.667-0.316 39.253 11.882 59.477 48 89.347 2.948 2.432 15.565 13.44 18.666 16 41.524 34.304 61.334 62.251 61.334 107.99 0 1.28 0 64.64 0 85.333 0 104.449 66.232 170.667 170.667 170.667zM511.62 192.051c23.552 0 42.667-19.115 42.667-42.667s-19.115-42.667-42.667-42.667c-23.552 0-42.667 19.115-42.667 42.667s19.115 42.667 42.667 42.667z" />
<glyph unicode="&#xe965;" glyph-name="task-detail-his" d="M256.603 789.427c-94.255 0-170.667-76.416-170.667-170.667v-512c0-35.157 39.872-55.765 68.002-34.645l160 119.979h454.663c94.255 0 170.667 76.416 170.667 170.667v256c0 94.251-76.412 170.667-170.667 170.667h-511.999zM256.603 704.094h511.999c47.13 0 85.333-38.187 85.333-85.333v-256c0-47.147-38.204-85.333-85.333-85.333h-469.332c-9.233 0-17.95-2.475-25.335-8.021l-102.665-77.312v426.667c0 47.147 38.204 85.333 85.333 85.333zM299.27 618.761c-23.565 0-42.667-19.115-42.667-42.667s19.102-42.667 42.667-42.667h426.665c23.565 0 42.667 19.115 42.667 42.667s-19.102 42.667-42.667 42.667h-426.665zM299.27 448.094c-23.565 0-42.667-19.115-42.667-42.667s19.102-42.667 42.667-42.667h298.665c23.565 0 42.667 19.115 42.667 42.667s-19.102 42.667-42.667 42.667h-298.665z" />
<glyph unicode="&#xe966;" glyph-name="task-detail" d="M323.854 874.716c-83.243 0-151.979-63.147-151.979-142.677v-567.981c0-79.531 68.736-142.677 151.979-142.677h378.708c83.243 0 151.979 63.147 151.979 142.677 0 27.776 0 332.715 0 411.991 0 0.427 0 0.896 0 1.323 0 152.022-146.731 297.345-298.667 297.345-179.796 0-180.223 0-232.020 0zM323.854 789.382c42.283 0 90.112 0 189.354 0v-113.323c0-79.531 68.736-142.678 151.979-142.678h104.021c0-108.247 0-344.407 0-369.324 0-30.464-28.757-57.344-66.645-57.344h-378.708c-37.888 0-66.645 26.88-66.645 57.344v567.981c0 30.464 28.757 57.344 66.645 57.344zM598.541 784.049c75.605-20.053 145.749-89.941 165.333-165.334h-98.688c-37.931 0-66.645 26.88-66.645 57.344v107.99zM385.208 618.715c-23.552 0-42.667-19.115-42.667-42.667s19.115-42.667 42.667-42.667h42.666c23.552 0 42.667 19.115 42.667 42.667s-19.115 42.667-42.667 42.667h-42.666zM385.208 448.047c-23.552 0-42.667-19.115-42.667-42.667s19.115-42.667 42.667-42.667h255.999c23.552 0 42.667 19.115 42.667 42.667s-19.115 42.667-42.667 42.667h-255.999zM385.208 277.38c-23.552 0-42.667-19.115-42.667-42.667s19.115-42.667 42.667-42.667h255.999c23.552 0 42.667 19.115 42.667 42.667s-19.115 42.667-42.667 42.667h-255.999z" />
<glyph unicode="&#xe967;" glyph-name="task" d="M512.333 876.667c-47.061 0-85.844-38.187-85.844-85.333h-85.077c-47.062 0-85.205-38.187-85.205-85.333l-0.384-85.333c0-6.912 4.394-21.292 4.394-21.292l-77.269-77.353c-16.597-16.683-16.597-43.349 0-60.032l85.248-85.333c7.979-7.979 19.286-11.989 30.592-11.989h127.701v-256c0-47.147 38.27-85.333 85.332-85.333s85.333 38.187 85.333 85.333v256h85.077c47.061 0 85.589 38.187 85.589 85.333v85.332c0 6.699-3.029 21.333-3.029 21.333l75.904 75.989c16.597 16.683 16.597 43.348 0 60.031l-85.244 85.333c-7.979 7.979-19.29 13.313-30.596 13.313h-127.317c0 47.147-38.144 85.333-85.205 85.333zM341.156 706h365.054l43.947-43.99-42.62-41.344c-2.176 0-20.442 0-25.306 0h-341.076v85.333zM317.433 535.334h365.054v-85.332h-366.377l-41.258 41.344 42.581 43.988z" />
<glyph unicode="&#xe968;" glyph-name="think" d="M511.929 876.667c-23.552 0-42.667-19.115-42.667-42.667s19.115-42.667 42.667-42.667c23.552 0 42.667 19.115 42.667 42.667s-19.115 42.667-42.667 42.667zM255.929 748.667c-23.565 0-42.667-19.115-42.667-42.667s19.102-42.667 42.667-42.667c23.565 0 42.667 19.115 42.667 42.667s-19.102 42.667-42.667 42.667zM511.929 748.667c-141.384 0-256-114.603-256-256 0-55.851 17.95-109.48 50.667-153.342 3.618-4.824 34.637-38.059 44.002-49.323 8.414-10.115 14.378-19.502 19.998-27.989 8.602-13.016 13.333-22.574 13.333-25.344v-85.333c0-70.702 57.301-128 128-128s128.002 57.298 128.002 128v85.333c0 2.856 3.499 12.459 11.986 25.344 5.678 8.573 14.080 17.664 22.659 27.989 8.619 10.28 38.525 43.776 42.667 49.323 32.637 43.816 50.688 97.576 50.688 153.342 0 141.397-114.603 256-256.002 256zM767.932 748.667c-23.552 0-42.667-19.115-42.667-42.667s19.115-42.667 42.667-42.667c23.552 0 42.667 19.115 42.667 42.667s-19.115 42.667-42.667 42.667zM511.929 663.334c94.25 0 170.669-76.416 170.669-170.667 0-37.248-11.566-72.107-33.326-101.333-1.195-1.576-30.418-33.576-41.341-46.678-10.496-12.544-19.029-24.445-26.67-35.965-6.912-10.456-11.304-19.16-15.658-28.974-36.309 0-70.656 0-106.965 0-4.352 9.813-9.088 18.478-16.043 28.974-7.552 11.349-16.41 23.637-26.667 35.965-11.754 14.126-40.713 45.824-41.335 46.678-21.811 29.227-33.331 64.043-33.331 101.333 0 94.251 76.412 170.667 170.667 170.667zM170.596 492.667c-23.565 0-42.667-19.115-42.667-42.667s19.102-42.667 42.667-42.667c23.565 0 42.667 19.115 42.667 42.667s-19.102 42.667-42.667 42.667zM853.265 492.667c-23.552 0-42.667-19.115-42.667-42.667s19.115-42.667 42.667-42.667c23.552 0 42.667 19.115 42.667 42.667s-19.115 42.667-42.667 42.667zM469.263 194.002c29.653 0 55.68 0 85.333 0v-42.667c0-23.552-19.115-42.667-42.667-42.667s-42.667 19.115-42.667 42.667v42.667z" />
<glyph unicode="&#xe969;" glyph-name="token-deep-dive" d="M298.611 832.389c-94.251 0-170.667-76.417-170.667-170.668v-426.668c0-94.254 76.416-170.667 170.667-170.667h426.666c94.254 0 170.667 76.413 170.667 170.667v426.668c0 94.251-76.413 170.668-170.667 170.668h-426.666zM298.611 747.055h426.666c47.15 0 85.333-38.187 85.333-85.334v-426.668c0-47.15-38.184-85.333-85.333-85.333h-426.666c-47.147 0-85.333 38.184-85.333 85.333v426.668c0 47.147 38.187 85.334 85.333 85.334zM511.944 661.721c-23.551 0-42.666-19.115-42.666-42.667s19.115-42.667 42.666-42.667c23.552 0 42.667 19.115 42.667 42.667s-19.115 42.667-42.667 42.667zM469.278 533.72c-23.552 0-42.667-19.115-42.667-42.667 0-20.565 15.318-35.925 34.645-40.021l-25.302-122.624c-9.899-49.539 25.515-93.355 75.989-93.355h42.667c23.551 0 42.666 19.115 42.666 42.667s-19.115 42.667-42.666 42.667h-33.323l32 162.646c5.291 26.411-14.421 50.687-41.344 50.687-5.376 0-35.754 0-42.666 0z" />
<glyph unicode="&#xe96a;" glyph-name="tooltip-arrow" d="M512 192l-512 512h1024l-512-512z" />
<glyph unicode="&#xe96b;" glyph-name="twitter" d="M226.298 717.85l237.213-317.174-238.711-257.879h53.725l208.991 225.777 168.859-225.777h182.825l-250.557 335.016 222.188 240.037h-53.724l-192.471-207.935-155.51 207.935h-182.826zM305.304 678.277h83.991l370.888-495.902h-83.988l-370.89 495.902z" />
</font>
</defs>
</svg>
