<?xml version="1.0" standalone="no"?>
<!DOCTYPE svg PUBLIC "-//W3C//DTD SVG 1.1//EN" "http://www.w3.org/Graphics/SVG/1.1/DTD/svg11.dtd" >
<svg xmlns="http://www.w3.org/2000/svg">
<defs>
  <font id="icomoon" horiz-adv-x="1024">
    <font-face font-family="icomoon"
      units-per-em="1024" ascent="960"
      descent="64" />
    <missing-glyph horiz-adv-x="0" />
    <glyph glyph-name="zoom-out"
      unicode="&#xE944;"
      horiz-adv-x="1024" d="M145.0666666666667 21.3333333333334L85.3333333333334 81.0666666666666L366.9333333333334 362.6666666666668H170.6666666666667V448H512V106.6666666666667H426.6666666666667V302.9333333333334L145.0666666666667 21.3333333333334zM512 448V789.3333333333334H597.3333333333333V593.0666666666667L878.9333333333334 874.6666666666666L938.6666666666666 814.9333333333334L657.0666666666666 533.3333333333334H853.3333333333333V448H512z" />
    <glyph glyph-name="zoom-in"
      unicode="&#xE943;"
      horiz-adv-x="1024" d="M128 64V405.3333333333334H213.3333333333333V209.0666666666666L750.9333333333334 746.6666666666667H554.6666666666666V832H896V490.6666666666667H810.6666666666666V686.9333333333334L273.0666666666667 149.3333333333334H469.3333333333333V64H128z" />
    <glyph glyph-name="x"
      unicode="&#xE942;"
      horiz-adv-x="1024" d="M206.29696 717.8333866666667L443.5125333333333 400.6570666666667L204.7989333333333 142.7754666666667H258.52352L467.5167999999999 368.5546666666667L636.3743999999999 142.7754666666667H819.2010666666667L568.6410666666666 477.7941333333333L790.8319999999999 717.8333866666667H737.1061333333332L544.6368 509.8965333333333L389.1232 717.8333866666667H206.29696zM285.3028266666666 678.2596266666667H369.2934399999999L740.1823999999999 182.3573333333334H656.1930666666667L285.3028266666666 678.2596266666667z" />
    <glyph glyph-name="watchlist"
      unicode="&#xF103;"
      horiz-adv-x="1024" d="M170.665984 149.3350399999999V746.666496V262.4V353.06496V149.3350399999999zM170.665984 64C147.1989760000001 64 127.1101440000001 72.35584 110.398976 89.06752C93.6878080000001 105.7792 85.33248 125.86496 85.33248 149.3350399999999V746.666496C85.33248 770.133504 93.6878080000001 790.222336 110.398976 806.933504C127.1101440000001 823.644672 147.1989760000001 832 170.665984 832H767.9974400000001C791.46752 832 811.5532800000001 823.644672 828.2649600000001 806.933504C844.9766400000001 790.222336 853.33248 770.133504 853.33248 746.666496V405.3350400000001H767.9974400000001V746.666496H170.665984V149.3350399999999H469.33248V64H170.665984zM697.59744 21.3350399999999L546.1324800000001 172.8L606.93248 232.53504L697.59744 141.8649599999999L878.93248 323.2L938.66752 262.4L697.59744 21.3350399999999zM298.6659840000001 405.3350400000001C310.7548160000001 405.3350400000001 320.8878080000001 409.4208 329.0659840000001 417.60256C337.2436480000001 425.7792000000001 341.3324800000001 435.91168 341.3324800000001 448C341.3324800000001 460.088832 337.2436480000001 470.222336 329.0659840000001 478.4C320.8878080000001 486.577664 310.7548160000001 490.666496 298.6659840000001 490.666496C286.5771520000001 490.666496 276.4436480000001 486.577664 268.2659840000001 478.4C260.0878080000001 470.222336 255.9989760000001 460.088832 255.9989760000001 448C255.9989760000001 435.91168 260.0878080000001 425.7792000000001 268.2659840000001 417.60256C276.4436480000001 409.4208 286.5771520000001 405.3350400000001 298.6659840000001 405.3350400000001zM298.6659840000001 576C310.7548160000001 576 320.8878080000001 580.0888319999999 329.0659840000001 588.266496C337.2436480000001 596.444672 341.3324800000001 606.5776639999999 341.3324800000001 618.666496C341.3324800000001 630.755328 337.2436480000001 640.888832 329.0659840000001 649.0664959999999C320.8878080000001 657.244672 310.7548160000001 661.333504 298.6659840000001 661.333504C286.5771520000001 661.333504 276.4436480000001 657.244672 268.2659840000001 649.0664959999999C260.0878080000001 640.888832 255.9989760000001 630.755328 255.9989760000001 618.666496C255.9989760000001 606.5776639999999 260.0878080000001 596.444672 268.2659840000001 588.266496C276.4436480000001 580.0888319999999 286.5771520000001 576 298.6659840000001 576zM426.6659840000001 405.3350400000001H682.6675200000001V490.666496H426.6659840000001V405.3350400000001zM426.6659840000001 576H682.6675200000001V661.333504H426.6659840000001V576z" />
    <glyph glyph-name="wallet"
      unicode="&#xE941;"
      horiz-adv-x="1024" d="M192 64C168.5333333333334 64 148.4445866666667 72.3541333333333 131.7333333333334 89.0666666666666C115.02208 105.7792 106.6666666666667 125.8666666666667 106.6666666666667 149.3333333333334V746.6666666666667C106.6666666666667 770.1333333333333 115.02208 790.22208 131.7333333333334 806.9333333333334C148.4445866666667 823.6445866666667 168.5333333333334 832 192 832H789.3333333333333C812.8 832 832.8874666666668 823.6445866666667 849.6000000000001 806.9333333333334C866.3125333333335 790.22208 874.6666666666667 770.1333333333333 874.6666666666667 746.6666666666667V640H789.3333333333333V746.6666666666667H192V149.3333333333334H789.3333333333333V256H874.6666666666667V149.3333333333334C874.6666666666667 125.8666666666667 866.3125333333335 105.7792 849.6000000000001 89.0666666666666C832.8874666666668 72.3541333333333 812.8 64 789.3333333333333 64H192zM533.3333333333333 234.6666666666668C509.8666666666666 234.6666666666668 489.7792 243.0208 473.0666666666667 259.7333333333334C456.3541333333333 276.4458666666667 448 296.5333333333333 448 320V576C448 599.4666666666667 456.3541333333333 619.5554133333334 473.0666666666667 636.2666666666667C489.7792 652.97792 509.8666666666666 661.3333333333334 533.3333333333333 661.3333333333334H832C855.4666666666667 661.3333333333334 875.5541333333333 652.97792 892.2666666666667 636.2666666666667C908.9792 619.5554133333334 917.3333333333331 599.4666666666667 917.3333333333331 576V320C917.3333333333331 296.5333333333333 908.9792 276.4458666666667 892.2666666666667 259.7333333333334C875.5541333333333 243.0208 855.4666666666667 234.6666666666668 832 234.6666666666668H533.3333333333333zM832 320V576H533.3333333333333V320H832zM661.3333333333333 384C679.1125333333332 384 694.2208 390.2208000000001 706.6666666666667 402.6666666666668C719.1125333333332 415.1125333333335 725.3333333333333 430.2208000000001 725.3333333333333 448C725.3333333333333 465.7792000000001 719.1125333333332 480.8874666666667 706.6666666666667 493.3333333333334C694.2208 505.7792000000001 679.1125333333332 512 661.3333333333333 512C643.5541333333333 512 628.4458666666667 505.7792000000001 616 493.3333333333334C603.5541333333333 480.8874666666667 597.3333333333333 465.7792000000001 597.3333333333333 448C597.3333333333333 430.2208000000001 603.5541333333333 415.1125333333335 616 402.6666666666668C628.4458666666667 390.2208000000001 643.5541333333333 384 661.3333333333333 384z" />
    <glyph glyph-name="upload"
      unicode="&#xF102;"
      horiz-adv-x="1024" d="M511.9994879999999 213.3350399999999C565.3324799999999 213.3350399999999 610.66496 231.99744 648 269.3324800000001C685.33504 306.66752 703.99744 352 703.99744 405.3350400000001C703.99744 458.666496 685.33504 504 648 541.333504C610.66496 578.666496 565.3324799999999 597.333504 511.9994879999999 597.333504C458.665984 597.333504 413.3324799999999 578.666496 375.999488 541.333504C338.665984 504 319.999488 458.666496 319.999488 405.3350400000001C319.999488 352 338.665984 306.66752 375.999488 269.3324800000001C413.3324799999999 231.99744 458.665984 213.3350399999999 511.9994879999999 213.3350399999999zM511.9994879999999 298.66496C482.1324799999999 298.66496 456.88832 308.97664 436.265984 329.5999999999999C415.6436479999999 350.22336 405.3324799999999 375.4649599999999 405.3324799999999 405.3350400000001C405.3324799999999 435.2 415.6436479999999 460.444672 436.265984 481.066496C456.88832 501.688832 482.1324799999999 512 511.9994879999999 512C541.8675199999999 512 567.10912 501.688832 587.7324799999999 481.066496C608.35584 460.444672 618.66752 435.2 618.66752 405.3350400000001C618.66752 375.4649599999999 608.35584 350.22336 587.7324799999999 329.5999999999999C567.10912 308.97664 541.8675199999999 298.66496 511.9994879999999 298.66496zM170.6659839999999 64C147.1994879999999 64 127.1106559999999 72.35584 110.3994879999999 89.06752C93.6883199999999 105.7792 85.3324799999999 125.86496 85.3324799999999 149.3350399999999V661.333504C85.3324799999999 684.8 93.6883199999999 704.888832 110.3994879999999 721.6C127.1106559999999 738.311168 147.1994879999999 746.666496 170.6659839999999 746.666496H305.065984L383.999488 832H639.99744L718.9324799999999 746.666496H853.3324799999999C876.79744 746.666496 896.8883199999999 738.311168 913.6 721.6C930.31168 704.888832 938.66752 684.8 938.66752 661.333504V149.3350399999999C938.66752 125.86496 930.31168 105.7792 913.6 89.06752C896.8883199999999 72.35584 876.79744 64 853.3324799999999 64H170.6659839999999zM170.6659839999999 149.3350399999999H853.3324799999999V661.333504H680.53248L602.66752 746.666496H421.3324799999999L343.465984 661.333504H170.6659839999999V149.3350399999999z" />
    <glyph glyph-name="tooltip-arrow"
      unicode="&#xE940;"
      horiz-adv-x="512" d="M0 448L512 960L512 -64L0 448z" />
    <glyph glyph-name="tools"
      unicode="&#xE93F;"
      horiz-adv-x="1024" d="M213.3333333333333 106.6666666666667V405.3333333333334H128V490.6666666666667H384V405.3333333333334H298.6666666666667V106.6666666666667H213.3333333333333zM213.3333333333333 576V789.3333333333334H298.6666666666667V576H213.3333333333333zM384 576V661.3333333333334H469.3333333333333V789.3333333333334H554.6666666666666V661.3333333333334H640V576H384zM469.3333333333333 106.6666666666667V490.6666666666667H554.6666666666666V106.6666666666667H469.3333333333333zM725.3333333333333 106.6666666666667V234.6666666666668H640V320H896V234.6666666666668H810.6666666666666V106.6666666666667H725.3333333333333zM725.3333333333333 405.3333333333334V789.3333333333334H810.6666666666666V405.3333333333334H725.3333333333333z" />
    <glyph glyph-name="telegram"
      unicode="&#xE93E;"
      horiz-adv-x="1024" d="M230.8029252997721 475.4517333333333C230.8029252997721 475.4517333333333 514.2986052997721 594.8539733333334 612.6196719664387 636.8981333333334C650.311405299772 653.7147733333334 778.1279386331054 707.5319466666667 778.1279386331054 707.5319466666667C778.1279386331054 707.5319466666667 837.1231386331054 731.0749866666667 832.2036719664387 673.8965333333333C830.5652719664387 650.35136 817.4580719664388 567.94752 804.346605299772 478.8138666666667C784.6815386331054 352.6826666666667 763.3780719664387 214.784 763.3780719664387 214.784C763.3780719664387 214.784 760.1012719664387 176.1024000000001 732.244205299772 169.3738666666667C704.3871386331053 162.6496000000001 658.503405299772 192.9173333333333 650.311405299772 199.6458666666667C643.7535386331054 204.6890666666667 527.405805299772 280.3712000000001 484.7988719664388 317.3674666666667C473.3300719664387 327.4581333333333 460.2228719664388 347.6394666666668 486.4372719664387 371.1829333333334C545.4324719664387 426.6794666666667 615.8964719664388 495.6330666666667 658.503405299772 539.35616C678.1684719664387 559.5383466666667 697.8292719664388 606.62656 615.8964719664388 549.4485333333334C499.5487386331054 467.0421333333334 384.8406852997721 389.6832000000001 384.8406852997721 389.6832000000001C384.8406852997721 389.6832000000001 358.6207386331055 372.8640000000001 309.4606319664388 388.0021333333334C260.2979652997721 403.136 202.9432986331055 423.3173333333334 202.9432986331055 423.3173333333334C202.9432986331055 423.3173333333334 163.6170052997721 448.5418666666667 230.8029252997721 475.4517333333333z" />
    <glyph glyph-name="tag-border"
      unicode="&#xE93D;"
      horiz-adv-x="256" d="M64 960H64A64 64 0 0 0 128 896V896A64 64 0 0 0 64 832H64A64 64 0 0 0 0 896V896A64 64 0 0 0 64 960zM64 832H64A64 64 0 0 0 128 768V768A64 64 0 0 0 64 704H64A64 64 0 0 0 0 768V768A64 64 0 0 0 64 832zM64 704H64A64 64 0 0 0 128 640V640A64 64 0 0 0 64 576H64A64 64 0 0 0 0 640V640A64 64 0 0 0 64 704zM64 576H64A64 64 0 0 0 128 512V512A64 64 0 0 0 64 448H64A64 64 0 0 0 0 512V512A64 64 0 0 0 64 576zM64 448H64A64 64 0 0 0 128 384V384A64 64 0 0 0 64 320H64A64 64 0 0 0 0 384V384A64 64 0 0 0 64 448zM64 320H64A64 64 0 0 0 128 256V256A64 64 0 0 0 64 192H64A64 64 0 0 0 0 256V256A64 64 0 0 0 64 320zM64 192H64A64 64 0 0 0 128 128V128A64 64 0 0 0 64 64H64A64 64 0 0 0 0 128V128A64 64 0 0 0 64 192zM64 64H64A64 64 0 0 0 128 0V0A64 64 0 0 0 64 -64H64A64 64 0 0 0 0 0V0A64 64 0 0 0 64 64zM192 960H192A64 64 0 0 0 256 896V896A64 64 0 0 0 192 832H192A64 64 0 0 0 128 896V896A64 64 0 0 0 192 960zM192 832H192A64 64 0 0 0 256 768V768A64 64 0 0 0 192 704H192A64 64 0 0 0 128 768V768A64 64 0 0 0 192 832zM192 704H192A64 64 0 0 0 256 640V640A64 64 0 0 0 192 576H192A64 64 0 0 0 128 640V640A64 64 0 0 0 192 704zM192 576H192A64 64 0 0 0 256 512V512A64 64 0 0 0 192 448H192A64 64 0 0 0 128 512V512A64 64 0 0 0 192 576zM192 448H192A64 64 0 0 0 256 384V384A64 64 0 0 0 192 320H192A64 64 0 0 0 128 384V384A64 64 0 0 0 192 448zM192 320H192A64 64 0 0 0 256 256V256A64 64 0 0 0 192 192H192A64 64 0 0 0 128 256V256A64 64 0 0 0 192 320zM192 192H192A64 64 0 0 0 256 128V128A64 64 0 0 0 192 64H192A64 64 0 0 0 128 128V128A64 64 0 0 0 192 192zM192 64H192A64 64 0 0 0 256 0V0A64 64 0 0 0 192 -64H192A64 64 0 0 0 128 0V0A64 64 0 0 0 192 64z" />
    <glyph glyph-name="switch"
      unicode="&#xE93C;"
      horiz-adv-x="1024" d="M298.6666666666667 106.6666666666667L85.3333333333334 320L298.6666666666667 533.3333333333334L358.4000000000001 472.5333333333333L248.5333333333334 362.6666666666668H554.6666666666666V277.3333333333334H248.5333333333334L358.4000000000001 167.4666666666667L298.6666666666667 106.6666666666667zM725.3333333333333 362.6666666666668L665.5999999999999 423.4666666666667L775.4666666666667 533.3333333333334H469.3333333333334V618.6666666666667H775.4666666666667L665.5999999999999 728.5333333333333L725.3333333333333 789.3333333333334L938.6666666666666 576L725.3333333333333 362.6666666666668z" />
    <glyph glyph-name="stratege-expand"
      unicode="&#xE93B;"
      horiz-adv-x="1024" d="M896 192V277.3333333333334H341.3333333333333V192H896zM187.7333333333333 234.6666666666668L401.0666666666666 448L187.7333333333333 661.3333333333334L128 601.6L281.6 448L128 294.4000000000001L187.7333333333333 234.6666666666668zM896 405.3333333333334V490.6666666666667H469.3333333333333V405.3333333333334H896zM896 618.6666666666667V704H341.3333333333333V618.6666666666667H896z" />
    <glyph glyph-name="sorting"
      unicode="&#xE93A;"
      horiz-adv-x="1024" d="M512 64L320 256L381.8666666666666 317.8666666666667L512 187.7333333333334L642.1333333333333 317.8666666666667L704 256L512 64zM381.8666666666666 573.86752L320 635.7341866666667L512 827.7341866666667L704 635.7341866666667L642.1333333333333 573.86752L512 704.0008533333333L381.8666666666666 573.86752z" />
    <glyph glyph-name="signals"
      unicode="&#xE939;"
      horiz-adv-x="1024" d="M298.6666666666667 106.6666666666667V192H213.3333333333334V704H298.6666666666667V789.3333333333334H384.0000000000001V704H469.3333333333334V192H384.0000000000001V106.6666666666667H298.6666666666667zM298.6666666666667 277.3333333333334H384.0000000000001V618.6666666666667H298.6666666666667V277.3333333333334zM640 106.6666666666667V320H554.6666666666667V618.6666666666667H640V789.3333333333334H725.3333333333333V618.6666666666667H810.6666666666667V320H725.3333333333333V106.6666666666667H640zM640 405.3333333333334H725.3333333333333V533.3333333333334H640V405.3333333333334z" />
    <glyph glyph-name="signal-log"
      unicode="&#xE938;"
      horiz-adv-x="1024" d="M189.3319111111111 64C165.8652444444444 64 145.77664 72.3569777777778 129.0655288888889 89.0652444444445C112.3538488888889 105.7792000000001 103.9985777777778 125.8666666666668 103.9985777777778 149.3333333333334V746.6666666666667C103.9985777777778 770.1333333333333 112.3538488888889 790.2219377777778 129.0655288888889 806.9330488888888C145.77664 823.644728888889 165.8652444444444 832 189.3319111111111 832H786.6652444444444C792.3541333333333 832 797.690311111111 831.4663822222223 802.6680888888889 830.3997155555555C807.6458666666666 829.3330488888889 812.6236444444444 827.7333333333333 817.6014222222221 825.6L738.6623999999999 746.6666666666667H189.3319111111111V149.3333333333334H786.6652444444444V433.0666666666667L871.9985777777778 518.4000000000001V149.3333333333334C871.9985777777778 125.8666666666668 863.6415999999999 105.7792000000001 846.9333333333333 89.0652444444445C830.2193777777777 72.3569777777778 810.131911111111 64 786.6652444444444 64H189.3319111111111zM467.7319111111111 234.6666666666668L226.6652444444445 475.7333333333334L286.3985777777778 535.4666666666667L467.7319111111111 354.1333333333334L859.1985777777777 745.6L920.0014222222222 686.9333333333334L467.7319111111111 234.6666666666668z" />
    <glyph glyph-name="signal-layer"
      unicode="&#xE937;"
      horiz-adv-x="1024" d="M486.4 149.3333333333334L672 512H544V746.6666666666667L352.0000000000001 384H486.4V149.3333333333334zM512 21.3333333333334C452.9792 21.3333333333334 397.5112533333334 32.5333333333333 345.6 54.9333333333334C293.6887466666667 77.3333333333334 248.5333333333334 107.7333333333334 210.1333333333334 146.1333333333335C171.7333333333334 184.5333333333333 141.3333333333334 229.6874666666667 118.9333333333334 281.6C96.5333333333334 333.5125333333334 85.3333333333334 388.9792 85.3333333333334 448C85.3333333333334 507.0208 96.5333333333334 562.4887466666667 118.9333333333334 614.4000000000001C141.3333333333334 666.3112533333333 171.7333333333334 711.4666666666667 210.1333333333334 749.8666666666667C248.5333333333334 788.2666666666667 293.6887466666667 818.6666666666667 345.6 841.0666666666666C397.5112533333334 863.4666666666667 452.9792 874.6666666666666 512 874.6666666666666C571.0208 874.6666666666666 626.4874666666666 863.4666666666667 678.4 841.0666666666666C730.3125333333334 818.6666666666667 775.4666666666667 788.2666666666667 813.8666666666666 749.8666666666667C852.2666666666667 711.4666666666667 882.6666666666666 666.3112533333333 905.0666666666666 614.4000000000001C927.4666666666666 562.4887466666667 938.6666666666666 507.0208 938.6666666666666 448C938.6666666666666 388.9792 927.4666666666666 333.5125333333334 905.0666666666666 281.6C882.6666666666666 229.6874666666667 852.2666666666667 184.5333333333333 813.8666666666666 146.1333333333335C775.4666666666667 107.7333333333334 730.3125333333334 77.3333333333334 678.4 54.9333333333334C626.4874666666666 32.5333333333333 571.0208 21.3333333333334 512 21.3333333333334zM512 106.6666666666667C607.2874666666667 106.6666666666667 688 139.7333333333334 754.1333333333333 205.8666666666667C820.2666666666667 272 853.3333333333333 352.7125333333334 853.3333333333333 448C853.3333333333333 543.2887466666667 820.2666666666667 624 754.1333333333333 690.1333333333333C688 756.2666666666667 607.2874666666667 789.3333333333334 512 789.3333333333334C416.7112533333334 789.3333333333334 336.0000000000001 756.2666666666667 269.8666666666668 690.1333333333333C203.7333333333334 624 170.6666666666667 543.2887466666667 170.6666666666667 448C170.6666666666667 352.7125333333334 203.7333333333334 272 269.8666666666668 205.8666666666667C336.0000000000001 139.7333333333334 416.7112533333334 106.6666666666667 512 106.6666666666667z" />
    <glyph glyph-name="share"
      unicode="&#xE936;"
      horiz-adv-x="1024" d="M213.3333333333333 64C189.8666666666667 64 169.77792 72.3541333333333 153.0666666666667 89.0666666666666C136.3554133333333 105.7792 128 125.8666666666667 128 149.3333333333334V746.6666666666667C128 770.1333333333333 136.3554133333333 790.22208 153.0666666666667 806.9333333333334C169.77792 823.6445866666667 189.8666666666667 832 213.3333333333333 832H512V746.6666666666667H213.3333333333333V149.3333333333334H810.6666666666666V448H896V149.3333333333334C896 125.8666666666667 887.6458666666667 105.7792 870.9333333333334 89.0666666666666C854.2208 72.3541333333333 834.1333333333333 64 810.6666666666666 64H213.3333333333333zM413.8666666666666 290.1333333333335L354.1333333333334 349.8666666666667L750.9333333333334 746.6666666666667H597.3333333333333V832H896V533.3333333333334H810.6666666666666V686.9333333333334L413.8666666666666 290.1333333333335z" />
    <glyph glyph-name="send"
      unicode="&#xF104;"
      horiz-adv-x="1024" d="M106.66752 106.6649600000001V789.332992L917.33248 448L106.66752 106.6649600000001zM192.001024 234.66496L697.60256 448L192.001024 661.332992V511.999488L448.001024 448L192.001024 384V234.66496z" />
    <glyph glyph-name="search"
      unicode="&#xE935;"
      horiz-adv-x="1024" d="M836.2666666666667 64L567.4666666666667 332.8000000000001C546.1333333333333 315.7333333333334 521.5999999999999 302.2208000000001 493.8666666666666 292.2666666666667C466.1333333333333 282.3125333333334 436.6208 277.3333333333334 405.3333333333333 277.3333333333334C327.82208 277.3333333333334 262.22208 304.1792000000001 208.5333333333333 357.8666666666667C154.8445866666667 411.5541333333333 128 477.1541333333333 128 554.6666666666667C128 632.1779200000001 154.8445866666667 697.77792 208.5333333333333 751.4666666666667C262.22208 805.1554133333334 327.82208 832 405.3333333333333 832C482.8458666666667 832 548.4458666666667 805.1554133333334 602.1333333333333 751.4666666666667C655.8208 697.77792 682.6666666666666 632.1779200000001 682.6666666666666 554.6666666666667C682.6666666666666 523.3792000000001 677.6874666666666 493.8666666666667 667.7333333333333 466.1333333333334C657.7792 438.4000000000001 644.2666666666667 413.8666666666667 627.1999999999999 392.5333333333333L896 123.7333333333334L836.2666666666667 64zM405.3333333333333 362.6666666666668C458.6666666666666 362.6666666666668 504 381.3333333333334 541.3333333333333 418.6666666666668C578.6666666666666 456 597.3333333333333 501.3333333333334 597.3333333333333 554.6666666666667C597.3333333333333 608 578.6666666666666 653.3333333333334 541.3333333333333 690.6666666666667C504 728 458.6666666666666 746.6666666666667 405.3333333333333 746.6666666666667C352 746.6666666666667 306.6666666666667 728 269.3333333333333 690.6666666666667C232 653.3333333333334 213.3333333333333 608 213.3333333333333 554.6666666666667C213.3333333333333 501.3333333333334 232 456 269.3333333333333 418.6666666666668C306.6666666666667 381.3333333333334 352 362.6666666666668 405.3333333333333 362.6666666666668z" />
    <glyph glyph-name="risk-layer"
      unicode="&#xE934;"
      horiz-adv-x="1024" d="M512 277.3333333333334C524.0874666666666 277.3333333333334 534.2207999999999 281.4208000000001 542.4 289.6C550.5791999999999 297.7792000000001 554.6666666666666 307.9125333333334 554.6666666666666 320C554.6666666666666 332.0874666666668 550.5791999999999 342.2208000000001 542.4 350.4000000000001C534.2207999999999 358.5792 524.0874666666666 362.6666666666668 512 362.6666666666668C499.9125333333333 362.6666666666668 489.7792000000001 358.5792 481.6 350.4000000000001C473.4208 342.2208000000001 469.3333333333334 332.0874666666668 469.3333333333334 320C469.3333333333334 307.9125333333334 473.4208 297.7792000000001 481.6 289.6C489.7792000000001 281.4208000000001 499.9125333333333 277.3333333333334 512 277.3333333333334zM469.3333333333334 448H554.6666666666666V661.3333333333334H469.3333333333334V448zM512 21.3333333333334C413.1554133333333 46.2208000000001 331.5554133333334 102.9333333333334 267.2000000000001 191.4666666666667C202.8445866666667 280 170.6666666666667 378.3125333333334 170.6666666666667 486.4V746.6666666666667L512 874.6666666666666L853.3333333333333 746.6666666666667V486.4C853.3333333333333 378.3125333333334 821.1541333333332 280 756.8 191.4666666666667C692.4458666666666 102.9333333333334 610.8458666666667 46.2208000000001 512 21.3333333333334zM512 110.9333333333334C585.9541333333333 134.4 647.1125333333333 181.3333333333334 695.4666666666667 251.7333333333334C743.8208 322.1333333333335 768 400.3541333333334 768 486.4V688L512 784L256 688V486.4C256 400.3541333333334 280.17792 322.1333333333335 328.5333333333333 251.7333333333334C376.8887466666667 181.3333333333334 438.0458666666667 134.4 512 110.9333333333334z" />
    <glyph glyph-name="risk-appetite"
      unicode="&#xE933;"
      horiz-adv-x="1024" d="M580.2677333333334 482.1248H648.5344A34.1333333333333 34.1333333333333 0 0 0 682.6677333333332 447.9914666666666V447.9914666666666A34.1333333333333 34.1333333333333 0 0 0 648.5344 413.8581333333333H580.2677333333334A34.1333333333333 34.1333333333333 0 0 0 546.1343999999999 447.9914666666666V447.9914666666666A34.1333333333333 34.1333333333333 0 0 0 580.2677333333334 482.1248zM375.4677333333334 482.1248H443.7344A34.1333333333333 34.1333333333333 0 0 0 477.8677333333333 447.9914666666666V447.9914666666666A34.1333333333333 34.1333333333333 0 0 0 443.7344 413.8581333333333H375.4677333333334A34.1333333333333 34.1333333333333 0 0 0 341.3344 447.9914666666666V447.9914666666666A34.1333333333333 34.1333333333333 0 0 0 375.4677333333334 482.1248zM546.1343999999999 584.5333333333333L546.1343999999999 516.2666666666667A34.1333333333333 34.1333333333333 0 0 0 512.0010666666667 482.1333333333333L512.0010666666667 482.1333333333333A34.1333333333333 34.1333333333333 0 0 0 477.8677333333333 516.2666666666667L477.8677333333333 584.5333333333333A34.1333333333333 34.1333333333333 0 0 0 512.0010666666667 618.6666666666667L512.0010666666667 618.6666666666667A34.1333333333333 34.1333333333333 0 0 0 546.1343999999999 584.5333333333333zM546.1344000000001 379.7418666666668L546.1344000000001 311.4752000000001A34.1333333333333 34.1333333333333 0 0 0 512.0010666666667 277.3418666666667L512.0010666666667 277.3418666666667A34.1333333333333 34.1333333333333 0 0 0 477.8677333333333 311.4752000000001L477.8677333333333 379.7418666666668A34.1333333333333 34.1333333333333 0 0 0 512.0010666666667 413.8752000000001L512.0010666666667 413.8752000000001A34.1333333333333 34.1333333333333 0 0 0 546.1344000000001 379.7418666666668zM170.6656 686.9166933333333H170.6656A34.1333333333333 34.1333333333333 0 0 0 204.7989333333333 652.78336V243.18336A34.1333333333333 34.1333333333333 0 0 0 170.6656 209.0500266666667H170.6656A34.1333333333333 34.1333333333333 0 0 0 136.5322666666667 243.18336V652.78336A34.1333333333333 34.1333333333333 0 0 0 170.6656 686.9166933333333zM853.3344 686.9166933333333H853.3344A34.1333333333333 34.1333333333333 0 0 0 887.4677333333334 652.78336V243.18336A34.1333333333333 34.1333333333333 0 0 0 853.3344 209.0500266666667H853.3344A34.1333333333333 34.1333333333333 0 0 0 819.2010666666665 243.18336V652.78336A34.1333333333333 34.1333333333333 0 0 0 853.3344 686.9166933333333zM443.7335466666667 72.5418666666667H580.2668799999999A34.1333333333333 34.1333333333333 0 0 0 614.4002133333333 38.4085333333333V38.4085333333333A34.1333333333333 34.1333333333333 0 0 0 580.2668799999999 4.2751999999999H443.7335466666667A34.1333333333333 34.1333333333333 0 0 0 409.6002133333334 38.4085333333333V38.4085333333333A34.1333333333333 34.1333333333333 0 0 0 443.7335466666667 72.5418666666667zM375.4677333333334 140.7914666666668H375.4677333333334A34.1333333333333 34.1333333333333 0 0 0 409.6010666666667 106.6581333333334V106.6581333333334A34.1333333333333 34.1333333333333 0 0 0 375.4677333333334 72.5248H375.4677333333334A34.1333333333333 34.1333333333333 0 0 0 341.3344 106.6581333333334V106.6581333333334A34.1333333333333 34.1333333333333 0 0 0 375.4677333333334 140.7914666666668zM375.4677333333334 823.4581333333333H375.4677333333334A34.1333333333333 34.1333333333333 0 0 0 409.6010666666667 789.3248V789.3248A34.1333333333333 34.1333333333333 0 0 0 375.4677333333334 755.1914666666667H375.4677333333334A34.1333333333333 34.1333333333333 0 0 0 341.3344 789.3248V789.3248A34.1333333333333 34.1333333333333 0 0 0 375.4677333333334 823.4581333333333zM648.5344 140.7914666666668H648.5344A34.1333333333333 34.1333333333333 0 0 0 682.6677333333332 106.6581333333334V106.6581333333334A34.1333333333333 34.1333333333333 0 0 0 648.5344 72.5248H648.5344A34.1333333333333 34.1333333333333 0 0 0 614.4010666666666 106.6581333333334V106.6581333333334A34.1333333333333 34.1333333333333 0 0 0 648.5344 140.7914666666668zM648.5344 823.4581333333333H648.5344A34.1333333333333 34.1333333333333 0 0 0 682.6677333333332 789.3248V789.3248A34.1333333333333 34.1333333333333 0 0 0 648.5344 755.1914666666667H648.5344A34.1333333333333 34.1333333333333 0 0 0 614.4010666666666 789.3248V789.3248A34.1333333333333 34.1333333333333 0 0 0 648.5344 823.4581333333333zM238.9365333333333 209.0837333333334H307.2031999999999A34.1333333333333 34.1333333333333 0 0 0 341.3365333333333 174.9504000000001V174.9504000000001A34.1333333333333 34.1333333333333 0 0 0 307.2032 140.8170666666667H238.9365333333333A34.1333333333333 34.1333333333333 0 0 0 204.8032 174.9504000000001V174.9504000000001A34.1333333333333 34.1333333333333 0 0 0 238.9365333333333 209.0837333333334zM238.9365333333333 755.2085333333333H307.2031999999999A34.1333333333333 34.1333333333333 0 0 0 341.3365333333333 721.0752V721.0752A34.1333333333333 34.1333333333333 0 0 0 307.2032 686.9418666666667H238.9365333333333A34.1333333333333 34.1333333333333 0 0 0 204.8032 721.0752V721.0752A34.1333333333333 34.1333333333333 0 0 0 238.9365333333333 755.2085333333333zM716.8010666666667 209.0837333333334H785.0677333333333A34.1333333333333 34.1333333333333 0 0 0 819.2010666666667 174.9504000000001V174.9504000000001A34.1333333333333 34.1333333333333 0 0 0 785.0677333333333 140.8170666666667H716.8010666666667A34.1333333333333 34.1333333333333 0 0 0 682.6677333333332 174.9504000000001V174.9504000000001A34.1333333333333 34.1333333333333 0 0 0 716.8010666666667 209.0837333333334zM716.8010666666667 755.2085333333333H785.0677333333333A34.1333333333333 34.1333333333333 0 0 0 819.2010666666667 721.0752V721.0752A34.1333333333333 34.1333333333333 0 0 0 785.0677333333333 686.9418666666667H716.8010666666667A34.1333333333333 34.1333333333333 0 0 0 682.6677333333332 721.0752V721.0752A34.1333333333333 34.1333333333333 0 0 0 716.8010666666667 755.2085333333333zM443.7335466666667 891.7499733333334H580.2668799999999A34.1333333333333 34.1333333333333 0 0 0 614.4002133333333 857.61664V857.61664A34.1333333333333 34.1333333333333 0 0 0 580.2668799999999 823.4833066666667H443.7335466666667A34.1333333333333 34.1333333333333 0 0 0 409.6002133333334 857.61664V857.61664A34.1333333333333 34.1333333333333 0 0 0 443.7335466666667 891.7499733333334z" />
    <glyph glyph-name="progress-response"
      unicode="&#xE932;"
      horiz-adv-x="1024" d="M398.29968 665.2932266666667C404.59344 699.3676800000001 453.4224533333334 699.3676800000001 459.7157866666666 665.2932266666667C483.18672 537.8897066666667 582.8944533333333 438.1781333333334 710.3013866666666 414.7114666666667C744.3749866666667 408.4181333333334 744.3749866666667 359.5861333333334 710.3013866666666 353.2928000000001L698.50832 350.9162666666668C576.7632533333333 323.6394666666668 482.45712 226.1632 459.7157866666666 102.7114666666666L458.0517866666667 96.7509333333335C448.19152 70.6304 409.8256533333333 70.6304 399.96624 96.7509333333335L398.29968 102.7114666666666C374.8291733333334 230.1141333333334 275.1197333333334 329.8218666666667 147.71664 353.2928000000001C113.64176 359.5861333333334 113.64176 408.4181333333334 147.71664 414.7114666666667C275.1197333333334 438.1781333333334 374.8291733333334 537.8897066666667 398.29968 665.2932266666667zM429.0085866666667 512.2517333333334C396.7112 460.2197333333334 352.7897066666667 416.2986666666667 300.7581333333333 384C352.7794666666667 351.7098666666667 396.7129066666667 307.8101333333334 429.0085866666667 255.7952C461.29872 307.8016 505.2069866666666 351.7141333333334 557.2176533333334 384C505.1984533333333 416.2986666666667 461.29872 460.2282666666667 429.0085866666667 512.2517333333334zM783.5045866666666 604.7901866666667L782.79632 602.20672C778.26512 590.2267733333333 759.6965866666666 591.0929066666667 757.1707200000001 604.7901866666667C756.8549866666667 606.5058133333334 756.3856533333333 608.1821866666667 756.0059200000001 609.8734933333334L770.3376533333333 607.24864L784.6309866666667 609.8734933333334C784.2512533333334 608.1851733333333 783.8203199999999 606.5028266666667 783.5045866666666 604.7901866666667zM757.1707200000001 845.8734933333333C759.8629866666666 860.4864 780.81232 860.4864 783.5045866666666 845.8734933333333C793.2496533333333 792.992 833.6592533333334 751.3774933333334 885.79792 739.6650666666667L888.42192 725.3320533333333L885.79792 711.04C835.3445866666666 699.7098666666667 795.9589866666666 660.3281066666667 784.6309866666667 609.8734933333334L770.3376533333333 607.24864L756.0059200000001 609.8734933333334C745.0491199999999 658.6517333333334 707.9376533333334 697.1776 659.8821866666666 709.9153066666667L649.7957866666666 712.16512C635.1824533333333 714.8573866666667 635.1824533333333 735.8062933333333 649.7957866666666 738.49856C704.39632 748.5589333333334 747.1141866666667 791.2763733333334 757.1707200000001 845.8734933333333zM890.87952 738.49856C905.4928533333334 735.8062933333333 905.4928533333334 714.8573866666667 890.87952 712.16512L885.79792 711.04L888.42192 725.3320533333333L885.79792 739.6650666666667C887.4875199999999 739.2853333333334 889.16432 738.8147200000001 890.87952 738.49856z" />
    <glyph glyph-name="preference"
      unicode="&#xE931;"
      horiz-adv-x="1024" d="M277.3333333333333 64C236.0887466666667 64 200.8887466666667 78.5792 171.7333333333334 107.7333333333334C142.57792 136.8874666666668 128 172.0874666666667 128 213.3333333333334C128 254.5792 142.57792 289.7792000000001 171.7333333333334 318.9333333333334C200.8887466666667 348.0874666666668 236.0887466666667 362.6666666666668 277.3333333333333 362.6666666666668H341.3333333333333V533.3333333333334H277.3333333333333C236.0887466666667 533.3333333333334 200.8887466666667 547.9112533333334 171.7333333333334 577.0666666666667C142.57792 606.22208 128 641.42208 128 682.6666666666667C128 723.9112533333333 142.57792 759.1112533333334 171.7333333333334 788.2666666666667C200.8887466666667 817.42208 236.0887466666667 832 277.3333333333333 832C318.57792 832 353.77792 817.42208 382.9333333333333 788.2666666666667C412.0887466666666 759.1112533333334 426.6666666666667 723.9112533333333 426.6666666666667 682.6666666666667V618.6666666666667H597.3333333333333V682.6666666666667C597.3333333333333 723.9112533333333 611.9125333333333 759.1112533333334 641.0666666666666 788.2666666666667C670.2207999999999 817.42208 705.4208 832 746.6666666666666 832C787.9125333333333 832 823.1125333333332 817.42208 852.2666666666667 788.2666666666667C881.4208 759.1112533333334 896 723.9112533333333 896 682.6666666666667C896 641.42208 881.4208 606.22208 852.2666666666667 577.0666666666667C823.1125333333332 547.9112533333334 787.9125333333333 533.3333333333334 746.6666666666666 533.3333333333334H682.6666666666666V362.6666666666668H746.6666666666666C787.9125333333333 362.6666666666668 823.1125333333332 348.0874666666668 852.2666666666667 318.9333333333334C881.4208 289.7792000000001 896 254.5792 896 213.3333333333334C896 172.0874666666667 881.4208 136.8874666666668 852.2666666666667 107.7333333333334C823.1125333333332 78.5792 787.9125333333333 64 746.6666666666666 64C705.4208 64 670.2207999999999 78.5792 641.0666666666666 107.7333333333334C611.9125333333333 136.8874666666668 597.3333333333333 172.0874666666667 597.3333333333333 213.3333333333334V277.3333333333334H426.6666666666667V213.3333333333334C426.6666666666667 172.0874666666667 412.0887466666666 136.8874666666668 382.9333333333333 107.7333333333334C353.77792 78.5792 318.57792 64 277.3333333333333 64zM277.3333333333333 149.3333333333334C295.1112533333333 149.3333333333334 310.22208 155.5541333333334 322.6666666666667 168C335.1112533333333 180.4458666666667 341.3333333333333 195.5541333333334 341.3333333333333 213.3333333333334V277.3333333333334H277.3333333333333C259.5554133333333 277.3333333333334 244.4445866666667 271.1125333333333 232 258.6666666666668C219.5554133333333 246.2208000000001 213.3333333333333 231.1125333333333 213.3333333333333 213.3333333333334C213.3333333333333 195.5541333333334 219.5554133333333 180.4458666666667 232 168C244.4445866666667 155.5541333333334 259.5554133333333 149.3333333333334 277.3333333333333 149.3333333333334zM746.6666666666666 149.3333333333334C764.4458666666666 149.3333333333334 779.5541333333333 155.5541333333334 792 168C804.4458666666666 180.4458666666667 810.6666666666666 195.5541333333334 810.6666666666666 213.3333333333334C810.6666666666666 231.1125333333333 804.4458666666666 246.2208000000001 792 258.6666666666668C779.5541333333333 271.1125333333333 764.4458666666666 277.3333333333334 746.6666666666666 277.3333333333334H682.6666666666666V213.3333333333334C682.6666666666666 195.5541333333334 688.8874666666667 180.4458666666667 701.3333333333333 168C713.7792 155.5541333333334 728.8874666666667 149.3333333333334 746.6666666666666 149.3333333333334zM426.6666666666667 362.6666666666668H597.3333333333333V533.3333333333334H426.6666666666667V362.6666666666668zM277.3333333333333 618.6666666666667H341.3333333333333V682.6666666666667C341.3333333333333 700.4445866666667 335.1112533333333 715.5554133333334 322.6666666666667 728C310.22208 740.4445866666667 295.1112533333333 746.6666666666667 277.3333333333333 746.6666666666667C259.5554133333333 746.6666666666667 244.4445866666667 740.4445866666667 232 728C219.5554133333333 715.5554133333334 213.3333333333333 700.4445866666667 213.3333333333333 682.6666666666667C213.3333333333333 664.8887466666667 219.5554133333333 649.77792 232 637.3333333333334C244.4445866666667 624.8887466666667 259.5554133333333 618.6666666666667 277.3333333333333 618.6666666666667zM682.6666666666666 618.6666666666667H746.6666666666666C764.4458666666666 618.6666666666667 779.5541333333333 624.8887466666667 792 637.3333333333334C804.4458666666666 649.77792 810.6666666666666 664.8887466666667 810.6666666666666 682.6666666666667C810.6666666666666 700.4445866666667 804.4458666666666 715.5554133333334 792 728C779.5541333333333 740.4445866666667 764.4458666666666 746.6666666666667 746.6666666666666 746.6666666666667C728.8874666666667 746.6666666666667 713.7792 740.4445866666667 701.3333333333333 728C688.8874666666667 715.5554133333334 682.6666666666666 700.4445866666667 682.6666666666666 682.6666666666667V618.6666666666667z" />
    <glyph glyph-name="positions"
      unicode="&#xE930;"
      horiz-adv-x="1024" d="M341.3333333333333 234.6666666666668C353.42208 234.6666666666668 363.5554133333333 238.7541333333334 371.7333333333334 246.9333333333334C379.9112533333333 255.1125333333333 384 265.2458666666667 384 277.3333333333334C384 289.4208000000001 379.9112533333333 299.5541333333333 371.7333333333334 307.7333333333334C363.5554133333333 315.9125333333334 353.42208 320 341.3333333333333 320C329.2445866666667 320 319.1112533333333 315.9125333333334 310.9333333333333 307.7333333333334C302.7554133333333 299.5541333333333 298.6666666666667 289.4208000000001 298.6666666666667 277.3333333333334C298.6666666666667 265.2458666666667 302.7554133333333 255.1125333333333 310.9333333333333 246.9333333333334C319.1112533333333 238.7541333333334 329.2445866666667 234.6666666666668 341.3333333333333 234.6666666666668zM341.3333333333333 405.3333333333334C353.42208 405.3333333333334 363.5554133333333 409.4208000000001 371.7333333333334 417.6C379.9112533333333 425.7792000000001 384 435.9125333333334 384 448C384 460.0874666666667 379.9112533333333 470.2208 371.7333333333334 478.4C363.5554133333333 486.5792 353.42208 490.6666666666667 341.3333333333333 490.6666666666667C329.2445866666667 490.6666666666667 319.1112533333333 486.5792 310.9333333333333 478.4C302.7554133333333 470.2208 298.6666666666667 460.0874666666667 298.6666666666667 448C298.6666666666667 435.9125333333334 302.7554133333333 425.7792000000001 310.9333333333333 417.6C319.1112533333333 409.4208000000001 329.2445866666667 405.3333333333334 341.3333333333333 405.3333333333334zM341.3333333333333 576C353.42208 576 363.5554133333333 580.0887466666667 371.7333333333334 588.2666666666667C379.9112533333333 596.4445866666667 384 606.5779200000001 384 618.6666666666667C384 630.7554133333333 379.9112533333333 640.8887466666667 371.7333333333334 649.0666666666667C363.5554133333333 657.2445866666667 353.42208 661.3333333333334 341.3333333333333 661.3333333333334C329.2445866666667 661.3333333333334 319.1112533333333 657.2445866666667 310.9333333333333 649.0666666666667C302.7554133333333 640.8887466666667 298.6666666666667 630.7554133333333 298.6666666666667 618.6666666666667C298.6666666666667 606.5779200000001 302.7554133333333 596.4445866666667 310.9333333333333 588.2666666666667C319.1112533333333 580.0887466666667 329.2445866666667 576 341.3333333333333 576zM469.3333333333333 234.6666666666668H725.3333333333333V320H469.3333333333333V234.6666666666668zM469.3333333333333 405.3333333333334H725.3333333333333V490.6666666666667H469.3333333333333V405.3333333333334zM469.3333333333333 576H725.3333333333333V661.3333333333334H469.3333333333333V576zM213.3333333333333 64C189.8666666666667 64 169.77792 72.3541333333333 153.0666666666667 89.0666666666666C136.3554133333333 105.7792 128 125.8666666666667 128 149.3333333333334V746.6666666666667C128 770.1333333333333 136.3554133333333 790.22208 153.0666666666667 806.9333333333334C169.77792 823.6445866666667 189.8666666666667 832 213.3333333333333 832H810.6666666666666C834.1333333333333 832 854.2208 823.6445866666667 870.9333333333334 806.9333333333334C887.6458666666667 790.22208 896 770.1333333333333 896 746.6666666666667V149.3333333333334C896 125.8666666666667 887.6458666666667 105.7792 870.9333333333334 89.0666666666666C854.2208 72.3541333333333 834.1333333333333 64 810.6666666666666 64H213.3333333333333zM213.3333333333333 149.3333333333334H810.6666666666666V746.6666666666667H213.3333333333333V149.3333333333334z" />
    <glyph glyph-name="play"
      unicode="&#xE92F;"
      horiz-adv-x="1024" d="M277.3333333333334 149.3333333333334V746.6666666666667L746.6666666666667 448L277.3333333333334 149.3333333333334zM362.6666666666667 305.0666666666667L586.6666666666667 448L362.6666666666667 590.9333333333334V305.0666666666667z" />
    <glyph glyph-name="performance"
      unicode="&#xE92E;"
      horiz-adv-x="1024" d="M315.7333333333334 277.3333333333334L445.8666666666666 407.4666666666667L531.1999999999999 322.1333333333335L682.6666666666666 472.5333333333333V405.3333333333334H768V618.6666666666667H554.6666666666666V533.3333333333334H621.8666666666666L531.1999999999999 442.6666666666668L445.8666666666666 528L256 337.0666666666667L315.7333333333334 277.3333333333334zM213.3333333333333 64C189.8666666666667 64 169.77792 72.3541333333333 153.0666666666667 89.0666666666666C136.3554133333333 105.7792 128 125.8666666666667 128 149.3333333333334V746.6666666666667C128 770.1333333333333 136.3554133333333 790.22208 153.0666666666667 806.9333333333334C169.77792 823.6445866666667 189.8666666666667 832 213.3333333333333 832H810.6666666666666C834.1333333333333 832 854.2208 823.6445866666667 870.9333333333334 806.9333333333334C887.6458666666667 790.22208 896 770.1333333333333 896 746.6666666666667V149.3333333333334C896 125.8666666666667 887.6458666666667 105.7792 870.9333333333334 89.0666666666666C854.2208 72.3541333333333 834.1333333333333 64 810.6666666666666 64H213.3333333333333zM213.3333333333333 149.3333333333334H810.6666666666666V746.6666666666667H213.3333333333333V149.3333333333334z" />
    <glyph glyph-name="pause"
      unicode="&#xE92D;"
      horiz-adv-x="1024" d="M554.6666666666667 149.3333333333334V746.6666666666667H810.6666666666667V149.3333333333334H554.6666666666667zM213.3333333333334 149.3333333333334V746.6666666666667H469.3333333333334V149.3333333333334H213.3333333333334zM640 234.6666666666668H725.3333333333333V661.3333333333334H640V234.6666666666668zM298.6666666666667 234.6666666666668H384.0000000000001V661.3333333333334H298.6666666666667V234.6666666666668z" />
    <glyph glyph-name="paper-trading"
      unicode="&#xE92C;"
      horiz-adv-x="1024" d="M320 377.6V704H448V377.6L384 437.3333333333334L320 377.6zM533.3333333333333 313.6V874.6666666666666H661.3333333333333V441.6L533.3333333333333 313.6zM106.6666666666667 166.4V533.3333333333334H234.6666666666667V294.4000000000001L106.6666666666667 166.4zM106.6666666666667 61.8666666666667L381.8666666666666 337.0666666666667L533.3333333333333 206.9333333333334L772.2666666666667 445.8666666666667H704V531.2H917.3333333333331V317.8666666666667H832V386.1333333333335L537.5999999999999 91.7333333333334L386.1333333333334 221.8666666666667L226.1333333333334 61.8666666666667H106.6666666666667z" />
    <glyph glyph-name="orders"
      unicode="&#xE92B;"
      horiz-adv-x="1024" d="M341.3333333333333 234.6666666666668C353.42208 234.6666666666668 363.5554133333333 238.7541333333334 371.7333333333334 246.9333333333334C379.9112533333333 255.1125333333333 384 265.2458666666667 384 277.3333333333334C384 289.4208000000001 379.9112533333333 299.5541333333333 371.7333333333334 307.7333333333334C363.5554133333333 315.9125333333334 353.42208 320 341.3333333333333 320C329.2445866666667 320 319.1112533333333 315.9125333333334 310.9333333333333 307.7333333333334C302.7554133333333 299.5541333333333 298.6666666666667 289.4208000000001 298.6666666666667 277.3333333333334C298.6666666666667 265.2458666666667 302.7554133333333 255.1125333333333 310.9333333333333 246.9333333333334C319.1112533333333 238.7541333333334 329.2445866666667 234.6666666666668 341.3333333333333 234.6666666666668zM341.3333333333333 405.3333333333334C353.42208 405.3333333333334 363.5554133333333 409.4208000000001 371.7333333333334 417.6C379.9112533333333 425.7792000000001 384 435.9125333333334 384 448C384 460.0874666666667 379.9112533333333 470.2208 371.7333333333334 478.4C363.5554133333333 486.5792 353.42208 490.6666666666667 341.3333333333333 490.6666666666667C329.2445866666667 490.6666666666667 319.1112533333333 486.5792 310.9333333333333 478.4C302.7554133333333 470.2208 298.6666666666667 460.0874666666667 298.6666666666667 448C298.6666666666667 435.9125333333334 302.7554133333333 425.7792000000001 310.9333333333333 417.6C319.1112533333333 409.4208000000001 329.2445866666667 405.3333333333334 341.3333333333333 405.3333333333334zM341.3333333333333 576C353.42208 576 363.5554133333333 580.0887466666667 371.7333333333334 588.2666666666667C379.9112533333333 596.4445866666667 384 606.5779200000001 384 618.6666666666667C384 630.7554133333333 379.9112533333333 640.8887466666667 371.7333333333334 649.0666666666667C363.5554133333333 657.2445866666667 353.42208 661.3333333333334 341.3333333333333 661.3333333333334C329.2445866666667 661.3333333333334 319.1112533333333 657.2445866666667 310.9333333333333 649.0666666666667C302.7554133333333 640.8887466666667 298.6666666666667 630.7554133333333 298.6666666666667 618.6666666666667C298.6666666666667 606.5779200000001 302.7554133333333 596.4445866666667 310.9333333333333 588.2666666666667C319.1112533333333 580.0887466666667 329.2445866666667 576 341.3333333333333 576zM469.3333333333333 234.6666666666668H725.3333333333333V320H469.3333333333333V234.6666666666668zM469.3333333333333 405.3333333333334H725.3333333333333V490.6666666666667H469.3333333333333V405.3333333333334zM469.3333333333333 576H725.3333333333333V661.3333333333334H469.3333333333333V576zM213.3333333333333 64C189.8666666666667 64 169.77792 72.3541333333333 153.0666666666667 89.0666666666666C136.3554133333333 105.7792 128 125.8666666666667 128 149.3333333333334V746.6666666666667C128 770.1333333333333 136.3554133333333 790.22208 153.0666666666667 806.9333333333334C169.77792 823.6445866666667 189.8666666666667 832 213.3333333333333 832H810.6666666666666C834.1333333333333 832 854.2208 823.6445866666667 870.9333333333334 806.9333333333334C887.6458666666667 790.22208 896 770.1333333333333 896 746.6666666666667V149.3333333333334C896 125.8666666666667 887.6458666666667 105.7792 870.9333333333334 89.0666666666666C854.2208 72.3541333333333 834.1333333333333 64 810.6666666666666 64H213.3333333333333zM213.3333333333333 149.3333333333334H810.6666666666666V746.6666666666667H213.3333333333333V149.3333333333334z" />
    <glyph glyph-name="no-data"
      unicode="&#xE92A;"
      horiz-adv-x="1024" d="M85.3328 149.3344V234.6656000000001H511.9983999999999V149.3344H85.3328zM85.3328 362.6656000000001V448H298.66624V362.6656000000001H85.3328zM85.3328 576V661.33344H298.66624V576H85.3328zM878.9327999999999 149.3344L714.6672 313.6C697.5984 301.5104 678.9327999999999 292.4448 658.6672 286.4C638.3983999999999 280.3552 617.9535999999999 277.3344 597.3327999999999 277.3344C538.3119999999999 277.3344 487.9983999999999 298.1344000000001 446.3983999999999 339.7344000000001C404.7984 381.3344 383.9984 431.6448000000001 383.9984 490.6656C383.9984 549.6895999999999 404.7984 600 446.3983999999999 641.6C487.9983999999999 683.2 538.3119999999999 704 597.3327999999999 704C656.3535999999999 704 706.6672 683.2 748.2671999999999 641.6C789.8671999999999 600 810.6672 549.6895999999999 810.6672 490.6656C810.6672 470.0448 807.6432 449.6 801.5984 429.3344C795.5536 409.0656 786.4879999999999 390.4 774.3983999999999 373.3344L938.6672 209.0656L878.9327999999999 149.3344zM597.3327999999999 362.6656000000001C632.8879999999999 362.6656000000001 663.112 375.1104000000001 687.9984 400C712.8879999999999 424.8896 725.3327999999999 455.1104 725.3327999999999 490.6656C725.3327999999999 526.2208 712.8879999999999 556.4448 687.9984 581.3344C663.112 606.2208 632.8879999999999 618.6656 597.3327999999999 618.6656C561.7775999999999 618.6656 531.5536 606.2208 506.6672 581.3344C481.7776 556.4448 469.3327999999999 526.2208 469.3327999999999 490.6656C469.3327999999999 455.1104 481.7776 424.8896 506.6672 400C531.5536 375.1104000000001 561.7775999999999 362.6656000000001 597.3327999999999 362.6656000000001z" />
    <glyph glyph-name="my-vault"
      unicode="&#xE929;"
      horiz-adv-x="1024" d="M725.3333333333333 576H810.6666666666666V320H725.3333333333333V576zM384 832V576H128V832H384zM213.3333333333333 661.3333333333334H298.6666666666667V746.6666666666667H213.3333333333333V661.3333333333334zM384 320V64H128V320H384zM213.3333333333333 149.3333333333334H298.6666666666667V234.6666666666668H213.3333333333333V149.3333333333334zM896 832V576H640V832H896zM725.3333333333333 661.3333333333334H810.6666666666666V746.6666666666667H725.3333333333333V661.3333333333334zM896 320V64H640V320H896zM725.3333333333333 149.3333333333334H810.6666666666666V234.6666666666668H725.3333333333333V149.3333333333334zM213.3333333333333 576H298.6666666666667V320H213.3333333333333V576zM384 746.6666666666667H640V661.3333333333334H384V746.6666666666667zM384 234.6666666666668H640V149.3333333333334H384V234.6666666666668z" />
    <glyph glyph-name="my-strategy"
      unicode="&#xE928;"
      horiz-adv-x="1024" d="M853.3333333333333 192V106.6666666666667H170.6666666666667V192H853.3333333333333zM853.3333333333333 704H170.6666666666667V106.6666666666667C123.5383466666667 106.6666666666667 85.3333333333334 144.8704 85.3333333333334 192V704C85.3333333333334 751.12832 123.5383466666667 789.3333333333334 170.6666666666667 789.3333333333334H853.3333333333333L862.0416 788.8750933333333C905.0794666666666 784.512 938.6666666666666 748.1877333333334 938.6666666666666 704V192C938.6666666666666 147.8101333333334 905.0794666666666 111.4880000000001 862.0416 107.1232L853.3333333333333 106.6666666666667V704zM414.1666133333334 520.8320000000001C430.8309333333334 504.1706666666666 430.8309333333334 477.1626666666667 414.1666133333334 460.5013333333333L298.6666666666667 344.9984000000001L238.3334400000001 405.3333333333334L323.6667733333334 490.6666666666667L238.3334400000001 576L298.6666666666667 636.3332266666666L414.1666133333334 520.8320000000001zM512 362.6666666666668H725.3333333333333V277.3333333333334H512V362.6666666666668zM725.3333333333333 362.6666666666668V277.3333333333334H512V362.6666666666668H725.3333333333333z" />
    <glyph glyph-name="more"
      unicode="&#xE927;"
      horiz-adv-x="1024" d="M256 362.6666666666668C232.5333333333334 362.6666666666668 212.4445866666667 371.0208 195.7333333333334 387.7333333333334C179.02208 404.4458666666667 170.6666666666667 424.5333333333333 170.6666666666667 448C170.6666666666667 471.4666666666667 179.02208 491.5541333333333 195.7333333333334 508.2666666666667C212.4445866666667 524.9792 232.5333333333334 533.3333333333334 256 533.3333333333334C279.4666666666667 533.3333333333334 299.5554133333334 524.9792 316.2666666666667 508.2666666666667C332.9779200000001 491.5541333333333 341.3333333333334 471.4666666666667 341.3333333333334 448C341.3333333333334 424.5333333333333 332.9779200000001 404.4458666666667 316.2666666666667 387.7333333333334C299.5554133333334 371.0208 279.4666666666667 362.6666666666668 256 362.6666666666668zM512 362.6666666666668C488.5333333333333 362.6666666666668 468.4458666666667 371.0208 451.7333333333333 387.7333333333334C435.0208 404.4458666666667 426.6666666666667 424.5333333333333 426.6666666666667 448C426.6666666666667 471.4666666666667 435.0208 491.5541333333333 451.7333333333333 508.2666666666667C468.4458666666667 524.9792 488.5333333333333 533.3333333333334 512 533.3333333333334C535.4666666666667 533.3333333333334 555.5541333333333 524.9792 572.2666666666667 508.2666666666667C588.9792 491.5541333333333 597.3333333333333 471.4666666666667 597.3333333333333 448C597.3333333333333 424.5333333333333 588.9792 404.4458666666667 572.2666666666667 387.7333333333334C555.5541333333333 371.0208 535.4666666666667 362.6666666666668 512 362.6666666666668zM768 362.6666666666668C744.5333333333333 362.6666666666668 724.4458666666666 371.0208 707.7333333333332 387.7333333333334C691.0207999999999 404.4458666666667 682.6666666666666 424.5333333333333 682.6666666666666 448C682.6666666666666 471.4666666666667 691.0207999999999 491.5541333333333 707.7333333333332 508.2666666666667C724.4458666666666 524.9792 744.5333333333333 533.3333333333334 768 533.3333333333334C791.4666666666667 533.3333333333334 811.5541333333333 524.9792 828.2666666666667 508.2666666666667C844.9792 491.5541333333333 853.3333333333333 471.4666666666667 853.3333333333333 448C853.3333333333333 424.5333333333333 844.9792 404.4458666666667 828.2666666666667 387.7333333333334C811.5541333333333 371.0208 791.4666666666667 362.6666666666668 768 362.6666666666668z" />
    <glyph glyph-name="menu-vibe"
      unicode="&#xE926;"
      horiz-adv-x="1024" d="M170.6666666666667 149.3333333333334H341.3333333333334V490.6666666666667H170.6666666666667V149.3333333333334zM426.6666666666667 149.3333333333334H597.3333333333333V746.6666666666667H426.6666666666667V149.3333333333334zM682.6666666666666 149.3333333333334H853.3333333333333V405.3333333333334H682.6666666666666V149.3333333333334zM85.3333333333334 64V576H341.3333333333334V832H682.6666666666666V490.6666666666667H938.6666666666666V64H85.3333333333334z" />
    <glyph glyph-name="menu-my"
      unicode="&#xE925;"
      horiz-adv-x="1024" d="M554.6666666666666 490.6666666666667H851.1999999999999C840.5333333333333 568.8887466666667 808 635.2 753.6 689.6C699.1999999999999 744 632.8874666666666 776.5333333333333 554.6666666666666 787.2V490.6666666666667zM469.3333333333334 108.8000000000001V787.2C383.2887466666668 776.5333333333333 312.0000000000001 739.02208 255.4666666666667 674.6666666666667C198.9333333333333 610.3112533333333 170.6666666666667 534.7554133333333 170.6666666666667 448C170.6666666666667 361.2458666666667 198.9333333333333 285.6874666666668 255.4666666666667 221.3333333333334C312.0000000000001 156.9792000000001 383.2887466666668 119.4666666666667 469.3333333333334 108.8000000000001zM554.6666666666666 108.8000000000001C632.8874666666666 118.7541333333334 699.3792 151.1125333333333 754.1333333333333 205.8666666666667C808.8874666666667 260.6208000000001 841.2458666666666 327.1125333333335 851.1999999999999 405.3333333333334H554.6666666666666V108.8000000000001zM512 21.3333333333334C452.9792 21.3333333333334 397.5112533333334 32.5333333333333 345.6 54.9333333333334C293.6887466666667 77.3333333333334 248.5333333333334 107.7333333333334 210.1333333333334 146.1333333333335C171.7333333333334 184.5333333333333 141.3333333333334 229.6874666666667 118.9333333333334 281.6C96.5333333333334 333.5125333333334 85.3333333333334 388.9792 85.3333333333334 448C85.3333333333334 507.0208 96.5333333333334 562.4887466666667 118.9333333333334 614.4000000000001C141.3333333333334 666.3112533333333 171.7333333333334 711.4666666666667 210.1333333333334 749.8666666666667C248.5333333333334 788.2666666666667 293.6887466666667 818.6666666666667 345.6 841.0666666666666C397.5112533333334 863.4666666666667 452.9792 874.6666666666666 512 874.6666666666666C571.0208 874.6666666666666 626.3125333333332 863.4666666666667 677.8666666666666 841.0666666666666C729.4208 818.6666666666667 774.5791999999999 788.0887466666667 813.3333333333333 749.3333333333334C852.0874666666666 710.57792 882.6666666666666 665.42208 905.0666666666666 613.8666666666667C927.4666666666666 562.3112533333333 938.6666666666666 507.0208 938.6666666666666 448C938.6666666666666 389.6874666666668 927.4666666666666 334.5792 905.0666666666666 282.6666666666668C882.6666666666666 230.7541333333334 852.2666666666667 185.4208000000001 813.8666666666666 146.6666666666668C775.4666666666667 107.9125333333334 730.3125333333334 77.3333333333334 678.4 54.9333333333334C626.4874666666666 32.5333333333333 571.0208 21.3333333333334 512 21.3333333333334z" />
    <glyph glyph-name="menu-login"
      unicode="&#xE924;"
      horiz-adv-x="1024" d="M249.6 230.4C285.8666666666668 258.1333333333335 326.4000000000001 280 371.2 296C416.0000000000001 312 462.9333333333333 320 512 320C561.0666666666666 320 608 312 652.8 296C697.6 280 738.1333333333333 258.1333333333335 774.3999999999999 230.4C799.2874666666667 259.5541333333335 818.6666666666666 292.6208000000001 832.5333333333333 329.6C846.3999999999999 366.5792 853.3333333333333 406.0458666666667 853.3333333333333 448C853.3333333333333 542.5779200000001 820.0874666666666 623.1112533333334 753.6 689.6C687.1125333333332 756.0887466666667 606.5791999999999 789.3333333333334 512 789.3333333333334C417.42208 789.3333333333334 336.8887466666667 756.0887466666667 270.4000000000001 689.6C203.9112533333334 623.1112533333334 170.6666666666667 542.5779200000001 170.6666666666667 448C170.6666666666667 406.0458666666667 177.6 366.5792 191.4666666666667 329.6C205.3333333333334 292.6208000000001 224.7112533333334 259.5541333333335 249.6 230.4zM512 405.3333333333334C470.0458666666667 405.3333333333334 434.6666666666667 419.7333333333334 405.8666666666667 448.5333333333333C377.0666666666667 477.3333333333334 362.6666666666667 512.7125333333333 362.6666666666667 554.6666666666667C362.6666666666667 596.6220800000001 377.0666666666667 632 405.8666666666667 660.8C434.6666666666667 689.6 470.0458666666667 704 512 704C553.9541333333333 704 589.3333333333333 689.6 618.1333333333333 660.8C646.9333333333333 632 661.3333333333333 596.6220800000001 661.3333333333333 554.6666666666667C661.3333333333333 512.7125333333333 646.9333333333333 477.3333333333334 618.1333333333333 448.5333333333333C589.3333333333333 419.7333333333334 553.9541333333333 405.3333333333334 512 405.3333333333334zM512 21.3333333333334C452.9792 21.3333333333334 397.5112533333334 32.5333333333333 345.6 54.9333333333334C293.6887466666667 77.3333333333334 248.5333333333334 107.7333333333334 210.1333333333334 146.1333333333335C171.7333333333334 184.5333333333333 141.3333333333334 229.6874666666667 118.9333333333334 281.6C96.5333333333334 333.5125333333334 85.3333333333334 388.9792 85.3333333333334 448C85.3333333333334 507.0208 96.5333333333334 562.4887466666667 118.9333333333334 614.4000000000001C141.3333333333334 666.3112533333333 171.7333333333334 711.4666666666667 210.1333333333334 749.8666666666667C248.5333333333334 788.2666666666667 293.6887466666667 818.6666666666667 345.6 841.0666666666666C397.5112533333334 863.4666666666667 452.9792 874.6666666666666 512 874.6666666666666C571.0208 874.6666666666666 626.4874666666666 863.4666666666667 678.4 841.0666666666666C730.3125333333334 818.6666666666667 775.4666666666667 788.2666666666667 813.8666666666666 749.8666666666667C852.2666666666667 711.4666666666667 882.6666666666666 666.3112533333333 905.0666666666666 614.4000000000001C927.4666666666666 562.4887466666667 938.6666666666666 507.0208 938.6666666666666 448C938.6666666666666 388.9792 927.4666666666666 333.5125333333334 905.0666666666666 281.6C882.6666666666666 229.6874666666667 852.2666666666667 184.5333333333333 813.8666666666666 146.1333333333335C775.4666666666667 107.7333333333334 730.3125333333334 77.3333333333334 678.4 54.9333333333334C626.4874666666666 32.5333333333333 571.0208 21.3333333333334 512 21.3333333333334zM512 106.6666666666667C549.6874666666666 106.6666666666667 585.2458666666666 112.1792 618.6666666666666 123.2000000000001C652.0874666666666 134.2208000000001 682.6666666666666 150.0458666666667 710.3999999999999 170.6666666666668C682.6666666666666 191.2874666666667 652.0874666666666 207.1125333333333 618.6666666666666 218.1333333333335C585.2458666666666 229.1541333333334 549.6874666666666 234.6666666666668 512 234.6666666666668C474.3125333333334 234.6666666666668 438.7541333333334 229.1541333333334 405.3333333333334 218.1333333333335C371.9112533333334 207.1125333333333 341.3333333333334 191.2874666666667 313.6 170.6666666666668C341.3333333333334 150.0458666666667 371.9112533333334 134.2208000000001 405.3333333333334 123.2000000000001C438.7541333333334 112.1792 474.3125333333334 106.6666666666667 512 106.6666666666667zM512 490.6666666666667C530.4874666666666 490.6666666666667 545.7792 496.7125333333333 557.8666666666666 508.8000000000001C569.9541333333333 520.8874666666667 576 536.1779200000001 576 554.6666666666667C576 573.1554133333334 569.9541333333333 588.4445866666667 557.8666666666666 600.5333333333333C545.7792 612.6220800000001 530.4874666666666 618.6666666666667 512 618.6666666666667C493.5125333333334 618.6666666666667 478.2208 612.6220800000001 466.1333333333334 600.5333333333333C454.0458666666667 588.4445866666667 448.0000000000001 573.1554133333334 448.0000000000001 554.6666666666667C448.0000000000001 536.1779200000001 454.0458666666667 520.8874666666667 466.1333333333334 508.8000000000001C478.2208 496.7125333333333 493.5125333333334 490.6666666666667 512 490.6666666666667z" />
    <glyph glyph-name="menu-language"
      unicode="&#xE923;"
      horiz-adv-x="1024" d="M512 21.3333333333334C453.6874666666667 21.3333333333334 398.5779200000001 32.5333333333333 346.6666666666667 54.9333333333334C294.7554133333334 77.3333333333334 249.4220800000001 107.9125333333334 210.6666666666667 146.6666666666668C171.9112533333334 185.4208000000001 141.3333333333334 230.7541333333334 118.9333333333334 282.6666666666668C96.5333333333334 334.5792 85.3333333333334 389.6874666666668 85.3333333333334 448C85.3333333333334 507.0208 96.5333333333334 562.3112533333333 118.9333333333334 613.8666666666667C141.3333333333334 665.42208 171.9112533333334 710.57792 210.6666666666667 749.3333333333334C249.4220800000001 788.0887466666667 294.7554133333334 818.6666666666667 346.6666666666667 841.0666666666666C398.5779200000001 863.4666666666667 453.6874666666667 874.6666666666666 512 874.6666666666666C571.0208 874.6666666666666 626.3125333333332 863.4666666666667 677.8666666666666 841.0666666666666C729.4208 818.6666666666667 774.5791999999999 788.0887466666667 813.3333333333333 749.3333333333334C852.0874666666666 710.57792 882.6666666666666 665.42208 905.0666666666666 613.8666666666667C927.4666666666666 562.3112533333333 938.6666666666666 507.0208 938.6666666666666 448C938.6666666666666 389.6874666666668 927.4666666666666 334.5792 905.0666666666666 282.6666666666668C882.6666666666666 230.7541333333334 852.0874666666666 185.4208000000001 813.3333333333333 146.6666666666668C774.5791999999999 107.9125333333334 729.4208 77.3333333333334 677.8666666666666 54.9333333333334C626.3125333333332 32.5333333333333 571.0208 21.3333333333334 512 21.3333333333334zM512 108.8000000000001C530.4874666666666 134.4 546.4874666666666 161.0666666666666 560 188.8000000000001C573.5125333333333 216.5333333333333 584.5333333333333 246.0458666666667 593.0666666666666 277.3333333333334H430.9333333333334C439.4666666666668 246.0458666666667 450.4874666666666 216.5333333333333 464.0000000000001 188.8000000000001C477.5125333333334 161.0666666666666 493.5125333333334 134.4 512 108.8000000000001zM401.0666666666667 125.8666666666667C388.2666666666667 149.3333333333334 377.0666666666667 173.6874666666666 367.4666666666668 198.9333333333334C357.8666666666667 224.1792 349.8666666666667 250.3125333333335 343.4666666666668 277.3333333333334H217.6C238.2220800000001 241.7792 264.0000000000001 210.8458666666668 294.9333333333334 184.5333333333333C325.8666666666668 158.2208000000001 361.2445866666668 138.6666666666668 401.0666666666667 125.8666666666667zM622.9333333333333 125.8666666666667C662.7541333333334 138.6666666666668 698.1333333333333 158.2208000000001 729.0666666666666 184.5333333333333C760 210.8458666666668 785.7792 241.7792 806.3999999999999 277.3333333333334H680.5333333333333C674.1333333333333 250.3125333333335 666.1333333333333 224.1792 656.5333333333333 198.9333333333334C646.9333333333333 173.6874666666666 635.7333333333333 149.3333333333334 622.9333333333333 125.8666666666667zM181.3333333333334 362.6666666666668H326.4000000000001C324.2666666666667 376.8874666666667 322.6666666666667 390.9333333333334 321.6 404.8000000000001C320.5333333333334 418.6666666666668 320.0000000000001 433.0666666666667 320.0000000000001 448C320.0000000000001 462.9333333333333 320.5333333333334 477.3333333333334 321.6 491.2C322.6666666666667 505.0666666666667 324.2666666666667 519.1125333333334 326.4000000000001 533.3333333333334H181.3333333333334C177.7779200000001 519.1125333333334 175.1112533333334 505.0666666666667 173.3333333333334 491.2C171.5554133333334 477.3333333333334 170.6666666666667 462.9333333333333 170.6666666666667 448C170.6666666666667 433.0666666666667 171.5554133333334 418.6666666666668 173.3333333333334 404.8000000000001C175.1112533333334 390.9333333333334 177.7779200000001 376.8874666666667 181.3333333333334 362.6666666666668zM411.7333333333334 362.6666666666668H612.2666666666667C614.4 376.8874666666667 616 390.9333333333334 617.0666666666666 404.8000000000001C618.1333333333333 418.6666666666668 618.6666666666666 433.0666666666667 618.6666666666666 448C618.6666666666666 462.9333333333333 618.1333333333333 477.3333333333334 617.0666666666666 491.2C616 505.0666666666667 614.4 519.1125333333334 612.2666666666667 533.3333333333334H411.7333333333334C409.6 519.1125333333334 408.0000000000001 505.0666666666667 406.9333333333334 491.2C405.8666666666667 477.3333333333334 405.3333333333334 462.9333333333333 405.3333333333334 448C405.3333333333334 433.0666666666667 405.8666666666667 418.6666666666668 406.9333333333334 404.8000000000001C408.0000000000001 390.9333333333334 409.6 376.8874666666667 411.7333333333334 362.6666666666668zM697.6 362.6666666666668H842.6666666666666C846.2208 376.8874666666667 848.8874666666667 390.9333333333334 850.6666666666666 404.8000000000001C852.4458666666666 418.6666666666668 853.3333333333333 433.0666666666667 853.3333333333333 448C853.3333333333333 462.9333333333333 852.4458666666666 477.3333333333334 850.6666666666666 491.2C848.8874666666667 505.0666666666667 846.2208 519.1125333333334 842.6666666666666 533.3333333333334H697.6C699.7333333333332 519.1125333333334 701.3333333333333 505.0666666666667 702.3999999999999 491.2C703.4666666666667 477.3333333333334 704 462.9333333333333 704 448C704 433.0666666666667 703.4666666666667 418.6666666666668 702.3999999999999 404.8000000000001C701.3333333333333 390.9333333333334 699.7333333333332 376.8874666666667 697.6 362.6666666666668zM680.5333333333333 618.6666666666667H806.3999999999999C785.7792 654.22208 760 685.1554133333334 729.0666666666666 711.4666666666667C698.1333333333333 737.77792 662.7541333333334 757.3333333333334 622.9333333333333 770.1333333333333C635.7333333333333 746.6666666666667 646.9333333333333 722.3112533333333 656.5333333333333 697.0666666666667C666.1333333333333 671.82208 674.1333333333333 645.6887466666667 680.5333333333333 618.6666666666667zM430.9333333333334 618.6666666666667H593.0666666666666C584.5333333333333 649.9554133333334 573.5125333333333 679.4666666666667 560 707.2C546.4874666666666 734.9333333333334 530.4874666666666 761.6 512 787.2C493.5125333333334 761.6 477.5125333333334 734.9333333333334 464.0000000000001 707.2C450.4874666666666 679.4666666666667 439.4666666666668 649.9554133333334 430.9333333333334 618.6666666666667zM217.6 618.6666666666667H343.4666666666668C349.8666666666667 645.6887466666667 357.8666666666667 671.82208 367.4666666666668 697.0666666666667C377.0666666666667 722.3112533333333 388.2666666666667 746.6666666666667 401.0666666666667 770.1333333333333C361.2445866666668 757.3333333333334 325.8666666666668 737.77792 294.9333333333334 711.4666666666667C264.0000000000001 685.1554133333334 238.2220800000001 654.22208 217.6 618.6666666666667z" />
    <glyph glyph-name="menu-chat"
      unicode="&#xE922;"
      horiz-adv-x="1024" d="M469.3333333333334 405.3333333333334H213.3333333333334V490.6666666666667H469.3333333333334V746.6666666666667H554.6666666666667V490.6666666666667H810.6666666666667V405.3333333333334H554.6666666666667V149.3333333333334H469.3333333333334V405.3333333333334z" />
    <glyph glyph-name="logout"
      unicode="&#xE921;"
      horiz-adv-x="1024" d="M810.6666666666666 832C834.1333333333333 832 854.2208 823.64416 870.9333333333334 806.9333333333334C887.6458666666667 790.22208 896 770.1333333333333 896 746.6666666666667L896 149.3333333333334C896 125.8666666666667 887.6458666666667 105.7792 870.9333333333334 89.0666666666666C854.2208 72.3541333333333 834.1333333333333 64 810.6666666666666 64L512 64L512 149.3333333333334L810.6666666666666 149.3333333333334L810.6666666666666 746.6666666666667L512 746.6666666666667L512 832L810.6666666666666 832zM341.3333333333333 661.3333333333334L400 599.4666666666667L291.2 490.6666666666667L640 490.6666666666667L640 405.3333333333334L291.2 405.3333333333334L400 296.5333333333333L341.3333333333333 234.6666666666668L128 448L341.3333333333333 661.3333333333334z" />
    <glyph glyph-name="loading"
      unicode="&#xE920;"
      horiz-adv-x="1024" d="M512 21.3333333333334C453.6874666666667 21.3333333333334 398.5779200000001 32.5333333333333 346.6666666666667 54.9333333333334C294.7554133333334 77.3333333333334 249.4220800000001 107.9125333333334 210.6666666666667 146.6666666666668C171.9112533333334 185.4208000000001 141.3333333333334 230.7541333333334 118.9333333333334 282.6666666666668C96.5333333333334 334.5792 85.3333333333334 389.6874666666668 85.3333333333334 448C85.3333333333334 507.0208 96.5333333333334 562.3112533333333 118.9333333333334 613.8666666666667C141.3333333333334 665.42208 171.9112533333334 710.57792 210.6666666666667 749.3333333333334C249.4220800000001 788.0887466666667 294.7554133333334 818.6666666666667 346.6666666666667 841.0666666666666C398.5779200000001 863.4666666666667 453.6874666666667 874.6666666666666 512 874.6666666666666C524.0874666666666 874.6666666666666 534.2207999999999 870.57792 542.4 862.4C550.5791999999999 854.22208 554.6666666666666 844.0887466666667 554.6666666666666 832C554.6666666666666 819.9112533333333 550.5791999999999 809.77792 542.4 801.6C534.2207999999999 793.42208 524.0874666666666 789.3333333333334 512 789.3333333333334C417.42208 789.3333333333334 336.8887466666667 756.0887466666667 270.4000000000001 689.6C203.9112533333334 623.1112533333334 170.6666666666667 542.5779200000001 170.6666666666667 448C170.6666666666667 353.4208000000001 203.9112533333334 272.8874666666668 270.4000000000001 206.4C336.8887466666667 139.9125333333334 417.42208 106.6666666666667 512 106.6666666666667C606.5791999999999 106.6666666666667 687.1125333333332 139.9125333333334 753.6 206.4C820.0874666666666 272.8874666666668 853.3333333333333 353.4208000000001 853.3333333333333 448C853.3333333333333 460.0874666666667 857.4208 470.2208 865.6 478.4C873.7792 486.5792 883.9125333333333 490.6666666666667 896 490.6666666666667C908.0874666666666 490.6666666666667 918.2208 486.5792 926.3999999999997 478.4C934.5792 470.2208 938.6666666666666 460.0874666666667 938.6666666666666 448C938.6666666666666 389.6874666666668 927.4666666666666 334.5792 905.0666666666666 282.6666666666668C882.6666666666666 230.7541333333334 852.0874666666666 185.4208000000001 813.3333333333333 146.6666666666668C774.5791999999999 107.9125333333334 729.4208 77.3333333333334 677.8666666666666 54.9333333333334C626.3125333333332 32.5333333333333 571.0208 21.3333333333334 512 21.3333333333334z" />
    <glyph glyph-name="launch"
      unicode="&#xE91F;"
      horiz-adv-x="1024" d="M469.3333333333333 131.2000000000001V423.4666666666667L213.3333333333333 571.7333333333333V279.4666666666667L469.3333333333333 131.2000000000001zM554.6666666666666 131.2000000000001L810.6666666666666 279.4666666666667V571.7333333333333L554.6666666666666 423.4666666666667V131.2000000000001zM512 497.0666666666667L764.8 643.2L512 789.3333333333334L259.2 643.2L512 497.0666666666667zM170.6666666666667 204.8000000000001C157.1554133333334 212.6208 146.6666666666667 222.9333333333334 139.2 235.7333333333334C131.7333333333333 248.5333333333333 128 262.7541333333334 128 278.4000000000001V617.6C128 633.2445866666667 131.7333333333333 647.4666666666667 139.2 660.2666666666667C146.6666666666667 673.0666666666667 157.1554133333334 683.37792 170.6666666666667 691.2L469.3333333333333 862.9333333333334C482.8458666666667 870.7554133333333 497.0666666666667 874.6666666666666 512 874.6666666666666C526.9333333333333 874.6666666666666 541.1541333333332 870.7554133333333 554.6666666666666 862.9333333333334L853.3333333333333 691.2C866.8458666666667 683.37792 877.3333333333333 673.0666666666667 884.8 660.2666666666667C892.2666666666667 647.4666666666667 896 633.2445866666667 896 617.6V278.4000000000001C896 262.7541333333334 892.2666666666667 248.5333333333333 884.8 235.7333333333334C877.3333333333333 222.9333333333334 866.8458666666667 212.6208 853.3333333333333 204.8000000000001L554.6666666666666 33.0666666666666C541.1541333333332 25.2458666666666 526.9333333333333 21.3333333333334 512 21.3333333333334C497.0666666666667 21.3333333333334 482.8458666666667 25.2458666666666 469.3333333333333 33.0666666666666L170.6666666666667 204.8000000000001z" />
    <glyph glyph-name="info-circle"
      unicode="&#xE91E;"
      horiz-adv-x="1024" d="M469.3333333333334 234.6666666666668H554.6666666666666V490.6666666666667H469.3333333333334V234.6666666666668zM512 576C524.0874666666666 576 534.2207999999999 580.0887466666667 542.4 588.2666666666667C550.5791999999999 596.4445866666667 554.6666666666666 606.5779200000001 554.6666666666666 618.6666666666667C554.6666666666666 630.7554133333333 550.5791999999999 640.8887466666667 542.4 649.0666666666667C534.2207999999999 657.2445866666667 524.0874666666666 661.3333333333334 512 661.3333333333334C499.9125333333333 661.3333333333334 489.7792000000001 657.2445866666667 481.6 649.0666666666667C473.4208 640.8887466666667 469.3333333333334 630.7554133333333 469.3333333333334 618.6666666666667C469.3333333333334 606.5779200000001 473.4208 596.4445866666667 481.6 588.2666666666667C489.7792000000001 580.0887466666667 499.9125333333333 576 512 576zM512 21.3333333333334C452.9792 21.3333333333334 397.5112533333334 32.5333333333333 345.6 54.9333333333334C293.6887466666667 77.3333333333334 248.5333333333334 107.7333333333334 210.1333333333334 146.1333333333335C171.7333333333334 184.5333333333333 141.3333333333334 229.6874666666667 118.9333333333334 281.6C96.5333333333334 333.5125333333334 85.3333333333334 388.9792 85.3333333333334 448C85.3333333333334 507.0208 96.5333333333334 562.4887466666667 118.9333333333334 614.4000000000001C141.3333333333334 666.3112533333333 171.7333333333334 711.4666666666667 210.1333333333334 749.8666666666667C248.5333333333334 788.2666666666667 293.6887466666667 818.6666666666667 345.6 841.0666666666666C397.5112533333334 863.4666666666667 452.9792 874.6666666666666 512 874.6666666666666C571.0208 874.6666666666666 626.4874666666666 863.4666666666667 678.4 841.0666666666666C730.3125333333334 818.6666666666667 775.4666666666667 788.2666666666667 813.8666666666666 749.8666666666667C852.2666666666667 711.4666666666667 882.6666666666666 666.3112533333333 905.0666666666666 614.4000000000001C927.4666666666666 562.4887466666667 938.6666666666666 507.0208 938.6666666666666 448C938.6666666666666 388.9792 927.4666666666666 333.5125333333334 905.0666666666666 281.6C882.6666666666666 229.6874666666667 852.2666666666667 184.5333333333333 813.8666666666666 146.1333333333335C775.4666666666667 107.7333333333334 730.3125333333334 77.3333333333334 678.4 54.9333333333334C626.4874666666666 32.5333333333333 571.0208 21.3333333333334 512 21.3333333333334zM512 106.6666666666667C607.2874666666667 106.6666666666667 688 139.7333333333334 754.1333333333333 205.8666666666667C820.2666666666667 272 853.3333333333333 352.7125333333334 853.3333333333333 448C853.3333333333333 543.2887466666667 820.2666666666667 624 754.1333333333333 690.1333333333333C688 756.2666666666667 607.2874666666667 789.3333333333334 512 789.3333333333334C416.7112533333334 789.3333333333334 336.0000000000001 756.2666666666667 269.8666666666668 690.1333333333333C203.7333333333334 624 170.6666666666667 543.2887466666667 170.6666666666667 448C170.6666666666667 352.7125333333334 203.7333333333334 272 269.8666666666668 205.8666666666667C336.0000000000001 139.7333333333334 416.7112533333334 106.6666666666667 512 106.6666666666667z" />
    <glyph glyph-name="history"
      unicode="&#xE91D;"
      horiz-adv-x="1024" d="M213.3333333333333 21.3333333333334C189.8666666666667 21.3333333333334 169.77792 29.6874666666666 153.0666666666667 46.4C136.3554133333333 63.1125333333333 128 83.2000000000001 128 106.6666666666667V704C128 727.4666666666667 136.3554133333333 747.5554133333334 153.0666666666667 764.2666666666667C169.77792 780.97792 189.8666666666667 789.3333333333334 213.3333333333333 789.3333333333334H256V874.6666666666666H341.3333333333333V789.3333333333334H682.6666666666666V874.6666666666666H768V789.3333333333334H810.6666666666666C834.1333333333333 789.3333333333334 854.2208 780.97792 870.9333333333334 764.2666666666667C887.6458666666667 747.5554133333334 896 727.4666666666667 896 704V106.6666666666667C896 83.2000000000001 887.6458666666667 63.1125333333333 870.9333333333334 46.4C854.2208 29.6874666666666 834.1333333333333 21.3333333333334 810.6666666666666 21.3333333333334H213.3333333333333zM213.3333333333333 106.6666666666667H810.6666666666666V533.3333333333334H213.3333333333333V106.6666666666667zM213.3333333333333 618.6666666666667H810.6666666666666V704H213.3333333333333V618.6666666666667zM298.6666666666667 362.6666666666668V448H725.3333333333333V362.6666666666668H298.6666666666667zM298.6666666666667 192V277.3333333333334H597.3333333333333V192H298.6666666666667z" />
    <glyph glyph-name="generate-code"
      unicode="&#xE91C;"
      horiz-adv-x="1024" d="M341.3333333333334 192L85.3333333333334 448L341.3333333333334 704L402.1333333333334 643.2L205.8666666666667 446.9333333333334L401.0666666666667 251.7333333333334L341.3333333333334 192zM682.6666666666666 192L621.8666666666666 252.8000000000001L818.1333333333333 449.0666666666667L622.9333333333333 644.2666666666667L682.6666666666666 704L938.6666666666666 448L682.6666666666666 192z" />
    <glyph glyph-name="fold"
      unicode="&#xE91B;"
      horiz-adv-x="1024" d="M128 704H896V618.6666666666667H128V704zM128 490.6666666666667H896V405.3333333333334H128V490.6666666666667zM128 277.3333333333334H896V192H128V277.3333333333334z" />
    <glyph glyph-name="flower"
      unicode="&#xE91A;"
      horiz-adv-x="1024" d="M511.8430978151515 746.49984C462.0510978151515 746.49984 411.7048578151515 696.1792 423.1826178151515 646.9414400000001C428.0030978151515 626.10688 439.9506178151515 597.96864 462.0510978151515 559.8335999999999C472.8030978151515 541.30304 449.3368578151515 527.23584 438.7128578151515 545.8304C417.2946178151515 583.3894399999999 399.8430978151515 608.9728 384.2706178151515 623.61088C346.2968578151515 659.35744 278.5003778151515 640.27264 253.6248578151515 597.16608C228.7506178151515 554.05696 247.2683778151515 485.8496 295.6088578151515 471.17184C316.0888578151515 464.94208 344.8466178151515 461.74208 388.9630978151515 461.82784C410.7666178151515 461.87008 411.4488578151515 435.2896 390.4990978151515 435.3740800000001C347.2786178151515 435.63008 317.6248578151515 432.2176 297.1883778151515 426.0736000000001C247.2248578151515 411.01184 228.7506178151515 343.17184 253.6248578151515 300.03584C278.5003778151515 256.9420800000001 345.8283778151515 237.5296 382.7346178151515 272.04608C398.3506178151515 286.6816 416.7826178151515 311.59808 438.7128578151515 349.8278400000001C449.3368578151515 368.2598400000001 472.6750978151514 353.96736 462.0510978151515 335.8336000000001C440.2488578151515 298.49984 428.0888578151515 271.0656 423.1826178151515 250.28608C411.2350978151515 199.5136 462.0510978151515 149.16736 511.8430978151515 149.16736C561.6350978151514 149.16736 610.4030978151515 199.4700800000001 598.9688578151514 248.7078400000001C594.1048578151515 269.57184 582.2008578151515 297.6896000000001 560.0568578151515 335.8336000000001C548.5368578151515 355.6736 573.7093378151515 369.58208 584.9733378151515 349.8278400000001C606.3928578151515 312.2816000000001 623.8430978151515 288.2598400000001 639.4168578151515 273.6256C677.3893378151514 237.87136 745.1870978151514 255.4073600000001 770.0613378151514 298.49984C794.9368578151515 341.5936000000001 776.4190978151514 409.8176 728.0773378151515 424.4940800000001C707.5973378151515 430.72384 677.2613378151515 433.9238400000001 633.1870978151514 433.83808C610.9573378151515 433.79584 611.3848578151515 461.95584 633.1870978151514 461.82784C676.4088578151515 461.61408 707.5973378151515 465.02784 728.0773378151515 471.17184C778.0395778151515 486.19008 794.9368578151515 554.05696 770.0613378151514 597.16608C745.1870978151514 640.27264 677.8590978151515 658.14528 640.9528578151514 623.61088C625.3368578151515 608.99328 606.9048578151514 585.62048 584.9733378151515 547.38688C573.7093378151515 527.79008 548.8773378151515 540.70144 560.0568578151515 559.8335999999999C581.8590978151515 597.16224 594.0613378151514 624.5926400000001 598.9688578151514 645.3888C610.9150978151515 696.1702399999999 561.6350978151514 746.49984 511.8430978151515 746.49984z" />
    <glyph glyph-name="flow"
      unicode="&#xE919;"
      horiz-adv-x="1024" d="M640 106.6666666666667V192H469.3333333333334V405.3333333333334H384.0000000000001V320H85.3333333333334V576H384.0000000000001V490.6666666666667H469.3333333333334V704H640V789.3333333333334H938.6666666666666V533.3333333333334H640V618.6666666666667H554.6666666666666V277.3333333333334H640V362.6666666666668H938.6666666666666V106.6666666666667H640zM725.3333333333333 192H853.3333333333333V277.3333333333334H725.3333333333333V192zM170.6666666666667 405.3333333333334H298.6666666666667V490.6666666666667H170.6666666666667V405.3333333333334zM725.3333333333333 618.6666666666667H853.3333333333333V704H725.3333333333333V618.6666666666667z" />
    <glyph glyph-name="expand"
      unicode="&#xE918;"
      horiz-adv-x="1024" d="M512 422.4000000000001L708.2666666666667 618.6666666666667L768 558.9333333333334L512 302.9333333333334L256 558.9333333333334L315.7333333333334 618.6666666666667L512 422.4000000000001z" />
    <glyph glyph-name="execution-layer"
      unicode="&#xE917;"
      horiz-adv-x="1024" d="M418.6666666666667 192V277.3333333333334H674.6666666666666V192H418.6666666666667zM250.1333333333334 192L8 434.1333333333335L68.8 494.9333333333333L250.1333333333334 313.6L640.5333333333333 704L701.3333333333333 643.2L250.1333333333334 192zM589.3333333333333 362.6666666666668V448H845.3333333333333V362.6666666666668H589.3333333333333zM760 533.3333333333334V618.6666666666667H1016V533.3333333333334H760z" />
    <glyph glyph-name="email"
      unicode="&#xE916;"
      horiz-adv-x="1024" d="M170.6666666666667 106.6666666666667C147.2000000000001 106.6666666666667 127.1112533333334 115.0208 110.4 131.7333333333334C93.6887466666667 148.4458666666667 85.3333333333334 168.5333333333333 85.3333333333334 192V704C85.3333333333334 727.4666666666667 93.6887466666667 747.5554133333334 110.4 764.2666666666667C127.1112533333334 780.97792 147.2000000000001 789.3333333333334 170.6666666666667 789.3333333333334H853.3333333333333C876.8 789.3333333333334 896.8874666666667 780.97792 913.6 764.2666666666667C930.3125333333334 747.5554133333334 938.6666666666666 727.4666666666667 938.6666666666666 704V192C938.6666666666666 168.5333333333333 930.3125333333334 148.4458666666667 913.6 131.7333333333334C896.8874666666667 115.0208 876.8 106.6666666666667 853.3333333333333 106.6666666666667H170.6666666666667zM512 405.3333333333334L170.6666666666667 618.6666666666667V192H853.3333333333333V618.6666666666667L512 405.3333333333334zM512 490.6666666666667L853.3333333333333 704H170.6666666666667L512 490.6666666666667zM170.6666666666667 618.6666666666667V704V192V618.6666666666667z" />
    <glyph glyph-name="edit"
      unicode="&#xE915;"
      horiz-adv-x="1024" d="M213.3333333333333 149.3333333333334H274.1333333333334L691.1999999999999 566.4000000000001L630.4 627.2L213.3333333333333 210.1333333333335V149.3333333333334zM128 64V245.3333333333334L691.1999999999999 807.4666666666667C699.7333333333332 815.2887466666666 709.1541333333332 821.3333333333334 719.4666666666667 825.6C729.7792 829.8666666666667 740.6207999999999 832 752 832C763.3792 832 774.3999999999999 829.8666666666667 785.0666666666666 825.6C795.7333333333332 821.3333333333334 804.9792 814.9333333333334 812.8 806.4L871.4666666666667 746.6666666666667C880 738.8445866666667 886.2208 729.6 890.1333333333333 718.9333333333334C894.0458666666666 708.2666666666667 896 697.6 896 686.9333333333334C896 675.5554133333334 894.0458666666666 664.7112533333334 890.1333333333333 654.4000000000001C886.2208 644.0887466666667 880 634.6666666666667 871.4666666666667 626.1333333333333L309.3333333333333 64H128zM660.2666666666667 596.2666666666667L630.4 627.2L691.1999999999999 566.4000000000001L660.2666666666667 596.2666666666667z" />
    <glyph glyph-name="drag-expand"
      unicode="&#xE914;"
      horiz-adv-x="1024" d="M469.3333333333334 64H554.6666666666666V832H469.3333333333334V64zM384 661.3333333333334V234.6666666666668L170.6666666666667 448L384 661.3333333333334zM640 661.3333333333334V234.6666666666668L853.3333333333333 448L640 661.3333333333334z" />
    <glyph glyph-name="download"
      unicode="&#xE913;"
      horiz-adv-x="1024" d="M512 277.3333333333334L298.6666666666667 490.6666666666667L358.4 552.5333333333333L469.3333333333334 441.6V789.3333333333334H554.6666666666666V441.6L665.5999999999999 552.5333333333333L725.3333333333333 490.6666666666667L512 277.3333333333334zM256 106.6666666666667C232.5333333333334 106.6666666666667 212.4445866666667 115.0208 195.7333333333334 131.7333333333334C179.02208 148.4458666666667 170.6666666666667 168.5333333333333 170.6666666666667 192V320H256V192H768V320H853.3333333333333V192C853.3333333333333 168.5333333333333 844.9792 148.4458666666667 828.2666666666667 131.7333333333334C811.5541333333333 115.0208 791.4666666666667 106.6666666666667 768 106.6666666666667H256z" />
    <glyph glyph-name="double-right"
      unicode="&#xF101;"
      horiz-adv-x="1024" d="M285.8662115555557 191.9886222222223L44.7993173333334 433.0552888888889L105.599544888889 492.7886222222223L286.9328782222223 311.455288888889L346.6662115555556 251.7219555555556L285.8662115555557 191.9886222222223zM526.9328782222223 191.9886222222223L285.8662115555557 433.0552888888889L345.599544888889 493.8552888888889L526.9328782222223 312.5248000000001L919.4673493333333 705.055288888889L979.2006826666666 644.2552888888889L526.9328782222223 191.9886222222223zM526.9328782222223 433.0552888888889L466.1328782222223 492.7886222222223L677.3311715555557 703.9886222222221L738.1340160000001 644.2552888888889L526.9328782222223 433.0552888888889z" />
    <glyph glyph-name="discord"
      unicode="&#xE912;"
      horiz-adv-x="1024" d="M764.8819282524246 677.2983466666667C846.9896615857581 555.7188266666667 887.5400615857579 418.5813333333333 872.3805949190914 260.7018666666667C872.3165949190914 260.0362666666668 871.9709949190915 259.4218666666668 871.424861585758 259.0208C809.2467282524246 213.0389333333333 749.0056615857579 185.1306666666667 689.6093949190913 166.6261333333334C689.1443282524247 166.4853333333334 688.6493949190913 166.4938666666667 688.192861585758 166.6474666666667C687.7363282524248 166.8053333333335 687.335261585758 167.0997333333334 687.0536615857582 167.4965333333333C673.3320615857581 186.7264 660.864861585758 206.9973333333335 649.9379282524246 228.2837333333335C649.3149949190913 229.5381333333334 649.8867282524247 231.0485333333334 651.1752615857581 231.5434666666668C670.9768615857581 239.0570666666668 689.8099282524247 248.0640000000001 707.9219282524248 258.7264C709.3469949190915 259.5669333333334 709.4365949190915 261.6277333333335 708.1181949190914 262.6176000000001C704.2739282524249 265.4890666666668 700.468061585758 268.5098666666667 696.8243282524247 271.5306666666668C696.1416615857579 272.0896 695.2243282524246 272.1962666666667 694.4520615857582 271.8208C576.8669949190914 217.1392000000001 448.0563282524247 217.1392000000001 329.0781949190914 271.8208C328.3059282524248 272.1706666666668 327.3877415857581 272.0512000000001 326.7247015857581 271.5008000000001C323.0895015857581 268.4842666666667 319.2725415857581 265.4890666666668 315.4649682524248 262.6176000000001C314.1469949190914 261.6277333333335 314.2562215857581 259.5669333333334 315.6919549190914 258.7264C333.8039549190914 248.2645333333334 352.6336082524247 239.0570666666668 372.4087549190914 231.5050666666666C373.6900349190914 231.0144 374.2988882524247 229.5381333333334 373.6627282524248 228.2837333333335C362.9755815857581 206.9674666666667 350.5071015857581 186.6965333333333 336.5303549190914 167.4666666666667C335.9215015857581 166.6901333333334 334.9218215857581 166.3317333333333 333.9767549190914 166.6261333333334C274.8608082524247 185.1306666666667 214.6180349190914 213.0389333333333 152.4394749190914 259.0208C151.9215015857581 259.4218666666668 151.5485949190914 260.0618666666667 151.4944082524247 260.7317333333334C138.8258215857581 397.2906666666668 164.6442749190914 535.5656533333333 258.8932349190914 677.32608C259.1206482524247 677.70112 259.4658215857581 677.99424 259.8660349190914 678.1678933333334C306.2408615857581 699.6027733333333 355.9236349190914 715.3723733333334 407.8511015857581 724.3780266666668C408.7961682524247 724.5243733333334 409.7412349190914 724.0853333333333 410.2319015857581 723.2430933333334C416.6481149190914 711.80288 423.9816615857581 697.13152 428.9416615857581 685.1421866666667C483.6787282524247 693.5620266666667 539.2691282524247 693.5620266666667 595.1496615857579 685.1421866666667C600.1117949190914 696.87552 607.1901949190915 711.80288 613.581661585758 723.2430933333334C613.8077949190913 723.6608 614.1619282524248 723.9957333333334 614.5885949190913 724.1992533333333C615.015261585758 724.4032 615.4973949190914 724.46592 615.9624615857581 724.3780266666668C667.917661585758 715.34464 717.5987282524247 699.5754666666667 763.9347282524247 678.1678933333334C764.3443282524247 677.99424 764.6813949190914 677.70112 764.8819282524246 677.2983466666667zM456.768861585758 417.6469333333335C457.3448615857581 458.0181333333334 428.1181949190914 491.4218666666667 391.4295549190914 491.4218666666667C355.0421415857581 491.4218666666667 326.0975015857581 458.3125333333334 326.0975015857581 417.6469333333335C326.0975015857581 376.9941333333334 355.6147282524248 343.8805333333334 391.4295549190914 343.8805333333334C427.8237949190914 343.8805333333334 456.768861585758 376.9941333333334 456.768861585758 417.6469333333335zM698.343261585758 417.6469333333335C698.9149949190914 458.0181333333334 669.6883282524248 491.4218666666667 633.0077949190913 491.4218666666667C596.6131282524248 491.4218666666667 567.6680615857581 458.3125333333334 567.6680615857581 417.6469333333335C567.6680615857581 376.9941333333334 597.184861585758 343.8805333333334 633.0077949190913 343.8805333333334C669.6883282524248 343.8805333333334 698.343261585758 376.9941333333334 698.343261585758 417.6469333333335z" />
    <glyph glyph-name="delete"
      unicode="&#xE911;"
      horiz-adv-x="1024" d="M298.6666666666667 64C275.2000000000001 64 255.1112533333334 72.3541333333333 238.4000000000001 89.0666666666666C221.6887466666667 105.7792 213.3333333333334 125.8666666666667 213.3333333333334 149.3333333333334V704H170.6666666666667V789.3333333333334H384V832H640V789.3333333333334H853.3333333333333V704H810.6666666666666V149.3333333333334C810.6666666666666 125.8666666666667 802.3125333333334 105.7792 785.6 89.0666666666666C768.8874666666667 72.3541333333333 748.8 64 725.3333333333333 64H298.6666666666667zM725.3333333333333 704H298.6666666666667V149.3333333333334H725.3333333333333V704zM384 234.6666666666668H469.3333333333334V618.6666666666667H384V234.6666666666668zM554.6666666666666 234.6666666666668H640V618.6666666666667H554.6666666666666V234.6666666666668z" />
    <glyph glyph-name="decision"
      unicode="&#xE910;"
      horiz-adv-x="1024" d="M170.6666666666667 405.3333333333334V490.6666666666667H494.9333333333333L708.2666666666667 704H597.3333333333333V789.3333333333334H853.3333333333333V533.3333333333334H768V644.2666666666667L529.0666666666666 405.3333333333334H170.6666666666667zM597.3333333333333 106.6666666666667V192H708.2666666666667L571.7333333333333 326.4000000000001L633.5999999999999 388.2666666666667L768 251.7333333333334V362.6666666666668H853.3333333333333V106.6666666666667H597.3333333333333z" />
    <glyph glyph-name="data-layer"
      unicode="&#xE90F;"
      horiz-adv-x="1024" d="M213.3333333333333 64C189.8666666666667 64 169.77792 72.3541333333333 153.0666666666667 89.0666666666666C136.3554133333333 105.7792 128 125.8666666666667 128 149.3333333333334V746.6666666666667C128 770.1333333333333 136.3554133333333 790.22208 153.0666666666667 806.9333333333334C169.77792 823.6445866666667 189.8666666666667 832 213.3333333333333 832H810.6666666666666C834.1333333333333 832 854.2208 823.6445866666667 870.9333333333334 806.9333333333334C887.6458666666667 790.22208 896 770.1333333333333 896 746.6666666666667V149.3333333333334C896 125.8666666666667 887.6458666666667 105.7792 870.9333333333334 89.0666666666666C854.2208 72.3541333333333 834.1333333333333 64 810.6666666666666 64H213.3333333333333zM213.3333333333333 604.8000000000001H810.6666666666666V746.6666666666667H213.3333333333333V604.8000000000001zM213.3333333333333 376.5333333333333H810.6666666666666V519.4666666666667H213.3333333333333V376.5333333333333zM213.3333333333333 149.3333333333334H810.6666666666666V291.2000000000001H213.3333333333333V149.3333333333334zM256 633.6V718.9333333333334H341.3333333333333V633.6H256zM256 405.3333333333334V490.6666666666667H341.3333333333333V405.3333333333334H256zM256 177.0666666666666V262.4H341.3333333333333V177.0666666666666H256z" />
    <glyph glyph-name="create-strategy"
      unicode="&#xE90E;"
      horiz-adv-x="1024" d="M853.3333333333333 106.6666666666667H170.6666666666667C147.2000000000001 106.6666666666667 127.1112533333334 115.0208 110.4 131.7333333333334C93.6887466666667 148.4458666666667 85.3333333333334 168.5333333333333 85.3333333333334 192V704C85.3333333333334 727.4666666666667 93.6887466666667 747.5554133333334 110.4 764.2666666666667C127.1112533333334 780.97792 147.2000000000001 789.3333333333334 170.6666666666667 789.3333333333334H597.3333333333333V704H170.6666666666667V192H853.3333333333333V490.6666666666667H938.6666666666666V192C938.6666666666666 168.5333333333333 930.3125333333334 148.4458666666667 913.6 131.7333333333334C896.8874666666667 115.0208 876.8 106.6666666666667 853.3333333333333 106.6666666666667zM256.0000000000001 277.3333333333334H554.6666666666666V405.3333333333334H256.0000000000001V277.3333333333334zM256.0000000000001 490.6666666666667H554.6666666666666V618.6666666666667H256.0000000000001V490.6666666666667zM640 277.3333333333334H768V490.6666666666667H640V277.3333333333334zM768 576V661.3333333333334H682.6666666666666V746.6666666666667H768V832H853.3333333333333V746.6666666666667H938.6666666666666V661.3333333333334H853.3333333333333V576H768z" />
    <glyph glyph-name="copy"
      unicode="&#xE90D;"
      horiz-adv-x="1024" d="M256.0000000000001 362.6666666666668V277.3333333333334H170.6666666666667C147.2000000000001 277.3333333333334 127.1112533333334 285.6874666666668 110.4 302.4000000000001C93.6887466666667 319.1125333333335 85.3333333333334 339.2000000000001 85.3333333333334 362.6666666666668V789.3333333333334C85.3333333333334 812.8 93.6887466666667 832.8887466666666 110.4 849.6C127.1112533333334 866.3112533333333 147.2000000000001 874.6666666666666 170.6666666666667 874.6666666666666H597.3333333333333C620.8 874.6666666666666 640.8874666666666 866.3112533333333 657.5999999999999 849.6C674.3125333333332 832.8887466666666 682.6666666666666 812.8 682.6666666666666 789.3333333333334V704H597.3333333333333V789.3333333333334H170.6666666666667V362.6666666666668H256.0000000000001zM426.6666666666667 21.3333333333334C403.2 21.3333333333334 383.1112533333334 29.6874666666666 366.4000000000001 46.4C349.6887466666668 63.1125333333333 341.3333333333334 83.2000000000001 341.3333333333334 106.6666666666667V533.3333333333334C341.3333333333334 556.8000000000001 349.6887466666668 576.8887466666667 366.4000000000001 593.6C383.1112533333334 610.3112533333333 403.2 618.6666666666667 426.6666666666667 618.6666666666667H853.3333333333333C876.8 618.6666666666667 896.8874666666667 610.3112533333333 913.6 593.6C930.3125333333334 576.8887466666667 938.6666666666666 556.8000000000001 938.6666666666666 533.3333333333334V106.6666666666667C938.6666666666666 83.2000000000001 930.3125333333334 63.1125333333333 913.6 46.4C896.8874666666667 29.6874666666666 876.8 21.3333333333334 853.3333333333333 21.3333333333334H426.6666666666667zM426.6666666666667 106.6666666666667H853.3333333333333V533.3333333333334H426.6666666666667V106.6666666666667z" />
    <glyph glyph-name="complete"
      unicode="&#xE90C;"
      horiz-adv-x="1024" d="M407.4662400000001 192L164.2662400000001 435.2000000000001L225.0662400000001 496L407.4662400000001 313.6L798.9337600000001 705.0675200000001L859.73376 644.26752L407.4662400000001 192z" />
    <glyph glyph-name="code"
      unicode="&#xE90B;"
      horiz-adv-x="1024" d="M409.6 294.4000000000001L469.3333333333333 355.1971555555556L376.5333333333334 448L469.3333333333333 540.8L409.6 601.6L256 448L409.6 294.4000000000001zM614.4 294.4000000000001L768 448L614.4 601.6L554.6666666666666 540.8L647.469511111111 448L554.6666666666666 355.1971555555556L614.4 294.4000000000001zM213.3333333333333 64C189.8666666666667 64 169.7780622222222 72.3569777777778 153.0669511111111 89.0652444444445C136.3552711111111 105.7792000000001 128 125.8666666666668 128 149.3333333333334V746.6666666666667C128 770.1333333333333 136.3552711111111 790.2219377777778 153.0669511111111 806.9330488888888C169.7780622222222 823.644728888889 189.8666666666667 832 213.3333333333333 832H810.6666666666666C834.1333333333332 832 854.2207999999999 823.644728888889 870.9347555555555 806.9330488888888C887.6430222222222 790.2219377777778 896 770.1333333333333 896 746.6666666666667V149.3333333333334C896 125.8666666666668 887.6430222222222 105.7792000000001 870.9347555555555 89.0652444444445C854.2207999999999 72.3569777777778 834.1333333333332 64 810.6666666666666 64H213.3333333333333zM213.3333333333333 149.3333333333334H810.6666666666666V746.6666666666667H213.3333333333333V149.3333333333334z" />
    </font>
</defs>
</svg>
