<svg width="80" height="80" viewBox="0 0 80 80" fill="none" xmlns="http://www.w3.org/2000/svg">
<g clip-path="url(#clip0_17272_15438)">
<path d="M40.0218 23.3782C48.2672 23.3782 55.1602 29.0933 56.9053 36.8152H72.349C72.349 18.9283 57.865 4.44434 40.0218 4.44434C22.1786 4.44434 7.651 18.9283 7.651 36.8152H23.0948C24.8834 29.1369 31.7764 23.3782 39.9782 23.3782H40.0218Z" fill="url(#paint0_linear_17272_15438)" fill-opacity="0.4"/>
<path d="M40.0219 58.0612C31.2529 58.0612 24.0109 51.5609 22.833 43.0973L7.65103 43.0537C7.56378 60.9406 21.9605 75.4682 39.8474 75.5554C57.7342 75.6427 72.2618 61.2459 72.3491 43.3591L57.1234 43.2718C55.9019 51.6481 48.6599 58.0612 39.9782 58.0612H40.0219Z" fill="url(#paint1_linear_17272_15438)" fill-opacity="0.4"/>
</g>
<defs>
<linearGradient id="paint0_linear_17272_15438" x1="49.0577" y1="-25.3219" x2="49.0577" y2="43.8847" gradientUnits="userSpaceOnUse">
<stop stop-color="white"/>
<stop offset="1" stop-color="white" stop-opacity="0"/>
</linearGradient>
<linearGradient id="paint1_linear_17272_15438" x1="49.0576" y1="13.1667" x2="49.0576" y2="82.654" gradientUnits="userSpaceOnUse">
<stop stop-color="white"/>
<stop offset="1" stop-color="white" stop-opacity="0"/>
</linearGradient>
<clipPath id="clip0_17272_15438">
<rect width="64.698" height="71.1111" fill="white" transform="translate(7.651 4.44434)"/>
</clipPath>
</defs>
</svg>
